<?xml version="1.0" encoding="UTF-8"?>
<svg id="Layer_1" data-name="Layer 1" xmlns="http://www.w3.org/2000/svg" viewBox="0 0 128 128">
  <defs>
    <style>
      .cls-1 {
        fill: #a48a7b;
      }

      .cls-1, .cls-2, .cls-3 {
        stroke-width: 0px;
      }

      .cls-2 {
        fill: #fff;
      }

      .cls-3 {
        fill: #683c11;
      }
    </style>
  </defs>
  <path class="cls-3" d="m91.86,4.7c.32.77.66,1.53.96,2.31.17.43.33.88.39,1.33.4,3.28,2.42,5.18,5.24,6.64,5.62,2.91,11.28,2.98,17.08.77,1.22-.47,2.45-.94,3.62-1.5,1.08-.52,1.66-.19,2.19.81.91,1.71.83,3.49.53,5.29-1.5,9.03-3.01,18.07-4.53,27.1-.27,1.62-.29,1.64,1.35,1.88.57.08,1.15.13,1.71.27.29.08.54.32.81.49-.24.25-.45.64-.73.72-2.38.61-4.77,1.2-7.18,1.72-1.39.3-2.79.56-4.21.7-1.18.12-1.5-.28-1.22-1.43,1.63-6.75,1.93-13.63,2.04-20.53.03-1.72-.08-1.78-1.76-1.49-4.99.85-9.82.54-14.36-1.93-3.11-1.69-5.44-4.14-7.03-7.28-.25-.49-.38-1.21-.22-1.73,1.35-4.41,2.78-8.8,4.19-13.2.1-.32.28-.62.42-.93.23,0,.46,0,.69,0Z"/>
  <path class="cls-1" d="m42.28,81.64c1.73-1.2,3.47-2.41,5.2-3.61-.22,2.08-25.21,25.86-27.84,26.78.24-.55.35-.96.57-1.3,3.09-4.74,6.26-9.43,9.27-14.22,1.11-1.77,2.04-3.7,2.73-5.67.31-.89.13-2.21-.31-3.08-4.52-8.92-7.73-18.26-9.49-28.1-1.2-6.73-1.63-13.52-1.55-20.35,0-.71.21-1.17,1.01-.92,4.82,1.49,9.62,1.23,14.48.1,3.17-.73,4.86.2,6.21,3.16,1.05,2.3,1.95,4.69,2.81,7.07.65,1.78,1.74,3.06,3.51,3.73,1.28.49,2,1.34,2.07,2.76.04.76.26,1.52.37,2.28.29,1.83-.88,3.26-2.73,3.37-.19.01-.39.02-.58-.01-3.72-.75-6.8.53-9.53,2.96-.72.64-1.51,1.19-2.26,1.79-1.94,1.55-2.2,1.54-4.13-.09-1.06-.89-2.12-1.78-3.19-2.67-.17-.14-.36-.25-.86-.58.24.8.33,1.31.53,1.76.91,2.03,1.87,4.05,2.79,6.08.32.7.82.98,1.57.86,1.37-.22,2.74-.42,4.11-.64,1.95-.32,2.99.28,3.98,1.99,1.46,2.52,3,5,4.58,7.46.55.86.6,1.61.08,2.46-1.07,1.74-2.12,3.48-3.17,5.23-.21.35-.38.72-.56,1.08l.32.36Z"/>
  <path class="cls-3" d="m23.28,89.87c-.45-.71-.75-1.14-1.01-1.6-7.08-12.52-11.62-25.93-14.1-40.07-2.03-11.53-2.62-23.17-2.52-34.86,0-1.14.46-1.64,1.5-1.39,1.66.4,3.4.74,4.92,1.48,3.89,1.9,7.88,3.32,12.24,3.4,1.53.03,3.07-.14,4.6-.31,1.03-.11,1.53-.8,1.55-1.83.02-1.39,0-2.78.07-4.16.02-.39.37-.75.56-1.13.33.27.81.47.96.81,1.68,3.8,3.31,7.62,4.95,11.43.29.67.6,1.33.89,2,.58,1.32.43,1.69-.89,2.16-4.25,1.53-8.63,1.87-13.09,1.37-1.56-.17-3.12-.46-4.65-.82-1.09-.26-1.56.13-1.81,1.14-.9,3.58-1.17,7.21-1.05,10.88.37,11.13,3.24,21.72,6.89,32.14,1.01,2.9,2.28,5.71,3.47,8.54.53,1.25.73,2.49.38,3.82-.68,2.55-2.3,4.56-3.84,6.97Z"/>
  <path class="cls-3" d="m63.32,118.64c-.18-.1-.74-.23-.9-.55-.16-.32-.07-.95.16-1.25.55-.73,1.35-1.28,1.85-2.04.55-.83,1.18-1.8,1.23-2.74.11-1.76.76-3.16,2.06-4.21,1.43-1.16,2.97-2.2,4.5-3.22,3.04-2.03,6.17-3.94,9.16-6.03,4.65-3.24,7.84-7.8,10.87-12.47,4.06-6.25,7.51-12.85,9.79-19.95,1.44-4.49,4.55-6.97,8.55-8.74,1.01-.45,2.1-.79,3.18-.99,1.34-.25,1.65.14,1.33,1.43-2.18,8.88-4.77,17.64-9.02,25.75-4.07,7.78-8.43,15.42-14.81,21.65-2.84,2.77-6.08,4.93-9.69,6.59-2.3,1.05-4.47,2.4-6.72,3.57-3.53,1.83-7.35,2.69-11.54,3.2Z"/>
  <path class="cls-1" d="m99.71,62.81c-.23.92-.34,1.82-.68,2.62-3.5,8.29-7.58,16.27-13.44,23.18-2.1,2.48-4.52,4.75-7.07,6.75-2.83,2.23-5.99,4.05-9,6.06-.56.37-1.02.48-1.43-.22-1.16-2-2.41-3.94-3.5-5.97-1.22-2.28.02-5.41,2.5-6.3,1.71-.61,2.88-1.72,3.69-3.28,1.7-3.28,3.37-6.57,5.13-9.82,1.06-1.95,1.54-4.01,1.59-6.19.05-2.39.11-4.78.1-7.16,0-1.15.45-1.7,1.62-1.75,2.11-.1,3.77-1.16,5.31-2.52,1.99-1.76,4.04-3.44,6.06-5.17.89-.75,1.79-.84,2.7-.07,2.38,2.01,4.37,4.35,5.65,7.21.37.83.51,1.76.75,2.63Z"/>
  <path class="cls-1" d="m84.08,26.01c1.31,1.07,2.63,2.13,3.92,3.22,4.41,3.73,9.41,5.74,15.28,5.32,2.16-.16,2.69.26,2.4,2.36-.72,5.18-1.56,10.34-2.43,15.49-.09.56-.71,1.32-1.21,1.43-.49.1-1.24-.4-1.67-.84-1.13-1.15-2.06-2.51-3.24-3.59-2.25-2.07-4.03-2.19-6.53-.45-2.62,1.83-5.15,3.79-7.69,5.73-1.66,1.27-2.56,1.22-3.69-.55-1.02-1.62-1.88-3.35-2.76-5.06-.5-.97-.24-1.85.45-2.66.8-.93,1.61-1.87,2.33-2.86,1.23-1.72,1.65-3.62,1.58-5.77-.06-1.81.21-3.68.69-5.43.57-2.06,1.51-4.03,2.31-6.03.11-.27.31-.5.47-.76-.07.15-.14.3-.21.45Z"/>
  <path class="cls-3" d="m30.3,108.97c.17-.59.19-.85.31-1.06,2.01-3.45,4.04-6.89,6.06-10.34.44-.75.97-.85,1.54-.15,3.39,4.15,7.64,7.36,11.7,10.76,1.58,1.33,2.21,2.73,1.6,4.73-.36,1.17-.52,2.4-.8,3.6-.25,1.07-.59,1.25-1.5.6-3.87-2.77-7.74-5.56-11.55-8.4-1.12-.83-2.24-1.6-3.65-1.41-.9.12-1.76.62-2.63.98-.28.12-.53.33-1.08.7Z"/>
  <path class="cls-2" d="m53.32,79.88c-.1.9-.08,1.48-.24,2-.94,3.13-1.87,6.27-2.9,9.37-.59,1.77-.43,3.4.36,5.03.62,1.28,1.26,2.55,1.88,3.83.39.81-.16,3.78-.82,4.33-.14.12-.42.14-.61.11-.17-.03-.35-.17-.48-.3-3.09-3.17-6.23-6.28-9.23-9.54-1.24-1.35-1.11-1.48-.07-2.94,3.04-4.28,7.01-7.66,10.77-11.25.25-.24.65-.31,1.34-.63Z"/>
  <path class="cls-2" d="m72.29,22.78c-1.55-.66-3.11-1.29-4.62-2.03-.22-.11-.34-.77-.25-1.11,1.14-4.41,2.48-8.74,5.06-12.57.21-.32.43-.64.68-.93.53-.61,1.01-.68,1.38.17,1.2,2.79,2.41,5.58,3.6,8.38.13.31.21.67.24,1.01.19,2.37-3.18,6.52-5.54,6.86-.15.02-.31.04-.46.06-.03.06-.05.12-.08.18Z"/>
  <path class="cls-2" d="m52.11,28.34c-1.71-1.21-3.07-2.36-4.59-3.2-2.11-1.17-2.71-2.82-2.33-5.1.28-1.7.33-3.44.49-5.17.12-1.3,1.16-2,2.02-1.12,2.14,2.21,4,4.7,5.95,7.09.08.1.09.31.06.45-.5,2.26-1.02,4.52-1.59,7.04Z"/>
  <path class="cls-2" d="m66.26,33.78c-.73,3.25-1.44,6.5-2.23,9.73-.07.28-.85.67-1.08.55-.58-.28-1.22-.72-1.51-1.27-1.07-1.99-2.02-4.05-2.98-6.1-.67-1.43-.3-3.21.97-4.15.98-.73,2.04-1.39,3.16-1.87,2.17-.92,3.3-.13,3.4,2.24.01.27,0,.54,0,.81l.27.06Z"/>
  <path class="cls-2" d="m51.31,67.27c-2.68-.46-4.95-1.47-6.44-3.62-.48-.69-.49-1.83-.43-2.75.06-1.09.4-2.18.67-3.25.18-.73.7-.87,1.42-.78,3.46.45,5.8,2.22,6.83,5.62.23.77.53,1.52.86,2.26.4.88.19,1.5-.71,1.84-.75.28-1.52.48-2.2.69Z"/>
  <path class="cls-2" d="m62.45,78.15c-.03-2.31.91-4.15,2.77-5.44,1.48-1.03,3.03-1.97,4.63-2.82.48-.25,1.37-.27,1.77.02.32.24.42,1.22.21,1.67-1.57,3.34-3.21,6.64-4.95,9.9-.22.41-1.14.71-1.66.62-1.04-.18-2.15-.54-2.46-1.78-.18-.7-.21-1.44-.31-2.16Z"/>
  <path class="cls-2" d="m62.96,101.57c-.22.83-.44,1.66-.67,2.49-.4,1.4-.78,2.81-1.22,4.2-.44,1.37-1.24,1.56-2.29.55-1.35-1.29-1.69-2.89-1.26-4.65.1-.41.4-.92.75-1.08,1.42-.65,2.89-1.18,4.34-1.75.11.08.22.16.33.24Z"/>
  <path class="cls-2" d="m60.44,57.95c0-.12,0-.23,0-.35.04-1.43.89-2.68,1.85-2.72.84-.03,2.22,1.45,2.29,2.59.11,1.84-.76,3.35-1.9,4.68-.61.7-1.47.43-1.74-.57-.32-1.18-.42-2.41-.61-3.63.04,0,.07-.01.11-.02Z"/>
  <path class="cls-2" d="m83.27,16.87c.7-2.47,1.35-4.76,2-7.05.27-.96.53-1.93.87-2.87.09-.24.48-.36.73-.54.08.26.29.56.23.79-.79,3.17-1.6,6.34-2.47,9.49-.09.32-.62.51-.95.76-.15-.22-.31-.44-.4-.58Z"/>
  <path class="cls-2" d="m59.74,90.74c.02,1.44-.54,2.26-1.26,2.2-.84-.07-1-.73-1.01-1.42-.02-.99.63-1.91,1.26-1.69.48.16.83.74,1,.91Z"/>
  <path class="cls-2" d="m54.62,71.8c.31.59.58.97.53,1.02-.53.52-1.11.98-1.7,1.43-.01.01-.45-.43-.42-.47.44-.6.92-1.16,1.59-1.98Z"/>
  <path class="cls-2" d="m59.18,114.01c.38-.36.64-.78.9-.78.25,0,.5.42.76.66-.25.25-.47.62-.76.71-.19.05-.5-.31-.89-.59Z"/>
</svg>