<?xml version="1.0" encoding="UTF-8"?>
<svg id="Layer_1" data-name="Layer 1" xmlns="http://www.w3.org/2000/svg" viewBox="0 0 128 128">
  <defs>
    <style>
      .cls-1 {
        fill: #e94e1b;
      }

      .cls-1, .cls-2, .cls-3, .cls-4 {
        stroke-width: 0px;
      }

      .cls-2 {
        fill: #e30613;
      }

      .cls-3 {
        fill: #e6332a;
      }

      .cls-4 {
        fill: #f39200;
      }
    </style>
  </defs>
  <path class="cls-2" d="m3.49,78.63c-1.46,1.67-1.95,3.6-1.43,5.6.52,2.01,1.28,3.99,2.13,5.89,1.2,2.7,1.75,5.4,1.25,8.39-.65,3.91.56,7.25,3.76,9.76.93.73,1.87,1.44,2.76,2.21.2.17.2.57.3.87-.28.03-.59.17-.82.08-3.89-1.53-7.28-6.71-7.17-10.9.05-1.75.3-3.52.07-5.23-.24-1.83-.63-3.77-1.49-5.37-2.42-4.5-2.55-9.13-.69-13.66,1.6-3.89,3.79-7.55,5.86-11.23,2.41-4.3,5.07-8.46,7.4-12.8,1.35-2.51,1.93-5.32,2.05-8.2.02-.44.53-.85.82-1.28.41.32,1.07.56,1.17.96.35,1.34.53,2.73.72,4.11.11.78.04,1.58.17,2.35.88,5.01,4.43,7.53,9.81,6.97,7.41-.76,14.82-7.14,16.5-14.4,1.29-5.59-.06-10.17-5.69-12.91-1.1-.53-2.17-1.13-3.21-1.77-4.3-2.66-5.63-6.48-3.87-11.25,1.63-4.42,4.7-7.73,8.35-10.55,5.68-4.4,12.05-5.4,18.96-3.83,1.57.36,3.18.55,4.79.69,2.06.17,3.73-.64,5.03-2.28.29-.37.8-.56,1.21-.83.17.5.51,1.01.47,1.5-.15,1.96-1.28,3.46-3.01,4.13-1.79.69-3.77.9-5.68,1.31-1.99.42-4.09.57-5.96,1.3-2.95,1.16-4.42,3.59-4.46,6.79-.05,3.27,1.28,5.94,4.32,7.17,2.43.98,5.11,1.37,7.7,1.89,1.88.38,3.81.49,5.7.85,6.43,1.22,9.93,5.94,8.35,12.78-1.17,5.09-3.64,9.54-6.65,13.69-3.82,5.27-7.83,10.41-11.78,15.58-.2.27-.68.32-1.03.47-.03-.39-.18-.82-.08-1.18,1.09-3.73,2.25-7.43,3.31-11.17.28-.99.31-2.07.33-3.11,0-.36-.32-.91-.62-1.02-.28-.1-.78.22-1.09.47-.37.3-.68.69-.93,1.09-1.98,3.07-4.77,4.32-8.42,4.66-6.39.61-12.54,2.36-17.95,6.01-4.61,3.1-8.09,7.06-8.91,12.83-.08.56-.23,1.11-.33,1.67-.42,2.34-1.42,4.37-3.11,6.08-1.94,1.96-3.87,3.93-5.67,6.01-4.01,4.66-4.32,8.39-1.43,13.82.41.77.53,1.81.45,2.7-.08.87-.83,1.1-1.56.5-3.38-2.83-6.12-6.03-6.16-10.77-.03-2.82-.89-5.41-2.15-7.89-1.5-2.96-3.12-5.9-2.38-9.51ZM35.72,16.09c-.2.19-.36.27-.44.41-2.22,4.02-.88,8.57,3.18,10.76,1.38.74,2.83,1.37,4.17,2.17,3.01,1.79,4.91,4.38,5.44,7.91.04.28.18.54.33.98.2-.33.36-.49.41-.67,1.17-4.49-.33-8.59-4.14-11.25-1.72-1.2-3.51-2.29-5.19-3.54-2.04-1.51-3.49-3.41-3.52-6.11,0-.19-.14-.37-.24-.65Z"/>
  <path class="cls-1" d="m101.96,90.2c.34-.14.71-.23,1.02-.42,3.71-2.16,6.74-4.96,8.41-9.04.69-1.7,1.45-3.37,2.27-5.01,1.16-2.31,2.86-4.18,5.02-5.6.27-.18.68-.13,1.03-.19-.14.35-.17.85-.43,1.03-3.13,2.21-5.02,5.25-6.24,8.83-1.85,5.42-5.59,9.21-10.69,11.65-2.95,1.41-6,2.62-8.99,3.94-2.33,1.03-4.56,2.23-6.3,4.15-1.29,1.42-2.28,2.95-1.35,4.95.93,1.99,2.63,2.96,4.73,2.95,1.36,0,2.72-.52,4.08-.76.48-.08,1.25-.22,1.41,0,.27.38.36,1.13.15,1.55-.55,1.12-1.15,2.29-1.99,3.2-6.94,7.47-15.23,12.87-25.23,15.14-16.39,3.72-31.15,0-44.26-10.43-.72-.57-1.46-1.13-2.06-1.81-.93-1.07-.56-2.36.83-2.56,1.06-.15,2.24.08,3.27.42,1.15.37,2.17,1.12,3.29,1.6,1.97.86,3.74.55,4.94-.76,1.17-1.28,1.37-3.2.26-5-1.82-2.96-4.25-5.06-8.02-5.06-2.49,0-4.86-.56-6.93-2.03-3.11-2.2-3.61-6.08-1.05-8.89,1.62-1.77,3.39-3.4,5.15-5.05.92-.86,2.15-.6,2.51.59.74,2.45,2.28,4.2,4.13,5.91,1.04.96,1.6,2.57,2.08,3.98.74,2.22,2.23,3.21,4.45,3.42.95.09,1.41-.24,1.4-1.21,0-.57-.13-1.19.07-1.69.19-.49.65-1.07,1.1-1.18.33-.08,1.06.47,1.19.88.32.98.49,2.03.55,3.07.14,2.22.11,4.45.27,6.67.13,1.71.94,3.18,2.17,4.37.36.35.96.46,1.45.68.21-.49.56-.96.59-1.46.08-1.39-.05-2.8.05-4.19.07-.85.35-1.7.69-2.49.13-.3.74-.65,1.03-.58.37.09.84.54.93.91.82,3.42,1.64,6.85,2.3,10.31.53,2.76,3.78,4.22,5.99,2.46.53-.43.79-1.41.87-2.16.24-2.34.27-4.7.51-7.04.09-.84.47-1.69.88-2.44.51-.92,1.22-.89,1.61.09.4,1,.55,2.1.83,3.15.21.8.37,1.63.69,2.38.58,1.37,1.55,1.66,2.87.97,1.18-.62,1.84-1.66,2.01-2.91.33-2.38.39-4.8.83-7.15.31-1.68.97-3.32,1.66-4.9.19-.45,1.01-.89,1.52-.86.35.02.73.82.95,1.34.19.47.19,1.03.25,1.55.18,1.42.57,1.74,1.9,1.19,3.04-1.26,5.81-3.01,7.42-5.97,1.98-3.64,4.96-6.17,8.4-8.25,2.5-1.51,5.05-2.96,7.61-4.37,2.58-1.42,4.61-3.4,6.38-5.73,1.32-1.73,2.68-3.48,4.29-4.92,1.05-.94,2.57-1.38,3.91-1.98.23-.1.75.06.89.27.12.17-.03.69-.22.88-2.28,2.29-3.52,5.17-4.7,8.1-.81,2.02-1.57,4.1-2.67,5.97-.93,1.59-2.3,2.93-3.49,4.37-.23.28-.49.52-.73.79.09.12.17.23.26.35Z"/>
  <path class="cls-3" d="m101.27,30.97c.45.34,1.03.57,1.09.89.07.4-.16,1.03-.48,1.31-1.29,1.1-2.75,2.02-4.01,3.16-2.59,2.35-4.15,5.26-4.23,8.84-.05,2.31.77,4.28,2.46,5.85.9.83,1.86,1.59,2.8,2.37,5.43,4.57,6.63,11.78,2.91,17.83-2.83,4.61-7.04,7.56-11.88,9.72-.88.39-1.73.87-2.64,1.13-.46.14-1.18.05-1.51-.24-.22-.2-.09-.97.08-1.41.23-.6.69-1.11.98-1.69,2.23-4.46,1.41-8.55-1.57-12.34-2.01-2.56-4.59-4.4-7.51-5.79-1.95-.92-2.15-1.86-1.03-3.71,2.54-4.18,4.99-8.41,7.53-12.59,2.81-4.62,6.15-8.74,11.17-11.11,1.84-.87,3.81-1.46,5.81-2.22Z"/>
  <path class="cls-4" d="m63.01,79.99c.19-3.2,2.21-6.13,5.42-8.26,1.48-.98,3.42-.6,5.04.86,2.42,2.19,3.41,5.13,3.96,8.21.69,3.79-1.53,7.24-5.28,8.1-1.24.28-2.73.16-3.93-.26-2.76-.97-5.24-4.93-5.21-8.65Z"/>
  <path class="cls-4" d="m48.56,79.77c.25,3.55-4.35,8.33-6.96,8.85-2.3.47-4.07-.29-5.07-2.63-1.65-3.87-1.04-7.58,1.11-11.11.05-.07.11-.14.16-.21,2.49-3.59,5.16-3.98,8.67-.28,1.36,1.43,2.08,3.53,2.09,5.37Z"/>
  <path class="cls-4" d="m52.88,98.56c-.08-.79-.29-1.59-.23-2.37.21-2.93.7-5.8,2.01-8.47.23-.46.74-.79,1.12-1.17.36.39.91.73,1.04,1.19.79,2.84,1.54,5.7,2.19,8.58.16.69-.11,1.48-.18,2.23-.15.05-.3.11-.46.16-.5-.55-1-1.09-1.48-1.65-1.02-1.19-1.71-1.14-2.51.18-.3.49-.63.96-.95,1.44-.19-.04-.37-.08-.56-.12Z"/>
  <path class="cls-4" d="m115.41,30.82c.46.29,1.52.61,1.83,1.28.28.6-.03,1.77-.49,2.36-1.54,1.96-3.68,3.13-6.14,3.37-.85.08-2.04-.41-2.57-1.05-.3-.35.24-1.72.74-2.37,1.55-1.99,3.59-3.29,6.63-3.6Z"/>
  <path class="cls-4" d="m28.64,36.69c-.34,1.21-.53,2.49-1.06,3.6-.74,1.53-2.27,1.55-3.15.12-1.51-2.46-1.78-5.08-.73-7.78.35-.9.97-1.93,2.07-1.63.75.2,1.58.97,1.89,1.7.52,1.21.66,2.59.98,4Z"/>
  <path class="cls-4" d="m18.68,115.94c-.16.1-.43.4-.72.43-.93.09-2.48-1.26-2.33-2.05.05-.28.53-.68.82-.7.9-.03,2.26,1.3,2.24,2.32Z"/>
  <path class="cls-4" d="m126.49,64.94c.12.14.58.42.63.75.1.69-1.53,1.88-2.44,1.77-.3-.04-.76-.44-.8-.72-.09-.72,1.35-1.78,2.61-1.8Z"/>
  <path class="cls-4" d="m35.72,16.09c.11.27.24.46.24.65.03,2.7,1.49,4.6,3.52,6.11,1.68,1.25,3.47,2.34,5.19,3.54,3.81,2.66,5.31,6.76,4.14,11.25-.05.19-.2.34-.41.67-.15-.43-.29-.7-.33-.98-.53-3.52-2.43-6.12-5.44-7.91-1.35-.8-2.79-1.43-4.17-2.17-4.06-2.18-5.4-6.74-3.18-10.76.07-.14.24-.22.44-.41Z"/>
</svg>