<?xml version="1.0" encoding="UTF-8"?>
<svg id="Layer_1" data-name="Layer 1" xmlns="http://www.w3.org/2000/svg" viewBox="0 0 756.9 854.63">
  <defs>
    <style>
      .cls-1 {
        fill: #d4b55a;
        stroke-width: 0px;
      }
    </style>
  </defs>
  <path class="cls-1" d="m1.66,486.18v-94.22h161.72C109.1,297.91,55.95,205.82,2.14,112.59h754.53c-53.58,92.83-106.73,184.93-160.92,278.8h161.15v94.78h-10.69c-64.89,0-129.78.13-194.67-.18-7.68-.04-11.91,2.1-15.85,8.98-49.48,86.35-99.35,172.49-149.12,258.67-1.99,3.45-4.08,6.83-7.08,11.84-2.34-3.82-4.19-6.71-5.91-9.68-50.26-86.97-100.57-173.91-150.6-261.02-3.66-6.38-7.55-8.83-15.01-8.8-64.89.31-129.78.18-194.67.18H1.66ZM166.09,206.68c1.01,2.25,1.41,3.39,2,4.41,33.61,58.25,67.32,116.44,100.7,174.82,3.15,5.51,7.21,5.59,12.23,5.59,65.49-.05,130.97-.13,196.46.12,6.68.03,10.38-1.98,13.73-7.86,32.16-56.25,64.65-112.31,97.03-168.43,1.48-2.57,2.79-5.25,4.58-8.65H166.09Zm265.34,280.28h-104.06c17.54,30.32,34.43,59.53,52.07,90.03,17.79-30.81,34.59-59.91,51.99-90.03Z"/>
</svg>