<?xml version="1.0" encoding="UTF-8"?>
<svg id="Layer_1" data-name="Layer 1" xmlns="http://www.w3.org/2000/svg" viewBox="0 0 512 512">
  <defs>
    <style>
      .cls-1 {
        fill: #d4b55a;
        stroke-width: 0px;
      }
    </style>
  </defs>
  <path class="cls-1" d="m256,512c-30.51,0-58.31-7.4-83.43-22.2-25.12-14.8-45.08-34.75-59.88-59.88-14.8-25.11-22.2-52.92-22.2-83.43s7.06-56.74,21.19-81.41c14.13-24.66,33.07-44.4,56.85-59.21-17.94-14.35-31.28-30.71-40.03-49.11-8.75-18.38-13.12-38.79-13.12-61.22,0-18.39,3.13-35.54,9.42-51.47,6.27-15.92,15.69-30.61,28.26-44.07l38.35,39.69c-7.18,8.53-12.45,17.39-15.81,26.57-3.36,9.2-5.05,18.96-5.05,29.27,0,15.25,3.59,29.38,10.77,42.39,7.17,13.02,17.26,23.44,30.28,31.29,13,7.85,27.8,11.77,44.4,11.77s31.96-3.92,44.74-11.77c12.79-7.84,22.76-18.27,29.94-31.29,7.17-13,10.76-27.13,10.76-42.39,0-10.31-1.68-20.07-5.05-29.27-3.36-9.19-8.64-18.05-15.81-26.57L358.94,0c12.55,13.45,21.97,28.15,28.26,44.07,6.27,15.93,9.42,33.08,9.42,51.47,0,22.43-4.37,42.84-13.12,61.22-8.75,18.4-22.1,34.76-40.03,49.11,23.77,14.8,42.72,34.54,56.85,59.21,14.13,24.67,21.19,51.81,21.19,81.41s-7.4,58.31-22.2,83.43c-14.8,25.12-34.77,45.08-59.88,59.88-25.12,14.8-52.93,22.2-83.43,22.2Zm0-55.17c20.18,0,38.69-4.93,55.51-14.8,16.82-9.86,30.16-23.21,40.03-40.03,9.86-16.82,14.8-35.32,14.8-55.51s-4.94-39.24-14.8-55.84c-9.87-16.59-23.21-29.82-40.03-39.69-16.82-9.86-35.32-14.8-55.51-14.8s-38.58,4.94-55.17,14.8c-16.6,9.87-29.94,23.11-40.03,39.69-10.09,16.6-15.14,35.22-15.14,55.84s5.05,38.68,15.14,55.51c10.09,16.82,23.43,30.17,40.03,40.03,16.59,9.87,34.98,14.8,55.17,14.8Z"/>
</svg>