<?xml version="1.0" encoding="UTF-8"?>
<svg id="Layer_1" data-name="Layer 1" xmlns="http://www.w3.org/2000/svg" viewBox="0 0 512 512">
  <defs>
    <style>
      .cls-1 {
        fill: #d4b55a;
        stroke-width: 0px;
      }
    </style>
  </defs>
  <path class="cls-1" d="m224.18,512v-149.22h-75.67v-37.48h75.67v-97.59c-34.42-4.71-64.6-17.21-90.52-37.48-25.93-20.26-45.97-46.67-60.11-79.2C59.4,78.5,52.33,41.49,52.33,0h57.99c0,54.22,12.61,97.59,37.84,130.12,25.22,32.53,61.17,48.8,107.85,48.8s82.03-16.26,107.49-48.8c25.46-32.53,38.19-75.9,38.19-130.12h57.99c0,41.49-7.07,78.5-21.22,111.03-14.14,32.53-34.07,58.94-59.76,79.2-25.7,20.28-55.99,32.77-90.87,37.48v97.59h75.67v36.77h-75.67v149.92h-63.65Z"/>
</svg>