<?xml version="1.0" encoding="UTF-8"?>
<svg id="Layer_1" data-name="Layer 1" xmlns="http://www.w3.org/2000/svg" viewBox="0 0 128 128">
  <defs>
    <style>
      .cls-1 {
        fill: #c68240;
        stroke-width: 0px;
      }
    </style>
  </defs>
  <path class="cls-1" d="m44.58,93.53c-.16-.42-.33-.83-.49-1.25-1.48-3.79-3.27-7.48-4.37-11.38-2.79-9.85.28-18.12,8.86-24.35,2.64-1.91,5.57-3.42,8.36-5.12.45-.27.88-.56,1.32-.84l-.09-.29c-.29,0-.6-.08-.85.01-2.25.8-4.49,1.63-6.73,2.45-.41.15-.82.32-1.23.47-.07-.08-.14-.15-.21-.23.19-.44.35-.9.56-1.33,3.65-7.4,5.68-15.16,5.17-23.47-.37-5.99-2.1-11.55-5.18-16.71-.26-.44-1.06-.95-.19-1.53.9-.61,1.48-.47,2.02.59.96,1.91,1.84,3.87,2.76,5.81.12.25.27.48.4.72.1-.01.2-.03.31-.04,0-.32.06-.65,0-.95-.42-1.95-.82-3.9-1.31-5.83-.29-1.13-.28-1.32.87-1.4,4.2-.3,3.23-.88,4.17,2.89.96,3.84,1.62,7.75,2.45,11.62.17.77.41,1.56.76,2.25.47.92,1.25,1.08,2.1.51.48-.32.96-.7,1.28-1.17,2.04-2.91,5.05-4.16,8.35-4.62,3.45-.48,6.94-.6,10.42-.84.32-.02.79.13.93.35.12.19-.07.68-.27.93-2.11,2.73-4.78,4.77-7.83,6.31-.38.19-.86.35-1.25.29-2.84-.44-4.84.94-6.26,3.12-1.93,2.98-3.79,6.03-5.38,9.21-.87,1.75-1.31,3.77-1.62,5.73-.54,3.43,1.04,5.99,4.24,7.38.47.2.92.43,1.38.64,2.43,1.11,3.63,2.87,3.48,5.68-.21,3.98-.44,7.91-2.01,11.64-1.48,3.52-3.76,6.22-7.31,7.86-2.74,1.26-5.37,2.75-8.04,4.15-1.27.67-2.26,1.63-2.66,3.03-.12.42.12.94.19,1.42.36-.18.79-.29,1.08-.55,2.52-2.31,5.3-4.18,8.55-5.33,1.94-.69,2.72-.13,2.27,1.86-.5,2.26-.99,4.58-1.93,6.67-1.72,3.82-2.48,7.81-2.89,11.91-.22,2.21-.3,4.43-.45,6.64-.08,1.18-.8,1.63-1.85,1.09-9.72-4.94-17.29-12.01-21.59-22.19-3.79-8.97-3.54-18.09-.43-27.17,1.01-2.94,2.16-5.91,3.75-8.57,2.99-4.99,3.14-10.11,1.43-15.42-.87-2.69-1.97-5.31-3-7.95-.56-1.43-.52-1.9.9-2.51,2.29-.99,4.65-1.83,6.99-2.68.33-.12.76,0,1.14,0-.04.37,0,.76-.14,1.1-1.25,3.26-1.23,6.66-.82,10.02.47,3.89,1.36,7.73,1.89,11.61.32,2.33.32,4.7.45,7.06.06,1.05-.45,1.82-1.29,2.37-7.09,4.67-10.62,17.35-9.07,24.52,1.05,4.84,2.93,9.28,6.33,12.97.37.4.81.74,1.22,1.11l.37-.29Zm7.71-1.95c-.41-.46-.78-1.25-1.23-1.3-.79-.09-1.11.69-1.08,1.44.03.71.01,1.6,1.04,1.58.9-.02,1.01-.77,1.27-1.72Zm21.13-10.46c.25.47.46.95.74,1.4,1.34,2.16,3.37,3.6,5.39,5.03,2.9,2.06,5.3,4.53,6.81,7.8.15.32.53.54.8.81.21-.34.51-.66.61-1.03.96-3.49,1.71-7.06,2.88-10.48,1.06-3.11,1.22-6.1.1-9.16-1.34-3.67-3.57-6.81-5.88-9.91-1.25-1.68-2.31-3.47-2.73-5.53-.89-4.43-1.03-8.9-.13-13.33,1.11-5.48,4.09-10.02,7.9-13.96,2.65-2.73,5.6-5.18,8.51-7.65.91-.77,1.31-1.49.89-2.61-.42-1.12-.74-2.29-1.25-3.36-1.18-2.45-1.93-2.78-4.2-1.29-2.6,1.71-4.99,3.74-7.45,5.66-2.71,2.13-5.33,4.39-8.1,6.43-1.52,1.12-3.32,1.62-5.28,1.18-.22-.05-.62.07-.72.24-1.09,1.84-2.18,3.69-3.19,5.58-.38.7-.22,1.41.51,1.91,1.7,1.15,2.57,2.84,3.01,4.77,1.21,5.29,2.04,10.64,2.27,16.07.19,4.47-.38,8.85-1.38,13.19-.27,1.15-.36,2.32.47,3.33,2.48,3.02,5.37,4.92,9.49,3.52.57-.19.82.03.86.6.03.33.1.65.14.97.17,1.41-.14,1.83-1.54,2.11-3.07.61-5.83-.1-8.33-1.96-.29-.22-.61-.4-.92-.6-.09.09-.19.18-.28.27Zm2.11,22.78c-.52-.33-1.11-.59-1.54-1.01-2.27-2.23-2.89-4.96-2.25-8.01.31-1.49.76-2.95,1.09-4.44.5-2.29.27-4.41-1.16-6.43-.89-1.25-1.39-2.78-2.13-4.16-.21-.4-.63-.69-.95-1.03-.3.36-.75.68-.88,1.09-1.4,4.69-2.78,9.4-4.1,14.11-.62,2.19-.31,4.2.9,6.25,1.25,2.1,2.1,4.45,3,6.74.23.58-.05,1.35-.1,2.03-.53-.43-1.19-.78-1.56-1.32-1.09-1.63-2.05-3.35-3.1-5-.16-.26-.55-.38-.83-.56-.18.28-.5.56-.52.84-.1,2.42-.39,4.87-.16,7.27.37,3.87,2.24,6.91,6.05,8.35,1.31.49,2.73.76,4.13.92,5.62.65,9.34-1.65,10.9-7.09.9-3.12,1.5-6.37,1.77-9.61.47-5.67-1.86-10.1-6.72-13.13-.51-.32-1.04-.59-1.67-.94-2.05,5.08-2.35,9.97.25,14.87-.14.09-.28.17-.42.26Zm21.56-35.49c1.48-1.03,2.5-2.45,2.44-4.27-.05-1.72-.35-3.46-.74-5.14-.53-2.29-1.4-4.52-1.86-6.82-.62-3.08.63-4.92,3.64-5.84.24-.07.49-.13.74-.18.77-.14,1.03-.59.84-1.34-.22-.92-.43-1.84-.64-2.76-.17-.77-.55-1.09-1.4-.9-2.11.47-3.94,1.45-5.64,2.74-.22.17-.57.18-.86.27-.05-.33-.24-.73-.13-.98.36-.78.72-1.63,1.3-2.24,1.3-1.36,2.71-2.62,4.14-3.86.67-.58.8-1.06-.02-1.5-1.08-.58-2.17-1.18-3.33-1.57-.46-.16-1.28.03-1.63.38-3.28,3.25-6.03,6.88-7.77,11.21-3.83,9.52,1.01,18.48,7.47,22.32.67.4,1.44.64,2.2.97.46-.18.9-.26,1.24-.49Zm-17.22-60.07c-2.52,0-5.04,0-7.56.01-.27,0-.55.17-.81.3-4.18,2.04-7.09,7.24-6.66,11.88.1,1.07.46,1.2,1.41.7,1.4-.74,2.87-1.36,4.27-2.11.33-.18.69-.67.69-1.02,0-1.86.74-3.38,1.93-4.73,1.62-1.83,3.66-3.08,5.8-4.19.35-.18.69-.4,1.03-.6-.03-.08-.06-.16-.1-.25ZM31.24,59.84c.62-1.47,1.27-2.94,1.8-4.44.62-1.77.36-3.51-.82-4.94-1.85-2.24-3.84-4.37-5.78-6.54-.59-.66-1.08-.43-1.43.27-.43.84-.85,1.69-1.27,2.54-.64,1.3-.54,1.8.56,2.74,3.12,2.65,5.19,5.95,6.08,9.96.06.29.18.56.32,1.02.29-.31.47-.44.55-.61ZM102.44,14.79c-.54-.77-1.21-.82-2.16-.24-.76.46-.43,1.02-.19,1.6.72,1.7,1.44,3.39,2.11,5.11.23.59.42,1.17,1.17.94.68-.21,1.45-.45,1.27-1.46-.31-2.13-.93-4.16-2.19-5.94Z"/>
</svg>