<?xml version="1.0" encoding="UTF-8"?>
<svg id="Layer_1" data-name="Layer 1" xmlns="http://www.w3.org/2000/svg" viewBox="0 0 128 128">
  <defs>
    <style>
      .cls-1 {
        fill: #71c6a5;
        stroke-width: 0px;
      }
    </style>
  </defs>
  <path class="cls-1" d="m82.09,99.83c1.69,3.91,3.3,7.65,5.13,11.9-3,0-5.4.2-7.74-.1-.95-.12-1.98-1.2-2.61-2.09-4.76-6.76-9.49-13.54-14.11-20.4-1.1-1.64-2.09-1.98-3.95-1.29-4.77,1.78-9.69,2.79-14.81,1.55-5-1.21-8.26-4.69-8.91-9.5-.44-3.26.29-6.32,3.11-8,4.19-2.5,8.51-5.19,13.14-6.46,9.18-2.53,17.45-6.29,24.99-12.26,10.57-8.36,24.47-8.98,35.14-2.44,5.41,3.32,8.64,8.06,9.24,14.46.74,7.87-2.94,14.04-10.31,16.96-1.93.76-2.77,1.77-3.18,3.82-1.51,7.65-6.39,12.01-14.61,13.12-3.44.46-6.94.5-10.54.74Zm30.62-30.62c-.44-7.89-7.52-12.99-15.52-11.73-1.38.22-3.07.23-4.26-.37-5.39-2.72-11.19-1.94-15.97,2.62,4.46-1.19,8.75-2.96,13.01.12-1.33,1.5-2.51,2.62-3.44,3.92-3.11,4.35-2.92,9.27.4,12.76,3.46,3.65,8.64,2.96,10.09-1.77.96-3.13.66-6.67.75-10.03.03-1.13-.5-2.28-.77-3.42,6.78-1.47,10.8.53,15.7,7.9Zm-76.5-.9c3.79-2.22,7.68-4.74,11.86-5.73,9.72-2.31,18.26-6.49,26.26-12.48,11.55-8.65,24.11-10.18,37.2-3.2.52.28,1.07.48,1.66.75.6-9.83-9.59-17.96-19.3-15.31-3.58.98-6.94,2.72-10.43,4.01-2.55.94-5.11,1.95-7.75,2.47-3.63.72-6.84-.47-9.12-3.46-2.33-3.06-2.3-6.47-.45-9.68,1.08-1.87,2.74-3.42,4.21-5.06.48-.53,1.16-.87,2.02-1.5-8.5-3.74-16.52-3.84-24.75-.49-3.3,1.35-6.87,2.2-10.4,2.75-8.34,1.3-14.09,5.74-17.18,13.5-2.27,5.7-.81,10.35,3.83,13.21,4.75,2.93,10.6,2.1,14.64-2.16-.61-.65-1.27-1.26-1.82-1.96-2.63-3.36-3.37-7.09-1.75-11.08,1.67-4.11,5.93-4.93,9.04-1.76,2.71,2.75,3.36,6.11,2.43,9.8-.28,1.13-.65,2.24-1.02,3.49,6.04,1.95,10.97-.51,15.92-3.01-2.57,3.2-5.87,5.73-9.76,6.03-5.93.46-11.11,2.44-16.57,4.64-10.23,4.12-18.47-1.9-18.94-12.81-.01-.32-.15-.64-.28-1.13-8.76,9.05-10.93,19.78-5.95,28.61,4.38,7.77,12.66,11.3,22.04,9.17-.06-3.47,1.67-6.04,4.36-7.61Zm40.23-47.66c-3.14.53-5.53,2.42-7.09,5.2-2.68,4.79-.11,9.49,5.36,9.52,2.05.01,4.18-.62,6.15-1.3,5.94-2.07,11.81-4.31,17.81-6.52-5.93-5.89-13.46-8.38-22.22-6.9Zm-33.12,14.48c-.08-1.11-1.98-2.09-3.06-3.13-.98,1.22-2.62,2.35-2.81,3.69-.39,2.81,1.32,4.92,4.72,7.11.5-2.94,1.3-5.33,1.14-7.66Zm48.92,27.86c-1.6,2.32-3.51,4.49-4.69,7.01-.88,1.87-.38,4.06,2,4.96,1.99.76,4.25-.49,4.59-3.08.36-2.76-.06-5.62-.14-8.44-.58-.15-1.17-.31-1.75-.46Z"/>
</svg>