<?xml version="1.0" encoding="UTF-8"?>
<svg id="Layer_1" data-name="Layer 1" xmlns="http://www.w3.org/2000/svg" viewBox="0 0 1024 1024">
  <defs>
    <style>
      .cls-1 {
        fill: #7f7f7f;
        stroke-width: 0px;
      }
    </style>
  </defs>
  <path class="cls-1" d="m252.31,375.07c1.37,67.21,10.11,141.91,24.31,216.07,5.33,27.85,13.18,54.45,32.66,75.9,49.13,54.08,104.56,100.19,169.36,134.77,22.76,12.15,43.77,11.99,66.39-.09,64.47-34.42,119.64-80.35,168.61-134.07,15.31-16.8,24.77-36.96,29.46-59.16,21.32-100.8,30.83-202.7,28.03-305.72-.41-15-7.3-20.82-22.34-19.17-82.44,9.07-158.24-7.6-225.17-58.34-8.24-6.25-15.92-6.14-24.13.11-67.2,51.14-143.39,67.52-226.17,58.19-13.56-1.53-20.81,4.55-20.96,18.43-.24,21.58-.06,43.17-.06,73.07Zm675.03-153.86c0-24.95.34-49.37-.29-73.77-.12-4.77-3.96-9.45-6.09-14.16-4.18,2.54-9.51,4.17-12.35,7.77-27.13,34.47-53.37,69.64-80.88,103.8-10.69,13.28-15.19,26.96-14.37,43.86,4.96,102.64-4.68,204.18-23.42,305.06-7.09,38.17-18.49,74.13-45.32,103.4-56.44,61.57-120.15,113.76-195.9,150.08-11,5.27-15.9,12.63-15.77,24.8.38,33.62-.19,67.25.42,100.86.11,5.98,2.52,13.66,6.69,17.4,6.29,5.63,13.14.18,18.95-4.05,38.03-27.68,76.5-54.79,114-83.18,63.55-48.09,124.71-99,179.15-157.51,18.35-19.72,30.68-42.4,33.92-69.29,4.32-35.81,8.61-71.64,11.75-107.56,10.13-115.93,19.72-231.91,29.49-347.5Zm-717.16,122.69c0-20.52-.36-41.05.13-61.55.31-12.69-3.4-23.36-11.2-33.31-28.16-35.91-55.88-72.17-84.14-108-2.84-3.6-8.17-5.23-12.35-7.78-2.12,4.72-6.28,9.55-6.04,14.15,4.69,89.03,8.88,178.1,15.32,267.01,5.11,70.54,12.91,140.89,19.92,211.29,2.21,22.14,4.33,44.44,8.99,66.13,6.45,29.98,27.36,51.29,48.22,72.2,84.85,85.07,181,156.09,279.3,224.38,3.88,2.7,11.61,3.84,15.29,1.75,3.75-2.13,6.53-9.13,6.61-14.05.54-35.03.09-70.08.4-105.11.1-11.35-4.62-18.5-14.74-23.31-74.24-35.31-136.76-86.17-192.66-145.75-22.28-23.75-37.32-51.41-44.23-83.27-19.64-90.54-29.5-182.17-28.83-274.79Zm97.58-100.33c77.08-1.3,138.74-21.88,188.48-72.67,9.83-10.04,21.26-9.18,31.9.52,10.17,9.27,20.1,19.04,31.34,26.85,63.3,43.95,133.65,52.63,207.72,39.02,8.25-1.52,17.31-7.57,22.71-14.19,26.6-32.6,52.22-66,77.76-99.45,2.48-3.25,1.97-8.77,2.85-13.23-4.44-.77-9.34-3.17-13.25-2.06-33.08,9.42-66.55,16.33-100.97,18.32-85.66,4.94-160.46-19.67-221.56-81.44-18.36-18.56-27.56-18.63-45.93.03-47.32,48.06-104.66,74.64-171.8,80.72-51.19,4.64-100.73-3.42-149.73-17.36-4.26-1.21-9.51,1.08-14.3,1.74,1.09,4.74.81,10.53,3.5,14.06,25.07,32.91,50.64,65.45,76.11,98.06,7.07,9.06,16.35,14.5,27.79,15.84,18.23,2.13,36.49,4.05,47.38,5.24Z"/>
  <path class="cls-1" d="m252.31,375.07c0-29.9-.18-51.49.06-73.07.16-13.88,7.4-19.96,20.96-18.43,82.78,9.32,158.97-7.05,226.17-58.19,8.21-6.24,15.89-6.35,24.13-.11,66.93,50.74,142.73,67.41,225.17,58.34,15.04-1.65,21.93,4.17,22.34,19.17,2.8,103.02-6.71,204.92-28.03,305.72-4.7,22.2-14.15,42.36-29.46,59.16-48.98,53.72-104.14,99.65-168.61,134.07-22.63,12.08-43.64,12.24-66.39.09-64.8-34.58-120.24-80.69-169.36-134.77-19.49-21.45-27.33-48.05-32.66-75.9-14.2-74.16-22.94-148.87-24.31-216.07Z"/>
  <path class="cls-1" d="m927.34,221.21c-9.77,115.59-19.36,231.57-29.49,347.5-3.14,35.92-7.44,71.76-11.75,107.56-3.24,26.89-15.57,49.57-33.92,69.29-54.45,58.51-115.61,109.42-179.15,157.51-37.5,28.38-75.97,55.49-114,83.18-5.81,4.23-12.67,9.68-18.95,4.05-4.17-3.74-6.58-11.43-6.69-17.4-.61-33.61-.04-67.24-.42-100.86-.14-12.17,4.77-19.53,15.77-24.8,75.75-36.32,139.46-88.51,195.9-150.08,26.83-29.27,38.23-65.23,45.32-103.4,18.75-100.88,28.38-202.42,23.42-305.06-.82-16.89,3.68-30.58,14.37-43.86,27.51-34.16,53.75-69.33,80.88-103.8,2.83-3.6,8.17-5.23,12.35-7.77,2.13,4.72,5.97,9.39,6.09,14.16.62,24.39.29,48.81.29,73.77Z"/>
  <path class="cls-1" d="m210.18,343.9c-.67,92.62,9.19,184.25,28.83,274.79,6.91,31.86,21.95,59.52,44.23,83.27,55.9,59.58,118.42,110.44,192.66,145.75,10.12,4.81,14.84,11.96,14.74,23.31-.31,35.04.15,70.08-.4,105.11-.08,4.92-2.86,11.92-6.61,14.05-3.69,2.09-11.41.95-15.29-1.75-98.31-68.29-194.46-139.31-279.3-224.38-20.86-20.92-41.77-42.22-48.22-72.2-4.67-21.69-6.79-44-8.99-66.13-7.01-70.4-14.81-140.75-19.92-211.29-6.44-88.91-10.63-177.98-15.32-267.01-.24-4.6,3.93-9.43,6.04-14.15,4.18,2.55,9.51,4.18,12.35,7.78,28.26,35.84,55.98,72.09,84.14,108,7.8,9.94,11.51,20.62,11.2,33.31-.5,20.51-.13,41.04-.13,61.55Z"/>
  <path class="cls-1" d="m307.76,243.57c-10.9-1.2-29.16-3.11-47.38-5.24-11.44-1.34-20.72-6.79-27.79-15.84-25.47-32.61-51.03-65.15-76.11-98.06-2.69-3.53-2.4-9.32-3.5-14.06,4.79-.66,10.04-2.95,14.3-1.74,49,13.95,98.55,22,149.73,17.36,67.14-6.08,124.48-32.67,171.8-80.72,18.38-18.66,27.57-18.59,45.93-.03,61.1,61.77,135.9,86.38,221.56,81.44,34.42-1.99,67.89-8.9,100.97-18.32,3.9-1.11,8.81,1.29,13.25,2.06-.88,4.47-.38,9.99-2.85,13.23-25.53,33.45-51.16,66.85-77.76,99.45-5.4,6.62-14.46,12.68-22.71,14.19-74.07,13.6-144.42,4.92-207.72-39.02-11.24-7.81-21.17-17.58-31.34-26.85-10.64-9.7-22.07-10.56-31.9-.52-49.74,50.79-111.4,71.37-188.48,72.67Z"/>
</svg>