<?xml version="1.0" encoding="UTF-8"?>
<svg id="Layer_1" data-name="Layer 1" xmlns="http://www.w3.org/2000/svg" viewBox="0 0 1024 1024">
  <defs>
    <style>
      .cls-1 {
        fill: #a89d60;
        stroke-width: 0px;
      }
    </style>
  </defs>
  <path class="cls-1" d="m113.42,372.77c0-23.58.3-47.17-.09-70.75-.37-22.15,13.34-31.41,32.91-21.51,88.74,44.87,183.15,69.2,281.89,77.84,13.13,1.15,26.33,1.68,39.41,3.23,13.93,1.64,22.53,10.07,22.68,24.05.48,45.8.54,91.62-.1,137.42-.21,15.34-11.53,24.71-27.05,24.01-109.79-4.92-217.2-22.16-320.1-62.43-18.53-7.25-26.64-18.97-26.73-38.98-.1-24.29-.02-48.59-.02-72.88-.93,0-1.86,0-2.79,0Z"/>
  <path class="cls-1" d="m907.75,372.59c0,24.29.07,48.59-.02,72.88-.08,20.03-8.02,31.89-26.52,39.17-72.72,28.61-148.27,45.78-225.73,54.63-29.62,3.38-59.44,5.14-89.17,7.49-22.65,1.79-32.79-7.7-32.84-30.77-.09-40.26-.03-80.52-.02-120.78,0-25.42,7.05-33.29,32.09-34.58,59.09-3.03,117.21-12.06,174.36-27.42,47.35-12.73,92.92-30.04,136.77-52.01,5.57-2.79,12.59-4.5,18.71-3.99,9.99.83,15.35,10.16,15.3,22.55-.1,24.28-.03,48.55-.03,72.83-.96,0-1.92,0-2.88,0Z"/>
  <path class="cls-1" d="m512.18,778.4c-43.93-2.01-87.6-3.87-131.25-6.07-18.98-.96-25.21-7.88-25.22-26.81-.03-44.07-.04-88.13,0-132.2.02-21.03,9.26-29.9,30.51-27.81,67.84,6.66,135.77,7.84,203.79,3.75,15.93-.96,31.81-2.65,47.72-3.82,21.29-1.57,30.49,6.85,30.52,27.9.06,44.41.06,88.83,0,133.24-.02,17.48-6.54,24.77-24.21,25.68-43.99,2.28-88.01,4.13-131.87,6.14Z"/>
  <path class="cls-1" d="m512.1,321.3c-45.44-4.43-90.65-8.65-135.81-13.35-14.37-1.5-20.52-9.13-20.56-23.82-.09-38.88-.15-77.76.02-116.64.09-19.4,14.18-30.96,33.08-27.08,82.02,16.85,164,16.87,246.02.06,19.04-3.9,33.26,7.46,33.36,26.74.2,39.23.14,78.46.03,117.69-.04,13.81-6.5,21.6-20.29,23.03-45.16,4.71-90.37,8.93-135.85,13.37Z"/>
  <path class="cls-1" d="m312.29,202.86c0,20.82.11,41.63-.04,62.45-.14,18.7-11.48,27.09-29.41,21.79-54.4-16.09-106.32-37.83-154.88-67.41-14.22-8.66-21.4-20.44-22.73-37.17-2.48-31.1-5.62-62.17-9.5-93.12-2.58-20.54,3.15-36.12,21.71-46.32,4.85-2.67,9.31-6.05,14.12-8.8,15.4-8.81,31.34-7.47,43.96,5.03,33.1,32.79,72.28,55.73,115.21,72.89,17.21,6.88,21.53,13.53,21.56,32.37.03,19.43,0,38.86,0,58.29Z"/>
  <path class="cls-1" d="m711.66,202.94c0-20.47.22-40.94-.07-61.41-.2-13.86,5.87-23.19,18.65-28.15,44.43-17.26,84.73-40.96,118.94-74.64,12.28-12.08,28.08-13.1,43.14-4.53,5.12,2.91,9.91,6.4,15.03,9.31,17.13,9.74,23.27,24.36,21.08,43.7-3.76,33.07-6.81,66.22-10.14,99.33-1.29,12.84-6.89,23.2-17.89,30.18-50.72,32.19-105.55,55.08-163.23,71.29-13.74,3.86-25.07-5.03-25.34-19.52-.41-21.85-.11-43.71-.11-65.57-.02,0-.04,0-.06,0Z"/>
  <path class="cls-1" d="m312.3,668.51c0,23.6.15,47.21-.06,70.81-.14,16.59-10.09,25.38-26.26,22.29-36.76-7.03-73.53-14.13-109.99-22.55-8.45-1.95-18.06-7.57-23-14.46-19.85-27.7-39.35-56.78-41.46-91.75-1.87-30.96.84-62.26,2.75-93.34.62-10.12,11.45-13.79,23.07-10.01,26.68,8.67,53.16,18.09,80.16,25.63,24.34,6.8,49.27,11.49,73.94,17.14,14.64,3.35,20.68,10.49,20.79,25.42.18,23.6.05,47.21.04,70.81Z"/>
  <path class="cls-1" d="m711.61,668.52c0-23.26-.1-46.52.02-69.78.09-16.23,5.74-23.42,21.82-26.61,52.12-10.34,103.41-23.49,153.12-42.52,13.54-5.18,23.03.61,23.97,14.99,2.23,34.5,8.38,69.03-.61,103.55-7.49,28.76-22.4,53.75-39.69,77.23-4.86,6.6-14.15,11.9-22.32,13.76-36.82,8.38-73.92,15.61-111.04,22.61-14.95,2.82-25.02-6.14-25.19-21.38-.25-23.95-.07-47.91-.08-71.86Z"/>
  <path class="cls-1" d="m533.32,909.37c0-20.11-.13-40.23.05-60.34.17-18.8,9.33-27.99,28-28.62,71.45-2.43,142.61-7.9,213.11-20.29,8.42-1.48,17.05-2.37,21.74,7.17,4.46,9.05-.18,15.61-6.28,22.12-63.28,67.54-136.18,121.92-220.03,161.4-22.68,10.68-36.53,1.95-36.59-23.17-.04-19.42,0-38.84,0-58.26Z"/>
  <path class="cls-1" d="m490.52,910.17c.01,20.14.2,40.28-.04,60.41-.26,21.61-14.71,30.4-34.44,21.2-85.42-39.83-159.4-95.21-223.54-164.06-5.75-6.17-8.72-12.6-4.7-20.61,3.99-7.95,11.17-8.59,18.82-7.26,72.65,12.64,145.94,18.48,219.58,20.81,14.92.47,23.97,10.72,24.23,27.01.33,20.83.08,41.66.09,62.5Z"/>
</svg>