<?xml version="1.0" encoding="UTF-8"?>
<svg id="Layer_1" data-name="Layer 1" xmlns="http://www.w3.org/2000/svg" viewBox="0 0 756.9 854.63">
  <defs>
    <style>
      .cls-1 {
        fill: #8a3c30;
        stroke-width: 0px;
      }
    </style>
  </defs>
  <path class="cls-1" d="m511.97,212.42c11.14,22.42,23.37,44.46,32.47,67.72,28.44,72.68,55.67,145.83,83.27,218.83,3.22,8.51,1.8,12.67-5.54,18.49-78.43,62.26-160.06,119.91-246.13,171.18-9.15,5.45-13.6,4.51-18.9-4.94-5.52-9.84-10.62-19.94-15.57-30.09-41.61-85.38-72.89-174.8-103.53-264.48-3.79-11.1-3.67-11.11,6.11-17.34,84.32-53.74,169.73-105.81,251.05-164.14,2.12-1.52,4.64-2.49,8.58-4.56,2.84,3.15,6.43,5.79,8.19,9.33Zm69.92,280.82c-.28-14.19-13.75-27.02-28.03-26.71-16.05.35-32.96,17.7-32.5,33.34.43,14.61,11.94,25.31,27.05,25.14,19.23-.21,33.84-14.07,33.48-31.77Zm-154.58-5.55c18.01-.6,32.23-15.52,31.52-33.06-.59-14.62-12.08-25.51-26.33-24.96-16.06.62-31.75,16.8-31.31,32.27.45,15.66,11.18,26.24,26.12,25.74Zm-124.9-49.46c17.21-.29,30.63-14.28,30.21-31.5-.39-16.16-11.81-28.47-26.1-28.15-15.83.35-29.54,15.41-29.18,32.05.37,17.01,10.22,27.85,25.07,27.6Z"/>
  <path class="cls-1" d="m477.71,169.88c7.96,3.16,8.64,9.79,1.91,15.58-7.07,6.09-14.45,11.86-22.01,17.33-73.98,53.46-151.46,101.34-231.7,144.81-4.86,2.64-9.01,2.23-13.9.16-44.3-18.76-88.71-37.24-132.96-56.1-3.92-1.67-9.92-5.79-9.68-8.27.39-4.04,5.06-7.71,8.07-11.41.73-.9,2.05-1.31,3.11-1.94,26.09-15.71,52.15-31.48,78.29-47.12,51.64-30.91,103.71-61.06,159.13-84.87,5.98-2.57,12.48-3.91,16.55-5.15,51.29,5.51,97.85,18.98,143.2,37Zm-176.52,49.12c2.4-10.46-4.98-19.65-15.79-18.57-14.75,1.47-27.25,8.14-36.61,19.65-5.04,6.2-7.29,14.2-2.59,21.23,3.06,4.58,8.87,7.31,11.17,9.1,18.06.24,40.6-17.39,43.82-31.41Z"/>
  <path class="cls-1" d="m70.69,328.88c4.07,1.69,7.91,3.96,12,5.6,39.89,15.95,79.77,31.9,119.74,47.64,6.04,2.38,9.25,6.36,11.47,12.32,21.83,58.66,43.26,117.48,66.08,175.76,16.82,42.94,35.54,85.14,53.38,127.68,1.23,2.93,2.52,5.92,3.15,9.02,1.55,7.6-2.52,11.42-10.06,9.49-3.55-.91-6.96-2.38-10.41-3.67-47.79-17.89-91.9-43.32-136.75-67.2-4.84-2.58-9.18-7.73-11.74-12.72-12.34-24.02-24.82-48.02-35.73-72.7-30.06-68.03-50.73-139.23-69.42-211.04-1.11-4.27-2.2-8.54-3.06-11.89.08-7.01,5.61-10.67,11.34-8.29Zm189.78,325.03c2.49,1.89,8.06,2.21,10.7.68,2.67-1.55,5.15-6.51,4.79-9.64-1.74-15.14-8.52-28.15-20.14-38.06-2.44-2.08-7.75-2.9-10.66-1.71-2.97,1.22-4.61,5.65-6.72,8.51,5.25,15.49,9.17,30.46,22.03,40.22Zm-48.72-99.71c2.9,2.67,9.11,4.74,12.23,3.4,3.59-1.54,7.01-6.88,7.73-11.05,2.05-11.82-8.34-29.63-19.16-34.99-7.66-3.8-14.67,1.46-14.75,12.62,1.62,10.33,4.92,21.72,13.95,30.02Zm-71-21.68c2.38,5.27,6.97,9.44,13.62,7.1,6.75-2.38,7.53-8.72,5.76-14.08-3.09-9.38-7.09-18.58-11.85-27.23-1.46-2.66-7.46-5.34-9.9-4.35-3.42,1.39-5.46,6.19-8.32,9.84,3.86,10.58,6.72,19.91,10.69,28.73Zm43.11,88.09c1.85,1.69,7.28,1.93,9.24.45,2.62-2,5.66-7.24,4.71-9.51-4.47-10.77-9.79-21.26-15.83-31.22-1.47-2.42-7.88-4.4-10.12-3.16-3.1,1.72-4.4,6.68-5.54,8.65,1.55,15.65,8.12,26.15,17.54,34.8Zm.02-202.7c-2.15-2.28-6.78-4.13-9.52-3.39-2.66.72-5.82,4.83-6.2,7.79-1.72,13.28,3.62,24.96,10.88,35.53,1.22,1.77,8.07,2.07,10.04.38,3.51-3,5.29-8.03,6.59-10.21-1.17-13.26-4.71-22.6-11.78-30.1Zm-70.48,18.54c1.56,2.8,7.09,5.41,10.14,4.79,3.16-.64,6.78-4.86,7.95-8.29,3-8.77-5.16-28.09-13.3-32.38-2.2-1.16-6.66-1.44-8.02-.07-2.98,3-4.65,7.32-7.01,11.35,3.6,9,6.13,17.24,10.23,24.6Z"/>
  <path class="cls-1" d="m740.13,241.68c-4.29-1.51-8.48-3.86-12.89-4.38-12.19-1.45-24.45-2.31-36.7-3.1-36.21-2.32-43.79-27.81-36.91-53.65,4.52-16.99,14.72-30.96,25.46-44.43,9.34-11.72,19.16-23.06,28.75-34.58,1.57-1.89,3.68-3.62,4.46-5.81.99-2.81.89-6,1.25-9.03-2.82.47-6.16.14-8.36,1.56-5.54,3.6-10.21,8.61-15.89,11.93-12.43,7.28-24.77,15.11-38.06,20.43-17.11,6.85-33.6,2.5-45.74-11.06-9.21-10.29-16.01-22.75-23.8-34.3-1.22-1.81-1.7-4.17-3.05-5.85-1.12-1.38-3.27-3.16-4.53-2.87-1.72.39-3.21,2.44-4.44,4.05-.68.89-.68,2.33-.89,3.53-4.21,24.74-15.7,35.31-40.75,37.44-1.71.15-3.68-.28-5.09.42-1.77.89-4.23,2.61-4.31,4.09-.11,1.89,1.42,4.48,3.05,5.71,2.28,1.72,5.3,2.47,8.01,3.63,53.55,22.92,89.37,63.1,111.03,116.2,8.77,21.51,14.92,44.1,22.28,66.19.69,2.08.97,4.82,2.44,5.97,1.88,1.46,4.77,2,7.24,2.03.58,0,1.53-3.56,1.72-5.54.16-1.64-.57-3.37-.83-5.06-3.13-20.33,4.69-36.89,23.3-45.58,10.35-4.83,21.78-7.32,32.71-10.9,3.38-1.11,6.73-2.33,10.09-3.5.15-1.19.3-2.37.45-3.56Z"/>
  <path class="cls-1" d="m18.44,752.6c2.3-1.56,4.7-3,6.88-4.71,11.63-9.16,23.71-17.52,38.28-21.4,16.46-4.39,30.2.38,40.26,14.05,8.78,11.93,12.73,25.82,16.24,39.95.73,2.94,3.18,7.45,5.15,7.62,2.98.26,7.05-1.93,9.2-4.37,4.51-5.13,8.08-11.1,12.02-16.73,5.88-8.39,13.97-12.6,24.15-13.58,10.25-.99,20.44-2.52,30.65-3.92,1.92-.26,4.04-.63,5.58-1.68,1.59-1.08,2.59-3.04,3.84-4.62-1.73-.96-3.4-2.58-5.22-2.77-13.17-1.39-26.71-1-39.5-3.95-57.87-13.35-96.96-49.07-119.77-103.37-.57-1.35-.68-3-1.53-4.11-1.06-1.39-2.67-2.37-4.04-3.53-1.11,1.65-2.5,3.2-3.24,5-.52,1.27-.18,2.91-.17,4.38.27,37.92-5.12,74.85-19.33,110.24-.8,1.99-.77,4.32-1.12,6.49.56.33,1.12.66,1.67,1Z"/>
  <path class="cls-1" d="m667.33,372.89c.94,2.93,1.73,7.1,3.65,10.65,1.04,1.92,4.09,3.94,6.1,3.81,2.1-.13,4.94-2.36,5.9-4.41,3.07-6.49,1.87-13.1-2.3-18.67-1.65-2.21-5.09-4.24-7.66-4.18-1.56.04-3.23,4.12-4.46,6.59-.73,1.47-.7,3.32-1.23,6.21Z"/>
  <path class="cls-1" d="m25.68,574.24c4.11,4.45,6.45,8.66,9.99,10.33,3.32,1.57,7.38-5.32,6.75-11.81-.44-4.58-1.12-10.91-7.08-9.79-3.35.63-5.72,6.42-9.66,11.27Z"/>
</svg>