<?xml version="1.0" encoding="utf-8"?>
<!-- Generator: Adobe Illustrator 28.0.0, SVG Export Plug-In . SVG Version: 6.00 Build 0)  -->
<svg version="1.1" id="Layer_1" xmlns="http://www.w3.org/2000/svg" xmlns:xlink="http://www.w3.org/1999/xlink" x="0px" y="0px"
	 viewBox="0 0 489 490.6" style="enable-background:new 0 0 489 490.6;" xml:space="preserve">
<style type="text/css">
	.st0{opacity:0.1;fill:#FFFFFF;}
	.st1{opacity:5.000000e-02;fill:#FFFFFF;}
	.st2{fill:url(#SVGID_1_);}
	.st3{fill:#7E9E85;}
	.st4{fill:#8A3C30;}
</style>
<path class="st0" d="M468.9-54.1H20c-11.1,0-20-9-20-20v-450.5c0-11.1,9-20,20-20h448.9c11.1,0,20,9,20,20v450.5
	C489-63.1,480-54.1,468.9-54.1z"/>
<path class="st1" d="M468.9,490.6H20c-11.1,0-20-9-20-20V20C0,9,9,0,20,0h448.9c11.1,0,20,9,20,20v450.5
	C489,481.6,480,490.6,468.9,490.6z"/>
<path class="st0" d="M997.2-54.1H548.3c-11.1,0-20-9-20-20v-450.5c0-11.1,9-20,20-20h448.9c11.1,0,20,9,20,20v450.5
	C1017.2-63.1,1008.3-54.1,997.2-54.1z"/>
<linearGradient id="SVGID_1_" gradientUnits="userSpaceOnUse" x1="-542.5764" y1="-419.1205" x2="7.3024" y2="-218.9809" gradientTransform="matrix(1 0 0 -1 0 -599.3913)">
	<stop  offset="0.4" style="stop-color:#7E9E85"/>
	<stop  offset="0.6" style="stop-color:#8A3C30"/>
</linearGradient>
<path class="st2" d="M-450.7-285.2c6.7,3.8,13.5,7.2,20.4,10.6c57.8,28.2,118.5,49.4,179.2,70.2c7.8,2.7,7.8,2.6,12.1-4.3
	c36.3-57,71.5-114.8,111-169.8c3.9-5.4,3.1-8.6-2.9-11.5c-15.2-7.5-30.1-15.8-45.9-22c-49.4-19.3-99.1-37.8-148.7-56.6
	c-1.4-0.5-2.9-0.6-5.8-1.3c-1.7,1.3-4.5,2.7-6.3,5C-380-411.7-419.1-356.2-454-297.7C-457.5-291.7-456.9-288.7-450.7-285.2z
	 M-263-268.4c11,0.2,19.4,7.8,19.3,17.5c-0.1,10.7-10.3,20.1-21.5,20c-11.5-0.2-19-6.8-18.9-16.8C-284-259.4-274.6-268.7-263-268.4
	L-263-268.4z M-278.3-336.4c-0.3,10.8-11.2,21.7-21.6,21.5c-10.7-0.2-17.9-7.3-17.7-17.5c0.2-12.1,10.2-21.9,22.1-21.6
	C-285.6-353.8-278.1-346.1-278.3-336.4L-278.3-336.4z M-321.4-437.4c9.6,0.2,18.3,9.3,18.1,19c-0.2,10.9-12,22.3-22.6,22
	c-9.9-0.3-17.1-8.1-17-18.3C-342.8-427.8-333.4-437.7-321.4-437.4L-321.4-437.4z M-112.7-368.3c-4.2,4.8-8.1,9.8-11.8,14.9
	c-36,49.7-68.1,101.8-97.5,155.7c-2.3,4.3-2.3,7.8-0.5,12.1c12.6,29.5,24.9,59.2,37.5,88.7c1.1,2.7,4.1,7,5.4,6.7
	c3-0.6,5.5-3.5,8.1-5.6c0.6-0.5,0.9-1.4,1.3-2.1c10.6-17.5,21.1-35.1,31.7-52.6c21-35.1,41.5-70.6,57.7-108.3
	c1.8-4.2,2.6-8.8,3.4-11.4c-3.8-34.8-12.9-66-24.9-96.5C-104.4-372.1-108.8-372.7-112.7-368.3L-112.7-368.3z M-123-236.5
	c-1,10-5.5,18.5-13.3,24.8c-4.2,3.4-9.6,5-14.4,1.8c-3.1-2.1-5-6-6.2-7.6c-0.2-12.2,11.7-27.5,21.2-29.7
	C-128.5-248.8-122.3-243.8-123-236.5L-123-236.5z M-213.9-99.1c-10.6-26.6-21.3-53.1-31.7-79.8c-1.9-5-4.9-7.6-9.9-9.4
	c-36.7-13.5-73.5-26.8-109.8-41.1c-32-12.6-63.5-26.5-95.3-39.8c-2.3-1-4.7-1.6-6.2-2.2c-4.8,0-6.5,2-6,5.7c0.1,1.3,0.6,2.6,1.1,3.8
	c12.2,34.4,30.5,65.8,47.5,97.8c1.6,3,4.9,5.5,8,7.2c8.4,4.8,17,9.2,25.6,13.5c39.6,19.4,81,33.8,123.3,46
	c16.5,4.7,33,9.2,49.6,13.4c2.1,0.5,5.5-0.3,6.9-1.8c1.1-1.2,0.5-4.5,0-6.7C-211.5-94.7-212.9-96.8-213.9-99.1L-213.9-99.1z
	 M-429.1-218c-1.7-1.9-2.4-5.8-1.8-8.5c0.4-1.8,3.7-3.1,5.1-4.2c11.6,2.1,21,6.3,27.7,14.7c1.3,1.6,1.7,5.6,0.6,7.2
	c-1.3,1.9-5,3.8-7.1,3.3C-413.8-207.6-422.7-210.8-429.1-218L-429.1-218z M-378.5-159.1c-1.1,2-4.5,2.6-5.9,3.4
	c-10.3-1-17.4-5.5-23.3-11.8c-1.2-1.2-1.4-4.9-0.4-6.3c1.3-1.8,4.9-3.9,6.4-3.3c7.4,3.1,14.6,6.9,21.5,11.1
	C-378.6-165.1-377.6-160.7-378.5-159.1L-378.5-159.1z M-362.5-186.3c-1.9-2-3.4-6.5-2.4-8.6c1.1-2.5,5.2-5,8-5.1
	c9.9-0.3,17.6,4.6,22.9,12.8c3.3,5.1-0.7,10.3-8.5,10.2C-349.4-178.2-357-180.3-362.5-186.3L-362.5-186.3z M-321.9-136.4
	c-1.1,1.8-3.8,3.9-5.7,3.9c-8.1-0.2-15.8-2.2-22.4-7.1c-2.8-2.1-4.5-5.2-2.6-8.2c1.3-2.2,4.4-3.3,5.6-4.2c10.3,0.9,17.8,4.2,24,10
	C-321.8-140.9-321.2-137.7-321.9-136.4L-321.9-136.4z M-297.4-171.8c2.2-2,5.2-3,6.6-3.8c8.7,0.6,15.1,3,20.2,7.8
	c1.6,1.5,3,4.9,2.4,6.8c-0.6,1.9-3.7,4-5.9,4.2c-8.6,0.8-16.3-2.6-23.3-7.2C-300.4-166.1-299.8-169.6-297.4-171.8L-297.4-171.8z
	 M-258.6-117.5c-1.9,2-4.7,3-7.5,4.7c-6-2.4-11.7-4.2-16.9-7c-1.8-1-3.7-4.6-3.3-6.5c0.5-2.2,3.1-4.8,5.4-5.7
	c5.9-2.3,19.5,3.4,22.4,9C-257.8-121.5-257.7-118.5-258.6-117.5L-258.6-117.5z M-32.3-432.2c-0.3,1.2-1.7,2.2-2.8,3
	c-0.6,0.5-1.6,0.5-2.4,0.6c-16.8,2.9-23.9,10.6-25.4,27.6c-0.1,1.3,0.1,2.8-0.4,3.9c-0.5,1.1-1.7,2.4-2.6,2.5
	c-1.2,0.1-2.9-0.7-3.7-1.6c-1.1-1.6-1.6-3.6-2.4-5.4c-15.6-36.5-42.8-61-79-75.7c-14.6-5.9-29.9-10.1-44.9-15.1
	c-1.4-0.5-3.3-0.7-4-1.7c-1-1.3-1.4-3.2-1.4-4.9c0-0.4,2.4-1,3.8-1.2c1.1-0.1,2.3,0.4,3.4,0.6c13.8,2.1,25-3.2,30.9-15.8
	c3.3-7,5-14.8,7.4-22.2c0.8-2.3,1.6-4.6,2.4-6.8c0.8-0.1,1.6-0.2,2.4-0.3c1,2.9,2.6,5.8,3,8.7c1,8.3,1.6,16.6,2.1,24.9
	c1.6,24.5,18.9,29.7,36.4,25c11.5-3.1,21-10,30.1-17.3c7.9-6.3,15.6-13,23.4-19.5c1.3-1.1,2.5-2.5,3.9-3c1.9-0.7,4.1-0.6,6.1-0.8
	c-0.3,1.9-0.1,4.2-1.1,5.7c-2.4,3.8-5.8,6.9-8.1,10.8c-4.9,8.4-10.2,16.8-13.8,25.8c-4.6,11.6-1.7,22.8,7.5,31
	c7,6.2,15.4,10.9,23.2,16.1c1.2,0.8,2.8,1.1,4,2.1C-33.3-434.5-32.1-433-32.3-432.2L-32.3-432.2z M-414.7-73.8
	c1.3,1.1,2.4,2.3,3.6,3.4c-1.5,0.7-2.9,2-4.4,2.1c-7.6,0.5-15.3,0.5-22.9,1c-18,1.2-35.5,5-52.3,11.8c-1.7,0.7-3.6,1-5.5,1.4
	c-0.3-0.5-0.6-1-1-1.4c1.1-1.5,2.1-3.2,3.3-4.6c6.2-7.9,11.9-16.1,14.5-26c3-11.1,0.1-21.2-9.8-27c-8.2-4.8-17.6-7.4-26.5-11.1
	c-2.1-0.9-5.5-2.4-5.5-3.7c0-2.2,1.7-4.9,3.4-6.5c3.1-2.8,6.7-4.9,10.1-7.2c6.2-4.2,9.4-10,10-17.5c0.5-6.6,1.6-13.2,2.5-19.8
	c0.1-1.1,0.3-2.5,0.9-3.3c1-1.3,2.4-2.3,3.6-3.4c0.6,1.4,1.6,2.7,1.8,4.1c0.9,8.6,0.6,17.4,2.5,25.8c9,39.4,33.2,66.1,70.2,81.6
	C-415.7-74.1-415-74.1-414.7-73.8L-414.7-73.8z M-249.7-502c0.1-1.4,1.6-3.3,3-4c4.4-2.1,8.9-1.2,12.6,1.6c1.5,1.1,2.9,3.5,2.8,5.2
	c0,1.1-2.8,2.2-4.5,3c-1,0.5-2.2,0.5-4.2,0.8c-2-0.6-4.8-1.2-7.2-2.5C-248.4-498.5-249.7-500.6-249.7-502L-249.7-502z M-368.7-66.9
	c-0.4,2.3-4.4,3.9-7.6,6.5c-3-2.8-6.8-4.7-6.9-6.7c-0.1-4.5,4.5-4.7,7.9-4.6C-372.2-71.6-367.9-70.9-368.7-66.9L-368.7-66.9z"/>
<g>
	<g>
		<circle class="st3" cx="772.7" cy="-301.4" r="45"/>
	</g>
	<circle class="st3" cx="658.9" cy="-184.8" r="45"/>
	<circle class="st3" cx="658.9" cy="-414" r="45"/>
	<circle class="st3" cx="886.6" cy="-184.8" r="45"/>
	<circle class="st3" cx="886.6" cy="-414" r="45"/>
</g>
<g>
	<circle class="st3" cx="148" cy="-436.3" r="45"/>
	<circle class="st3" cx="341" cy="-436.3" r="45"/>
	<circle class="st3" cx="148" cy="-301.7" r="45"/>
	<circle class="st3" cx="341" cy="-301.7" r="45"/>
	<circle class="st3" cx="148" cy="-167" r="45"/>
	<circle class="st3" cx="341" cy="-167" r="45"/>
</g>
<g>
	<circle class="st4" cx="148" cy="110.7" r="45"/>
	<circle class="st4" cx="341" cy="110.7" r="45"/>
	<circle class="st4" cx="148" cy="245.3" r="45"/>
	<circle class="st4" cx="341" cy="245.3" r="45"/>
	<circle class="st4" cx="148" cy="379.9" r="45"/>
	<circle class="st4" cx="341" cy="379.9" r="45"/>
</g>
</svg>
