<?xml version="1.0" encoding="UTF-8"?>
<svg id="Layer_1" data-name="Layer 1" xmlns="http://www.w3.org/2000/svg" viewBox="0 0 256 256">
  <defs>
    <style>
      .cls-1 {
        fill: #fff;
        stroke-width: 0px;
      }
    </style>
  </defs>
  <path class="cls-1" d="m34.13,157.5c0-1.35.09-2.02-.01-2.66-3.33-20.7-6.62-41.41-10.04-62.09-1.64-9.87-3.55-19.69-5.33-29.54-.91-5.04,1.52-8.29,6.94-9.14,5.03-.79,10.08-1.43,15.11-2.19,22.52-3.4,45.03-6.9,67.56-10.19,21.43-3.13,42.89-6.05,64.33-9.05,1.71-.24,3.42-.45,5.14-.64,5.39-.6,8.37,2.03,8.05,7.39-.46,7.84-1.13,15.68-1.71,23.51-.18,2.41-.45,4.82-.54,7.23-.21,5.58,4.39,9.79,10.11,9.12,7.2-.84,14.38-1.85,21.57-2.78.86-.11,1.72-.18,2.57-.29,1.82-.24,2.64.51,2.92,2.36,2.88,19.11,5.82,38.21,8.74,57.32,2.51,16.46,5.02,32.93,7.53,49.39.09.6.19,1.19.26,1.79.36,3.37,0,3.96-3.35,4.5-10.22,1.64-20.44,3.32-30.69,4.78-16.83,2.39-33.69,4.55-50.52,6.95-18.45,2.63-36.92,5.16-55.29,8.23-15.65,2.61-31.18,5.91-46.76,8.95-4,.78-5.47-.12-6.16-4.04-2.08-11.81-4.14-23.62-6.27-35.42-.16-.86-.58-2.04-1.22-2.33-.54-.24-1.64.49-2.37.97-3.64,2.39-4.37,5.49-3.39,9.83,2.61,11.52,4.67,23.17,6.96,34.76.85,4.31,3.18,6.06,7.56,5.4,18.33-2.8,36.65-5.69,54.99-8.5,19.95-3.05,39.92-6.05,59.88-9.08,17.57-2.66,35.14-5.34,52.71-8,8.7-1.32,17.4-2.65,26.1-3.93,5.9-.86,7.34-2.87,6.52-8.73-2.57-18.37-5.03-36.76-7.59-55.14-2.66-19.15-5.37-38.28-8.09-57.42-.52-3.68,2.05-5.87,5.52-4.42.67.28,1.3,1.37,1.43,2.16,4.49,28.9,8.97,57.8,13.33,86.72,1.89,12.53,3.53,25.11,5.27,37.66.52,3.74-.72,5.58-4.46,6.13-16.13,2.37-32.26,4.81-48.43,6.92-20.79,2.71-41.7,4.65-62.42,7.8-29.5,4.49-58.88,9.79-88.3,14.76-5.36.91-10.69,1.97-16.05,2.85-3.3.54-3.99,0-4.59-3.23-3.09-16.62-6.13-33.26-9.27-49.87-.61-3.24.06-5.6,2.86-7.61,3.85-2.77,7.46-5.88,11.13-8.9,2.36-1.94,2.19-3.52-.52-4.88-4.24-2.13-8.49-4.25-12.79-6.25-3-1.4-4.58-3.56-5.14-6.88-5.05-30.2-10.19-60.39-15.32-90.58-.62-3.66-1.01-7.41-2.18-10.9-1.84-5.49,3.05-10.23,7.49-10.92,4.09-.63,8.16-1.43,12.25-2.03,25.95-3.79,51.87-7.84,77.87-11.22,23.62-3.07,47.33-5.42,71-8.04,5.75-.64,11.51-1.11,17.28-1.61,6.44-.55,11.7,1.73,15.65,6.83,9.67,12.5,19.3,25.03,28.91,37.58,2.36,3.08,1.47,5.27-2.31,5.7-10.46,1.18-20.93,2.31-31.4,3.38-4.52.46-5.65-.66-5.41-5.18.53-10,1.19-20,1.62-30,.31-7.24-4.25-11.17-11.47-10.38-17.33,1.89-34.7,3.45-52,5.61-20.46,2.56-40.87,5.47-61.27,8.5-16.47,2.45-32.87,5.29-49.3,7.99-8.51,1.4-11.19,5.51-9.5,14.06,3.39,17.17,6.9,34.33,9.95,51.56,2.17,12.23,3.79,24.56,5.41,36.88.41,3.12,1.61,5.13,4.48,6.28,1.33.53,2.58,1.26,4.49,2.2Zm83.51,23.95c2.14-.14,5.25-.25,8.34-.55,12.62-1.24,23.23-6.28,30.9-16.68,3.02-4.1,5.91-8.3,8.83-12.47,4.39-6.26,9.85-11.23,16.67-14.81,3.41-1.79,6.63-4.04,9.71-6.37,2.81-2.12,4.64-5.06,5.46-8.57,2.66-11.37-3.54-23.31-14.4-27.66-10.36-4.15-27.16-.27-34.63,7.98-.64.7-1.31,1.38-2,2.03-9.12,8.46-19.84,8.21-28.33-.89-4.77-5.11-10.54-8.33-17.2-10-9.01-2.25-17.91-2.02-25.25,4.35-6.83,5.92-12.24,13.15-15.42,21.77-3.57,9.68-1.38,17.36,6.77,23.63,5.49,4.23,9.51,9.5,11.95,15.95,3.26,8.63,9.4,14.49,17.42,18.66,6.37,3.31,13.3,3.34,21.17,3.62Zm28.61-127.9c-4.44.13-8.54,1.01-11.39,4.67-1.64,2.1-3.02,4.43-4.31,6.76-1.92,3.46-1.31,7.38,2.02,9.4,5.96,3.61,12.11,6.92,18.34,10.05,4.93,2.48,9.2.57,12.95-2.91,2.02-1.88,2.68-4.05,1.78-6.78-1.59-4.83-3.09-9.7-4.45-14.6-.84-3.05-2.77-4.72-5.73-5.25-3.05-.54-6.13-.9-9.2-1.34Zm30.14,124.71c.73-.1,2.04-.15,3.29-.47,7.25-1.83,14.86-3.07,17.28-12.02.77-2.87.66-4.44-1.71-6.36-6.39-5.19-14.32-4.89-21.57.81-4.65,3.65-5.95,8.5-3.76,14.02,1.16,2.92,2.76,4,6.48,4.01ZM63.25,87.44c-.17-3.68-1.56-7.58-5.63-10.16-1.55-.98-2.86-.96-4.16.38-4.17,4.29-8.06,8.78-10.51,14.33-1.67,3.77-.72,8.18,2.5,10.69.94.73,2.37,1.33,3.51,1.24,7.67-.63,14.28-7.97,14.28-16.48Zm21.3-10.89c-.34-3.48-1-5.06-2.79-5.65-2.49-.82-8.44,2.01-8.93,4.56-.5,2.58-.61,5.28-.56,7.91.04,2.64,1.85,3.66,4.32,3.81,2.43.15,4.35-.87,5.31-2.95,1.13-2.45,1.78-5.11,2.64-7.68Z"/>
  <path class="cls-1" d="m104.29,126.09c-2.54-.31-4.36-.45-6.13-.78-1.91-.36-2.95.04-3.01,2.24-.05,1.71-.46,3.41-.72,5.12-.06.43-.13,1.21-.23,1.22-2.2.1-4.41.27-6.58.05-.56-.06-1.41-1.35-1.42-2.09-.02-1.7.24-3.46.68-5.11.62-2.34-.38-3.15-2.52-3.33-1.72-.14-3.42-.48-5.13-.62-1.47-.12-1.82-.77-1.68-2.22.61-6.2.57-6.21,6.67-5.52.69.08,1.39.08,2.06.22,1.59.35,2.22-.37,2.37-1.87.2-1.97.52-3.93.75-5.9.17-1.41.88-1.91,2.29-1.65,7.46,1.36,6.32-.52,5.41,6.97-.47,3.84-.45,3.83,3.23,4.38,6.82,1.02,6.46-.72,5.31,6.99-.12.78-1.01,1.45-1.33,1.9Z"/>
  <path class="cls-1" d="m173.03,123.82c-4.32.02-7.42-2.99-7.4-7.2.02-4.12,3.05-7.11,7.23-7.12,4.33,0,7.76,3.19,7.79,7.28.03,4.02-3.21,7.01-7.62,7.04Z"/>
  <path class="cls-1" d="m136.18,144.11c.3-.38.67-.99,1.17-1.46,1.68-1.59,3.55-3.01,5.07-4.73,1.06-1.2,1.82-1.57,3.21-.59,5.39,3.79,6.54,2.21,1.05,8.25-1.7,1.87-4.01,3.22-6.14,4.67-1.71,1.16-3.03,1.1-3.3-1.46-.15-1.45-.64-2.86-1.06-4.67Z"/>
  <path class="cls-1" d="m132.62,152.16c-4.09.83-7.82.1-11.5-1.09-5.21-1.68-5.1-1.66-2.28-6.39,1.18-1.98,2.33-2.69,4.51-1.58,1.12.57,2.5,1.03,3.71.93,3.32-.26,4.63,1.34,4.86,4.39.09,1.17.43,2.33.7,3.73Z"/>
  <path class="cls-1" d="m161.2,127.73c-.35.44-.68.91-1.06,1.32-1.75,1.89-3.62,3.68-5.24,5.67-.98,1.21-1.77,1.35-3.01.5-5.6-3.86-6.31-2.23-1.28-8.29,1.42-1.71,3.19-3.12,4.81-4.66,1.63-1.54,2.88-1.63,3.7.84.51,1.54,1.33,2.97,2.08,4.61Z"/>
  <path class="cls-1" d="m107.6,130.79c.6.53,1.11.94,1.56,1.4,1.91,1.97,3.88,3.89,5.65,5.98.49.58.76,1.9.43,2.52-3.19,6.12-3.45,6.16-8.36,1.28-1.64-1.63-3.11-3.44-4.57-5.24-.37-.45-.68-1.59-.48-1.75,1.8-1.44,3.71-2.73,5.77-4.19Z"/>
</svg>