<?xml version="1.0" encoding="UTF-8"?>
<svg id="Layer_1" data-name="Layer 1" xmlns="http://www.w3.org/2000/svg" viewBox="0 0 256 256">
  <defs>
    <style>
      .cls-1 {
        fill: #fff;
        stroke-width: 0px;
      }
    </style>
  </defs>
  <path class="cls-1" d="m101.45,73.63c-13.81,1.05-27.63,2.09-41.44,3.14-.46.03-.92.08-1.38.12-2.45.18-4.24-.77-4.72-3.26-.45-2.38.86-3.8,3.07-4.56,5.67-1.94,11.33-3.93,16.99-5.89C131.69,43.31,189.4,23.42,247.12,3.57c1.81-.62,3.81-2.23,5.67-.39,1.88,1.85.27,3.86-.35,5.66-21.67,62.96-43.38,125.92-65.08,188.87-.15.44-.31.87-.45,1.31-.71,2.21-2.15,3.55-4.53,3.11-2.48-.46-3.48-2.22-3.29-4.69.41-5.43.83-10.87,1.24-16.3.71-9.49,1.44-18.97,2.09-28.46.28-4.16-1.87-5.58-5.69-3.86-1.6.72-3.2,1.44-4.76,2.24-2.55,1.31-5.05,1.94-7.39-.35-1.91-1.87-1.97-3.94-.25-7.36,8.66-17.23,17.33-34.46,25.99-51.68,7.47-14.84,14.94-29.67,22.4-44.5.33-.66.86-1.31.91-2,.07-.82-.03-1.89-.52-2.46-.39-.45-1.5-.51-2.23-.39-.79.13-1.51.66-2.25,1.04-31.89,16.05-63.78,32.1-95.68,48.14-1.07.54-2.16,1.12-3.31,1.35-3.59.7-6.79-2.9-5.62-6.44.78-2.35,1.98-4.56,3-6.83,1.94-4.3.59-6.24-4.19-5.99-.46.02-.92.05-1.38.07,0,0,0-.02,0-.03Z"/>
  <path class="cls-1" d="m50.77,187.17c1.11-2.21,1.63-4.05,2.75-5.39,18.91-22.48,37.83-44.95,56.93-67.27,2.53-2.96,5.81-5.45,9.12-7.56,23.04-14.69,46.18-29.23,69.29-43.8.78-.49,1.55-1.12,2.41-1.31.7-.16,1.8-.01,2.22.45.51.57.74,1.64.64,2.44-.09.76-.72,1.47-1.16,2.17-14.67,23.27-29.27,46.59-44.1,69.76-2.4,3.75-5.48,7.27-8.86,10.17-21.61,18.5-43.4,36.8-65.13,55.17-4.03,3.41-8.11,3.29-11.24-.23-.97-1.1-1.15-2.04-.03-3.09.54-.51,1.05-1.04,1.57-1.57,27.18-27.18,54.36-54.35,81.54-81.53,3.23-3.23,3.77-5.68,1.73-7.83-2.13-2.25-4.74-1.75-8.04,1.55-27.05,27.05-54.08,54.11-81.17,81.11-1.12,1.12-3.61,2.74-3.98,2.41-1.76-1.53-3-3.65-4.5-5.66Z"/>
  <path class="cls-1" d="m139.16,1.34C159.75.9,180.34.47,200.92,0c2.1-.05,4.06.19,4.49,2.63.44,2.49-1.42,3.29-3.39,3.92-22.56,7.23-45.12,14.45-67.66,21.72-5.15,1.66-10.15,1.48-15.1-.7-14.52-6.38-29.06-12.7-43.55-19.14-1.14-.51-2.37-1.56-2.82-2.66-.7-1.69.93-3.07,3.42-3.13,16.71-.37,33.42-.73,50.13-1.06,4.25-.08,8.49-.01,12.74-.01,0-.08,0-.17,0-.25Z"/>
  <path class="cls-1" d="m254.67,117.18c-.44,20.41-.88,40.81-1.32,61.22-.02.74.21,1.6-.1,2.19-.51.97-1.25,2.28-2.12,2.47-.85.19-2.28-.58-2.91-1.36-.89-1.12-1.29-2.63-1.88-3.98-5.92-13.51-11.79-27.05-17.76-40.54-2.27-5.14-2.59-10.26-.86-15.62,7.28-22.55,14.5-45.11,21.72-67.67.63-1.98,1.48-3.79,3.98-3.29,2.44.48,2.63,2.46,2.58,4.54-.46,20.68-.9,41.36-1.35,62.05,0,0,.01,0,.02,0Z"/>
  <path class="cls-1" d="m32.12,208.63c-4.58-4.5-8.67-8.36-12.57-12.41-4.86-5.04-5.18-12.42-.95-17.66,1.93-2.4,3.28-2.54,5.47-.34,17.91,17.88,35.8,35.77,53.68,53.68,2.26,2.26,2.09,3.65-.49,5.65-5.28,4.08-12.5,3.72-17.45-1.05-4.05-3.9-7.92-7.99-12.08-12.22-4.19,3.19-8.31,6.13-12.19,9.35-8.03,6.66-15.95,13.45-23.89,20.21-3.43,2.92-4.49,2.92-7.65-.23-5.31-5.3-5.19-5.2-.38-10.88,9.49-11.19,18.83-22.5,28.51-34.1Z"/>
  <path class="cls-1" d="m88.19,102.77c-.89,1.33-1.26,2.36-1.99,2.91-1.9,1.44-3.82,2.97-5.97,3.96-8.62,3.98-17.33,7.77-26.01,11.64-1.42.64-3.1,1.26-3.73-.6-.3-.89.47-2.61,1.3-3.33,5.92-5.15,11.98-10.15,18.01-15.18,4.62-3.84,9.77-4.62,15.26-2.26,1.17.5,2,1.8,3.13,2.86Z"/>
  <path class="cls-1" d="m157.7,176.75c-.38,3.55-1.52,6.61-3.72,9.25-5.15,6.17-10.26,12.36-15.52,18.43-.66.76-2.31,1.38-3.17,1.09-1.68-.57-1.3-2.1-.68-3.49,3.95-8.84,7.8-17.72,11.86-26.51.99-2.14,2.49-4.11,4.04-5.9,1.78-2.04,4.25-1.65,5.32.83.86,2,1.26,4.19,1.87,6.3Z"/>
</svg>