<?xml version="1.0" encoding="UTF-8"?>
<svg id="Layer_1" data-name="Layer 1" xmlns="http://www.w3.org/2000/svg" viewBox="0 0 128 128">
  <defs>
    <style>
      .cls-1 {
        fill: #d4b55a;
        stroke-width: 0px;
      }
    </style>
  </defs>
  <path class="cls-1" d="m49.71,19.54c.76.16,1.16.2,1.52.34,12.98,4.91,25.99,9.74,38.91,14.78,4.12,1.61,8.03,3.78,12.01,5.74,1.57.77,1.75,1.61.74,3.01-10.32,14.35-19.52,29.43-29.03,44.31-1.14,1.79-1.14,1.81-3.17,1.12-15.89-5.44-31.75-10.96-46.88-18.33-1.8-.88-3.59-1.78-5.33-2.76-1.62-.91-1.78-1.69-.85-3.25,9.11-15.27,19.35-29.75,30.43-43.65.47-.59,1.2-.96,1.65-1.3Zm-3.04,14.35c-.04,2.73,1.93,4.82,4.55,4.83,2.8,0,5.82-3.02,5.82-5.84,0-2.54-2.31-4.86-4.83-4.87-3.09,0-5.49,2.55-5.54,5.89Zm11.23,26.09c2.73.06,5.59-2.76,5.67-5.59.07-2.52-1.89-4.54-4.48-4.61-3.12-.09-5.75,2.46-5.81,5.63-.05,2.65,1.83,4.51,4.61,4.57Zm9.01,21.91c2.96.08,5.63-2.32,5.72-5.13.07-2.53-2.1-4.57-4.95-4.65-3.06-.09-5.55,2.27-5.62,5.31-.06,2.64,1.84,4.39,4.86,4.47Z"/>
  <path class="cls-1" d="m116.31,71.22c-.34,1.15-.56,2.35-1.03,3.45-4.23,9.85-9.6,19.1-15.1,28.27-2.75,4.59-5.52,9.16-8.28,13.74-.11.19-.18.42-.34.55-.69.54-1.36,1.32-2.14,1.46-.37.06-1.11-1.06-1.42-1.77-3.29-7.71-6.51-15.45-9.8-23.16-.49-1.15-.47-2.06.14-3.17,7.67-14.07,16.09-27.66,25.5-40.65.94-1.3,1.94-2.57,2.99-3.79,1.07-1.24,2.15-1.07,2.85.36,2.49,5.11,6.08,18.94,6.64,24.71Zm-20.97,13.74c.09,1.04.54,2.04,1.69,2.55,1.43.63,2.78.27,3.89-.7,1.86-1.63,2.98-3.73,3.28-6.19.24-1.98-1.37-3.37-3.27-2.94-2.48.56-5.61,4.54-5.59,7.27Z"/>
  <path class="cls-1" d="m14.26,71.36c.39.14,1.02.32,1.61.57,8.31,3.47,16.56,7.09,24.93,10.38,9.51,3.74,19.13,7.21,28.73,10.72,1.31.48,2.09,1.17,2.59,2.46,2.72,6.96,5.52,13.89,8.3,20.82.24.6.63,1.16.78,1.79.14.57.3,1.43,0,1.74-.36.39-1.25.6-1.8.46-4.34-1.11-8.67-2.26-12.98-3.5-11.06-3.18-21.9-6.94-32.25-12.01-2.27-1.11-4.52-2.26-6.71-3.51-.8-.46-1.67-1.11-2.09-1.89-4.45-8.36-9.23-16.56-12.42-25.54-.12-.33-.24-.66-.28-1-.11-.97.33-1.48,1.58-1.49Zm10.88,10.63c-.38.25-1.3.53-1.45,1.04-.2.65-.03,1.71.41,2.21,1.7,1.92,4.07,2.78,6.5,3.32.54.12,1.54-.41,1.81-.91.26-.48.09-1.52-.3-1.98-1.72-2.04-4.04-3.08-6.98-3.67Zm21.67,13.98c1.96,0,2.91-1.22,2.26-2.58-.92-1.91-4.07-3.77-6.18-3.42-.74.12-1.74.72-1.97,1.34-.23.61.15,1.73.65,2.27,1.45,1.54,3.43,2.12,5.24,2.4Zm-1.17,6.52c-.32.23-1.16.55-1.51,1.15-.51.87.02,1.84.86,2.17,1.83.73,3.72,1.32,5.64,1.76.44.1,1.24-.55,1.57-1.05.2-.3-.02-1.17-.35-1.46-1.61-1.46-3.54-2.32-6.21-2.57Zm-9.74-.96c.36-.19,1.24-.39,1.51-.9.22-.43-.08-1.56-.49-1.81-1.8-1.09-3.7-2.05-5.64-2.85-.39-.16-1.32.41-1.65.89-.25.35-.17,1.31.14,1.63,1.56,1.64,3.41,2.82,6.14,3.04Zm24.42-5.18c-.38.23-1.28.55-1.81,1.17-.3.35-.24,1.56.08,1.78,1.87,1.28,3.94,2.23,6.3,1.92.52-.07,1.25-.63,1.37-1.1.13-.49-.2-1.3-.61-1.68-1.33-1.25-2.99-1.88-5.34-2.08Zm6.44,16.38c.73-.44,1.48-.75,2-1.29.24-.24.16-1.03-.05-1.42-.8-1.45-4.23-2.87-5.76-2.32-.6.22-1.3.86-1.45,1.44-.13.49.32,1.45.79,1.7,1.35.73,2.84,1.22,4.46,1.88Z"/>
  <path class="cls-1" d="m96.85,0c.28.74.72,1.47.81,2.24.26,2.2.41,4.41.56,6.62.44,6.35,4.95,7.65,9.45,6.47,3.06-.8,5.57-2.64,7.99-4.57,2.35-1.87,4.61-3.85,6.97-5.71.41-.32,1.32-.55,1.65-.32.76.53.05,1.12-.3,1.64-1.65,2.45-3.53,4.77-4.88,7.38-2.4,4.67-1.42,8.42,2.79,11.54,1.56,1.16,3.36,1.99,5.02,3.03.43.27.71.76,1.06,1.15-.44.28-.86.73-1.34.83-4.58.86-6.3,2.8-6.73,7.58-.04.48-.54.93-.82,1.39-.39-.33-.97-.59-1.14-1.02-4.38-10.98-12.7-17.7-23.52-21.68-3.02-1.11-6.13-1.94-9.2-2.9-.33-.1-.79-.11-.96-.34-.29-.37-.4-.89-.58-1.34.38-.12.76-.35,1.13-.34.78,0,1.56.21,2.33.21,2.75,0,5-1.12,6.21-3.59.98-2.01,1.54-4.22,2.28-6.34.21-.6.4-1.2.6-1.81l.62-.12Z"/>
  <path class="cls-1" d="m6.15,128c.46-.68.74-1.08,1-1.5,1.12-1.8,2.45-3.51,3.32-5.42,1.78-3.91.63-7.24-3.21-9.21-1.87-.96-3.99-1.42-5.98-2.16-.48-.18-1.2-.54-1.24-.89-.06-.49.26-1.2.66-1.55.91-.8,1.96-1.44,2.97-2.13,1.58-1.08,2.36-2.57,2.54-4.48.17-1.9.44-3.8.79-5.67.09-.48.65-.87.99-1.31.18.48.52.95.52,1.43.03,11.3,5.3,19.63,14.66,25.59,1.45.92,3.15,1.45,4.71,2.21.38.19.67.56,1,.85-.42.21-.84.59-1.26.59-5.43-.03-10.78.53-15.99,2.09-1.41.42-2.78.99-4.18,1.46-.29.1-.63.05-1.29.09Z"/>
  <path class="cls-1" d="m73.64,12.88c-.5-.15-1.16-.24-1.71-.55-.39-.22-.9-.76-.85-1.09.06-.44.59-1.14.94-1.15,1.03-.03,2.1.11,3.09.42.39.12.86.88.8,1.29-.05.35-.77.64-1.23.88-.25.13-.59.12-1.04.19Z"/>
  <path class="cls-1" d="m37.95,126.43c-.79-.73-1.54-1.14-1.84-1.76-.28-.58.95-1.31,2.09-1.2.81.08,1.93.19,1.74,1.25-.11.59-1.13,1.01-1.99,1.71Z"/>
</svg>