<?xml version="1.0" encoding="UTF-8"?>
<svg id="Layer_1" data-name="Layer 1" xmlns="http://www.w3.org/2000/svg" viewBox="0 0 128 128">
  <defs>
    <style>
      .cls-1 {
        fill: #d4b55a;
        stroke-width: 0px;
      }
    </style>
  </defs>
  <path class="cls-1" d="m127.63,128c-.63,0-1.09,0-1.55,0-5.72,0-11.43,0-17.15,0-2.4,0-2.97-.5-3.46-2.82-2.35-10.96-5.99-21.42-12.03-30.94-4.76-7.51-10.8-13.68-18.72-17.95-5.14-2.77-8.66-1.65-12.4,1.54-.16.14-.29.35-.47.42-.33.14-.78.36-1.01.24-.23-.12-.4-.65-.35-.96.25-1.42.49-2.86.91-4.24,1.33-4.34,3.51-8.12,7.35-10.77,1.25-.86,1.42-2.09.55-3.35-.77-1.13-1.6-2.21-2.43-3.3-.77-1.02-.85-2.07-.02-3.04,1.08-1.26,2.25-2.43,3.35-3.67.24-.27.32-.68.47-1.03-.35-.04-.72-.18-1.04-.1-3.4.82-6.12,2.73-8.37,5.35-.76.88-.79,1.86-.13,2.82.65.95,1.34,1.87,1.99,2.82.59.86.54,1.67-.23,2.41-6.04,5.74-7.98,12.99-7.7,21.04,0,.13.01.26.02.38.12,2.49-.14,2.76-2.61,2.66-13.58-.54-26.42,2.36-38.53,8.45-1.8.91-3.35.98-4.8-.38-2.08-1.94-4.24-3.83-6.07-5.99-2.81-3.3-3.92-7.12-2.6-11.44.16-.53.21-1.09.33-1.63.02-.11.14-.2.36-.48.26.45.52.79.68,1.17,2.27,5.56,6.29,6.44,10.6,2.26,2.89-2.8,4.88-6.24,6.64-9.81,1.43-2.9,2.66-5.91,4.05-8.83,2.29-4.78,5.98-8.25,10.49-10.88,1.61-.93,3.38-1.24,5.3-.98,3.87.53,7.74.51,11.56-.45,4.37-1.1,7.85-3.57,10.31-7.29,1.48-2.24,3.38-3.51,5.95-3.97,7.04-1.25,14.08-2.52,21.12-3.78.04,0,.09-.02.13-.01.61.14,1.23.28,1.84.42-.32.51-.55,1.1-.97,1.51-1.3,1.29-2.71,2.48-3.98,3.8-.41.43-.83,1.27-.66,1.7.18.46,1.02.88,1.61.93,9.72.91,19.02,3.38,27.96,7.27.23.1.51.15.69.32.26.23.45.55.66.83-.28.2-.54.53-.85.59-1.51.26-3.04.4-4.55.68-.43.08-.8.47-1.2.72.3.37.53.87.91,1.08,5.36,2.9,10.24,6.43,14.57,10.75,2.4,2.4,3.52,5.17,3.51,8.6-.06,18.52-.03,37.05-.03,55.57v1.74ZM37.51,59.24c-.36-.72-.55-1.77-1.13-2.07-.51-.27-1.58.11-2.18.53-2.48,1.75-4.31,4.09-5.59,6.85-.18.38-.32.8-.37,1.22-.22,1.62,1.13,2.91,2.52,2.45,3.54-1.2,6.46-5.17,6.75-8.97Z"/>
  <path class="cls-1" d="m98.77,33.64c.09-.3.14-.62.27-.91,4.71-9.95,10.78-18.89,19.53-25.75,2.36-1.85,5.04-3.33,7.63-4.88,1.19-.71,1.74-.33,1.74,1.05.01,6.78.01,13.57,0,20.35,0,1.53-.43,1.87-2.07,1.81-9.05-.3-17.36,2-24.88,7.08-.68.46-1.33.95-1.99,1.43-.08-.06-.15-.13-.23-.19Z"/>
  <path class="cls-1" d="m69.36,128c-3.97,0-7.94.02-11.9-.03-.46,0-.92-.36-1.38-.56.32-.34.58-.82.98-1.01,3.98-1.97,7.33-4.82,10.69-7.65,3.66-3.09,7.39-6.06,11.86-7.93.39-.16.79-.33,1.18-.48,2.74-1.02,3.68-.53,4.14,2.32.71,4.35.32,8.68-.48,12.98-.29,1.56-1.44,2.35-3.19,2.35-3.97.01-7.94,0-11.9,0Z"/>
  <path class="cls-1" d="m43.18,44.45c-4.05-.15-4.67-.88-3.79-4.73,1.22-5.31,3.44-10.24,5.7-15.16.49-1.07,1.12-1.07,1.88,0,1.74,2.43,3.96,4.19,6.97,4.51,1.89.2,3.83.03,5.74-.07,1.5-.07,1.82.18,1.46,1.63-1.7,6.85-6.37,10.77-12.85,12.8-1.65.52-3.41.69-5.11,1.02Z"/>
  <path class="cls-1" d="m58.65,26.38c-2.42-.03-4.76-.43-6.92-1.56-2.87-1.5-3.87-3.7-2.92-6.81.38-1.24.98-2.48,1.73-3.53,2.24-3.14,5.37-5.2,8.85-6.73,1.05-.46,1.48-.13,1.31.98-.64,4.24.29,7.8,4.2,10.14.63.38.66.84.12,1.33-1.34,1.22-2.08,2.72-2.46,4.52-.13.6-.98,1.21-1.64,1.48-.67.27-1.51.13-2.28.17Z"/>
  <path class="cls-1" d="m98.06,118.24c-2.58-.6-4.9-1.05-7.16-1.71-1.06-.31-1.48-1.39-1.49-2.48-.03-6.21-1.82-11.89-4.82-17.3-.98-1.78-1.34-3.92-1.87-5.93-.11-.42.25-.97.39-1.46.46.22,1.05.32,1.37.67,3.11,3.4,5.57,7.27,7.37,11.47,2.2,5.16,4.06,10.48,6.06,15.73.06.15.05.32.15,1.01Z"/>
  <path class="cls-1" d="m69.09,6.04c2.71.26,5.42.54,8.14.76.97.08,1.25.51,1.08,1.42-.37,2.03.08,3.89,1.22,5.6.55.82.35,1.28-.66,1.52-2.36.56-4.73,1.09-7.03,1.85-5.22,1.74-8.86-3.17-8.25-7.22.5-3.28,1.02-3.73,4.33-3.81.38,0,.77,0,1.15,0,0-.04,0-.08,0-.12Z"/>
  <path class="cls-1" d="m106.78,32.94c.16-.06.33-.1.49-.18,5.8-2.97,11.85-4.47,18.37-3.08,2.22.47,2.32.64,2.32,2.88,0,3.03,0,6.05,0,9.08,0,.41-.04.82-.22,1.43-4.84-7.81-12.35-9.72-20.78-9.66l-.18-.47Z"/>
  <path class="cls-1" d="m84.26,7.9c5.12-.05,8.96-2.04,10.85-7.07C95.24.5,95.65.28,95.92,0c.2.24.51.46.58.74.97,3.73.24,7.14-2.34,9.99-2.58,2.85-5.81,4.3-9.72,3.54-2.39-.46-3.77-3.09-2.85-5.36.18-.44.79-.78,1.28-.97.41-.16.92-.03,1.39-.03Z"/>
  <path class="cls-1" d="m89.83,119.58c2.23,1.3,4.56,1.95,7.1,1.82,2.42-.12,2.43-.08,3.04,2.25.25.95.47,1.9.73,2.84.26.94-.12,1.44-1.03,1.45-3.15.04-6.31.06-9.46,0-.36,0-1.02-.64-1.02-.98.02-2.3.19-4.59.32-6.89,0-.11.13-.21.32-.49Z"/>
</svg>