<?xml version="1.0" encoding="UTF-8"?>
<svg id="Layer_1" data-name="Layer 1" xmlns="http://www.w3.org/2000/svg" viewBox="0 0 90.19 158.45">
  <defs>
    <style>
      .cls-1 {
        fill: #d4b55a;
        stroke-width: 0px;
      }
    </style>
  </defs>
  <path class="cls-1" d="m45.09,158.45c-2.64-2.71-5.85-4.38-9.6-5.01-.21,0-.38-.03-.52-.1-12.73-2.37-22.48-9.26-29.23-20.67-3.83-6.47-5.74-13.05-5.74-19.73,0-3.97.66-7.93,1.98-11.9,1.88-5.85,4.91-10.33,9.08-13.47,3.41-2.57,5.36-4.21,5.85-4.91.07,0,1.18-1.88,3.34-5.64l6.68,25.26c-1.88-.97-3.44-1.46-4.7-1.46-1.74,0-3.41.63-5.01,1.88-2.3,1.81-3.44,5.39-3.44,10.75,0,2.99.52,5.85,1.57,8.56,2.09,5.5,5.83,10.11,11.22,13.83,5.39,3.72,11.26,5.58,17.59,5.58,5.5,0,10.58-1.22,15.24-3.65,7.03-3.69,11.73-9.57,14.09-17.64,1.11-3.76,1.67-7.31,1.67-10.65,0-8.21-3.72-15.76-11.17-22.65-2.92-2.78-6.23-4.18-9.92-4.18-1.88,0-3.17.17-3.86.52-1.25-5.5-4.59-9.15-10.02-10.96-6.89-2.92-11.97-5.6-15.24-8.04-5.71-4.24-9.46-9.64-11.27-16.18-.9-3.2-1.36-6.44-1.36-9.71,0-2.85.35-5.74,1.04-8.66,1.53-6.12,4.38-11.34,8.56-15.66,3.97-3.97,8.66-6.72,14.09-8.25,3.13-.9,5.81-2.47,8.04-4.7l1.04-1.04,1.57,1.57c2.02,2.02,4.42,3.48,7.2,4.38,3.41,1.18,6.51,2.96,9.29,5.32,6.12,5.36,9.19,12.21,9.19,20.56v1.88c-.07,1.04-.52,3.48-1.36,7.31-.49,1.95-.73,3.69-.73,5.22,0,.77.07,1.46.21,2.09l.42,2.92-20.56-12.53c.14,0,1.01-.31,2.61-.94,3.34-1.46,5.01-4.52,5.01-9.19,0-1.32-.17-2.57-.52-3.76-.77-2.85-2.47-4.98-5.11-6.37s-5.53-2.09-8.66-2.09c-4.66,0-8.46,1.32-11.38,3.97-3.62,3.2-5.6,7.9-5.95,14.09v1.04c0,9.74,6.54,17.36,19.62,22.86l3.86,1.67c2.02.9,4.07,1.36,6.16,1.36,1.53,0,3.44-.35,5.74-1.04l.73,2.4c.97,3.2,2.78,5.78,5.43,7.72,14.89,11.06,22.34,24.11,22.34,39.14,0,13.85-5.67,25.23-17.01,34.13-5.5,4.31-11.73,7.31-18.68,8.98-3.2.84-5.98,2.44-8.35,4.8l-1.04.94Z"/>
</svg>