<?xml version="1.0" encoding="UTF-8"?>
<svg id="Layer_1" data-name="Layer 1" xmlns="http://www.w3.org/2000/svg" viewBox="0 0 158.48 90.2">
  <defs>
    <style>
      .cls-1 {
        fill: #d4b55a;
        stroke-width: 0px;
      }
    </style>
  </defs>
  <path class="cls-1" d="m158.48,45.11c-2.71,2.64-4.38,5.85-5.01,9.6,0,.21-.03.38-.1.52-2.37,12.73-9.26,22.48-20.67,29.23-6.47,3.83-13.05,5.74-19.73,5.74-3.97,0-7.93-.66-11.9-1.98-5.85-1.88-10.33-4.91-13.47-9.08-2.57-3.41-4.21-5.36-4.91-5.85,0-.07-1.88-1.18-5.64-3.34l25.26-6.68c-.97,1.88-1.46,3.44-1.46,4.7,0,1.74.63,3.41,1.88,5.01,1.81,2.3,5.39,3.44,10.75,3.44,2.99,0,5.85-.52,8.56-1.57,5.5-2.09,10.11-5.83,13.83-11.22,3.72-5.39,5.58-11.26,5.58-17.59,0-5.5-1.22-10.58-3.65-15.24-3.69-7.03-9.57-11.73-17.64-14.09-3.76-1.11-7.31-1.67-10.65-1.67-8.21,0-15.76,3.72-22.65,11.17-2.78,2.92-4.18,6.23-4.18,9.92,0,1.88.17,3.17.52,3.86-5.5,1.25-9.15,4.59-10.96,10.02-2.92,6.89-5.6,11.97-8.04,15.24-4.24,5.71-9.64,9.46-16.18,11.27-3.2.9-6.44,1.36-9.71,1.36-2.85,0-5.74-.35-8.66-1.04-6.12-1.53-11.34-4.38-15.66-8.56-3.97-3.97-6.72-8.66-8.25-14.09-.9-3.13-2.47-5.81-4.7-8.04l-1.04-1.04,1.57-1.57c2.02-2.02,3.48-4.42,4.38-7.2,1.18-3.41,2.96-6.51,5.32-9.29,5.36-6.12,12.21-9.19,20.56-9.19h1.88c1.04.07,3.48.52,7.31,1.36,1.95.49,3.69.73,5.22.73.77,0,1.46-.07,2.09-.21l2.92-.42-12.53,20.56c0-.14-.31-1.01-.94-2.61-1.46-3.34-4.52-5.01-9.19-5.01-1.32,0-2.57.17-3.76.52-2.85.77-4.98,2.47-6.37,5.11s-2.09,5.53-2.09,8.66c0,4.66,1.32,8.46,3.97,11.38,3.2,3.62,7.9,5.6,14.09,5.95h1.04c9.74,0,17.36-6.54,22.86-19.62l1.67-3.86c.9-2.02,1.36-4.07,1.36-6.16,0-1.53-.35-3.44-1.04-5.74l2.4-.73c3.2-.97,5.78-2.78,7.72-5.43C81.5,7.45,94.55,0,109.58,0c13.85,0,25.23,5.67,34.13,17.01,4.31,5.5,7.31,11.73,8.98,18.68.84,3.2,2.44,5.98,4.8,8.35l.94,1.04.05.03Z"/>
</svg>