<?xml version="1.0" encoding="UTF-8"?>
<svg id="Layer_1" data-name="Layer 1" xmlns="http://www.w3.org/2000/svg" viewBox="0 0 512 160">
  <defs>
    <style>
      .cls-1 {
        fill: #d4b55a;
        stroke-width: 0px;
      }
    </style>
  </defs>
  <path class="cls-1" d="m45.09,159.23c-2.64-2.71-5.85-4.38-9.6-5.01-.21,0-.38-.03-.52-.1-12.73-2.37-22.48-9.26-29.23-20.67-3.83-6.47-5.74-13.05-5.74-19.73,0-3.97.66-7.93,1.98-11.9,1.88-5.85,4.91-10.33,9.08-13.47,3.41-2.57,5.36-4.21,5.85-4.91.07,0,1.18-1.88,3.34-5.64l6.68,25.26c-1.88-.97-3.44-1.46-4.7-1.46-1.74,0-3.41.63-5.01,1.88-2.3,1.81-3.44,5.39-3.44,10.75,0,2.99.52,5.85,1.57,8.56,2.09,5.5,5.83,10.11,11.22,13.83,5.39,3.72,11.26,5.58,17.59,5.58,5.5,0,10.58-1.22,15.24-3.65,7.03-3.69,11.73-9.57,14.09-17.64,1.11-3.76,1.67-7.31,1.67-10.65,0-8.21-3.72-15.76-11.17-22.65-2.92-2.78-6.23-4.18-9.92-4.18-1.88,0-3.17.17-3.86.52-1.25-5.5-4.59-9.15-10.02-10.96-6.89-2.92-11.97-5.6-15.24-8.04-5.71-4.24-9.46-9.64-11.27-16.18-.9-3.2-1.36-6.44-1.36-9.71,0-2.85.35-5.74,1.04-8.66,1.53-6.12,4.38-11.34,8.56-15.66,3.97-3.97,8.66-6.72,14.09-8.25,3.13-.9,5.81-2.47,8.04-4.7l1.04-1.04,1.57,1.57c2.02,2.02,4.42,3.48,7.2,4.38,3.41,1.18,6.51,2.96,9.29,5.32,6.12,5.36,9.19,12.21,9.19,20.56v1.88c-.07,1.04-.52,3.48-1.36,7.31-.49,1.95-.73,3.69-.73,5.22,0,.77.07,1.46.21,2.09l.42,2.92-20.56-12.53c.14,0,1.01-.31,2.61-.94,3.34-1.46,5.01-4.52,5.01-9.19,0-1.32-.17-2.57-.52-3.76-.77-2.85-2.47-4.98-5.11-6.37s-5.53-2.09-8.66-2.09c-4.66,0-8.46,1.32-11.38,3.97-3.62,3.2-5.6,7.9-5.95,14.09v1.04c0,9.74,6.54,17.36,19.62,22.86l3.86,1.67c2.02.9,4.07,1.36,6.16,1.36,1.53,0,3.44-.35,5.74-1.04l.73,2.4c.97,3.2,2.78,5.78,5.43,7.72,14.89,11.06,22.34,24.11,22.34,39.14,0,13.85-5.67,25.23-17.01,34.13-5.5,4.31-11.73,7.31-18.68,8.98-3.2.84-5.98,2.44-8.35,4.8l-1.04.94Z"/>
  <path class="cls-1" d="m172.44,155.05h-74.74c5.01-7.45,7.52-15.69,7.52-24.74v-37.26c0-1.11-.17-2.54-.52-4.28h-.1l-.21-.94c-.84-2.85-2.33-5.36-4.49-7.52,2.16-2.09,3.65-4.56,4.49-7.41l.21-.84.1-.21c.21-1.04.31-1.77.31-2.19.14-.7.21-1.36.21-1.98V30.31c0-8.98-2.51-17.19-7.52-24.63h74.74v22.34c-7.52-4.94-15.76-7.41-24.74-7.41h-27.56v52.3h12.63c8.98,0,17.22-2.51,24.74-7.52v29.85c-7.52-4.94-15.76-7.41-24.74-7.41h-12.63v52.3h27.56c8.98,0,17.22-2.51,24.74-7.52v22.44Z"/>
  <path class="cls-1" d="m253.44,155.05h-74.74c5.01-7.45,7.52-15.69,7.52-24.74v-37.26c0-1.11-.17-2.54-.52-4.28h-.1l-.21-.94c-.84-2.85-2.33-5.36-4.49-7.52,2.16-2.09,3.65-4.56,4.49-7.41l.21-.84.1-.21c.21-1.04.31-1.77.31-2.19.14-.7.21-1.36.21-1.98V30.31c0-8.98-2.51-17.19-7.52-24.63h74.74v22.34c-7.52-4.94-15.76-7.41-24.74-7.41h-27.56v52.3h12.63c8.98,0,17.22-2.51,24.74-7.52v29.85c-7.52-4.94-15.76-7.41-24.74-7.41h-12.63v52.3h27.56c8.98,0,17.22-2.51,24.74-7.52v22.44Z"/>
  <path class="cls-1" d="m289.56,155.05h-29.85c5.01-7.45,7.52-15.69,7.52-24.74v-37.26c0-4.94-1.77-9.19-5.32-12.73,3.55-3.48,5.32-7.69,5.32-12.63V30.31c0-8.98-2.51-17.19-7.52-24.63h29.85c-4.94,7.45-7.41,15.66-7.41,24.63v37.37c0,1.39.17,2.82.52,4.28l35.49-56.37c1.04-1.67,1.57-3.34,1.57-5.01,0-1.81-.59-3.58-1.77-5.32h24.32l-40.4,64.2,39.35,85.18h-23.28l1.04-1.57c1.11-1.67,1.67-3.38,1.67-5.11,0-1.32-.31-2.68-.94-4.07l-27.35-59.39-10.23,16.28v29.54c0,9.05,2.47,17.29,7.41,24.74Z"/>
  <path class="cls-1" d="m423.27,155.05h-74.74c5.01-7.45,7.52-15.69,7.52-24.74v-37.26c0-1.11-.17-2.54-.52-4.28h-.1l-.21-.94c-.84-2.85-2.33-5.36-4.49-7.52,2.16-2.09,3.65-4.56,4.49-7.41l.21-.84.1-.21c.21-1.04.31-1.77.31-2.19.14-.7.21-1.36.21-1.98V30.31c0-8.98-2.51-17.19-7.52-24.63h74.74v22.34c-7.52-4.94-15.76-7.41-24.74-7.41h-27.56v52.3h12.63c8.98,0,17.22-2.51,24.74-7.52v29.85c-7.52-4.94-15.76-7.41-24.74-7.41h-12.63v52.3h27.56c8.98,0,17.22-2.51,24.74-7.52v22.44Z"/>
  <path class="cls-1" d="m512,155.05h-23.28l1.04-1.57c1.11-1.67,1.67-3.41,1.67-5.22,0-1.32-.31-2.68-.94-4.07l-25.99-56.37h-12.53v42.48c0,9.05,2.47,17.29,7.41,24.74h-29.85c5.01-7.45,7.52-15.69,7.52-24.74v-37.26c0-4.94-1.77-9.19-5.32-12.73,3.55-3.48,5.32-7.69,5.32-12.63V30.31c0-8.98-2.51-17.19-7.52-24.63h37.37c11.34,0,21.02,4,29.02,12,8,8,12,17.68,12,29.02,0,8.98-2.61,17.03-7.83,24.16-5.22,7.13-11.93,12.09-20.15,14.87l32.05,69.31Zm-45.09-82.15c7.31,0,13.74-2.57,19.31-7.72,5.57-5.15,8.35-11.31,8.35-18.48s-2.78-13.22-8.35-18.37c-5.57-5.15-12-7.72-19.31-7.72h-14.93v52.3h14.93Z"/>
</svg>