<?xml version="1.0" encoding="UTF-8"?>
<svg id="Layer_1" data-name="Layer 1" xmlns="http://www.w3.org/2000/svg" viewBox="0 0 1024 1024">
  <defs>
    <style>
      .cls-1 {
        fill: #5e7a78;
        stroke-width: 0px;
      }
    </style>
  </defs>
  <path class="cls-1" d="m996.12,300.52c-18.59-26.74-37.18-53.49-57.5-82.72,1.86,6.5,2.8,10.38,4.08,14.14,10.71,31.5,26.53,60.1,48.02,85.61,14.01,16.63,11.74,36.77-7.64,46.22-24.77,12.07-50.76,21.98-76.94,30.71-33.54,11.19-66.75,22.46-98.09,39.4-13.54,7.32-29.85,10.66-45.31,12.74-6.66.89-16.78-4.1-21.2-9.69-30.6-38.75-45.67-82.73-40.58-132.63,3.78-37.1,41.91-66.68,75.48-58.57,16.84,4.07,29.14,18.64,30.04,35.59.89,16.8-8.12,29.37-25.96,35.44-8.94,3.04-13.36,8.66-14.22,18.2-3.11,34.39,7.86,44.59,40.71,33.71,24.85-8.24,48.92-19.26,72.55-30.67,19.71-9.52,29.04-26.06,25.11-48.71-5.87-33.9-14.02-67.13-29.05-98.29-3.3-6.84-7.33-13.36-11.37-19.8-12.21-19.46-28.94-27.28-52.66-25.2-50.78,4.45-99.16,15.65-142.86,42.82-10.57,6.57-20.8,13.87-30.35,21.84-20.69,17.26-30.29,39.99-30.44,66.78-.35,64.17,10.14,126.22,36.38,185.18,12.82,28.81,9.93,41.46-15.32,60.83-17.86,13.71-36.53,26.37-54.84,39.49-23.94,17.16-44.2,37.8-60.06,62.72-1.69,2.65-4.79,4.4-7.24,6.57-2.02-2.61-4.58-4.96-5.96-7.87-6.08-12.83-11.52-25.97-17.76-38.71-4.57-9.34-2.74-16.55,5.09-22.92,3.49-2.84,6.56-6.18,9.86-9.25,37.36-34.76,44.83-77.76,35.28-125.8-10.15-51.06-19.02-102.41-15.42-154.73,1.22-17.76,4.57-35.86,10.16-52.74,10.26-30.97,31.89-52.99,62.67-63.78,88.41-30.97,172.96-70.82,257.69-110.29,14.45-6.73,28.95-9.96,44.16-4.16,17.3,6.59,29.15,18.79,28.9,37.97-.98,74.53,27.98,138.12,69.89,197.35,4.35,6.15,6.95,13.55,10.36,20.38-1.89.95-3.78,1.89-5.67,2.84Zm-454.4-59.51c-.92-.2-1.83-.4-2.75-.6-1.53,4.08-3.49,8.05-4.53,12.24-9.89,39.91-6.07,79.73.72,119.61,7.08,41.52,18.15,82.75,10.53,125.56-.33,1.84,1.22,4,2.5,7.83,9.61-9.38,13.17-19.71,15.19-30.45,6.36-33.71.37-66.9-5.03-100.08-6.95-42.67-16.87-84.99-14.89-128.7.08-1.77-1.13-3.6-1.74-5.41Z"/>
  <path class="cls-1" d="m317.44,766.82c-6.4-13.31-12.49-26.09-18.69-38.83-20.46-42.03-40.87-84.09-61.52-126.02-4.67-9.48-6.03-18.72-3.02-29.06,8.64-29.72,6.84-58.86-6.01-87.21-3.57-7.87,2.14-19.8,10.41-20.64,2.38-.24,6.21,3.51,7.69,6.33,13.36,25.45,26.35,51.09,39.44,76.68,78.38,153.22,156.76,306.44,235.13,459.66,1.1,2.16,2.13,4.36,3.24,6.51,3.02,5.86,1.82,9.47-5.31,9.49-21.84.05-43.69.18-65.52-.11-9.13-.12-13.82-6.38-17.54-14.06-28.07-57.97-56.31-115.85-84.5-173.75-1.21-2.49-2.43-4.98-3.71-7.43-6.59-12.58-14.63-15.47-27.27-9.2-35.53,17.61-63.87,43.73-87.63,75.08-27.24,35.94-46.71,76.06-62.38,118.08-3.16,8.47-7.21,12.03-16.51,11.63-17.18-.73-34.41-.21-55.24-.21,21.95-24.31,40.88-47.2,51.44-75.28-.79-.72-1.58-1.45-2.37-2.17-2.8,2.47-5.69,4.84-8.39,7.42-22.3,21.28-44.68,42.47-66.77,63.96-7.42,7.22-15.71,6.73-27.27,5.06,4.28-3.88,6.73-6.53,9.58-8.62,59.76-43.95,105.9-99.48,139.59-165.34,11-21.5,27.59-35.67,49.33-45.33,21.81-9.68,43.07-20.59,64.53-31.05,3.05-1.49,5.85-3.49,9.31-5.58Z"/>
  <path class="cls-1" d="m610.16,1023.77c-8.32,0-16.67-.38-24.97.09-11.19.63-17.93-4.46-22.91-14.22-94.2-184.5-188.58-368.9-282.8-553.38-2.05-4.01-7.5-8.73-.02-13.13,9.92-5.83,16.54-5.06,21.54,2.4,6.55,9.77,12.78,19.82,20.01,29.07,12.62,16.16,29.79,25.71,49.38,30.84,13.05,3.41,21.19,11.35,27.29,23.35,81.07,159.29,162.45,318.43,243.76,477.61,1.1,2.16,2.12,4.37,3.27,6.5,3.91,7.24,2.52,11.13-6.45,10.94-9.36-.2-18.73-.05-28.09-.05Z"/>
  <path class="cls-1" d="m198.65,345.9c15.57-.8,31.15-1.47,46.71-2.45,8.3-.52,14.93,1.33,18.96,9.48,3.55,7.17,9.16,7.68,16.63,5.46,47.69-14.19,96.33-22.91,146.23-23.04,29.39-.08,30.5,2.05,20.62,29.21-13.9,38.2-12.01,30.71-46.8,27.72-84.3-7.26-160.45,11.36-222.9,71.88-22.87,22.16-40.5,48.2-54.57,76.72-7.53,15.27-11.41,17.04-27.86,13.77-12.56-2.5-25.07-5.4-37.73-7.19-8.36-1.18-9.33-5.39-5.7-11.22,6.21-9.97,12.52-20.03,20.01-29.03,30.67-36.89,64.06-71.06,103.07-99.32,6.81-4.94,8.17-10.26,4.65-17.83-5.39-11.61-10.15-23.52-15.25-35.27-3.09-7.11-1.21-10.42,6.88-10.16,9,.29,18.02.07,27.03.07,0,.41.02.81.03,1.22Z"/>
  <path class="cls-1" d="m149.48,84.15c.01,39.41-17.95,63.3-47.64,65.93-11.6,1.03-25.14-2.33-35.48-7.96C34.45,124.76,15.6,77.63,24.35,42.29,33.43,5.6,71.78-11.29,104.23,8.16c30.87,18.51,43.36,47.99,45.25,75.99Zm-39.5-.15c-.62-12.08-5.58-23.99-15.5-33.45-5.97-5.69-13.11-9.39-21.64-5.59-8.36,3.72-11.03,11.24-10.99,19.57.06,13.7,5.1,25.68,14.8,35.36,6.12,6.11,13.41,10.33,22.36,6.34,8.77-3.91,10.92-11.79,10.97-22.23Z"/>
  <path class="cls-1" d="m121.66,253.97c27.94,0,54.21-.46,80.45.42,4.75.16,11.03,4.78,13.64,9.13,9.24,15.4,17.23,31.55,25.62,47.45,3.17,6.02,1.26,9.32-5.6,9.33-24.91.02-49.84.44-74.72-.46-4.93-.18-11.95-4.44-14.09-8.75-9.29-18.79-17.12-38.29-25.3-57.11Z"/>
  <path class="cls-1" d="m196.55,227.67c-5.34,1.27-8.29,2.67-11.19,2.56-22.47-.85-44.96-1.65-67.38-3.37-3.84-.3-8.84-4.17-10.73-7.75-5.31-10.06-9.36-20.79-13.75-31.32-2.7-6.47-1-10.2,6.49-11.78,17.85-3.78,35.5-8.47,53.36-12.16,2.95-.61,8.27.95,9.57,3.2,11.23,19.34,21.8,39.07,33.63,60.63Z"/>
</svg>