<?xml version="1.0" encoding="UTF-8"?>
<svg id="Layer_1" data-name="Layer 1" xmlns="http://www.w3.org/2000/svg" viewBox="0 0 1024 1024">
  <defs>
    <style>
      .cls-1 {
        fill: #735a84;
        stroke-width: 0px;
      }
    </style>
  </defs>
  <path class="cls-1" d="m600.89,400.03c-6.33,9.17-10.6,16.49-15.96,22.9-11.51,13.78-26.17,19.15-43.81,13.87-17.53-5.25-26.79-17.34-29.27-35.39-5.8-42.27,19.31-73.92,63.81-85.37,51.53-13.25,94.97,31.88,106.03,68.62,10.54,35.02,4.84,68.54-8.74,101.56-32.35,78.66-116.9,101.95-182.01,86.48-55.84-13.27-102.49-42.91-144.85-80.31-9.3-8.21-12.68-19.21-11.94-31.36,3.71-61.08,12.98-121.05,35.08-178.55,7.42-19.31,17.56-36.69,31.57-52,31.91-34.87,67.57-65.26,107.4-90.68,26.88-17.15,56.78-23.93,88.26-24.88,1.79-.05,3.6.73,5.78,3.47-6.78,2.29-13.58,4.54-20.35,6.87-6.1,2.1-12.34,3.94-18.17,6.64-2.16,1-3.32,4.16-4.93,6.33,2.33.87,4.73,2.65,6.98,2.48,23-1.75,45.84-.12,67.69,6.83,25.22,8.02,50.04,17.42,74.6,27.32,22.38,9.02,44.03,19.8,66.25,29.25,16.08,6.84,28.42,17.57,35.99,33.13,10.86,22.31,20.9,45.01,31.55,67.42,1.44,3.03,4.37,5.34,6.6,7.99,1.12-3.23,3.08-6.42,3.24-9.7,2.29-46.78-16.24-84.66-50.03-115.91-3-2.77-6.32-5.32-8.77-8.53-1.38-1.79-1.28-4.71-1.85-7.12,2.45-.13,5.59-1.31,7.23-.23,10.48,6.91,21.45,13.4,30.73,21.74,33.33,29.95,49.8,69.32,58.64,112.03,13.11,63.33,12.13,127.21,4.54,191.13-.22,1.84-1.45,3.56-4.37,5.64-3.53-15.65-7.06-31.3-10.59-46.94-1.33-.03-2.67-.06-4-.09-1.18,2.77-2.73,5.45-3.49,8.33-11.05,42-34.49,75.38-70.85,98.93-61.97,40.14-123.82,80.54-190.5,112.74-2.98,1.44-6.04,2.75-9.78,3.11,14.1-11.42,28.26-22.75,42.27-34.27,51.62-42.46,98.1-89.49,130.94-148.52,2.64-4.74,5.32-9.58,7-14.69.75-2.28-.9-5.35-1.46-8.07-2.45.58-5.14.7-7.27,1.86-2,1.09-3.4,3.27-5.06,4.99-16.8,17.39-33.55,34.83-50.46,52.12-2.94,3.01-6.56,5.35-9.86,8-.96-.68-1.92-1.36-2.88-2.03,1.69-3.48,2.99-7.23,5.14-10.4,25.03-36.83,46.08-75.5,55.85-119.44,6.51-29.3,7.18-58.68,1.08-88.15-3.7-17.84-11.69-33.24-24.99-45.85-30.55-28.96-66.33-49.84-104.67-66.27-21.7-9.3-44.04-7.09-65.44,2.52-27.34,12.28-51.49,29.2-71.78,51.32-39.89,43.5-49.97,116.53-23.68,169.07,13.53,27.05,35.23,43.67,64.5,50.19,19.7,4.39,35.68-2.72,47.29-18.74,12.68-17.51,16.1-37.74,15.77-61.42Zm-158.72-34.17c12.12-76.04,56.36-128.2,115.76-172.26-72.31,13.66-130.7,100.43-115.76,172.26Z"/>
  <path class="cls-1" d="m590.49,883.34c-37.83-19.19-74.52-38.41-111.8-56.43-17.38-8.4-35.57-15.47-53.96-21.36-25.8-8.26-52.4-11.56-79.62-7.8-4.52.62-9.41-1.36-14.12-2.15,2.28-5.02,3.25-11.55,7.03-14.83,37.44-32.42,79.47-44.53,127.79-27.52,26.91,9.47,53.71,19.5,81.14,27.2,30.29,8.51,61.22,6.62,90.17-5.44,28.81-12,54.64-8.26,79,9.21,22.11,15.86,42.98,33.48,65.2,49.16,22.45,15.85,45.12,31.7,69.13,44.95,25.3,13.96,53.32,17.72,82.23,12.99,3.13-.51,8.43.68,9.6,2.8,1.32,2.39-.02,7.26-1.74,10.13-11.86,19.77-28.34,35.44-48.85,45.21-32.17,15.32-65.34,28.56-98.05,42.77-10.91,4.74-21.86,9.42-32.54,14.66-17.85,8.77-18.59,8.36-32.65-4.93-10.1-9.55-21.27-17.99-32.2-26.62-2.98-2.35-6.82-3.6-11.45-5.96,13.96,17.8,26.77,34.14,39.73,50.66-8.2,7.88-10.97,2.24-14.08-1.96-17.73-23.95-39.31-43.37-66.63-55.77-24.51-11.12-51-11.56-77.1-12.18-51.98-1.23-103.06,7.27-153.97,16.7-31.1,5.75-62.23,11.3-93.29,17.24-15.06,2.88-26.25-3.25-36.53-13.42-14.01-13.87-27.59-28.42-43-40.6-43.59-34.46-93.72-53.08-149-58.2-3.52-.33-9.3-2.81-9.63-4.96-.53-3.45,1.67-8.46,4.39-11.08,18.23-17.51,40.64-23.98,65.46-23.26,40.99,1.19,77.58,16.69,112.56,36.14,17.47,9.72,34.08,21.31,49.85,33.63,10.17,7.94,20.49,11.18,32.18,7.63,20.41-6.2,40.55-13.34,60.68-20.43,22.06-7.78,43.73-16.79,66.06-23.67,14.16-4.36,28.9-2.63,43.09,2.73,15.9,6.01,31.96,11.61,48.07,17.01,8.68,2.91,17.68,5.85,26.88-2.25Z"/>
  <path class="cls-1" d="m289.3,405.9c-3.17-9.81-7.1-19.46-9.33-29.49-2.88-12.92-4.4-26.14-6.53-39.22-.38-2.34-.25-5.05-1.42-6.92-1.97-3.16-4.8-5.8-7.26-8.66-2.85,2.57-6.92,4.62-8.29,7.82-2.64,6.17-4.51,12.9-5.4,19.57-9.89,74.32,9.91,140.62,63.25,192.52,55.05,53.57,122.86,85.44,200.49,90.55,38.43,2.53,74.22-11.19,108.43-28.28,4.52-2.26,10.1-2.4,15.18-3.52-2.91,4.22-5.14,9.17-8.83,12.53-29.63,27-62.68,48.93-98.72,66.52-8.1,3.96-14.6,4-22.74-.27-40.81-21.39-83.2-38.77-128.74-47.3-5.91-1.11-12.06-.92-18.58-.03,28.06,23.25,63.36,32.58,95.07,48.59-.25,1.13-.51,2.26-.76,3.4-2.62,0-5.47.68-7.83-.1-72.52-23.81-144.57-48.8-205.58-96.89-33.88-26.7-59.22-59.91-72.84-101.34-1.11-3.36-1.49-6.96-2.21-10.45.73-.63,1.47-1.25,2.2-1.88,2.65,1.76,5.68,3.15,7.88,5.36,6.22,6.26,11.65,13.4,18.32,19.1,3.21,2.74,8.51,3.02,12.87,4.41,1.25-4.36,3.88-8.84,3.53-13.07-1.56-18.65-3.54-37.28-6.2-55.8-4.1-28.62-8.76-57.17-13.46-85.7-1.04-6.33-2.61-12.73-5.06-18.62-4.74-11.38-12.19-12.56-21.38-4.02-3.26,3.03-6.5,6.09-9.75,9.14-1.01-.41-2.02-.83-3.03-1.24.38-6.84.18-13.77,1.23-20.51,9.48-60.88,40.99-109.82,84.56-151.4,61.58-58.77,129.95-108.64,203.3-151.83,17.21-10.14,34.88-10.14,53.28-7.1,36.6,6.04,72.87,13.53,107.66,26.88,2.99,1.15,5.84,2.67,8.75,4.01-.13.97-.26,1.94-.4,2.92-3.29.21-6.6.77-9.87.58-56.75-3.24-111.36,4.85-162.32,31.28-66.47,34.48-106.76,90.44-128.34,160.59-16.13,52.43-24.28,106.07-17.39,161.19.65,5.17.09,10.49.09,15.74-1.28.31-2.56.63-3.84.94Z"/>
  <path class="cls-1" d="m267.24,839.78c-2.54-.92-5.02-1.66-7.37-2.69-15.23-6.63-30.7-12.81-45.53-20.23-5.92-2.96-12.79-7.71-15.19-13.37-12.27-28.93-29.84-54.04-50.85-77.1-2.84-3.11-3.7-8.02-5.48-12.09,4.29-1.36,8.61-3.98,12.85-3.87,37.23,1.01,62.39,22.22,82.46,50.97,14.75,21.14,23.53,45.08,30.15,69.84.43,1.61.54,3.36.48,5.03-.03.9-.73,1.78-1.51,3.51Z"/>
  <path class="cls-1" d="m684.61,562.31c-6.96,9.29-13.14,16.59-24.85,17.71,4.17-13.52,11.44-18.89,24.85-17.71Z"/>
  <path class="cls-1" d="m143.17,420.94c4.88-3.8,7.87-6.13,10.87-8.46,2.04,3.09,5.85,6.31,5.62,9.22-.22,2.84-4.23,6.81-7.21,7.48-1.91.43-4.96-4.22-9.28-8.24Z"/>
</svg>