<?xml version="1.0" encoding="UTF-8"?>
<svg id="Layer_1" data-name="Layer 1" xmlns="http://www.w3.org/2000/svg" viewBox="0 0 128 128">
  <defs>
    <style>
      .cls-1 {
        fill: #dedc00;
      }

      .cls-1, .cls-2, .cls-3, .cls-4, .cls-5 {
        stroke-width: 0px;
      }

      .cls-2 {
        fill: #e30613;
      }

      .cls-3 {
        fill: #f39200;
      }

      .cls-4 {
        fill: #f6f6f6;
      }

      .cls-5 {
        fill: #9d9d9c;
      }
    </style>
  </defs>
  <path class="cls-2" d="m124.76,49.03c.42-4.17-.29-8.14-2.53-11.75-.22-.35-.7-.54-1.07-.81-.22.35-.49.68-.64,1.05-.76,1.99-1.29,4.11-2.27,5.98-2.08,3.97-4.89,7.34-9.17,9.14-2.41,1.01-4.8.97-7.12-.31-1.47-.81-1.75-1.79-.82-3.19.65-.97,1.49-1.81,2.18-2.75.26-.36.35-.85.51-1.28-.48-.14-.94-.36-1.43-.41-2-.2-4.06-.12-6.01-.57-3.22-.73-6.32-2.05-9.55-2.66-10.23-1.94-20.35-1.4-30.24,2.03-6.34,2.2-11.9,5.62-16.03,11.05-3.24,4.25-5.12,9.09-5.06,14.39.06,5.97,2.89,10.75,7.7,14.3,1.43,1.05,2.94,2,4.41,3,4.14,2.85,7.03,6.6,8.43,11.48.45,1.59,1.02,3.15,1.65,4.68,1.72,4.2,4.81,6.77,9.27,7.72,3.37.72,6.76.75,10.13.26,3.38-.49,6.59-.31,9.67,1.27.26.13.58.14,1.22.28-.34-.62-.44-1.05-.7-1.23-1.37-.97-2.67-2.17-4.2-2.73-1.74-.64-3.69-.84-5.57-.99-2.77-.22-5.44-.74-7.93-1.99-2.69-1.35-4.55-3.48-5-6.46-.32-2.09-.13-4.25-.11-6.38,0-.26.34-.61.61-.73.13-.06.51.28.68.51.18.25.26.58.38.88,1.97,5.09,5.5,8.57,10.64,10.42,5.81,2.1,11.65,2.41,17.57.39,3.6-1.22,7.24-2.31,11.12-2.12.28.01.78-.14.82-.31.08-.29-.03-.72-.22-.98-1.04-1.45-2.58-1.94-4.26-2.27-1.36-.27-2.8-.57-4-1.22-1.68-.92-1.6-2.55.15-3.31,1.46-.63,3.06-1.06,4.64-1.27,4.93-.65,9.13-2.68,12.49-6.33,5.69-6.2,8.21-13.79,9.36-21.94.14-1.03-.44-1.41-1.51-1.24-1.11.17-2.23.34-3.36.38-.41.02-1.13-.24-1.19-.5-.09-.39.13-1.03.44-1.33,3.52-3.31,5.43-7.4,5.91-12.16Zm-30.41,20.73c-2.04.39-4.18.26-6.25.56-1.61.23-3.29.52-4.74,1.19-2.35,1.09-2.95,3.23-1.9,5.61,1.02,2.31,2.81,3.92,4.89,5.23.27.17.62.27.83.5.29.33.72.79.66,1.12-.06.34-.61.8-.99.85-3.07.4-6.16.97-9.25,1-8.2.07-15.69-2.31-22.29-7.24-3.1-2.31-5.61-5.15-6.72-8.96-1.13-3.86-.19-7.26,2.78-9.92,4.36-3.89,9.5-5.5,15.33-4.87,4.78.52,9.32,1.9,13.79,3.58.41.15.81.31,1.22.47.08-.08.17-.17.25-.25-.18-.24-.31-.58-.55-.7-4.22-2.1-8.6-3.7-13.29-4.37-3.76-.53-7.49-.53-11.11.85-.18.07-.42-.01-.63-.02-.03-.11-.07-.23-.1-.34.48-.26.94-.56,1.43-.79,6.51-3.03,13.18-3.15,19.96-1.09,3.66,1.11,6.99,2.91,10.29,4.81,2.89,1.66,5.88,3.21,8.93,4.55,1.43.62,3.14.58,4.7.92.61.13,1.47.34,1.67.77.21.44-.07,1.34-.44,1.79-2.18,2.71-5.17,4.12-8.49,4.76Zm9,10.61c-1.16,1.23-2.64,1.66-4.29,1.73-.59-.13-1.21-.18-1.75-.41-.85-.36-1.15-1.08-.94-1.99.58-2.44,4.87-4.07,6.93-2.64,1,.7,1.03,2.26.04,3.31Z"/>
  <path class="cls-3" d="m102.84,65.01c-2.18,2.71-5.17,4.12-8.49,4.76-2.04.39-4.18.26-6.25.56-1.61.23-3.29.52-4.74,1.19-2.35,1.09-2.95,3.23-1.9,5.61,1.02,2.31,2.81,3.92,4.89,5.23.27.17.62.27.83.5.29.33.72.79.66,1.12-.06.34-.61.8-.99.85-3.07.4-6.16.97-9.25,1-8.2.07-15.69-2.31-22.29-7.24-3.1-2.31-5.61-5.15-6.72-8.96-1.13-3.86-.19-7.26,2.78-9.92,4.36-3.89,9.5-5.5,15.33-4.87,4.78.52,9.32,1.9,13.79,3.58.41.15.81.31,1.22.47.08-.08.17-.17.25-.25-.18-.24-.31-.58-.55-.7-4.22-2.1-8.6-3.7-13.29-4.37-3.76-.53-7.49-.53-11.11.85-.18.07-.42-.01-.63-.02-.03-.11-.07-.23-.1-.34.48-.26.94-.56,1.43-.79,6.51-3.03,13.18-3.15,19.96-1.09,3.66,1.11,6.99,2.91,10.29,4.81,2.89,1.66,5.88,3.21,8.93,4.55,1.43.62,3.14.58,4.7.92.61.13,1.47.34,1.67.77.21.44-.07,1.34-.44,1.79Z"/>
  <path class="cls-3" d="m38.89,40.03c-.85-1.1-1.68-2.22-2.56-3.29-.32-.4-.76-.71-1.14-1.06-.26.49-.7.97-.77,1.48-.54,4.42.94,8.1,4.28,11.04.39.35.78.69,1.17,1.04-1.11,1.49-1.28,1.5-2.48.25-2.12-2.22-3.7-4.76-4.55-7.74-.36,2.48.13,4.78,1.41,6.89.56.93,1.21,1.81,1.83,2.71.58.85.57,1.63-.15,2.41-.61.65-1.14,1.36-1.73,2.03-.93,1.07-1.55,1.13-2.69.26-4.85-3.71-7.97-8.58-9.18-14.54-2.23-10.96.54-20.8,7.13-29.67.2-.27.54-.43.82-.64.19.28.46.53.54.83.43,1.6,1.44,2.78,2.68,3.8.62.51,1.29.98,1.94,1.45,2.03,1.48,4.14,2.91,4.35,5.85,2.1-4.65,6.18-6.74,10.44-8.62,2.14-.95,4.3-1.87,6.37-2.94,2.59-1.33,4.66-3.2,5.52-6.13.08-.26.47-.66.59-.62.3.11.63.37.77.66,1.14,2.31,1.37,4.8,1.34,7.32-.02,2.32-.39,4.59-1.89,6.66.27-.01.42.01.55-.03,4.2-1.31,8.36-1.03,12.52.23,1.97.6,3.94,1.2,5.93,1.69,1.8.44,3.6.35,5.35-.38.31-.13.68-.1,1.02-.14.02.34.12.71.03,1.02-1.44,4.93-4.23,8.85-8.63,11.57-1.49.92-3.09,1.33-4.82,1.41-5.33.23-10.66.46-15.84,1.92-1.47.42-2.91.96-4.32,1.55-.89.37-1.34.17-1.64-.73-.5-1.52-.46-3.01.1-4.51.35-.94.73-1.9.88-2.88.21-1.38-.52-2.15-1.92-2.16-3.38-.02-6.03,1.59-8.32,3.9-2.2,2.22-3.67,4.89-4.56,7.9-.13.07-.25.14-.38.22Zm24.62-9.27c2.19-.25,4.27-.69,5.96-2.15,1.18-1.01,1.06-2.05-.32-2.76-.63-.32-1.35-.56-2.06-.63-2.23-.24-4.39-.03-6.03,1.71-1.52,1.62-.98,3.22,1.17,3.66.43.09.87.12,1.28.17Z"/>
  <path class="cls-1" d="m9.01,30.76c1.13.7,2.36,1.28,3.38,2.12,2.14,1.76,3.23,4.21,4.03,6.78.87,2.77,1.59,5.59,2.47,8.35,1.11,3.48,2.69,6.67,5.91,8.75.71.46.55,1.04-.17,1.21-1,.24-2.06.37-3.08.33-1.08-.04-1.36.38-1,1.28.3.73.66,1.49,1.17,2.07.73.84.51,1.32-.34,1.79-1.49.82-3.04,1.28-4.76,1.07-.38-.05-.78,0-1.45,0,1.02,2.32,2.67,3.54,4.85,4.16,2.2.62,4.27.13,6.4-1.06-.14,1.53-.93,2.31-1.8,3.02-4.33,3.54-10.79,2.82-14.26-1.61-1.49-1.9-3.14-3.48-5.72-3.67-.16-.01-.32-.2-.47-.3,1.1-1.89,3.7-3.14,8.46-4.1,0-.08.01-.19-.03-.22-3.86-3.49-3.89-7.9-3.04-12.54.54-2.93,1.17-5.86,1.55-8.82.36-2.82-.23-5.47-2.21-7.67-.12-.13-.14-.35-.21-.53.11-.14.21-.28.32-.41Z"/>
  <path class="cls-5" d="m89.15,37.88c1.36-1.14,2.43-2.04,3.51-2.94,6.56-5.44,13.12-10.88,19.68-16.33,3.11-2.59,6.72-3.95,10.72-4.34.32-.03.65-.03.97-.03.16,0,.31.04.53.06-.63,3.63-2.13,6.85-4.74,9.37-4.96,4.8-10.06,9.47-15.1,14.19-.26.25-.59.43-.83.7-1.86,2.08-4.12,1.37-6.69,1.04,6.58-6.17,13.48-11.56,19.34-18.03-.1-.13-.19-.25-.29-.38-.47.26-.99.45-1.4.78-4.4,3.48-8.81,6.94-13.16,10.49-2.22,1.81-4.35,3.74-6.47,5.68-.88.81-1.79,1.01-2.88.69-.95-.28-1.91-.56-3.19-.94Z"/>
  <path class="cls-4" d="m9.47,123.46c-3.83.01-6.48-2.79-6.34-6.71.12-3.48,3.36-6.36,6.9-5.94,1.58.19,2.86-.12,4-1.17,1.69-1.56,3.41-3.09,5.04-4.7.5-.49.84-1.19,1.14-1.84.7-1.5.56-2.18-.6-3.35-1.13-1.15-2.25-2.32-3.41-3.45-.71-.69-.71-1.25.04-1.92,1.62-1.45,1.66-1.47,3.19.08,4.49,4.55,8.97,9.1,13.46,13.65.93.94.37,3.14-.92,3.42-.34.07-.86-.18-1.14-.45-1.12-1.05-2.21-2.13-3.24-3.28-1.06-1.18-2.32-1.43-3.59-.68-1.62.96-3.11,2.14-4.63,3.26-.52.38-.92.91-1.41,1.33-1.6,1.39-2.43,2.87-2.12,5.24.48,3.68-2.51,6.48-6.36,6.49Zm-2.97-6.37c-.04,1.72,1.31,3.11,3.02,3.11,1.66,0,2.99-1.32,3.03-2.99.04-1.69-1.22-3.02-2.91-3.08-1.78-.06-3.11,1.19-3.15,2.95Z"/>
  <path class="cls-5" d="m31.49,99.73c3.95-3.51,7.67-6.81,11.36-10.13.48-.43.86-.39,1.35-.08,2.29,1.41,2.35,1.95.42,3.72-2.99,2.75-5.98,5.5-8.98,8.24-.96.88-1.26.86-2.18-.02-.6-.57-1.25-1.1-1.97-1.73Z"/>
  <path class="cls-5" d="m27.62,96.98c-.72-.77-1.39-1.47-2.04-2.18-.57-.62-.54-1.23.09-1.78,3.44-3.06,6.88-6.11,10.32-9.16.06-.05.13-.15.19-.15.33.01.75-.07.98.1.94.71,1.83,1.5,2.7,2.29.02.02-.33.51-.56.71-3.83,3.35-7.66,6.68-11.67,10.17Z"/>
  <path class="cls-1" d="m74.77,11.17c0-3.36,2.77-6.41,6.06-6.6,1.67-.1,3.36.17,5.04.32.89.08,1.02.58.7,1.36-.89,2.17-2.72,2.99-4.83,3.32-.9.14-1.85.11-2.77.03-1.41-.13-2.65.06-3.6,1.22-.11.13-.32.19-.61.36Z"/>
  <path class="cls-1" d="m122.94,90.95c-.08,1.68-1.34,3.17-2.83,3.47-1.49.29-2.55-.81-2.18-2.28.35-1.42,2.38-2.79,3.83-2.58.85.13,1.29.6,1.18,1.4Z"/>
  <path class="cls-1" d="m96.87,115.86c-.74-.4-1.37-.71-1.94-1.1-.08-.06.03-.68.14-.71.66-.19,1.38-.48,2.01-.36.55.1,1.01.7,1.51,1.08-.54.34-1.08.68-1.72,1.08Z"/>
</svg>