<?xml version="1.0" encoding="UTF-8"?>
<svg id="Layer_1" data-name="Layer 1" xmlns="http://www.w3.org/2000/svg" viewBox="0 0 128 128">
  <defs>
    <style>
      .cls-1 {
        fill: #008d36;
      }

      .cls-1, .cls-2, .cls-3 {
        stroke-width: 0px;
      }

      .cls-2 {
        fill: #3aaa35;
      }

      .cls-3 {
        fill: #fff;
      }
    </style>
  </defs>
  <path class="cls-3" d="m81.21,65.65c-1.32-.26-3.96-.85-6.62-1.27-1.33-.21-2.74-.31-4.07-.12-3.71.52-5.78,4.26-4.77,8.26.59,2.31,1.16,4.63,1.54,6.98.42,2.52-.27,4.87-1.54,7.09-2.55,4.44-5.98,8.13-9.57,11.7-2.64,2.62-2.4,2.61-4.99.01-7.2-7.22-14.41-14.42-21.63-21.63-1.08-1.08-1.28-2.21-.23-3.29,3.54-3.66,7.01-7.43,11.39-10.13,2.97-1.83,6.19-2.06,9.52-1.21,1.78.45,3.54,1.01,5.34,1.4,4.49.98,9.36-1.95,8.71-7.55-.15-1.32-.39-2.63-.64-3.94-.23-1.23-.53-2.45-.8-3.67-.71-3.28.3-6.2,1.91-8.98,2.37-4.09,5.67-7.39,9.07-10.59,2.67-2.52,2.12-2.58,4.77.07,7.38,7.37,14.75,14.75,22.12,22.13,1.29,1.29,1.28,1.45.2,2.96-2.74,3.83-5.81,7.32-10.09,9.5-2.6,1.33-5.3,2.36-9.66,2.27Zm.7-3.54c3.56-.18,6.95-1.32,9.19-3.27,2.42-2.1,3.18-4.95,1.85-7.84-1.53-3.32-3.95-5.9-7.16-7.69-.74-.41-1.54-.72-2.25.05-.67.72-.27,1.42.06,2.16.75,1.67,1.57,3.32,2.11,5.06.55,1.78-.19,2.98-2.01,3.48-1.35.37-2.76.54-4.15.75-3,.45-5.97,1-8.38,3.03-.43.36-.57,1.07-.84,1.62.53.25,1.03.63,1.58.74,1.91.4,3.83.71,5.75,1.07,1.41.27,2.82.56,4.23.84Zm-31.31,3.7c-3.79.33-7.27.7-10.3,2.67-3.36,2.19-5.87,6.47-2.23,11.16.29.37.53.79.86,1.11,2.26,2.22,4.52,4.45,6.83,6.62.35.32,1.24.65,1.37.5.37-.4.61-1.04.63-1.6.03-.56-.2-1.15-.43-1.69-.5-1.19-1.22-2.31-1.56-3.54-.45-1.67-.97-3.44-.85-5.12.22-3.15,2.52-4.99,5.03-6.51.87-.52,1.82-.92,2.68-1.45.33-.2.73-.66.7-.95-.04-.31-.5-.7-.86-.82-.69-.23-1.44-.3-1.88-.38Z"/>
  <path class="cls-2" d="m52.15,19.19c-3.61-.01-6.85.77-9.89,2.3-6.28,3.16-10.04,8.46-12.37,14.9-2,5.53-2.61,11.27-2.44,17.12.06,1.99-.92,3.41-2.91,4.16-.48-2.29-.15-4.77-1.43-6.83-.13-.02-.27-.04-.4-.05-.2.5-.54,1-.59,1.51-.14,1.67-.22,3.36-.24,5.04-.04,3.04-2.38,6.5-5.22,7.47-.26.09-.93-.33-1.07-.66-1.3-3-2.12-6.15-2.38-9.41-1.06-13.32,4.01-24.27,13.24-33.49,5.96-5.95,13.1-9.89,21.45-11.42,2.07-.38,4.2-.47,6.3-.61.66-.04.98-.21,1.14-.86.24-.99.58-1.95.84-2.93.19-.71.54-.91,1.19-.51,5.67,3.51,10.79,7.67,15.03,12.86.6.73.32,1.13-.54,1.26-6.7,1.04-13.28,2.61-19.74,4.68-1.04.33-1.29.06-1-1.02.31-1.12.66-2.23,1.03-3.48Z"/>
  <path class="cls-1" d="m75.87,108.84c6.05-.16,11.12-2.12,15.32-6.14,4.62-4.42,7.03-10.01,8.37-16.14.88-4.01,1.12-8.07,1.01-12.16-.05-1.91.89-3.25,2.89-4.07.54,2.28.1,4.78,1.73,7.15.31-.76.66-1.25.7-1.76.14-1.68.23-3.36.25-5.04.04-3.06,2.35-6.45,5.2-7.52.77-.29.95.29,1.16.8,1.25,3.03,2.09,6.17,2.31,9.44,1.01,15.19-5.35,27.07-16.8,36.48-6.99,5.74-15.1,8.83-24.23,8.94-.69,0-.96.26-1.11.89-.24.99-.58,1.95-.85,2.93-.2.76-.6.83-1.21.45-5.63-3.51-10.74-7.63-14.94-12.79-.62-.76-.45-1.15.55-1.31,6.62-1.06,13.14-2.58,19.53-4.63.35-.11.75-.05,1.12-.08,0,.41.07.84-.02,1.22-.27,1.05-.61,2.09-.98,3.33Z"/>
  <path class="cls-3" d="m23.56,77.67c1.18.64,2.58,1.05,3.49,1.96,7.62,7.51,15.17,15.11,22.7,22.72.61.61,1.05,1.47,1.33,2.3.51,1.49-.46,3.12-1.96,3.65-.93.33-1.48-.23-2.04-.79-3.7-3.73-7.38-7.49-11.1-11.2-4.8-4.8-9.64-9.55-14.43-14.36-.55-.56-1.59-.94-1.17-2.06.41-1.1,1.72-1.92,3.01-1.91.05-.1.11-.2.16-.3Z"/>
  <path class="cls-3" d="m106.38,49.63c-1.04-.05-2.22-.49-3.18-1.46-7.35-7.34-14.7-14.67-22.04-22.01-1.12-1.12-2.18-2.37-2.07-4.06.05-.83.41-1.75.91-2.42.89-1.18,1.52-1.12,2.58-.06,8.64,8.65,17.28,17.3,25.93,25.95.63.63,1.22,1.26.8,2.25-.43,1.03-1.61,1.85-2.92,1.81Z"/>
</svg>