<?xml version="1.0" encoding="UTF-8"?>
<svg id="Layer_1" data-name="Layer 1" xmlns="http://www.w3.org/2000/svg" viewBox="0 0 128 128">
  <defs>
    <style>
      .cls-1 {
        fill: #be1622;
      }

      .cls-1, .cls-2, .cls-3 {
        stroke-width: 0px;
      }

      .cls-2 {
        fill: #fff;
      }

      .cls-3 {
        fill: #9d9d9c;
      }
    </style>
  </defs>
  <path class="cls-2" d="m66.13,96c.32-.61.69-1.2.95-1.83,3.16-7.72,3.3-15.58,1-23.53-1.83-6.33-5.13-11.86-9.33-16.88-.66-.79-1.04-1.53-.24-2.44.87-.99,1.52-1.01,2.35.03,3.5,4.36,6.38,9.07,8.35,14.33.16.44.37.85.55,1.28.1-.01.2-.02.3-.03,0-.43.07-.86,0-1.27-1.13-6.23-2.87-12.29-5.42-18.1-.57-1.31-.45-2.23.63-3.18,1.23-1.09,2.32-2.35,3.48-3.52.96-.96,1.55-.99,2.44-.01,9.84,10.71,17.56,22.62,20.71,37.05,1.36,6.23,1.85,12.5-.28,18.71-1.92,5.61-5.27,10.28-9.3,14.52-4.68,4.93-10.04,9.05-15.62,12.89-.54.37-1.24.67-1.88.69-2.37.09-4.75.04-7.12.04-.18,0-.37-.08-.86-.19.54-.47.88-.81,1.26-1.08,5.79-4,11.21-8.41,15.62-13.94,4.4-5.51,7.5-11.61,8.34-18.71.72-6.05-.17-11.93-2.63-17.46-1.59-3.58-3.71-6.94-5.59-10.39-.13-.24-.33-.45-.53-.65-.07-.07-.21-.08-.57-.2.04.58.02,1.06.12,1.51,1.26,5.93,1.94,11.9,1.6,17.98-.82,14.37-7.06,25.79-18.57,34.35-4.65,3.46-9.74,6.11-15.24,7.94-1.39.46-2.9.75-4.36.79-3.9.11-7.81.05-11.71.04-.27,0-.54-.07-.81-.1-.05-.12-.09-.23-.14-.35.4-.17.78-.41,1.19-.5,5.91-1.33,11.63-3.18,16.97-6.09,8.21-4.48,14.38-10.78,16.89-19.99,2.6-9.55,1.76-18.9-2.55-27.86-1.92-3.99-4.42-5.23-8.79-4.6-.48.07-1.01-.15-1.52-.24.22-.47.35-1.03.69-1.39,1.45-1.56,2.96-3.08,4.45-4.6,1.63-1.66,2.99-1.62,4.43.18,4.09,5.12,6.57,11.03,8.36,17.26,1.75,6.08,2.7,12.26,1.86,18.61-.04.27.08.55.12.83.13.03.26.06.38.09Z"/>
  <path class="cls-3" d="m2.97,101.43c0-.82,0-1.64,0-2.47.09-6.8-.82-4.82,3.88-10,12.77-14.04,26.34-27.29,39.86-40.6,9.33-9.18,18.62-18.4,27.88-27.64,1.82-1.82,3.46-3.81,5.16-5.75.35-.4.6-.89.9-1.34-.08-.09-.16-.18-.23-.27-.89.5-1.88.87-2.65,1.52-2.2,1.88-4.36,3.82-6.45,5.82C49.04,42.15,26.77,63.61,4.49,85.06c-.2.2-.39.41-.62.58-.47.36-.88.32-.89-.35-.02-2.01-.08-4.03.09-6.03.06-.66.66-1.37,1.19-1.87,4.2-4,8.44-7.95,12.67-11.93.29-.28.56-.58.84-.88l-.26-.27c-4.77,3.77-9.54,7.54-14.32,11.32-.11-.08-.22-.17-.34-.25.34-.51.58-1.15,1.03-1.51,3.45-2.77,7.04-5.38,10.4-8.26,6.21-5.32,12.34-10.72,18.4-16.19,13.93-12.58,27.77-25.25,41.7-37.82,4.57-4.12,10.17-6.4,15.93-8.32.23-.08.71-.05.76.06.11.24.09.61-.02.87-2.8,6.86-6.37,13.13-11.64,18.56C54.52,48.42,29.8,74.27,5.02,100.05c-.51.53-1.04,1.05-1.57,1.58-.16-.07-.32-.13-.49-.2Z"/>
  <path class="cls-1" d="m83.14,124.55c.52-.47.81-.77,1.13-1.03,8.66-6.85,14.13-15.64,15.94-26.59,1.42-8.59.42-17.01-2.17-25.27-4.21-13.41-11.67-24.83-21.41-34.86-.42-.43-1.42-.86-.73-1.62.76-.84,1.3.17,1.77.58,8.06,7.09,14.52,15.48,19.94,24.7,3.46,5.88,6.21,12.08,8.22,18.61.11.37.53.65.81.97.1-.39.32-.8.28-1.18-1.32-14.78-7.62-27.3-17.6-38.05-2.59-2.79-5.58-5.22-8.34-7.87-.47-.45-1.08-1.32-.92-1.72.29-.74,1.01-1.44,1.73-1.83.35-.19,1.24.24,1.64.63,3.71,3.63,7.55,7.15,11,11.02,7.58,8.51,13.66,18.01,17.56,28.79,2.75,7.59,4.04,15.41,3.42,23.48-.7,9.2-3.88,17.54-9.02,25.16-1.12,1.67-2.37,3.25-3.58,4.86-.69.92-1.62,1.41-2.8,1.41-5.23,0-10.47,0-15.7,0-.29,0-.59-.1-1.19-.2Zm25.94-37.3c-.62-.73-1.03-1.22-1.45-1.71-.4.48-1.01.91-1.13,1.44-.16.72.22,1.56,1.11,1.51.43-.02.82-.67,1.48-1.25Z"/>
  <path class="cls-2" d="m125.14,124.68h-14c.34-.56.53-.96.8-1.32,5.63-7.43,8.62-15.9,9.37-25.1,1.77-21.53-5.27-40.38-17.99-57.38-4.46-5.96-9.72-11.16-15.59-15.76-1.33-1.04-1.41-1.72-.32-2.99,1.78-2.08,3.57-4.15,5.35-6.23,1-1.18,2.29-1.6,3.69-1.04,9.65,3.86,18.6,8.83,25.74,16.6,1.25,1.36,2.55,2.72,2.84,4.67.05.33.06.67.09,1.01-.15.11-.3.23-.44.34-.19-.35-.32-.75-.58-1.03-3.89-4.25-8.36-7.78-13.36-10.63-.32-.18-.77-.13-1.16-.19.17.36.27.79.53,1.08,3.94,4.25,7.94,8.44,11.83,12.73.96,1.06,1.67,2.36,2.41,3.61,1.15,1.95.85,4.07.41,6.28-.38-.43-.78-.85-1.13-1.3-7.47-9.49-15.95-17.91-25.87-24.84-.03-.02-.06-.05-.1-.07-.44-.14-.89-.29-1.33-.43.21.39.36.84.65,1.15,4.07,4.51,8.26,8.92,12.22,13.53,5.62,6.54,10.79,13.43,14.88,21.06.62,1.16,1.03,2.58,1.03,3.89.06,20.38.04,40.76.04,61.14v1.2Z"/>
</svg>