<?xml version="1.0" encoding="UTF-8"?>
<svg id="Layer_1" data-name="Layer 1" xmlns="http://www.w3.org/2000/svg" viewBox="0 0 128 128">
  <defs>
    <style>
      .cls-1 {
        fill: #a48a7b;
      }

      .cls-1, .cls-2, .cls-3 {
        stroke-width: 0px;
      }

      .cls-2 {
        fill: #8c6450;
      }

      .cls-3 {
        fill: #e71d73;
      }
    </style>
  </defs>
  <path class="cls-1" d="m23.56,94.23v-9.47c-.74.18-1.21.25-1.66.4-2.94,1-5.88,2.04-8.83,3-.63.21-1.35.14-2.17.22.14-.36.15-.45.19-.47,6.38-3.04,12.69-6.21,19.16-9.06,4.58-2.01,3.17-2.05,7.21.88,2.39,1.74,4.8,3.46,7.25,5.11,1.19.8,1.57.62,2.18-.7,1.95-4.26,3.92-8.51,5.8-12.8.47-1.07,1.13-1.66,2.24-1.58,2.16.14,3.49-1.01,4.4-2.75.58-1.11,1.35-1.27,2.47-.98,3.04.82,6.1,1.56,9.15,2.35.94.24,1.77.24,2.64-.31,1.51-.95,3.19-1.02,4.9-.67.34.07.69.1,1.12.17-.66-1.93-2.48-3.09-4.2-2.82-.83.13-1.68.23-2.49.48-1.84.57-3.41.05-4.85-1.05-.67-.51-1.32-1.06-1.91-1.66-1.31-1.33-1.82-2.72-1.02-4.67,1.33-3.22,2.37-6.57,3.53-9.86.45-1.3,1.2-2.26,2.55-2.77,1.84-.7,3.17-2.05,4-3.8,2.54-5.38,5.92-10.23,9.29-15.1.13-.19.23-.45.42-.54.34-.17.86-.43,1.06-.3.25.17.43.75.34,1.07-.35,1.21-.77,2.42-1.27,3.58-.4.94-.22,1.53.72,1.91,3.55,1.45,7.1,2.89,10.64,4.37.42.18.78.52,1.17.78-.27.38-.48.85-.83,1.14-1.74,1.46-3.53,2.84-5.26,4.31-.83.71-1.66.82-2.66.46-2.38-.85-4.79-1.66-7.18-2.48-.53-.18-1.11-.49-1.41.35-.3.85-1.25,1.66-.26,2.59.38.35.9.58,1.39.77,2.09.78,4.18,1.53,6.28,2.26.88.31,1.3.84,1.19,1.82-.94,8.2.48,16.16,2.67,24.01.36,1.28.1,2-.98,2.78-9.23,6.61-19.31,11.2-30.56,13.04-8.15,1.33-16.23.93-24.25-1.08-1.03-.26-1.42-.88-1.54-1.86-.1-.83-.2-1.71-.57-2.43-.24-.46-.98-.9-1.5-.91-.76,0-.8.76-.79,1.41.1,4.98.44,3.57-3.01,6.99-1.38,1.37-2.83,2.67-4.25,4.01-.16-.05-.32-.1-.48-.15Z"/>
  <path class="cls-1" d="m25.37,96.41c.46-.53.71-.92,1.06-1.19,1.96-1.55,3.93-3.09,5.94-4.57.4-.29,1.1-.47,1.57-.35,6.87,1.77,13.86,1.55,20.86,1.42,11.08-.19,20.99-4.17,30.57-9.26,3.32-1.77,6.54-3.73,9.83-5.55,1.03-.57,1.29-1.22.85-2.34-2.38-6.15-3.41-12.59-3.74-19.14-.11-2.28-.07-4.61.21-6.87.29-2.35,1.68-4.18,3.59-5.57,1.08-.8,2.2-1.55,3.33-2.28.29-.19.69-.21,1.04-.3.08.35.27.71.23,1.04-.64,5.7-.91,11.42-.6,17.15.41,7.39,1.74,14.57,5.35,21.14.53.97.29,1.51-.55,2.09-9.82,6.78-20.28,12.35-31.53,16.3-2.74.96-5.79,1.11-8.72,1.45-6.47.77-12.97.76-19.46.25-6.29-.5-12.5-1.54-18.64-2.97-.32-.07-.62-.24-1.19-.46Z"/>
  <path class="cls-3" d="m33.02,31.17c-2.56-3.3-5.09-6.63-7.69-9.9-3.56-4.49-7.17-8.93-10.74-13.41-.24-.3-.33-.73-.49-1.09.44-.19.94-.6,1.33-.52,2.02.42,4.04.86,5.99,1.52.71.24,1.33,1.04,1.77,1.72,2.49,3.83,4.92,7.71,7.38,11.56.24.37.51.71.98.95-.14-.37-.27-.76-.43-1.12-1.54-3.47-3.1-6.94-4.61-10.43-.36-.84-.62-1.73-.83-2.63-.27-1.17.01-1.48,1.18-1.5,1.81-.02,2.07.12,2.69,1.86,6.11,17.2,15.51,32.52,26.75,46.8,1.66,2.11,3.34,4.22,4.96,6.37.28.37.27.94.4,1.42-.49.12-.98.35-1.46.34-2.07-.05-3.56-1.01-4.97-2.59-9.77-10.95-20.54-20.88-31.49-30.61-4.91-4.37-9.86-8.7-14.8-13.03-.83-.73-1.25-1.58-1.32-2.7-.11-1.68-.34-3.36-.52-5.04-.03-.31-.09-.63-.03-.92.08-.38.26-.75.4-1.12.34.2.76.34,1.02.62,3.64,3.97,7.21,8,10.88,11.93,3.92,4.19,8.13,8.06,12.84,11.38.18.13.38.25.57.37.09-.08.18-.15.27-.23Z"/>
  <path class="cls-2" d="m64.07,106.89c-9.03-.43-16.7-.88-24.08-3.35-.55-.18-1.1-.35-1.62-.6-.23-.11-.36-.41-.53-.62.26-.1.52-.32.76-.3,1.42.13,2.82.39,4.24.45,6.22.26,12.43.6,18.65.67,8.63.1,16.66-2.26,24.34-6.14,7.25-3.66,14.33-7.58,21.08-12.09,1.51-1.01,1.81-1.01,3.32,0,.35.23.71.46,1.06.7,1.58,1.04,1.64,1.98.05,3.08-2.21,1.53-4.43,3.07-6.75,4.42-10,5.79-20.56,10.23-31.9,12.58-3.26.68-6.6.93-8.61,1.2Z"/>
  <path class="cls-1" d="m55.29,65.29c-.02,1.34-.68,1.9-1.51,1.94-1.5.07-2.32.97-2.9,2.13-1.64,3.25-3.23,6.52-4.78,9.82-.85,1.81-1.22,1.97-2.91.87-2.29-1.48-4.56-3-6.87-4.43-.94-.58-1.28-1.17-1.05-2.34.97-4.98,1.96-9.94,4.16-14.55.56-1.17,1.2-2.32,1.89-3.42.82-1.32,1.93-1.52,3.08-.51,3.31,2.92,6.6,5.88,9.84,8.87.53.49.82,1.24,1.06,1.63Z"/>
  <path class="cls-1" d="m71.67,34.74c-2.61-1.88-5.04-3.62-7.46-5.37-2.43-1.75-1.89-1.69-4.05.23-2.95,2.64-5.85,5.34-8.77,8.01-.25.23-.52.42-.89.7-.24-.41-.46-.72-.6-1.05-.88-2.04-1.72-4.1-2.63-6.14-.38-.86-.29-1.51.42-2.15,4.35-3.95,8.69-7.92,13.02-11.89.66-.61,1.22-.58,1.93-.06,3.66,2.68,7.33,5.33,11.03,7.95.66.46.75.89.51,1.62-.85,2.62-1.63,5.27-2.51,8.15Z"/>
  <path class="cls-3" d="m93.95,102.02c1.17-.43,2.23-.77,3.25-1.2.92-.39,1.58-.15,2.26.53,2.73,2.71,5.48,5.39,8.25,8.05.35.34.86.51,1.29.76-.09-.49-.14-.98-.27-1.46-.54-2.03-1.14-4.04-1.62-6.08-.08-.32.3-.75.47-1.14.33.21.76.35.97.64,4.1,5.99,8.19,12,12.23,18.03.25.37.15.97.22,1.47-.49.04-1.05.27-1.45.1-8.42-3.53-16.83-7.11-25.23-10.7-.29-.12-.48-.48-.72-.73.31-.11.61-.29.92-.3,1.38-.04,2.77.05,4.15-.06.61-.05,1.52-.34,1.68-.76.17-.44-.25-1.3-.67-1.72-1.66-1.65-3.42-3.21-5.14-4.8-.17-.15-.31-.33-.58-.63Z"/>
  <path class="cls-1" d="m24.43,77.25c-1.03-.05-1.06-.7-.95-1.33.5-2.91.89-5.84,1.6-8.7,1.7-6.82,4.65-13.14,8.09-19.24.41-.74.8-.9,1.54-.44,1.49.95,3.01,1.84,4.53,2.74.49.29.78.57.38,1.17-4.41,6.51-6.21,13.96-7.74,21.5-.32,1.55-1.09,2.44-2.61,2.82-1.37.35-2.71.84-4.06,1.26-.29.09-.59.16-.77.21Z"/>
  <path class="cls-1" d="m60.93,54.5c-.59-.48-1.05-.71-1.3-1.08-2.34-3.47-4.65-6.97-6.97-10.45-.46-.7-.33-1.25.27-1.82,2.65-2.51,5.29-5.03,7.91-7.59.56-.55.98-.56,1.57-.07,2.46,2.03,4.94,4.05,7.42,6.04.51.41.53.83.17,1.28-.6.75-1.25,1.44-1.86,2.19-.81,1-1.76,1.94-2.37,3.05-1.21,2.22-2.2,4.57-3.36,6.82-.3.59-.9,1.02-1.48,1.64Z"/>
  <path class="cls-2" d="m104.67,45.96c.56,2.57,1.3,5.12,1.65,7.72,1.27,9.34,3.6,18.37,7.54,26.96.17.38.13.85.19,1.28-.43-.03-.89.01-1.3-.11-2.64-.78-4.36-2.38-5.28-5.1-1.76-5.17-2.75-10.48-3.11-15.89-.29-4.33-.21-8.68-.27-13.02,0-.6.09-1.21.14-1.81l.45-.04Z"/>
  <path class="cls-2" d="m20.79,46.72c-1.04,0-2.08,0-3.11,0-.95,0-1.57-.43-1.94-1.33-.73-1.82-1.04-3.69-.76-5.64.19-1.31,1.12-1.88,2.21-1.15,2.69,1.79,5.26,3.76,7.19,6.41.27.37.3.91.44,1.37-.46.12-.91.32-1.37.35-.88.06-1.77.02-2.65.02,0,0,0-.02,0-.02Z"/>
  <path class="cls-2" d="m80.94,16.72c-.32,1.14-.57,2.44-1.05,3.64-.48,1.2-1.68,1.36-2.62.42-.62-.62-1.23-1.29-1.69-2.03-.26-.43-.39-1.12-.25-1.6.52-1.8,1.17-3.57,1.8-5.33.26-.72.65-1.32,1.57-1.24.91.09,1.19.74,1.33,1.49.3,1.5.58,3.01.89,4.65Z"/>
  <path class="cls-2" d="m47.8,20.39c-1.72-1.61-3.39-3.12-4.99-4.7-.22-.21-.23-.79-.13-1.13.4-1.32.88-2.62,1.33-3.92.23-.66.49-1.54,1.31-1.3.57.17,1.21.89,1.37,1.48.56,2.07.95,4.19,1.34,6.3.18.97.76,1.98-.23,3.27Z"/>
  <path class="cls-2" d="m40.76,111.73c1.22.59,2.4,1.02,3.42,1.71.91.61.86,1.62,0,2.33-1.6,1.32-3.5,2.07-5.52,2.37-.57.09-1.48-.27-1.78-.72-.28-.43-.12-1.34.15-1.88.47-.95,1.1-1.85,1.82-2.63.44-.49,1.16-.73,1.9-1.17Z"/>
  <path class="cls-2" d="m26.26,49.42c-1.61.95-3.33,1.49-5.2,1.27-.24-.03-.67-.5-.63-.63.13-.35.42-.82.72-.89,1.69-.38,3.39-.45,5.11.25Z"/>
  <path class="cls-2" d="m14.23,102.37c.16.21.6.51.66.88.11.65-.9,1.6-1.48,1.41-.39-.13-.89-.64-.92-1.02-.07-.91.64-1.2,1.74-1.27Z"/>
</svg>