<?xml version="1.0" encoding="UTF-8"?>
<svg id="Layer_1" data-name="Layer 1" xmlns="http://www.w3.org/2000/svg" viewBox="0 0 128 128">
  <defs>
    <style>
      .cls-1 {
        fill: #e30613;
      }

      .cls-1, .cls-2 {
        stroke-width: 0px;
      }

      .cls-2 {
        fill: #f39200;
      }
    </style>
  </defs>
  <path class="cls-2" d="m58.16,57.22c-8.08,4.1-16.87,21.27-14.09,27.42.48-.48.97-.84,1.31-1.32.57-.8.99-1.72,1.58-2.5.25-.34.78-.47,1.18-.69.02.41.17.88.03,1.24-1.16,2.91-2.31,5.84-3.6,8.7-.81,1.8-1.81,3.51-2.81,5.22-1.94,3.32-4.53,5.9-8.35,6.99-2.7.77-4.28,2.66-5.26,5.18-.7,1.79-1.38,3.58-2.18,5.32-.94,2.03-1.88,2.08-3.33.42-4.74-5.41-5.99-11.55-3.93-18.39.55-1.84,1.19-3.65,1.84-5.45,1.06-2.91.87-5.72-.62-8.42-.7-1.27-1.43-2.55-2.31-3.7-3.23-4.24-3.62-8.89-2.43-13.92,1.98-8.34,7.33-14.1,14.11-18.81.45-.31,1.01-.46,1.52-.68.13.11.27.22.4.34-.47.8-.9,1.63-1.41,2.4-2.89,4.36-5.4,8.9-5.44,14.3-.02,1.81.29,3.77,1.03,5.4,2.08,4.61,7.3,5.2,10.49,1.28,2.48-3.03,3.18-6.66,3.08-10.48-.02-.76-.04-1.53-.2-2.26-.87-3.96.8-7.04,3.35-9.81,3.58-3.88,7.72-7.05,12.3-9.68,2.26-1.3,4.52-2.68,6.52-4.34,2.76-2.29,4.05-5.35,3.42-9.02-.4-2.34-1.73-3.89-4.04-4.53-1.29-.35-2.63-.56-3.87-1.04-2.45-.96-3.29-3.12-1.84-5.16,2.98-4.21,7.29-6.54,12.13-8,.08-.02.19.09.58.3-.7.55-1.34.97-1.9,1.49-1.35,1.25-2.86,2.4-3.92,3.87-1.3,1.8-.82,3.17,1.3,3.94,2.23.81,4.58,1.28,6.88,1.9,3.08.83,6.26,1.42,9.23,2.54,6.15,2.33,7.87,7.5,4.34,13.04-1.61,2.54-3.72,4.76-5.6,7.13-1.52,1.91-3.19,3.72-4.52,5.76-2.47,3.81-1.75,7.16,1.75,9.3,3.6,2.19,8.63,1.27,10.33-2.39,1.19-2.56,1.71-5.53,2.05-8.38.44-3.68,1.83-6.85,4.66-9.07,2.81-2.21,6.01-3.92,9.08-5.78.33-.2.91.01,1.37.04-.15.47-.19,1.01-.47,1.38-.34.45-.9.73-1.34,1.11-1.36,1.18-2.77,2.32-4.06,3.57-4.07,3.95-4.61,8.77-3.43,14.04,1.5,6.68,1.77,13.35-.13,20.03-2.41,8.43-6.94,15.57-13.05,21.76-.37.38-1.2.31-1.82.45.07-.61-.05-1.33.24-1.8,2.09-3.36,4.39-6.66,4.98-10.67.3-2.03.05-4.15-.08-6.22-.03-.45-.61-.86-.93-1.29-.39.3-.96.53-1.13.93-1.58,3.64-4.58,5.42-8.18,6.51-3.49,1.05-6.76,2.5-9.41,5.12-.34.34-1.14.6-1.5.43-.36-.18-.66-.96-.61-1.44.51-4.71-.73-9.05-2.22-13.47-.87-2.56-.75-5.46-1.06-8.22-.06-.54,0-1.09,0-1.89Z"/>
  <path class="cls-1" d="m108.09,79.95c1.21-2.07,1.09-3.94.36-5.66-.83-1.96-1.97-3.8-3.07-5.64-1.19-1.99-2.66-3.84-3.69-5.91-1.49-3.01-.01-7.56,2.84-9.44.2-.13.52-.1,1.25-.21-.5.81-.75,1.33-1.1,1.77-2.5,3.15-2.59,5.59-.29,8.88.87,1.24,1.72,2.49,2.66,3.68,7.11,9.04,7.96,19.11,4.12,29.51-5.16,13.96-15.74,22.17-29.82,25.99-12.93,3.51-25.61,1.69-38.08-2.55-1.54-.52-3.04-1.15-4.58-1.69-2.94-1.04-4.98-.48-7.02,1.87-.53.61-1.02,1.29-1.64,1.8-.28.23-.89.28-1.24.13-.22-.09-.41-.71-.33-1.04,1.18-5.31,3.02-10.2,8.49-12.63,3.45-1.53,6.18-3.81,8.07-7.16,1.26-2.24,2.38-2.19,3.91-.15.28.37.57.74.81,1.14,5.64,9.31,15.69,9.05,23.45,6.2,2.93-1.08,4.76-3.52,6.04-6.27,1.05-2.26,1.91-4.62,2.78-6.96.69-1.86,1.78-3.28,3.45-4.44,6.21-4.35,9.33-10.68,10.98-17.85.4-1.75.44-3.57.77-5.34.11-.61.5-1.43.98-1.63.47-.19,1.43.09,1.8.51,1,1.12,1.92,2.35,2.66,3.65,1.36,2.37,2.55,4.83,3.86,7.23.4.73.96,1.37,1.56,2.22Z"/>
</svg>