<?xml version="1.0" encoding="UTF-8"?>
<svg id="Layer_1" data-name="Layer 1" xmlns="http://www.w3.org/2000/svg" viewBox="0 0 128 128">
  <defs>
    <style>
      .cls-1 {
        fill: #38e0e0;
      }

      .cls-1, .cls-2 {
        stroke-width: 0px;
      }

      .cls-2 {
        fill: #36a9e1;
      }
    </style>
  </defs>
  <path class="cls-2" d="m100.76,52.51c-2.21-1.05-5.42-.44-7.04,1.18-1.89,1.89-3.77,3.79-5.66,5.69-1.08,1.08-2.37,1.6-3.9,1.59-1.67-.02-3.34-.05-5,0-2.26.08-4.45.47-6.34,1.86-1.68,1.24-1.65,1.81.2,2.7,2.13,1.03,4.39,1.43,6.75,1.45,6.85.06,13.69.15,20.54.24,2.5.03,4.76.76,6.06,3.03,1.31,2.27,3.25,2.87,5.65,2.76,1.46-.07,1.68-.35.98-1.63-1.11-2.03-2.24-4.06-3.42-6.06-.55-.94-.54-1.76,0-2.7,1.13-1.93,2.2-3.89,3.25-5.85.56-1.04.32-1.47-.81-1.58-2.53-.25-4.66.22-5.94,2.81-.43.87-1.35,1.93-2.18,2.08-3.07.54-6.2.72-9.3,1.04-.06-.17-.12-.33-.18-.5,2.1-2.69,4.2-5.38,6.33-8.11Z"/>
  <path class="cls-2" d="m98.34,81.66c-1.86-2.31-3.65-4.05-6.57-3.99-2.41.05-4.83.02-7.24.07-1.68.04-3.06-.53-4.24-1.72-1.48-1.49-2.99-2.97-4.57-4.35-1.51-1.32-3.27-2.2-5.33-2.3-1.4-.06-1.82.31-1.26,1.6.75,1.74,1.55,3.6,2.81,4.96,5.11,5.54,10.4,10.91,15.64,16.33,1.74,1.8,2.55,3.82,1.87,6.33-.67,2.48.45,4.34,2.24,5.9.91.8,1.28.69,1.63-.49.64-2.14,1.31-4.27,1.82-6.44.33-1.42,1.06-2.16,2.48-2.49,2.09-.49,4.13-1.16,6.19-1.75.59-.17,1.19-.44.65-1.17-1.42-1.93-3.16-3.76-6.21-2.69-2.08.74-3.68.17-5.17-1.18-1.43-1.29-2.85-2.6-4.24-3.94-.26-.25-.38-.64-.56-.96.34-.15.66-.37,1.02-.43,2.9-.44,5.81-.84,9.06-1.3Z"/>
  <path class="cls-2" d="m52.5,27.25c-.15.08-.3.16-.45.23-.03,2.41-.46,4.87,1.66,6.87,1.94,1.83,3.79,3.77,5.7,5.64,1.06,1.05,1.54,2.31,1.55,3.78,0,1.84-.04,3.68.03,5.52.08,2.18.6,4.23,1.95,6.02,1.02,1.34,1.91,1.4,2.45-.15.74-2.12,1.44-4.36,1.53-6.57.27-7.04.22-14.1.35-21.15.05-2.42.8-4.45,3.09-5.85,2.01-1.23,3.1-3.2,2.78-5.69-.18-1.34-.56-1.53-1.73-.89-2.04,1.11-4.08,2.23-6.07,3.41-.99.58-1.84.55-2.82-.03-1.93-1.13-3.9-2.18-5.86-3.26-.93-.51-1.38-.19-1.49.83-.27,2.6.22,4.78,2.91,5.97,1.54.68,2.28,2,2.41,3.65.18,2.22.31,4.45.45,6.68.02.41-.05.82-.1,1.49-2.92-2.27-5.63-4.39-8.34-6.5Z"/>
  <path class="cls-2" d="m81.7,29.82c-2.55,1.4-4.12,4.05-4.06,6.5.06,2.41.03,4.82.08,7.22.04,1.69-.59,3.04-1.79,4.21-1.47,1.44-2.92,2.91-4.28,4.46-1.35,1.54-2.26,3.33-2.31,5.45-.03,1.25.31,1.66,1.47,1.17,1.75-.74,3.49-1.62,5.02-2.73,1.48-1.07,2.71-2.49,4.04-3.76,4.14-3.98,8.28-7.96,12.41-11.95,1.84-1.77,3.94-2.53,6.49-1.84,2.33.63,4.09-.44,5.6-2.06,1-1.07.9-1.44-.49-1.85-2.14-.63-4.28-1.28-6.45-1.82-1.25-.31-1.95-.97-2.26-2.23-.53-2.12-1.2-4.2-1.78-6.31-.29-1.06-.83-1.12-1.61-.49-1.96,1.6-3.23,3.43-2.27,6.15.68,1.92.16,3.59-1.25,5.05-1.37,1.42-2.64,2.93-3.98,4.38-.29.32-.66.57-1.14.98-.51-3.65-.98-7.02-1.46-10.53Z"/>
  <path class="cls-2" d="m60.58,94.38c.13.06.27.12.4.18-.17,2.6-.36,5.2-.5,7.8-.08,1.64-.81,2.79-2.25,3.59-2.75,1.52-3.44,2.92-3.07,6.02.14,1.16.5,1.38,1.55.82,1.86-.99,3.73-1.95,5.52-3.06,1.25-.77,2.29-.74,3.52.02,1.86,1.15,3.8,2.17,5.72,3.23.59.33,1.26.66,1.54-.36.55-2-.38-4.82-2.23-5.91-2.62-1.55-3.52-3.81-3.54-6.7-.06-7.05-.1-14.1-.37-21.14-.08-2.04-.77-4.1-1.47-6.05-.55-1.54-1.48-1.61-2.33-.25-.79,1.27-1.55,2.7-1.78,4.15-.35,2.27-.34,4.62-.3,6.93.03,1.84-.55,3.34-1.83,4.61-1.74,1.73-3.46,3.49-5.26,5.16-1.89,1.75-2.04,3.97-1.86,6.29.06.73.49.9,1.09.5.51-.34.99-.73,1.47-1.11,1.99-1.56,3.98-3.13,5.97-4.7Z"/>
  <path class="cls-2" d="m40.3,83.2c-.38.44-.57.74-.83.96-1.85,1.61-3.69,3.23-5.59,4.78-1.08.88-2.3,1.07-3.7.66-2.97-.87-4.55-.29-6.44,2.12-.75.97-.68,1.3.49,1.65,1.97.6,3.94,1.23,5.94,1.68,1.47.33,2.26,1.07,2.61,2.54.52,2.17,1.17,4.3,1.81,6.44.35,1.16.7,1.22,1.64.43,1.87-1.56,2.8-3.49,2.2-5.92-.54-2.19,0-4.06,1.43-5.73.54-.63,1.05-1.29,1.64-1.89,4.48-4.57,8.97-9.14,13.48-13.68,1.7-1.71,2.94-3.7,3.73-5.96.55-1.57.2-2.04-1.44-1.9-1.95.16-3.63,1.03-5.07,2.28-1.39,1.2-2.78,2.43-3.99,3.81-1.53,1.75-3.4,2.35-5.62,2.32-2.5-.04-5-.09-7.5-.01-2.51.08-3.87,1.88-5.26,3.58.02.16.03.32.05.48,3.38.44,6.77.88,10.42,1.36Z"/>
  <path class="cls-2" d="m33.48,60.62c-.06.14-.13.28-.19.42-2.96-.22-5.94-.3-8.86-.74-.9-.14-2-1.1-2.42-1.97-1.23-2.51-3.16-3.35-5.78-3.15-1.61.12-1.82.43-1.06,1.81.98,1.81,1.94,3.63,3.01,5.38.71,1.16.67,2.13-.04,3.28-1.17,1.9-2.22,3.87-3.29,5.83-.6,1.12-.36,1.46.9,1.55,2.53.19,4.56-.6,5.88-2.89.78-1.35,1.97-2.27,3.49-2.58,1.11-.23,2.26-.3,3.4-.32,6.89-.12,13.78-.1,20.66-.37,2-.08,4.02-.77,5.93-1.46,1.52-.55,1.58-1.49.23-2.32-1.29-.78-2.7-1.55-4.15-1.81-2-.36-4.1-.39-6.15-.29-2.52.12-4.52-.69-6.2-2.52-1.33-1.46-2.8-2.78-4.1-4.26-1.76-2-4.01-2.34-6.46-2.14-.88.07-1.05.53-.54,1.24.33.46.69.91,1.04,1.35,1.56,1.99,3.13,3.97,4.7,5.96Z"/>
  <path class="cls-2" d="m44.75,40.19c-.12.05-.24.09-.36.14-2.08-2.53-4.87-4.5-6.1-7.69-.29-.74-.19-1.76.07-2.54.86-2.6-.03-4.51-2.05-6.11-1.16-.92-1.47-.87-1.88.52-.58,1.93-1.18,3.85-1.63,5.81-.32,1.4-1.01,2.21-2.45,2.54-1.75.4-3.46.97-5.18,1.48-1.71.5-2,1.83-.7,3.06,1.38,1.31,3.08,1.49,4.8,1.1,2.47-.55,4.49.13,6.26,1.84,5.1,4.94,10.14,9.96,15.34,14.79,1.57,1.46,3.54,2.56,5.48,3.53,1.83.91,2.68.18,2.09-1.79-.5-1.67-1.35-3.31-2.36-4.75-.96-1.39-2.23-2.61-3.52-3.71-1.88-1.6-2.52-3.58-2.45-5.94.07-2.41.14-4.82.04-7.22-.08-2.07-2.14-4.71-3.98-5.24-.47,3.41-.94,6.8-1.41,10.19Z"/>
  <path class="cls-2" d="m98.27,30.77c2.08-.77,4.35-.96,5.48-2.2,1.61-1.77,2.47-4.26,3.47-6.52.41-.93-.27-1.46-1.3-1.11-1.28.43-2.51,1.02-3.78,1.45-3.35,1.15-4.27,3.85-4.5,6.97-.03.35.32.73.63,1.4Z"/>
  <path class="cls-2" d="m9.9,60.72c-1.55.6-3.79,1.45-5.99,2.36-.35.15-.87.61-.83.85.06.38.46.86.83,1.02,1.41.59,2.91.96,4.29,1.61,2.96,1.41,5.15.06,7.17-1.88.26-.25.37-1.09.17-1.29-1.33-1.35-2.82-2.5-5.63-2.67Z"/>
  <path class="cls-2" d="m30.21,98.59c.23-.86-.34-1.14-1.42-.9-.3.07-.61.07-.92.1-2.32.27-4.21,1.17-5.15,3.48-.58,1.41-1.24,2.8-1.78,4.23-.16.43-.16,1.34,0,1.4.51.18,1.21.26,1.69.05,1.61-.69,3.15-1.54,4.73-2.28,1.4-.66,2.12-1.79,2.42-3.23.17-.81.25-1.64.43-2.83Z"/>
  <path class="cls-2" d="m64.02,111.39c-.79.98-1.35,1.7-1.93,2.4-1.31,1.58-1.66,3.36-.98,5.29.54,1.52,1.13,3.03,1.8,4.5.21.47.71.8,1.08,1.2.42-.46,1.02-.85,1.24-1.39.67-1.66,1.31-3.35,1.71-5.09.21-.91.16-2.06-.23-2.88-.64-1.36-1.65-2.54-2.67-4.03Z"/>
  <path class="cls-2" d="m111.69,64.08c.76.58,1.4,1.18,2.14,1.62.97.57,2.12,1.58,3,1.41,2.55-.48,5.04-1.37,7.47-2.3.9-.34.79-1.18-.14-1.66-1.13-.58-2.28-1.11-3.47-1.57-3.74-1.44-6.14-.79-9.01,2.5Z"/>
  <path class="cls-2" d="m63.91,16.32c3.44-3.35,3.75-4.6,2.31-8.9-.28-.83-.54-1.65-.83-2.48-.11-.33-.18-.71-.4-.95-.3-.33-.71-.71-1.11-.76-.24-.03-.66.51-.8.87-.77,1.94-1.52,3.89-2.19,5.87-.17.5-.15,1.14-.02,1.66.48,1.87,1.65,3.31,3.05,4.7Z"/>
  <path class="cls-2" d="m98.68,97.49c-.87-.15-1.19.23-1.02,1.11.18.99.3,1.98.51,2.96.27,1.24.83,2.39,2.05,2.87,1.58.62,3.23,1.06,4.87,1.51.76.21,1.16-.18,1.09-1-.43-4.45-3.1-7.12-7.49-7.45Z"/>
  <path class="cls-2" d="m26.96,76.05c.12.16.25.33.37.49,1.8.18,3.78.56,5.27-.65,2.12-1.73,3.96-3.81,5.91-5.75.03-.03-.03-.16-.1-.48-.88,0-1.83-.09-2.76.02-1.38.17-3.12.04-4.02.83-1.8,1.57-3.14,3.67-4.67,5.55Z"/>
  <path class="cls-2" d="m46.14,97.69c.18.06.37.12.55.18.62-.57,1.22-1.19,1.88-1.71,1.2-.95,1.67-2.13,1.6-3.66-.09-1.92.01-3.84.02-5.77,0-.45-.07-.89-.11-1.46-.39.17-.64.2-.76.33-1.24,1.41-2.48,2.83-3.68,4.27-.2.24-.31.66-.28.98.23,2.28.52,4.56.79,6.83Z"/>
  <path class="cls-2" d="m100.32,75.94c.08-.12.15-.24.23-.37-1.48-1.94-2.95-3.87-4.44-5.8-.13-.16-.34-.35-.53-.36-2.06-.14-4.13-.25-6.43-.38.23.59.26.87.41,1.03,1.7,1.71,3.4,3.4,5.14,5.07.26.25.68.44,1.05.48,1.52.15,3.04.22,4.56.33Z"/>
  <path class="cls-2" d="m42.8,49.76c-1.15-.98-2.38-1.84-3.37-2.92-1.32-1.46-2.89-1.63-4.65-1.34-1.16.19-2.33.39-3.48.63-.4.08-.77.32-1.15.49.24.39.42.84.73,1.16,3.38,3.41,7.66,2.35,11.73,2.27.02,0,.04-.06.18-.28Z"/>
  <path class="cls-2" d="m84.86,49.95c.63.16.91.3,1.18.3,2.14,0,4.29-.07,6.43-.04,2.58.04,3.91-1.71,5.3-3.63-2.42-.52-4.82-.84-7.22-1.14-.12-.02-.28.03-.37.11-1.71,1.4-3.4,2.82-5.33,4.41Z"/>
  <path class="cls-2" d="m75.31,100.44c.19-.12.38-.23.58-.35-.06-2.01.53-4.11-1.1-5.89-1.33-1.45-2.65-2.9-3.99-4.34-.37-.4-.79-.74-1.36-1.26-.13.53-.26.8-.25,1.08.05,1.48.09,2.97.23,4.44.05.54.22,1.21.59,1.55,1.72,1.64,3.53,3.18,5.3,4.76Z"/>
  <path class="cls-2" d="m78.29,85.8c-.14.08-.28.16-.43.25,0,2.73-.22,5.48.08,8.18.2,1.82,1.93,2.81,3.39,3.88.55-2.36.9-4.63,1.23-6.91.03-.2,0-.49-.12-.63-1.37-1.6-2.77-3.18-4.16-4.77Z"/>
  <path class="cls-2" d="m76.01,27.44c-.12-.07-.25-.14-.37-.21-1.38,1.12-2.78,2.23-4.13,3.38-1.96,1.67-2.79,5.11-1.81,7.78,1.5-1.41,2.85-2.92,4.44-4.11,2.51-1.88,1.98-4.38,1.87-6.83Z"/>
  <path class="cls-2" d="m29.98,30.4c.73-2.78-1.03-6.64-3.48-7.69-.38-.16-1.16,0-1.44.29-1.13,1.18-1.4,4.21-.53,5.58.28.45.76.95,1.24,1.07,1.39.35,2.82.51,4.21.74Z"/>
  <path class="cls-2" d="m100.76,52.51c-2.13,2.73-4.23,5.42-6.33,8.11.06.17.12.33.18.5,3.11-.32,6.23-.51,9.3-1.04.84-.15,1.76-1.21,2.18-2.08,1.27-2.59,3.41-3.06,5.94-2.81,1.13.11,1.36.54.81,1.58-1.06,1.97-2.13,3.93-3.25,5.85-.55.94-.56,1.76,0,2.7,1.18,2,2.3,4.03,3.42,6.06.7,1.28.48,1.56-.98,1.63-2.4.11-4.34-.49-5.65-2.76-1.31-2.27-3.56-2.99-6.06-3.03-6.85-.09-13.69-.18-20.54-.24-2.36-.02-4.62-.42-6.75-1.45-1.85-.89-1.88-1.47-.2-2.7,1.89-1.39,4.07-1.78,6.34-1.86,1.67-.06,3.34-.03,5,0,1.53.02,2.83-.5,3.9-1.59,1.88-1.9,3.77-3.8,5.66-5.69,1.62-1.62,4.83-2.23,7.04-1.18Z"/>
  <path class="cls-2" d="m98.34,81.66c-3.26.46-6.16.87-9.06,1.3-.35.05-.68.28-1.02.43.18.33.3.72.56.96,1.39,1.33,2.81,2.65,4.24,3.94,1.49,1.34,3.09,1.92,5.17,1.18,3.05-1.08,4.79.75,6.21,2.69.54.74-.06,1-.65,1.17-2.06.6-4.11,1.27-6.19,1.75-1.42.33-2.15,1.06-2.48,2.49-.5,2.17-1.18,4.3-1.82,6.44-.35,1.18-.72,1.29-1.63.49-1.79-1.57-2.91-3.42-2.24-5.9.68-2.51-.13-4.53-1.87-6.33-5.24-5.42-10.53-10.8-15.64-16.33-1.26-1.36-2.06-3.22-2.81-4.96-.56-1.29-.14-1.66,1.26-1.6,2.07.09,3.82.98,5.33,2.3,1.58,1.38,3.09,2.86,4.57,4.35,1.19,1.2,2.56,1.76,4.24,1.72,2.41-.05,4.83-.02,7.24-.07,2.92-.06,4.71,1.68,6.57,3.99Z"/>
  <path class="cls-2" d="m52.5,27.25c2.71,2.11,5.42,4.22,8.34,6.5.05-.67.13-1.08.1-1.49-.13-2.23-.27-4.46-.45-6.68-.13-1.64-.87-2.97-2.41-3.65-2.69-1.19-3.18-3.38-2.91-5.97.11-1.02.56-1.34,1.49-.83,1.96,1.08,3.93,2.13,5.86,3.26.98.57,1.83.61,2.82.03,2-1.18,4.04-2.3,6.07-3.41,1.17-.64,1.55-.45,1.73.89.33,2.49-.76,4.46-2.78,5.69-2.29,1.4-3.04,3.43-3.09,5.85-.14,7.05-.08,14.1-.35,21.15-.08,2.21-.79,4.45-1.53,6.57-.54,1.56-1.43,1.5-2.45.15-1.35-1.79-1.87-3.84-1.95-6.02-.07-1.84-.03-3.68-.03-5.52,0-1.47-.48-2.73-1.55-3.78-1.91-1.87-3.76-3.81-5.7-5.64-2.12-2-1.7-4.46-1.66-6.87.15-.08.3-.16.45-.23Z"/>
  <path class="cls-2" d="m81.7,29.82c.49,3.51.96,6.88,1.46,10.53.48-.4.85-.66,1.14-.98,1.33-1.45,2.61-2.96,3.98-4.38,1.41-1.47,1.93-3.14,1.25-5.05-.97-2.71.31-4.54,2.27-6.15.77-.63,1.31-.57,1.61.49.58,2.11,1.25,4.19,1.78,6.31.32,1.26,1.01,1.92,2.26,2.23,2.17.54,4.31,1.19,6.45,1.82,1.39.41,1.48.78.49,1.85-1.51,1.63-3.27,2.69-5.6,2.06-2.55-.69-4.65.07-6.49,1.84-4.13,3.99-8.27,7.97-12.41,11.95-1.33,1.28-2.55,2.7-4.04,3.76-1.54,1.11-3.27,1.99-5.02,2.73-1.16.49-1.5.08-1.47-1.17.05-2.12.96-3.91,2.31-5.45,1.35-1.55,2.81-3.02,4.28-4.46,1.2-1.17,1.82-2.52,1.79-4.21-.05-2.41-.02-4.82-.08-7.22-.06-2.45,1.5-5.11,4.06-6.5Z"/>
  <path class="cls-2" d="m60.58,94.38c-1.99,1.57-3.98,3.13-5.97,4.7-.48.38-.96.77-1.47,1.11-.6.4-1.03.23-1.09-.5-.18-2.33-.03-4.54,1.86-6.29,1.8-1.67,3.51-3.43,5.26-5.16,1.28-1.27,1.86-2.77,1.83-4.61-.04-2.31-.05-4.66.3-6.93.23-1.45.99-2.88,1.78-4.15.84-1.36,1.78-1.28,2.33.25.7,1.95,1.39,4.01,1.47,6.05.27,7.04.31,14.09.37,21.14.02,2.88.92,5.15,3.54,6.7,1.85,1.09,2.78,3.91,2.23,5.91-.28,1.03-.94.69-1.54.36-1.92-1.06-3.86-2.07-5.72-3.23-1.23-.77-2.27-.8-3.52-.02-1.78,1.11-3.66,2.07-5.52,3.06-1.05.56-1.41.35-1.55-.82-.37-3.09.32-4.49,3.07-6.02,1.44-.79,2.17-1.95,2.25-3.59.13-2.6.33-5.2.5-7.8-.13-.06-.27-.12-.4-.18Z"/>
  <path class="cls-2" d="m40.3,83.2c-3.65-.48-7.04-.92-10.42-1.36-.02-.16-.03-.32-.05-.48,1.39-1.7,2.75-3.51,5.26-3.58,2.5-.08,5-.03,7.5.01,2.22.03,4.09-.57,5.62-2.32,1.2-1.38,2.6-2.61,3.99-3.81,1.45-1.25,3.12-2.12,5.07-2.28,1.63-.14,1.99.33,1.44,1.9-.79,2.26-2.03,4.25-3.73,5.96-4.51,4.55-8.99,9.11-13.48,13.68-.58.59-1.09,1.26-1.64,1.89-1.44,1.67-1.97,3.54-1.43,5.73.6,2.43-.33,4.36-2.2,5.92-.94.78-1.29.73-1.64-.43-.64-2.14-1.29-4.27-1.81-6.44-.35-1.47-1.14-2.21-2.61-2.54-2.01-.45-3.97-1.08-5.94-1.68-1.17-.35-1.24-.69-.49-1.65,1.89-2.42,3.47-2.99,6.44-2.12,1.4.41,2.62.23,3.7-.66,1.9-1.55,3.74-3.18,5.59-4.78.25-.22.45-.51.83-.96Z"/>
  <path class="cls-2" d="m33.48,60.62c-1.57-1.99-3.13-3.97-4.7-5.96-.35-.45-.71-.89-1.04-1.35-.51-.7-.34-1.16.54-1.24,2.45-.2,4.7.14,6.46,2.14,1.3,1.48,2.77,2.81,4.1,4.26,1.68,1.84,3.68,2.64,6.2,2.52,2.05-.1,4.14-.07,6.15.29,1.45.26,2.87,1.03,4.15,1.81,1.36.83,1.29,1.77-.23,2.32-1.91.69-3.93,1.38-5.93,1.46-6.88.26-13.77.25-20.66.37-1.14.02-2.29.1-3.4.32-1.53.31-2.71,1.22-3.49,2.58-1.32,2.29-3.35,3.08-5.88,2.89-1.26-.09-1.5-.44-.9-1.55,1.06-1.96,2.12-3.93,3.29-5.83.7-1.14.74-2.12.04-3.28-1.07-1.75-2.03-3.57-3.01-5.38-.75-1.38-.54-1.69,1.06-1.81,2.62-.2,4.55.64,5.78,3.15.42.87,1.51,1.83,2.42,1.97,2.92.44,5.9.52,8.86.74.06-.14.13-.28.19-.42Z"/>
  <path class="cls-2" d="m44.75,40.19c.47-3.39.94-6.78,1.41-10.19,1.85.53,3.9,3.17,3.98,5.24.1,2.4.03,4.82-.04,7.22-.07,2.37.57,4.35,2.45,5.94,1.3,1.1,2.56,2.32,3.52,3.71,1,1.44,1.85,3.08,2.36,4.75.6,1.97-.26,2.7-2.09,1.79-1.94-.96-3.91-2.07-5.48-3.53-5.21-4.83-10.24-9.84-15.34-14.79-1.76-1.7-3.78-2.39-6.26-1.84-1.72.38-3.42.2-4.8-1.1-1.31-1.24-1.01-2.56.7-3.06,1.72-.51,3.43-1.08,5.18-1.48,1.44-.33,2.12-1.14,2.45-2.54.45-1.96,1.06-3.88,1.63-5.81.41-1.39.72-1.44,1.88-.52,2.02,1.6,2.91,3.51,2.05,6.11-.26.78-.35,1.8-.07,2.54,1.24,3.19,4.03,5.15,6.1,7.69.12-.05.24-.09.36-.14Z"/>
  <path class="cls-1" d="m98.27,30.77c-.31-.67-.65-1.05-.63-1.4.23-3.12,1.16-5.82,4.5-6.97,1.28-.44,2.5-1.02,3.78-1.45,1.03-.35,1.71.19,1.3,1.11-1,2.26-1.86,4.75-3.47,6.52-1.13,1.24-3.41,1.42-5.48,2.2Z"/>
  <path class="cls-1" d="m9.9,60.72c2.81.17,4.3,1.32,5.63,2.67.2.2.09,1.05-.17,1.29-2.02,1.93-4.2,3.29-7.17,1.88-1.37-.65-2.88-1.02-4.29-1.61-.37-.16-.77-.64-.83-1.02-.04-.24.47-.7.83-.85,2.21-.91,4.44-1.76,5.99-2.36Z"/>
  <path class="cls-1" d="m30.21,98.59c-.18,1.19-.26,2.02-.43,2.83-.3,1.44-1.02,2.58-2.42,3.23-1.59.74-3.12,1.6-4.73,2.28-.49.21-1.18.14-1.69-.05-.15-.06-.16-.97,0-1.4.54-1.43,1.2-2.81,1.78-4.23.94-2.31,2.83-3.21,5.15-3.48.3-.04.62-.04.92-.1,1.09-.24,1.66.04,1.42.9Z"/>
  <path class="cls-1" d="m64.02,111.39c1.02,1.49,2.03,2.67,2.67,4.03.39.82.44,1.97.23,2.88-.4,1.74-1.04,3.43-1.71,5.09-.22.54-.81.93-1.24,1.39-.37-.39-.87-.73-1.08-1.2-.66-1.47-1.26-2.98-1.8-4.5-.68-1.93-.33-3.7.98-5.29.58-.7,1.14-1.42,1.93-2.4Z"/>
  <path class="cls-1" d="m111.69,64.08c2.87-3.29,5.27-3.94,9.01-2.5,1.18.46,2.34.99,3.47,1.57.93.48,1.05,1.31.14,1.66-2.44.93-4.92,1.82-7.47,2.3-.88.17-2.04-.84-3-1.41-.74-.44-1.38-1.04-2.14-1.62Z"/>
  <path class="cls-1" d="m63.91,16.32c-1.4-1.39-2.57-2.83-3.05-4.7-.13-.52-.15-1.16.02-1.66.67-1.98,1.42-3.93,2.19-5.87.14-.36.56-.89.8-.87.4.04.81.42,1.11.76.22.24.29.63.4.95.28.82.55,1.65.83,2.48,1.44,4.31,1.14,5.55-2.31,8.9Z"/>
  <path class="cls-1" d="m98.68,97.49c4.38.33,7.06,3,7.49,7.45.08.81-.33,1.2-1.09,1-1.64-.45-3.29-.89-4.87-1.51-1.22-.48-1.78-1.63-2.05-2.87-.21-.98-.33-1.98-.51-2.96-.16-.87.15-1.26,1.02-1.11Z"/>
  <path class="cls-1" d="m26.96,76.05c1.53-1.88,2.87-3.98,4.67-5.55.9-.78,2.65-.66,4.02-.83.93-.11,1.88-.02,2.76-.02.07.32.13.44.1.48-1.95,1.94-3.78,4.02-5.91,5.75-1.49,1.21-3.47.83-5.27.65-.12-.16-.25-.33-.37-.49Z"/>
  <path class="cls-1" d="m46.14,97.69c-.27-2.28-.55-4.55-.79-6.83-.03-.32.08-.73.28-.98,1.2-1.45,2.43-2.86,3.68-4.27.12-.14.37-.17.76-.33.05.57.11,1.02.11,1.46,0,1.92-.1,3.85-.02,5.77.07,1.53-.39,2.72-1.6,3.66-.66.52-1.26,1.14-1.88,1.71-.18-.06-.37-.12-.55-.18Z"/>
  <path class="cls-1" d="m100.32,75.94c-1.52-.1-3.05-.18-4.56-.33-.37-.04-.79-.23-1.05-.48-1.74-1.67-3.44-3.37-5.14-5.07-.16-.16-.18-.44-.41-1.03,2.29.13,4.36.24,6.43.38.19.01.4.2.53.36,1.49,1.93,2.96,3.87,4.44,5.8-.08.12-.15.24-.23.37Z"/>
  <path class="cls-1" d="m42.8,49.76c-.14.22-.16.28-.18.28-4.07.08-8.34,1.14-11.73-2.27-.31-.32-.49-.77-.73-1.16.38-.17.75-.4,1.15-.49,1.15-.24,2.32-.44,3.48-.63,1.76-.29,3.32-.11,4.65,1.34.98,1.09,2.22,1.94,3.37,2.92Z"/>
  <path class="cls-1" d="m84.86,49.95c1.93-1.6,3.62-3.01,5.33-4.41.09-.08.25-.12.37-.11,2.4.31,4.8.63,7.22,1.14-1.39,1.92-2.72,3.67-5.3,3.63-2.14-.03-4.29.04-6.43.04-.27,0-.55-.13-1.18-.3Z"/>
  <path class="cls-1" d="m75.31,100.44c-1.78-1.58-3.58-3.12-5.3-4.76-.37-.35-.53-1.02-.59-1.55-.14-1.48-.18-2.96-.23-4.44,0-.27.12-.55.25-1.08.56.52.99.87,1.36,1.26,1.34,1.44,2.67,2.89,3.99,4.34,1.63,1.78,1.04,3.88,1.1,5.89-.19.12-.38.23-.58.35Z"/>
  <path class="cls-1" d="m78.29,85.8c1.39,1.59,2.79,3.17,4.16,4.77.12.14.15.43.12.63-.33,2.28-.68,4.55-1.23,6.91-1.46-1.07-3.2-2.06-3.39-3.88-.29-2.7-.08-5.45-.08-8.18.14-.08.28-.16.43-.25Z"/>
  <path class="cls-1" d="m76.01,27.44c.11,2.46.64,4.95-1.87,6.83-1.59,1.19-2.94,2.7-4.44,4.11-.97-2.67-.15-6.1,1.81-7.78,1.35-1.15,2.75-2.25,4.13-3.38.12.07.25.14.37.21Z"/>
  <path class="cls-1" d="m29.98,30.4c-1.39-.23-2.83-.4-4.21-.74-.48-.12-.96-.62-1.24-1.07-.87-1.38-.61-4.4.53-5.58.29-.3,1.06-.46,1.44-.29,2.45,1.04,4.21,4.9,3.48,7.69Z"/>
</svg>