<?xml version="1.0" encoding="UTF-8"?>
<svg id="Layer_1" data-name="Layer 1" xmlns="http://www.w3.org/2000/svg" viewBox="0 0 128 128">
  <defs>
    <style>
      .cls-1 {
        fill: #e30613;
      }

      .cls-1, .cls-2, .cls-3, .cls-4 {
        stroke-width: 0px;
      }

      .cls-2 {
        fill: #be1622;
      }

      .cls-3 {
        fill: #fff;
      }

      .cls-4 {
        fill: #9d9d9c;
      }
    </style>
  </defs>
  <path class="cls-2" d="m42.86,94.36c-2.73,2.51-5.32,4.89-7.92,7.27-1.22,1.12-1.43,1.11-2.59-.03-.59-.57-1.22-1.1-1.97-1.77,3.39-3.02,6.62-5.9,9.93-8.85-.65-.81-1.25-1.55-1.93-2.4-3.4,2.95-6.73,5.84-10.19,8.85-.69-.72-1.39-1.4-2.03-2.12-.65-.74-.32-1.34.32-1.9,2.76-2.44,5.52-4.88,8.27-7.33.29-.26.56-.53.89-.83-.57-.77-1.12-1.48-1.62-2.22-5-7.28-7.68-15.32-7.54-24.16.13-8.3,2.87-15.58,9.6-20.81,6.41-4.98,13.71-6.72,21.69-4.85,1.52.36,3.01,1.15,4.3,2.05,2.21,1.55,2.85,3.83,2.24,6.45-1.23,5.36-4.7,8.91-9.38,11.42-2.41,1.29-4.89,2.47-7.34,3.71-.59.3-1.17.63-1.73,1-3.26,2.14-4.05,4.33-3.2,8.13.38,1.7.57,3.48.57,5.22,0,.71-.57,1.72-1.18,2.06-.88.5-1.72-.24-2.29-.97-1.85-2.39-1.87-5.07-1.03-7.81.3-.97.86-1.85,1.17-2.81.16-.48.02-1.05.02-1.59-.51.17-1.14.22-1.52.54-1.75,1.5-2.65,3.51-2.89,5.74-.73,6.94.81,13.35,5.03,18.94,2.64,3.5,5.68,6.69,8.42,10.12,2.96,3.69,5,7.85,5.71,12.58.36,2.43-.54,4.56-2.26,5.52-2.23,1.24-4.57.09-4.86-2.45-.12-1.04-.06-2.11-.02-3.17.23-5.07-1.76-9.36-4.68-13.52Zm3.48-57.21c-2.67.2-5.14.83-7.26,2.48-1.06.83-1.84,1.88-1.58,3.32.27,1.51,1.22,2.5,2.66,3.02,3.22,1.15,8.63-.67,10.51-3.54,1.2-1.83.57-3.96-1.48-4.7-.9-.32-1.9-.4-2.85-.58Z"/>
  <path class="cls-4" d="m44.54,83.2c-.63-1.02-1.18-1.92-1.74-2.8-.47-.75-.21-1.27.41-1.81,7.43-6.45,14.78-13,22.28-19.36,15.04-12.75,30.16-25.41,45.25-38.1,2.72-2.29,8.41-4.2,11.42-3.83-.46,2.97-1.55,5.72-3.57,7.9-2.71,2.93-5.6,5.71-8.56,8.39-16.76,15.19-33.56,30.34-50.34,45.5-3.05,2.76-6.11,5.52-9.16,8.28-1.16,1.05-1.45,1.04-2.5-.1-.35-.37-.67-.76-1-1.15-.15-.18-.29-.37-.56-.72.55-.5,1.09-.99,1.64-1.48,10.24-9.01,20.52-17.98,30.71-27.05,10.21-9.1,20.34-18.3,30.47-27.49,1.47-1.34,2.76-2.89,4.12-4.35.18-.19.28-.45.27-.88-.63.41-1.3.77-1.88,1.24-6.21,5.1-12.51,10.09-18.58,15.35-15.56,13.47-31.01,27.07-46.5,40.62-.65.57-1.31,1.11-2.18,1.83Z"/>
  <path class="cls-2" d="m123.55,66.05c.05,9.59-6.88,21.99-19.32,24.11-1.88.32-3.82.37-5.73.37-3.37,0-6.48.73-9.42,2.45-1.63.96-3.47,1.57-5.22,2.33-.14.06-.3.07-.46.09-1.64.2-3.32-.65-3.58-1.82-.22-.99.81-2.46,2.35-2.86,1.69-.44,3.46-.61,5.2-.84,2.13-.29,4.3-.37,6.4-.8,5.7-1.16,9.25-4.79,10.85-10.23.67-2.29.8-4.76,1.01-7.16.05-.62-.38-1.62-.87-1.85-.47-.22-1.37.21-1.96.56-.9.54-1.67,1.3-2.55,1.88-1.25.83-2.63,1.15-4.14.87-1.92-.36-2.7-2.06-1.64-3.71.68-1.06,1.69-1.62,2.94-1.69.66-.04,1.34-.04,2,.02,2.53.23,4.3-.96,5.52-3.04.57-.97.96-2.05,1.42-3.09.17-.39.26-.82.43-1.22,1.14-2.66,2.5-5.26,5.73-5.6,4.1-.44,7.5.91,9.58,4.73,1.15,2.12,1.53,4.42,1.47,6.48Zm-5.78-1.39c-.12-.89-.16-1.8-.39-2.65-.39-1.43-1.01-2.75-2.72-3.03-1.68-.27-3.03.42-3.96,2.09-1.31,2.38-1.53,4.92-.73,7.48.77,2.49,3.07,3.21,5.22,1.74,1.98-1.35,2.57-3.35,2.59-5.63Zm-6.2,12.32c.55.83.87,1.61,1.44,2.07.33.27,1.17.25,1.6.02,1.51-.81,2.14-3.37,1.31-4.87-.62-1.12-1.77-1.39-2.58-.42-.73.89-1.15,2.03-1.78,3.19Z"/>
  <path class="cls-2" d="m68.1,42.99c.2-1.3.24-2.22.5-3.07,1.08-3.56.83-7.08.11-10.67-.5-2.48-.57-5.04-.91-7.55-.07-.5-.48-.96-.73-1.43-.5.28-1.17.44-1.47.86-.44.62-.56,1.46-.95,2.13-.42.73-.86,1.52-1.51,2-.42.3-1.41.33-1.8.03-.44-.34-.7-1.2-.66-1.8.05-.65.5-1.29.89-1.87.3-.44.72-.85,1.17-1.14,3.58-2.35,6.05-5.74,8.68-9.01,3.91-4.84,9-7.14,15.28-6.54.23.02.47.05.7.1,5.67,1.24,7.64,6.58,3.84,11-1.44,1.68-3.44,2.93-5.34,4.13-2.18,1.38-4.53,2.49-6.79,3.74-.68.38-1.33.83-1.96,1.29-4.12,2.98-5.6,6.97-4.62,11.94.35,1.76.75,3.53.95,5.31.11.98.02,2.07-.31,2.98-.71,1.96-2.88,2.24-4.02.49-.61-.93-.79-2.15-1.05-2.92Zm15.75-35.04c-3.08-.02-6.06,1.72-7.45,4.16-1.07,1.89-.2,3.74,1.95,3.92,2.85.24,5.28-.85,7.37-2.7,1.08-.95,1.74-2.18,1.16-3.66-.58-1.48-1.95-1.63-3.03-1.72Zm-7.1,11.92c0-.92-.64-1.48-1.72-1.49-1.59-.02-3.07,1.16-3.07,2.46,0,1.15.87,2.04,1.98,2.03,1.3-.02,2.81-1.63,2.82-2.99Z"/>
  <path class="cls-2" d="m91.34,80.83c2.16-.52,4.16-1.01,6.15-1.5.34-.08.67-.34.99-.31.43.04,1,.16,1.2.46.19.27.14.92-.06,1.24-1.15,1.86-2.81,3.17-4.83,3.94-5.92,2.25-11.42,1.36-16.56-2.3-1.49-1.06-3.03-2.1-4.68-2.86-.97-.45-2.23-.55-3.31-.41-1.64.2-2.49,1.49-2.99,2.98-.38,1.11-.66,2.26-1.12,3.33-.55,1.29-1.57,1.85-2.56,1.57-1.02-.29-1.92-1.45-1.69-2.64.22-1.16.65-2.35,1.29-3.33,2.71-4.17,6.72-6.7,11.27-8.46,2.97-1.15,6.05-1.92,9.26-1.89.99.01,2.02.25,2.96.58.94.33,1.54,1.14,1.48,2.19-.06,1.07-.83,1.53-1.8,1.7-.11.02-.23.06-.34.1-1,.32-2.22.52-2.32,1.82-.1,1.25.96,1.91,1.93,2.25,1.86.65,3.8,1.07,5.71,1.58Zm-11.89-7.95c-1.74-.01-3.13.89-3.1,2,.03,1.03,1.09,1.83,2.45,1.85,1.54.03,2.79-1.05,2.78-2.39,0-.94-.75-1.45-2.13-1.46Z"/>
  <path class="cls-3" d="m4.45,116.97c-.06-3.76,3.34-6.71,7.13-6.08,1.07.17,1.95.02,2.73-.67,1.85-1.63,3.69-3.25,5.49-4.93.44-.41.75-1.01,1.03-1.56.91-1.74.8-2.33-.58-3.73-1.07-1.09-2.13-2.19-3.22-3.26-.66-.64-.66-1.19.07-1.75.28-.21.56-.44.8-.69.6-.6,1.12-.52,1.7.07,4.64,4.73,9.3,9.44,13.95,14.16.73.75.5,1.53-.7,2.77-.76.78-1.24.2-1.75-.32-1.02-1.03-2.08-2.03-3.05-3.11-.93-1.03-2.07-1.27-3.18-.65-1.59.89-3.06,2.01-4.55,3.07-.51.36-.9.88-1.37,1.28-1.66,1.42-2.54,2.95-2.23,5.38.43,3.43-2.42,6.1-6.04,6.21-3.57.11-6.17-2.48-6.23-6.2Zm9.1.05c0-1.66-1.21-2.92-2.85-2.96-1.7-.04-2.98,1.22-2.98,2.93,0,1.71,1.28,3,2.95,2.97,1.63-.03,2.87-1.3,2.88-2.95Z"/>
  <path class="cls-2" d="m10.81,43.56c.15-2.6.49-4.76,1.62-6.71,1.47-2.54,4.21-3.5,6.74-2.38,2.47,1.09,3.7,3.88,2.75,6.6-1.28,3.67-2.42,7.36-2.75,11.25-.12,1.48-.05,2.98-.22,4.45-.06.53-.44,1.24-.87,1.44-.35.16-1.2-.17-1.47-.54-3.21-4.31-5.37-9.06-5.8-14.1Zm1.66-1.78c.06.02.12.05.18.07.03.35,0,.71.09,1.05.24,1,.83,1.7,1.86,1.9,1.02.21,1.7-.41,2.02-1.25.39-1,.69-2.07.78-3.14.08-.98-.41-1.85-1.46-2.16-1.03-.3-1.93.11-2.46.95-.48.77-.68,1.7-1.01,2.57Z"/>
  <path class="cls-2" d="m51.63,20.82c-2.49-.36-4.42-.68-6.36-.9-2.62-.3-5.05.33-7.28,1.74-.32.2-.77.2-1.15.3-.03-.43-.21-.91-.08-1.28,1.85-5.6,5.77-8.87,11.48-10.1,2.27-.49,4.53-.63,6.66.47.88.46,1.76,1.08,2.39,1.83,1.88,2.23,1.37,5.26-1.23,6.57-1.49.75-3.23,1.02-4.41,1.37Zm-.9-4.78c.95-.28,1.72-.36,2.32-.72.47-.29,1.02-.92,1.01-1.39-.01-.46-.6-1.07-1.09-1.32-1.65-.85-3.4-.79-5.09-.08-1.1.46-1.26,1.4-.27,2.06.97.65,2.13,1.01,3.12,1.46Z"/>
  <path class="cls-2" d="m71.03,102.51c-.79-.22-1.71-.43-2.59-.75-.66-.24-1.27-.61-1.89-.95-3.15-1.7-4-1.56-6.58.98-.24.23-.74.47-.97.36-.24-.11-.43-.62-.43-.96.03-1.87.9-3.38,2.22-4.64,3.36-3.18,9.46-3.55,13.2-.83,1.19.87,1.68,2.07,1.44,3.5-.23,1.41-1,2.47-2.43,2.89-.6.17-1.22.25-1.98.39Zm-.83-3.22c.95.02,1.76-.67,1.78-1.5.02-.94-1.24-1.89-2.58-1.95-.96-.04-1.68.55-1.68,1.39,0,1,1.25,2.03,2.49,2.05Z"/>
  <path class="cls-2" d="m13.22,70.96c0-1.84.76-3.08,2.1-3.41,1.69-.42,3.01.16,3.84,1.9,1.27,2.64,2.48,5.3,3.61,8,.34.8.45,1.75.44,2.62-.02,1.12-.66,1.67-1.77,1.47-.89-.16-1.79-.55-2.56-1.03-3.68-2.27-5.66-5.68-5.65-9.54Zm5.2,3.11c-.42-.95-.67-1.78-1.14-2.46-.25-.37-1.02-.77-1.3-.63-.46.22-1.03.9-1,1.34.07.84.43,1.72.89,2.45.23.38,1.01.75,1.37.63.46-.16.76-.82,1.17-1.32Z"/>
  <path class="cls-2" d="m112.81,41.17c1.26,0,1.82.59,1.57,1.85-.42,2.2-1.59,3.98-3.35,5.34-1.18.91-2.56.87-3.46.08-1.04-.91-1.31-2.56-.62-3.86.92-1.75,3.78-3.41,5.85-3.4Z"/>
  <path class="cls-2" d="m77.92,32.87c.51-1.33.92-2.72,1.57-3.98.65-1.25,1.9-1.69,3.29-1.58,1.13.09,1.94.83,2.11,1.87.35,2.16-1.38,5.23-3.41,6.06-2,.81-3.34-.11-3.56-2.37Z"/>
  <path class="cls-2" d="m100.74,17.47c-.94-.06-1.93-.26-2.4-1.37-.47-1.12.16-1.97.93-2.54.85-.63,1.86-1.12,2.87-1.43.96-.29,1.85.17,2.4,1.05.55.87.36,1.72-.18,2.52-.74,1.1-2.1,1.77-3.63,1.76Z"/>
  <path class="cls-2" d="m74.91,90.05c-1.52-.03-2.69-1.06-2.69-2.37,0-1.33,1.25-2.49,2.63-2.45,1.39.05,2.77,1.34,2.74,2.58-.02,1.24-1.25,2.27-2.69,2.24Z"/>
  <path class="cls-2" d="m46.57,63.27c.06-1.14.55-2.33,1.77-3.01.43-.24,1.23-.31,1.58-.06.37.26.7,1.16.52,1.5-.55,1.03-1.2,2.1-2.09,2.83-.97.81-1.76.26-1.78-1.26Z"/>
  <path class="cls-2" d="m109.01,10.1c-.19-.2-.84-.58-.99-1.1-.23-.78,1.19-1.92,2.26-1.93.81-.01,1.36.39,1.42,1.22.07.91-1.07,1.8-2.69,1.81Z"/>
  <path class="cls-1" d="m46.34,37.16c.95.19,1.95.26,2.85.58,2.05.73,2.67,2.87,1.48,4.7-1.88,2.87-7.29,4.7-10.51,3.54-1.44-.52-2.39-1.51-2.66-3.02-.26-1.44.52-2.5,1.58-3.32,2.12-1.65,4.6-2.28,7.26-2.48Z"/>
  <path class="cls-1" d="m117.77,64.66c-.02,2.28-.61,4.28-2.59,5.63-2.15,1.47-4.44.75-5.22-1.74-.8-2.57-.58-5.11.73-7.48.93-1.68,2.28-2.36,3.96-2.09,1.7.27,2.32,1.59,2.72,3.03.23.86.27,1.77.39,2.65Z"/>
  <path class="cls-1" d="m111.57,76.98c.63-1.16,1.05-2.3,1.78-3.19.8-.98,1.96-.7,2.58.42.82,1.49.19,4.06-1.31,4.87-.43.23-1.27.25-1.6-.02-.57-.47-.89-1.24-1.44-2.07Z"/>
  <path class="cls-1" d="m83.85,7.96c1.08.09,2.45.25,3.03,1.72.58,1.48-.08,2.7-1.16,3.66-2.09,1.85-4.52,2.94-7.37,2.7-2.15-.18-3.02-2.04-1.95-3.92,1.39-2.44,4.38-4.18,7.45-4.16Z"/>
  <path class="cls-1" d="m76.74,19.88c0,1.37-1.52,2.98-2.82,2.99-1.11.02-1.97-.87-1.98-2.03,0-1.3,1.48-2.48,3.07-2.46,1.08.01,1.73.57,1.72,1.49Z"/>
  <path class="cls-1" d="m79.45,72.88c1.38,0,2.12.52,2.13,1.46,0,1.34-1.24,2.42-2.78,2.39-1.36-.02-2.42-.83-2.45-1.85-.03-1.12,1.36-2.02,3.1-2Z"/>
  <path class="cls-1" d="m12.47,41.78c.33-.86.53-1.8,1.01-2.57.52-.84,1.43-1.25,2.46-.95,1.05.31,1.54,1.18,1.46,2.16-.09,1.06-.39,2.14-.78,3.14-.32.83-1,1.45-2.02,1.25-1.02-.21-1.62-.91-1.86-1.9-.08-.34-.06-.7-.09-1.05-.06-.02-.12-.05-.18-.07Z"/>
  <path class="cls-1" d="m50.72,16.04c-.99-.45-2.14-.82-3.12-1.46-.99-.66-.83-1.6.27-2.06,1.69-.71,3.44-.77,5.09.08.49.25,1.08.86,1.09,1.32.01.47-.54,1.11-1.01,1.39-.6.36-1.37.45-2.32.72Z"/>
  <path class="cls-1" d="m70.2,99.29c-1.24-.02-2.49-1.06-2.49-2.05,0-.83.72-1.43,1.68-1.39,1.34.06,2.6,1.01,2.58,1.95-.02.83-.83,1.51-1.78,1.5Z"/>
  <path class="cls-1" d="m18.42,74.07c-.42.5-.71,1.16-1.17,1.32-.36.12-1.14-.25-1.37-.63-.45-.73-.81-1.6-.89-2.45-.04-.44.53-1.11,1-1.34.28-.14,1.05.27,1.3.63.47.68.72,1.51,1.14,2.46Z"/>
</svg>