<?xml version="1.0" encoding="UTF-8"?>
<svg id="Layer_1" data-name="Layer 1" xmlns="http://www.w3.org/2000/svg" viewBox="0 0 128 128">
  <defs>
    <style>
      .cls-1 {
        fill: #b17f4a;
      }

      .cls-1, .cls-2 {
        stroke-width: 0px;
      }

      .cls-2 {
        fill: #7d4e24;
      }
    </style>
  </defs>
  <path class="cls-1" d="m67.78,110.93c-.75,3.24-.91,6.54-.89,9.85-1.18.13-1.56-.14-1.5-1.32.15-3.34.3-6.69.59-10.02.33-3.76.64-7.51-.36-11.21-.27-1.01-.68-1.99-1.09-2.95-.49-1.13-.35-1.35.86-1.44,2.35-.18,4.74-.27,7.04-.73,1.34-.27,2.58-1.14,3.81-1.85.46-.26.84-.78,1.09-1.26.2-.39.15-.92.21-1.38-.39-.02-.79-.11-1.16-.05-5.56.89-11.09.54-16.63-.27-4.95-.72-9.9-1.52-14.88-1.86-6.76-.46-13.34.87-19.7,3.13-2.36.84-4.21.43-5.87-1.45-1.77-2-3.66-3.89-5.49-5.84-.27-.29-.49-.62-.94-1.2,1.03.07,1.72.12,2.41.16,4.02.21,6.08-1.73,6.03-5.76-.01-1.19-.26-2.39-.45-3.57-.05-.27-.35-.5-.53-.74-.18.26-.4.5-.52.78-.5,1.17-.79,2.46-1.46,3.51-2.17,3.4-7.06,3.35-9.29,0-.56-.85-1.1-1.71-1.59-2.6-.69-1.26-.35-2.35.93-3.01,6.76-3.46,13.53-6.89,20.27-10.4,1-.52,1.95-1.3,2.69-2.16,3.15-3.69,6.11-7.55,9.34-11.17,2.56-2.87,5.47-5.5,9.18-6.76,2.32-.79,4.83-1.04,7.27-1.42,1-.16,1.57.55,1.66,1.69.1,1.31.12,2.64.32,3.93.81,5.15,4.5,8.77,9.85,9.6,1.28.2,2.61.09,3.92.06.28,0,.55-.28.83-.43-.24-.24-.45-.54-.73-.71-1.74-1.09-3.66-1.96-5.22-3.26-2.59-2.16-3.69-5.13-3.74-8.51-.02-.99.43-1.52,1.19-2.1,1.93-1.48,3.9-2.96,5.56-4.71,1.69-1.79,2.57-4.1,2.21-6.64-.55-3.85-4.06-6.44-8.06-6.14-2.37.18-4.39,1.21-6.41,2.31-2.24,1.22-4.47,2.49-6.8,3.53-6.38,2.83-12.88.34-16.22-3.23-2.67-2.85-3.37-7.1-1.68-10.36.28-.54.75-.99,1.32-1.72.15.64.23.88.26,1.13.4,3.99,2.03,5.2,6.12,6.02,3.07.62,5.94-.21,8.57-1.68,3.22-1.79,6.3-3.82,9.46-5.72,4.1-2.45,8.43-4.28,13.32-3.86,6.36.54,11.9,3.03,16.14,7.83,3.9,4.41,4.67,9.79,3.8,15.47-.51,3.34-1.74,6.44-3.16,9.48-1.22,2.61-2.02,5.34-2.21,8.23-.02.38.04.76.06,1.13.09.02.19.05.28.07.22-.33.45-.65.66-.98,1.08-1.68,2.1-3.39,3.23-5.03,1.28-1.85,2.14-2.08,4.09-1,1.91,1.05,3.75,2.22,5.59,3.4,2.78,1.78,5.68,2.65,9.07,2.35,2.98-.26,6.01.06,9.02.14,1.14.03,1.43.76,1.43,1.75,0,3.99.01,7.98.02,11.97.02,19.16.04,38.32.06,57.48,0,.45,0,.89,0,1.49-.48,0-.88,0-1.28,0-15.85,0-31.7.01-47.55.02-1.94,0-2.3-.28-2.61-2.16-.35-2.15-.64-4.31-.97-6.47-.07-.46-.18-.92-.27-1.37-.15,0-.3,0-.46,0Zm-16.83-55.46c.04-3.09-2.22-4.5-4.62-3.25-2.31,1.2-3.61,3.16-3.93,5.7-.15,1.16,0,2.39,1.12,3.13,1.15.76,2.43.94,3.63.2,2.28-1.4,3.6-3.46,3.8-5.78Z"/>
  <path class="cls-2" d="m22.86,20.93c.36,2.26.54,4.56,1.11,6.76,1.63,6.29,5.26,8.5,11.66,7.37,1.85-.33,3.72-.58,5.59-.65.92-.03,1.93.27,2.75.7.91.48.87,1.34-.01,1.87-2.66,1.59-4.71,3.79-6.75,6.08-2.63,2.95-6.02,3.51-9.7,2.24-3.88-1.35-6.35-4.18-7.89-7.88-2.64-6.31-2.27-12.38,1.54-18.15.19-.28.36-.6.62-.79.29-.23.67-.34,1.02-.5.11.33.29.66.31,1,.05.64.01,1.28.01,1.92-.09.01-.17.02-.26.04Z"/>
</svg>