<?xml version="1.0" encoding="UTF-8"?>
<svg id="Layer_1" data-name="Layer 1" xmlns="http://www.w3.org/2000/svg" viewBox="0 0 128 128">
  <defs>
    <style>
      .cls-1 {
        fill: #fff;
      }

      .cls-1, .cls-2, .cls-3 {
        stroke-width: 0px;
      }

      .cls-2 {
        fill: #f9b233;
      }

      .cls-3 {
        fill: #fcea10;
      }
    </style>
  </defs>
  <path class="cls-2" d="m67.03,104.82c-.06-.62-.12-.96-.12-1.31-.01-1.38.02-2.75-.01-4.13-.04-1.77-.96-3.04-2.78-3.75-.08,3.33-.17,6.59-.26,10.13-6.45-3.97-11.17-9.28-15.5-15.03-.23,1.79.16,3.41.83,4.99,1.13,2.68,2.87,4.96,4.94,6.95,2.32,2.24,4.73,4.4,7.19,6.5,1.22,1.04,1.96,2.14,1.82,3.82-.11,1.4-.02,2.82-.02,4.59-9.43-4.99-16.3-12.41-22.67-20.54-3.36,2.95-6.64,5.88-10.74,7.58-.1-.08-.2-.16-.3-.25.27-.43.48-.92.81-1.3,2.3-2.53,4.65-5.01,6.94-7.54,4.27-4.7,8.54-9.41,12.76-14.15.68-.76,1.17-1.71,1.68-2.62.15-.28.06-.69.08-1.05-.38,0-.85-.14-1.13.03-1.78,1.06-3.52,2.2-5.27,3.31-.31.19-.61.4-1.13.74-.29-1.33-.58-2.49-.8-3.67-1.5-7.94-2.34-15.95-2.73-24.02-.21-4.31-.35-8.62-.54-12.93-.07-1.64.25-2.15,1.75-2.84,3.3-1.52,6.62-2.98,9.86-4.62,3.82-1.94,7.27-4.46,10.48-7.3.26-.23.56-.43,1.06-.81.05.64.11,1.02.11,1.4,0,13.69,0,27.38,0,41.07,0,.19-.06.4.01.55.18.4.41.78.62,1.17.34-.23.82-.38,1-.69,1.21-2.04,1.95-4.22,1.95-6.65-.02-12.05-.01-24.1-.01-36.16v-1.45c3.77,2.61,7.27,5.25,10.98,7.56,3.71,2.3,7.62,4.26,11.67,6.5-3.69,3.64-7.22,7.33-10.32,11.39.08.13.15.26.23.39.55-.17,1.19-.21,1.64-.53,2.79-1.95,5.55-3.97,8.31-5.96.27-.2.56-.38,1.08-.75-.11,1.93-.17,3.55-.3,5.16-.41,5.15-.83,10.3-1.27,15.45-.92,10.79-4.74,20.43-11.54,28.83-3.06,3.78-6.3,7.42-9.46,11.12-.2.23-.47.41-.91.8Z"/>
  <path class="cls-3" d="m102.77,32.94c-.13,2.64-.18,4.9-.36,7.16-.47,5.97-.87,11.94-1.51,17.89-.95,8.82-2.6,17.53-6.11,25.7-1.61,3.75-4.02,7.19-6.35,10.57-4.93,7.15-10.87,13.46-16.92,19.65-1.68,1.72-3.03,3.54-3.6,5.9-.09.39-.34.75-.52,1.12-.11-.01-.22-.02-.33-.04-.06-.32-.17-.64-.17-.96-.01-2.68-.02-5.36,0-8.03,0-1.4.51-2.58,1.48-3.61,4.86-5.17,9.55-10.49,13.6-16.35,5.26-7.61,8.45-16.03,9.37-25.21.81-7.98,1.24-16,1.76-24.01.1-1.58.63-2.73,1.89-3.69,2.18-1.67,4.27-3.46,6.41-5.19.33-.26.7-.46,1.36-.9Z"/>
  <path class="cls-3" d="m10.4,11.93c.28.25.58.49.83.76,7.78,8.34,15.54,16.69,23.35,25,1.01,1.08,1.46,2.25,1.52,3.69.29,7.39.5,14.79.97,22.17.42,6.6,1.37,13.15,2.98,19.58.47,1.86.12,3.25-1.22,4.63-7.87,8.09-15.65,16.27-23.53,24.35-1.89,1.94-4.01,3.64-6.04,5.44-.29.26-.62.46-.93.69-.09-.06-.18-.13-.27-.19.15-.37.26-.77.46-1.11,2.91-5.01,6.55-9.46,10.45-13.71,4.25-4.62,8.51-9.23,12.85-13.77,1.46-1.53,1.75-3.08,1.38-5.16-1.22-7.02-2.5-14.05-3.19-21.14-.74-7.57-.8-15.21-1.27-22.81-.06-1.03-.58-2.18-1.24-2.99-5.55-6.8-10.78-13.82-15.3-21.35-.75-1.25-1.46-2.52-2.19-3.78.13-.1.25-.2.38-.3Z"/>
  <path class="cls-3" d="m118.98,15.02c-.26.24-.51.5-.79.72-7.93,6.49-15.87,12.96-23.77,19.48-1.41,1.17-2.75,1.33-4.39.61-8.22-3.61-15.72-8.32-22.34-14.4-.34-.32-.69-.84-.7-1.28-.05-3.01-.02-6.02,0-9.03,0-.17.08-.34.12-.5l.47-.39c.19.39.32.83.59,1.16,6.32,7.74,14.41,12.95,23.66,16.43,2.15.81,4.14.02,6.01-1.14,4.85-3.02,9.68-6.06,14.57-9.01,1.71-1.03,3.56-1.83,5.36-2.7.33-.16.72-.19,1.08-.29.05.12.1.23.15.35Z"/>
  <path class="cls-3" d="m26.6,23.95c.36.13.74.23,1.08.39,1.72.78,3.45,1.54,5.15,2.37,1.46.71,2.87.67,4.4.13,7.12-2.52,13.61-6.17,19.77-10.51,2.83-1.99,4.94-4.31,5.7-7.75.12-.53.42-1.01.64-1.51.1.02.19.04.29.07.06.19.17.38.17.58,0,3.49-.05,6.99.01,10.48.03,1.53-.61,2.6-1.71,3.55-3.91,3.4-8.11,6.38-12.75,8.69-3.15,1.56-6.36,3.01-9.58,4.44-1.77.79-2.67.58-3.99-.79-2.87-2.96-5.72-5.93-8.58-8.91-.29-.3-.51-.67-.77-1,.05-.08.11-.15.16-.23Z"/>
  <path class="cls-1" d="m92.89,94.58c-.26,1.66-.37,3.37-.83,4.97-.5,1.77-.11,3.13.98,4.53,2.92,3.79,5.75,7.64,8.61,11.48.2.27.32.59.48.89-.09.08-.17.16-.26.24-.27-.18-.57-.34-.81-.55-4.28-3.78-8.55-7.57-12.82-11.37-1.27-1.13-1.32-1.99-.38-3.39,1.34-2,2.64-4.03,3.95-6.05.2-.3.4-.59.61-.89.15.05.31.1.46.14Z"/>
  <path class="cls-1" d="m119.94,61.83c-.31.13-.61.3-.93.39-3.1.87-6.2,1.7-9.3,2.58-2.06.58-3.67-.24-5.19-1.5-1.71-1.43-1.69-1.37.03-2.78,1.84-1.51,3.8-1.91,6.11-1.27,2.67.74,5.4,1.27,8.1,1.89.38.09.75.2,1.13.3.02.13.03.26.05.39Z"/>
  <path class="cls-1" d="m9.43,61.46c.73-.19,1.45-.39,2.18-.56,2.67-.61,5.35-1.18,8.01-1.84,1.56-.38,2.95-.07,4.23.77.88.58,1.68,1.28,2.53,1.93-3.1,3.23-4.51,3.72-7.97,2.71-2.66-.78-5.34-1.5-8.01-2.26-.35-.1-.67-.28-1-.43.01-.11.02-.22.03-.32Z"/>
  <path class="cls-1" d="m84.63,105.56c.39.09.9.05,1.16.29,2.4,2.15,4.76,4.34,7.1,6.55.15.14.1.51.14.77-.29-.03-.67.05-.87-.11-.67-.52-1.28-1.12-1.91-1.69-1.49-1.33-2.99-2.65-4.47-4-.48-.43-.89-.94-1.34-1.41.06-.13.12-.27.18-.4Z"/>
  <path class="cls-1" d="m25.02,21.86c-.41.29-.71.62-.81.56-.31-.17-.57-.46-.77-.75-.03-.05.39-.56.49-.52.33.12.61.38,1.09.72Z"/>
</svg>