<?xml version="1.0" encoding="UTF-8"?>
<svg id="comp-mbhloh6z-top" xmlns="http://www.w3.org/2000/svg" viewBox="0 0 1920 650">
  <defs>
    <style>
      .cls-1, .cls-2, .cls-3 {
        stroke-width: 0px;
      }

      .cls-2 {
        isolation: isolate;
        opacity: .5;
      }

      .cls-3 {
        fill: #000;
      }
    </style>
  </defs>
  <path class="cls-2" d="m0,457.78v192.22l960-92.26,960,92.26v-192.22H0Z"/>
  <path class="cls-2" d="m0,457.78h1920v99.95H0v-99.95Z"/>
  <path class="cls-2" d="m0,457.78v7.69l960,92.26,960-92.26v-7.69H0Z"/>
  <path class="cls-3" d="m1920,650v-7.69l-960-92.26L0,642.31v7.69h1920Z"/>
  <path class="cls-2" d="m1920,192.22V0l-960,92.26L0,0v192.22h1920Z"/>
  <path class="cls-2" d="m1920,192.22H0v-99.95h1920v99.95Z"/>
  <path class="cls-2" d="m0,0v7.69l960,92.26L1920,7.69V0H0Z"/>
  <path class="cls-3" d="m0,0v7.69l960,92.26L1920,7.69V0H0Z"/>
  <polygon class="cls-1" points="0 192.22 960 99.95 1920 192.22 1920 457.78 960 550.05 0 457.78 0 192.22"/>
</svg>