<?xml version="1.0" encoding="utf-8"?>
<!-- Generator: Adobe Illustrator 28.0.0, SVG Export Plug-In . SVG Version: 6.00 Build 0)  -->
<svg version="1.1" id="comp-mbhloh6z-top" xmlns="http://www.w3.org/2000/svg" xmlns:xlink="http://www.w3.org/1999/xlink" x="0px"
	 y="0px" viewBox="0 0 10401.8 512" style="enable-background:new 0 0 10401.8 512;" xml:space="preserve">
<style type="text/css">
	.st0{fill:#161718;}
</style>
<g>
	<path class="st0" d="M0,512h10401.8V193.4l-5.4,1.1c-3.2,1.1-6.5-3.3-9.8-2.2l-1.6-1.6c3.8-2.2,7-4.9,10.8-7v-8.1
		c-5.4-1.1-9.8-1.6-14.6-2.7v-7.6c1.6,0.5,2.2,1.1,3.3,1.1l11.4,3.3v-11.4c-0.5-1.6-1.6-3.3-2.2-4.3v0.5l-0.5-0.5
		c-3.3-1.1-7-2.2-10.3-3.3c-2.7,5.4-5.4,11.4-8.1,17.9c-6.5-9.2-6.5-9.2,7-27.6c4.3,4.9,7.6,9.2,11.4,13h0.5c0-2.7,0-5.4-0.5-8.1
		c-2.2-10.8-16.3-9.8-26-14.6c6-3.3,11.9-6.5,6-13c-2.7,1.1-4.9,2.2-7,3.3c-0.5-0.5-0.5-1.1-1.1-1.6c3.8-1.1,7.6-2.2,11.9-3.3
		c4.3,6.5-0.5,14.1,9.2,17.9c-2.2-8.1-3.8-15.7-7.6-23.3c-1.1-2.7-7.6-3.8-12.5-6c0-1.1,0.5-3.3,1.1-6.5c-7,2.2-13.5,3.8-20.6,6
		c1.6,1.6,3.2,2.7,3.8,3.3l-7.6,7.6c-2.2-1.1-6.5-3.8-10.8-6.5c-0.5-1.1-0.5-1.6-1.1-2.7c-6,4.3-11.4,8.7-16.8,13l1.6,1.6
		c-2.2-1.1-4.9-1.6-8.1-2.7c-0.5,3.8-1.6,7-2.2,10.8c-2.2-0.5-3.8-0.5-4.9-1.1c-7-8.1-13.5-4.3-18.4,1.6c-6,6.5-10.3,14.1-15.7,21.1
		c-3.3-1.6-7.6-3.8-13-7c-2.7,8.7-10.8,11.4-20,12.5c-7,0.5-8.7,3.8-6,8.7c0.5,1.6,0,3.3-0.5,5.4h-2.7c-0.5-2.2-1.1-4.3-1.6-8.1
		c-2.2,2.2-3.2,3.8-4.3,5.4c-3.8-1.6-7-2.7-11.9-4.9c2.2-1.1,3.8-2.2,6.5-3.8c-4.9-1.6-9.2-3.3-13.5-4.9
		c-11.4,4.9,2.2,11.9-3.2,18.4c-2.7-4.3-4.9-8.1-7-11.9c-0.5,0.5-1.1,1.6-1.1,2.2c-9.2-1.6-17.9-2.7-27.1-4.3
		c-0.5,0.5-0.5,1.1-1.1,2.2l5.4,5.4c0,0.5-0.5,1.6-0.5,2.2c-6.5-1.1-13-1.6-21.1-2.7c-7.6,3.8,0.5,6.5,5.4,10.3
		c-3.8,1.1-6,1.6-6.5,1.6c-4.9-4.3-9.2-7.6-14.6-12.5c-3.8,11.9-6,12.5-16.8,8.7c-1.6,1.6-3.2,3.3-4.9,5.4
		c-17.3-8.1-12.5,7.6-19.5,10.3c8.7,13,8.1,17.3-0.5,22.8c-1.6-3.8-2.7-7.6-4.9-10.8c-2.7-3.3-7-4.9-8.1-8.1c0-2.7,0-4.9-0.5-7.6
		c-1.1-4.9-3.2-9.8-4.9-14.6c-1.6-4.9-4.9-8.1-11.9-8.1c-3.3,0-6-2.2-8.7-2.7c-5.4,4.3-10.8,8.7-17.9,14.1
		c-9.2-12.5-14.1-24.4-14.6-36.3c-0.5-9.2-8.7-13.5-20-10.3c-0.5,0-2.2,0-2.7-0.5v30.9c-0.5-9.8-1.1-16.3-1.6-17.3
		c-6,6.5-16.8,8.7-15.7,18.4c0.5,6.5-3.3,13-5.4,19.5c-7-1.6-11.9-3.3-17.9-4.3c0.5,3.3,1.1,6,1.6,8.1h-2.2
		c-4.9-9.8-13.5-11.9-26.5-10.8c-2.7,0-5.4,0.5-8.7,0.5c6.5,1.1,8.1,4.9,5.4,11.9c-1.1-2.2-2.2-4.9-3.2-7.6
		c-4.3-0.5-9.8-1.1-14.6-2.2c0-1.1,0.5-1.6,0.5-2.7h4.9c-3.8-0.5-7.6-2.2-10.8-5.4c-1.6-1.6-7-0.5-8.7-0.5c-1.6,6-2.7,10.8-4.3,15.7
		c-1.1,0-2.7,0-3.8-0.5c0-2.7,0.5-4.9,0.5-8.7c-3.8-1.1-9.8-3.8-13-2.7c-11.4,4.3-4.9,13-5.4,19.5l-2.7,0.5c-1.1-4.3-2.7-8.1-4.3-13
		c-2.2,3.3-3.8,6.5-6,9.2c0.5,0,1.1-0.5,2.2-0.5c1.6,3.8,2.7,7.6,4.9,13c-5.4-1.6-7.6-2.2-9.8-2.7c-3.3,12.5-12.5,12.5-26,8.1
		c1.1,2.2,2.2,4.9,3.8,7.6c-0.5,0.5-1.6,1.1-2.2,1.6c-4.9-3.8-9.2-7.6-14.6-11.9c-2.2,2.2-4.3,5.4-6.5,8.1
		c-2.7-3.3-5.4-6.5-9.8-11.4v9.2c0,3.3-1.1,6-1.6,9.2h-2.2c-1.6-6.5-3.8-13-6-20c-6.5,5.4-11.4,9.8-17.3,14.6
		c-2.2-1.1-4.9-2.2-6.5-3.3c4.9-2.7,9.2-6,14.6-8.7c-7-6.5-14.6-4.3-21.7-3.8c-6-7-21.1-7.6-27.1-1.1c-3.3,1.6-7,3.3-9.8,4.9
		c-4.9-3.8-10.3-7-17.3-11.9c5.4,1.6,9.2,2.7,13.5,3.8c4.3,1.1,8.7,2.2,13.5,3.3c-2.7-1.6-4.9-4.3-8.1-5.4
		c-4.9-1.6-9.8-2.7-14.6-3.8c-8.1-2.2-15.7-2.2-19,6c-2.7-1.6-5.4-3.3-8.7-4.9c-2.7,4.9,1.1,12.5-9.2,12.5
		c-1.1-3.8-2.7-7.6-3.8-11.9c-3.3,1.6-5.4,2.7-6,2.7c-6.5-2.2-11.4-3.8-17.9-5.4c0,3.3,0.5,4.3,0.5,6.5
		c-19.5-1.6-34.7,5.4-52.6,11.4c-8.1-3.8-12.5,5.4-19,7.6c-19-4.3-20-17.9-26.5-28.7c-2.7-4.9-9.8-8.1-15.7-10.8
		c-3.3-1.6-8.7,0-12.5,1.1c-1.1,0.5,0.5,5.4,0.5,8.7c-0.5,0-2.2,0.5-2.7,0c-8.7-4.9-17.9-3.8-26.5-0.5l-98.1,19.5
		c0.5-1.6,1.6-2.7,2.2-4.9c-7.6,0.5-14.1,1.1-19.5,1.6l8.1,5.4l-26.5,5.4c-1.6-0.5-2.7-0.5-4.3-1.6v1.6c-6.5-1.1-11.9-2.2-17.3-2.7
		v-2.2c2.7-0.5,4.9-1.6,7.6-2.2c-2.7-1.6-5.4-3.3-8.7-4.3c-0.5,0-1.6,0-2.2-0.5c-6.5-0.5-16.8,3.3-22.2-1.1
		c-9.2-6.5-7-14.1-8.1-24.4c-1.1-8.7,2.7-19.5-4.9-26.5c-5.4-4.3-56.9,1.6-56.9,2.2v1.6c2.2,1.1,5.4,2.2,6.5,3.8c1.1,1.6,0,4.3,0,6
		c-2.7,0-6,0.5-7.6-0.5c-4.3-2.7-7.6-6.5-11.9-9.2c-0.5-0.5-2.7,0.5-3.2,0.5c3.2,4.3,6,8.1,9.2,11.9l-1.1,1.1l-10.8-5.4
		c-7,4.3-13,8.7-20,13c-0.5-2.2-0.5-3.8-1.1-6c-3.8,0.5-7.6,0.5-11.9,1.1c0-0.5-0.5-1.6-0.5-2.2c6.5-1.6,13.5-2.7,20-4.3
		c0.5,0.5,0.5,1.1,1.1,1.6c1.1-2.2,1.6-4.3,3.2-7c-15.2,2.7-29.3,6-43.3,7.6c-8.1,1.1-16.8,0-24.9-1.1c-4.3-1.1-8.1-4.9-10.8-8.7
		c3.3,0.5,6,1.6,9.2,2.2c0.5-0.5,1.1-1.6,1.6-2.2c-6.5-3.8-13-7-19-10.8c1.1-0.5,2.2-1.6,3.2-2.2c2.2-2.7,4.3-4.9,7.6-8.7
		c-5.4-0.5-9.2-1.1-12.5-1.6c1.6-2.7,6-7.6,4.3-8.7c-3.3-3.3-9.2-4.3-14.6-7l5.4-5.4c-20.6,1.6-40.1,0-57.4,9.8
		c-11.4-8.7-22.2,1.6-36.8,0c6.5,4.3,11.4,7.6,15.7,10.3c-19-3.3-20.6-4.9-19.5-11.4c-9.2,1.6-17.9,3.3-27.1,5.4
		c-4.3-5.4-8.7-11.4-13.5-16.8c-1.1,2.7-1.6,4.3-2.7,6c-0.5,0-1.1-0.5-2.2-0.5c1.1-3.8,2.2-7.6,3.8-11.9c-6.5-2.2-13-3.3-19.5-3.3
		c-1.1,3.3-2.2,5.4-2.7,7c-8.7,0.5-16.3,1.1-24.9,1.6c1.1-2.7,2.2-4.9,3.8-6c-4.9,1.1-9.2,2.7-14.1,3.8c5.4,3.3,10.8,6,16.3,9.2
		c0,0.5,0,1.6,0.5,2.2c-7-0.5-14.1-0.5-21.7-1.1c3.2,2.7,6.5,6,9.8,8.7c-13.5-3.3-20-7.6-20-14.1c-4.3,1.1-8.7,2.7-13,3.8
		c-0.5-2.2-1.1-3.3-2.2-5.4l-11.4,3.3c1.1,2.7,2.2,5.4,2.7,8.1c0.5,2.2-1.6,4.9-3.2,7c0,0.5-3.8,0-4.3-0.5c-0.5-2.2-0.5-4.9,0-7
		c0-1.6,1.6-2.7,2.2-3.8c-2.2-0.5-4.3-1.1-6-1.6c-10.8,2.2-21.1,4.9-28.2,13.5c-2.2,2.2-7,3.3-10.8,4.3c-0.5-0.5-1.1-1.6-2.2-2.2
		c2.7-2.2,6-3.8,8.7-6c-11.9-3.3-38.5,2.7-41.2,7c-13,1.6-24.9,2.2-36.8,4.3c-18.4,3.3-36.3,6.5-54.7,0.5c-1.6-0.5-4.3,0-6,0.5
		c-19.5,6.5-39,12.5-58,19.5c-11.4,4.3-22.2,9.2-33,14.1c-1.6,0.5-4.3,2.2-6,1.6c-19-4.9-34.1,1.6-48.8,9.8
		c-5.4,2.7-10.3,3.8-16.8,4.3c-9.2,0.5-18.4,2.2-27.1,4.9c-6,1.6-10.3,6-17.3,9.8c-21.7-6-40.1,8.1-63.4,9.8c3.2,6,6,11.4,8.7,16.3
		c-9.2,7,6.5,9.8,4.3,16.3l-4.9-3.3c-4.3-2.7-7.6-3.8-13-0.5c-6.5,4.3-14.6,4.9-23.8,4.3c-14.6-1.1-29.8-0.5-45-1.1
		c-3.8,0-7-2.2-10.3-3.3c0-1.1,0.5-2.7,0.5-3.8c-15.7,1.1-31.4,2.2-46.6,3.3c-1.6,0-3.2,0-4.3-0.5c-14.1-9.2-29.3-8.7-45.5-4.3h-2.7
		c-13-7.6-29.3-6.5-43.9-8.1c-13.5-1.6-26.5-4.9-37.9-11.4c-2.7-1.6-6.5-2.7-9.8-2.2c-20,0.5-39.5,1.6-59.1,2.7
		c-13.5,1.1-27.1,2.7-40.1,4.3c-2.2,0-4.9,0.5-6,0c-16.3-9.8-33.6-7-51.5-3.3c-5.4,1.1-9.8,0.5-15.7-0.5c-9.8-2.7-20-4.3-29.8-3.3
		c-0.5,0-0.5-0.5-1.1-0.5l0.5,0.5l-8.1,1.6c-2.2-2.2-3.8-4.9-5.4-7.6c-4.3,0.5-8.7-1.1-11.9-3.8c-2.7-0.5-6-2.2-8.1-3.8
		c-3.2-2.2-6-5.4-8.7-8.1l-9.8-4.9c1.1-0.5,1.6-1.1,2.7-1.1c-8.1-4.3-24.4-4.3-33-2.2c0,0-0.5,0-0.5-0.5h-1.6c0.5,0,1.1,0,1.6-0.5
		c-5.4-3.3-10.3-7.6-17.9-7.6c-1.6,6-2.7,10.8-4.3,15.7c-1.1,0-2.7,0-3.8-0.5c0-2.7,0.5-4.9,0.5-8.7c-3.8-1.1-9.8-3.8-13-2.7
		c-11.4,4.3-4.9,13-5.4,19.5l-2.7,0.5c-1.1-4.3-2.7-8.1-4.3-13c-2.2,3.3-3.8,6.5-6,9.2c0.5,0,1.1-0.5,2.2-0.5
		c1.6,3.8,2.7,7.6,4.9,13c-5.4-1.6-7.6-2.2-9.8-2.7c-3.2,12.5-12.5,12.5-26,8.1c1.1,2.2,2.2,4.9,3.8,7.6c-0.5,0.5-1.6,1.1-2.2,1.6
		c-4.9-3.8-9.2-7.6-14.6-11.9c-2.2,2.2-4.3,5.4-6.5,8.1c-2.7-3.3-5.4-6.5-9.8-11.4v9.2c0,3.3-1.1,6-1.6,9.2h-2.2
		c-1.6-6.5-3.8-13-6-20c-6.5,5.4-11.4,9.8-17.3,14.6c-2.2-1.1-4.9-2.2-6.5-3.3c4.9-2.7,9.2-6,14.6-8.7c-7-6.5-14.6-4.3-21.7-3.8
		c-6-7-21.1-7.6-27.1-1.1c-3.3,1.6-7,3.3-9.8,4.9c-4.9-3.8-10.3-7-17.3-11.9c5.4,1.6,9.2,2.7,13.5,3.8c4.3,1.1,8.7,2.2,13.5,3.3
		c-2.7-1.6-4.9-4.3-8.1-5.4c-4.9-1.6-9.8-2.7-14.6-3.8c-8.1-2.2-15.7-2.2-19,6c-2.7-1.6-5.4-3.3-8.7-4.9c-0.5,1.1-1.1,2.7-1.1,4.3
		c-5.4,1.1-10.3,2.2-15.7,3.3c-4.3,1.1-7.6,3.3-11.4,4.9l-3.8-3.8c-1.1,2.7-2.2,4.9-2.7,6c3.3,2.2,6.5,3.8,11.4,6.5
		c-7,1.1-10.8,1.6-14.1,2.2c-9.2-11.4-18.4-23.3-28.7-35.8c-1.1,2.7-1.6,4.3-2.7,6c-0.5,0-1.1-0.5-2.2-0.5c1.1-3.8,2.2-7.6,3.8-11.9
		c-6.5-2.2-13-3.3-19.5-3.3c0.5-1.6,1.6-3.8,2.7-6c-10.3,2.2-20,2.7-26,8.7c-4.9,1.1-9.2,2.7-14.1,3.8c-0.5-0.5-1.1-0.5-1.6-1.1
		l-2.2,2.2c-2.7,0.5-4.9,1.1-7.6,2.2c-0.5-3.8-1.1-6-1.6-8.7c-2.2,3.8-2.7,7-2.7,9.8c-4.3,1.1-8.7,2.7-13,3.8
		c-0.5-2.2-1.1-3.3-2.2-5.4l-11.4,3.3c-1.1-2.7-2.2-6-3.3-8.7c-8.1,1.6-14.1,2.7-20.6,3.8c0,1.1-0.5,1.6-0.5,2.7
		c4.9,1.1,10.3,2.7,15.7,4.3c-10.8,2.2-21.1,4.9-28.2,13.5c-2.2,2.2-7,3.3-10.8,4.3c-0.5-0.5-1.1-1.6-2.2-2.2c2.7-2.2,6-3.8,8.7-6
		c-11.9-3.3-38.5,2.7-41.2,7c-13,1.6-24.9,2.2-36.8,4.3c-18.4,3.3-36.3,6.5-54.7,0.5c-1.6-0.5-4.3,0-6,0.5
		c-19.5,6.5-39,12.5-58,19.5c-11.4,4.3-22.2,9.2-33,14.1c-1.6,0.5-4.3,2.2-6,1.6c-19-4.9-34.1,1.6-48.8,9.8
		c-5.4,2.7-10.3,3.8-16.8,4.3c-9.2,0.5-18.4,2.2-27.1,4.9c-6,1.6-10.3,6-17.3,9.8c-21.7-6-40.1,8.1-63.4,9.8c3.3,6,6,11.4,8.7,16.3
		c-9.2,7,6.5,9.8,4.3,16.3l-4.9-3.3c-4.3-2.7-7.6-3.8-13-0.5c-6.5,4.3-14.6,4.9-23.8,4.3c-14.6-1.1-29.8-0.5-45-1.1
		c-3.8,0-7-2.2-10.3-3.3c0-1.1,0.5-2.7,0.5-3.8c-15.7,1.1-31.4,2.2-46.6,3.3c-1.6,0-3.3,0-4.3-0.5c-14.1-9.2-29.3-8.7-45.5-4.3h-2.7
		c-13-7.6-29.3-6.5-43.9-8.1c-13.5-1.6-26.5-4.9-37.9-11.4c-2.7-1.6-6.5-2.7-9.8-2.2c-20,0.5-39.5,1.6-59.1,2.7
		c-13.5,1.1-27.1,2.7-40.1,4.3c-2.2,0-4.9,0.5-6,0c-16.3-9.8-33.6-7-51.5-3.3c-5.4,1.1-9.8,0.5-15.7-0.5c-9.8-2.7-20-4.3-29.8-3.3
		c-0.5,0-0.5-0.5-1.1-0.5l-7.6-3.8c0-1.1-0.5-2.2-0.5-3.3c-1.1,0.5-2.2,1.1-3.3,1.1l-2.2-1.1c-0.5-1.1-1.1-2.7-1.6-3.8l-3.3,1.6
		l-15.2-7.6c-1.6-1.6-2.7-3.3-4.3-4.3c-3.8-3.3-8.1-7-11.9-6c-8.7-4.3-25.5-4.3-34.1-2.2c-5.4-3.3-10.3-7.6-17.9-7.6
		c-1.6,6-2.7,10.8-4.3,15.7c-1.1,0-2.7,0-3.8-0.5c0-2.7,0.5-4.9,0.5-8.7c-3.8-1.1-9.8-3.8-13-2.7c-11.4,4.3-4.9,13-5.4,19.5
		l-2.7,0.5c-1.1-4.3-2.7-8.1-4.3-13c-2.2,3.3-3.8,6.5-6,9.2c0.5,0,1.1-0.5,2.2-0.5c1.6,3.8,2.7,7.6,4.9,13c-5.4-1.6-7.6-2.2-9.8-2.7
		c-3.3,12.5-12.5,12.5-26,8.1c1.1,2.2,2.2,4.9,3.8,7.6c-0.5,0.5-1.6,1.1-2.2,1.6c-4.9-3.8-9.2-7.6-14.6-11.9
		c-2.2,2.2-4.3,5.4-6.5,8.1c-2.7-3.3-5.4-6.5-9.8-11.4v9.2c0,3.3-1.1,6-1.6,9.2h-2.2c-1.6-6.5-3.8-13-6-20
		c-6.5,5.4-11.4,9.8-17.3,14.6c-2.2-1.1-4.9-2.2-6.5-3.3c4.9-2.7,9.2-6,14.6-8.7c-7-6.5-14.6-4.3-21.7-3.8c-6-7-21.1-7.6-27.1-1.1
		c-3.3,1.6-7,3.3-9.8,4.9c-4.9-3.8-10.3-7-17.3-11.9c5.4,1.6,9.2,2.7,13.5,3.8c4.3,1.1,8.7,2.2,13.5,3.3c-2.7-1.6-4.9-4.3-8.1-5.4
		c-4.9-1.6-9.8-2.7-14.6-3.8c-8.1-2.2-15.7-2.2-19,6c-2.7-1.6-5.4-3.3-8.7-4.9c-2.7,4.9,1.1,12.5-9.2,12.5
		c-1.1-3.8-2.7-7.6-3.8-11.9c-3.3,1.6-5.4,2.7-6,2.7c-6.5-2.2-11.4-3.8-17.9-5.4c0,3.3,0.5,4.3,0.5,6.5
		c-19.5-1.6-34.7,5.4-52.6,11.4c-8.1-3.8-12.5,5.4-19,7.6c-19-4.3-20-17.9-26.5-28.7c-2.7-4.9-9.8-8.1-15.7-10.8
		c-3.3-1.6-8.7,0-12.5,1.1c-1.1,0.5,0.5,5.4,0.5,8.7c-0.5,0-2.2,0.5-2.7,0c-8.7-4.9-17.9-3.8-26.5-0.5c-9.2,3.3-17.3,8.1-26,11.9
		c-12.5,4.9-41.7,22.2-55.3,19.5c-3.8-1.1-7-3.3-9.8-5.4c0,0.5,0,1.1-0.5,1.6c-1.1-1.1-1.6-2.2-2.2-3.3c-2.2-1.1-3.8-2.2-6.5-2.7
		c-7-1.1-23.8-3.8-34.1-1.6v4.9c-6.5-1.1-11.9-2.2-17.3-2.7v-2.2c2.7-1.1,5.4-1.6,8.7-2.7c-4.3-4.9-13,0.5-20,1.6
		c-0.5-6.5-1.6-17.9-6-25.5c-2.7-0.5-4.9-1.1-7.6-1.6c0-0.5,0-1.6,0.5-2.2c1.1,0,2.2-0.5,3.3-0.5c-2.2-1.6-4.9-2.7-8.1-2.2
		c1.1-0.5-1.1-16.8-1.6-18.4c-4.9-1.1-9.2-3.3-14.1-6c-16.8,1.1-34.7,2.7-52.6,4.3v1.6c2.2,1.1,5.4,2.2,6.5,3.8c1.1,1.6,0,4.3,0,6
		c-2.7,0-6,0.5-7.6-0.5c-4.3-2.7-7.6-6.5-11.9-9.2c-0.5-0.5-2.7,0.5-3.3,0.5c3.3,4.3,6,8.1,9.2,11.9l-1.1,1.1l-10.8-5.4
		c-7,4.3-13,8.7-20,13c-0.5-2.2-0.5-3.8-1.1-6c-3.8,0.5-7.6,0.5-11.9,1.1c0-0.5-0.5-1.6-0.5-2.2c6.5-1.6,13.5-2.7,20-4.3
		c0.5,0.5,0.5,1.1,1.1,1.6c1.1-2.2,1.6-4.3,3.3-7c-15.2,2.7-29.3,6-43.3,7.6c-8.1,1.1-16.8,0-24.9-1.1c-4.3-1.1-8.1-4.9-10.8-8.7
		c3.3,0.5,6,1.6,9.2,2.2c0.5-0.5,1.1-1.6,1.6-2.2c-6.5-3.8-13-7-19-10.8c1.1-0.5,2.2-1.6,3.2-2.2c2.2-2.7,4.3-4.9,7.6-8.7
		c-5.4-0.5-9.2-1.1-12.5-1.6c1.6-2.7,6-7.6,4.3-8.7c-3.3-3.3-9.2-4.3-14.6-7l5.4-5.4c-20.6,1.6-40.1,0-57.4,9.8
		c-11.4-8.7-22.2,1.6-36.8,0c6.5,4.3,11.4,7.6,15.7,10.3c-19-3.3-20.6-4.9-20-11.4c-14.6,2.7-29.8,5.4-45,8.7
		c-2.2,0.5-3.8,1.1-5.4,2.2c6-0.5,11.9-0.5,18.4-1.1c1.1,0,2.2-1.6,3.3-2.2c7-4.9,20-2.2,24.4,6.5c-4.3-1.6-8.1-2.2-11.4-3.8
		c-5.4-2.2-8.7-2.7-12.5,2.2c-4.3,6-7,7-13.5,5.4c1.6-1.6,2.7-3.3,3.8-4.9c-6.5,4.9-10.3,0.5-14.1-1.6c-1.6,0.5-2.7,1.6-4.3,2.2
		l-3.8-3.8c-1.1,2.7-2.2,4.9-2.7,6c3.3,2.2,6.5,3.8,11.4,6.5c-7,1.1-10.8,1.6-14.1,2.2c-9.2-11.4-18.4-23.3-28.7-35.8
		c-1.1,2.7-1.6,4.3-2.7,6c-0.5,0-1.1-0.5-2.2-0.5c1.1-3.8,2.2-7.6,3.8-11.9c-14.1-4.3-28.7-4.3-43.3-0.5
		c-14.1,3.8-28.2,7.6-42.3,11.9c-0.5-2.2-1.1-3.3-2.2-5.4c-16.3,6-36.8,4.9-48.2,18.4c-2.2,2.2-7,3.3-10.8,4.3
		c-0.5-0.5-1.1-1.6-2.2-2.2c2.7-2.2,6-3.8,8.7-6c-11.9-3.3-38.5,2.7-41.2,7c-13,1.6-24.9,2.2-36.8,4.3c-18.4,3.3-36.3,6.5-54.7,0.5
		c-1.6-0.5-4.3,0-6,0.5c-19.5,6.5-39,12.5-58,19.5c-11.4,4.3-22.2,9.2-33,14.1c-1.6,0.5-4.3,2.2-6,1.6c-19-4.9-34.1,1.6-48.8,9.8
		c-5.4,2.7-10.3,3.8-16.8,4.3c-9.2,0.5-18.4,2.2-27.1,4.9c-6,1.6-10.3,6-17.3,9.8c-21.7-6-40.1,8.1-63.4,9.8c3.3,6,6,11.4,8.7,16.3
		c-9.2,7,6.5,9.8,4.3,16.3l-4.9-3.3c-4.3-2.7-7.6-3.8-13-0.5c-6.5,4.3-14.6,4.9-23.8,4.3c-14.6-1.1-29.8-0.5-45-1.1
		c-3.8,0-7-2.2-10.3-3.3c0-1.1,0.5-2.7,0.5-3.8c-15.7,1.1-31.4,2.2-46.6,3.3c-1.6,0-3.3,0-4.3-0.5c-14.1-9.2-29.3-8.7-45.5-4.3h-2.7
		c-13-7.6-29.3-6.5-43.9-8.1c-13.5-1.6-26.5-4.9-37.9-11.4c-2.7-1.6-6.5-2.7-9.8-2.2c-20,0.5-39.5,1.6-59.1,2.7
		c-13.5,1.1-27.1,2.7-40.1,4.3c-2.2,0-4.9,0.5-6,0c-16.3-9.8-33.6-7-51.5-3.3c-5.4,1.1-9.8,0.5-15.7-0.5c-15.7-4.3-32-6-47.7,2.7
		c-18.4-12.5-42.3-3.8-63.9-8.7v17.3c-11.4,4.9,1.6,11.4-2.7,16.8c-1.1-1.6-2.2-2.7-3.3-4.3c-2.7-3.8-5.4-6-12.5-4.3
		c-6,1.1-13.5,2.2-19,0.5c-11.9-3.3-20,0-30.9,7.6c2.2,3.8,4.9,9.2,7.6,14.1c0.5,0.5,0.5,1.6,0.5,2.2c-6,7.6,0,14.6,1.1,21.7
		c1.6,9.2,0.5,9.8-10.8,9.8c-1.6,0-3.8,0.5-6.5,1.1c3.8,4.9,7,9.2,10.8,14.6c-5.4-2.2-9.2-3.8-14.6-5.4c0-0.5,0.5-2.2,0.5-4.3
		c0-3.8-1.6-6-7.6-6c-10.3,0.5-20.6,1.1-30.9,0.5c-6,0-11.9-1.6-19-3.3c3.8,9.2,10.3,12.5,19,10.3c1.1,4.9,2.2,9.2,2.7,13.5
		c-0.5,0.5-1.6,1.1-2.2,1.6c-6-4.9-12.5-9.2-19.5-14.6c-2.2,2.7-4.9,4.9-6,6c-11.4,0.5-21.1,1.1-31.4,1.6c2.7-3.8,5.4-8.1,8.1-11.4
		c6,2.2,9.8,3.8,13.5,5.4c0-3.8,0.5-6.5,0.5-9.8h-59.1c0.5,1.6,0.5,3.8,0.5,3.8h37.4c0.5,0.5,1.1,1.6,1.1,2.2
		c-8.7,3.8-17.3,7.6-27.1,12.5c-1.1-4.9-2.2-8.7-2.7-11.9c-7,13-25.5,1.1-34.1,10.8c-4.3-5.4-7.6-9.8-11.4-14.1
		c2.7-1.1,4.9-1.6,7.6-2.7l-0.5-2.2c-7,1.1-14.6,1.6-21.7,2.7v2.7c3.8,0,8.1,0.5,11.9,0.5c-6.5,6-11.9,6-26-0.5
		c2.2-1.1,4.3-2.7,7-4.3c-3.8,0-6.5-1.1-9.8-0.5c-2.2,0.5-5.4,2.2-4.9,3.3c1.6,6,3.8,11.9,6,18.4c-6.5,0-15.2-1.1-22.8,0
		c-13,2.2-24.4-1.1-36.3-2.7c-12.5-2.2-25.5-1.6-37.4-3.8c-8.7-1.6-16.3-5.4-24.9-8.1c-3.3-1.1-6.5-2.2-9.8-2.2
		c-21.7,1.1-43.3,2.7-65,4.3c-11.4,1.1-22.8,3.3-34.1,4.9c-2.2,0.5-4.9,1.1-6,0.5c-16.8-9.2-33.6-6-51.5-2.7
		c-4.9,1.1-10.3,0.5-15.2,0c-16.3-2.7-32.5-5.4-47.7,4.3c-17.9-12.5-40.6-3.3-63.9-7.6c8.7-3.8,14.6-6.5,21.1-8.7
		c7-2.7,10.8-11.4,6-15.7c-6.5-6-14.1-11.9-20.6-17.9c-3.8-3.3-10.3-6-2.7-11.4l-6.5-3.3c2.7-2.2,4.3-4.3,7-5.4
		c4.3-2.7,9.2-4.9,14.1-7c9.8-4.3,10.8-9.8,4.9-16.8c-11.9-13-11.9-13-30.3-17.9c2.7-2.7,5.4-5.4,7-7.6c-4.3-2.2-9.2-3.8-9.2-4.9
		c1.1-7.6-7-11.4-13-13c-8.7-2.2-9.2-6-9.8-10.8c0-1.1-1.1-2.2-1.6-3.8c-1.6,0.5-3.3,1.1-6.5,1.6c6.5-15.2-11.9-12.5-16.8-16.3
		c-16.8,7-32.5,14.1-48.8,21.1c5.4,2.2,9.8,3.3,12.5,5.4c1.1,0.5-2.2,4.3-3.3,7c-8.1-3.3-15.2-7.6-23.8-5.4
		c5.4,3.3,10.3,5.4,15.2,8.1c0,0.5,0,1.1-0.5,1.6c-4.9-0.5-9.8-1.1-13-1.6c-3.8,6-7.6,11.4-9.8,14.6c-5.4,0-8.1-0.5-10.3,0
		c-2.7,0.5-4.9,1.6-7.6,2.2v-3.8c-9.8,3.8-19.5,7-29.8,10.8c-9.2,3.3-18.4,4.3-26.5-2.2c3.3-0.5,6.5-1.1,9.8-1.1v-2.2l-21.1-6.5
		c0.5-3.8,1.1-6.5,1.6-10.8c-4.9,0.5-8.1,1.1-9.8,1.6c-1.6-3.3-1.6-8.1-4.9-9.8c-2.7-1.6-8.7-0.5-14.1-0.5c0-0.5,0.5-3.3,1.6-7.6
		c-17.3,8.1-36.8,11.9-47.7,26.5c-15.2-4.9-20,8.1-33.6,10.8c8.1,2.2,13.5,3.3,19.5,4.9c-0.5,1.1-1.1,1.6-1.1,2.7
		c-7-3.8-19,3.3-22.8-7c-16.8,9.8-33,19.5-51.5,30.3l14.1,7c-4.9,1.6-7.6,3.3-11.4,4.3c-14.1-7.6-28.7-15.7-43.9-24.4
		c0,2.2-0.5,3.8-0.5,5.4h-1.6c-1.1-3.8-1.6-7.6-2.7-11.4c-33.6,0.5-50.4,21.1-73.1,35.8l-4.3-4.3c-7,4.3-14.6,8.1-20.6,13
		c-5.4,4.9-9.2,10.8-14.1,16.8c-2.7,3.3-5.4,6-8.1,8.7c-1.1-0.5-2.2-1.1-2.7-1.6c1.6-2.7,3.3-5.4,5.4-8.7
		c-16.3,1.6-24.4,11.9-35.2,18.4c1.1,2.2,2.2,3.8,3.3,5.4c-10.3-2.2-17.9,1.6-25.5,6c-9.8,4.9-22.2,4.3-33-3.8
		c9.8,0.5,18.4,1.6,28.2,2.2c-4.9-6.5-8.1-11.4-11.9-16.8c2.2-1.6,3.8-2.7,5.4-3.8l6.5,13h3.8c3.8-5.4,7-10.3,10.8-15.7
		c2.2-1.1,5.4-1.6,6-3.3c2.7-6.5,6.5-13.5-0.5-20c-1.6-1.6-2.2-4.3-3.3-7c8.7,2.2,15.7,1.6,17.9-7c1.1,0.5,1.6,1.1,2.7,2.2
		c-4.3,5.4-9.2,10.8-13.5,16.3l3.3,1.6c5.4-6.5,11.9-12.5,16.3-19.5c1.6-2.7-1.1-7-1.6-10.8h-2.7c1.6-0.5,2.7-1.1,4.3-2.2
		c1.1-0.5,2.7-1.1,5.4-2.7c-7-2.7-13.5-4.9-20-7.6c-0.5,2.2-1.1,3.3-1.1,4.3c-3.8,0.5-7.6,0.5-13,1.1v-13c-7-0.5-15.2-0.5-23.3-1.1
		c-0.5,0.5-0.5,1.6-1.1,2.2c-0.5-2.2-1.6-3.8-2.2-6.5c-3.8,2.2-7.6,3.8-13,7c-1.1-4.3-1.6-8.1-2.7-12.5c-15.2-2.2-29.8-0.5-43.3,7
		c-1.1-4.9-1.6-9.2-2.7-14.1c-9.8,3.8-16.8,2.2-23.8-2.2c-5.4-3.3-10.3-4.3-13.5,2.2c-0.5,1.1-3.8,1.6-6.5,1.6
		c1.6-1.6,3.8-3.8,6.5-7c-4.3,0.5-6.5,1.1-8.7,1.6c-1.1-3.3-1.6-6.5-3.3-10.3c2.7,0.5,4.9,0.5,8.1,1.1c-1.6-3.8-3.3-7.6-6.5-14.1
		c-6.5,6-11.4,10.3-16.3,14.6c-0.5,0-1.1-0.5-1.1-0.5c2.2-3.8,4.3-7.6,6.5-11.9c-1.1,0.5-2.2,0.5-2.7,1.1l-14.6-17.9
		c-1.1,0-1.6,0.5-2.7,0.5c-0.5,2.2-1.1,4.3-2.2,9.8c-5.4-6-9.2-9.8-14.1-15.7c-8.1-1.1-6,3.8-4.9,8.7c-7.6-0.5-15.2-1.1-24.4-2.2
		c6-2.7,10.3-4.3,14.6-6.5c0.5,1.6,1.1,3.3,1.1,4.9h2.7v-13.5c-12.5,4.9-14.6,4.3-17.9-4.3c-2.7,0.5-6,0.5-9.2,1.1
		c-3.8-16.8-15.2-1.1-22.2-3.8c-7.6,14.6-11.4,16.8-20,15.7c2.2-7,4.3-14.1,6-19.5c5.4-6.5,10.3-12.5,16.3-17.3
		c9.2-8.1-2.2-14.1-3.3-21.7h-24.9c5.4-13.5,13.5-24.4,24.9-33.6c7-6,4.3-11.9-3.3-17.3c-8.1-6-17.9-7-27.6-9.8
		c-4.9-1.6-11.4-2.7-7.6-9.2c-2.7-0.5-4.3-0.5-7-1.1c0-0.5-0.5-1.6,0-2.2c4.3-5.4,8.1-11.4,13-16.8c6-6,3.8-10.8-2.7-14.1
		c-11.9-6-22.8-15.7-40.1-7c1.6-4.9,2.7-8.7,3.8-11.9c-0.5,0-1.6-0.5-2.2-0.5c-1.6,1.1-3.3,2.2-6,3.8c-4.3-6.5-10.3-10.8-20-10.8
		c-8.1,0-13.5-2.2-16.8-7.6c-0.5-1.1-4.9-1.1-7.6-1.1c-2.2-13.5-17.3-4.3-23.3-7c-11.9,11.4-23.3,22.2-35.2,34.1
		c6.5,0,10.8-0.5,14.6,0.5c1.1,0.5,0.5,4.9,1.1,7h-22.8c-0.5,0-1.1,2.7-1.1,2.7c6,1.1,11.4,1.6,16.8,2.7c0,0.5,0.5,1.1,0.5,1.6
		c-4.9,1.1-9.8,1.6-12.5,2.2c-0.5,7-1.1,13-1.6,20c-2.7-1.6-4.3-2.2-6.5-3.3c-2.2,2.2-4.3,4.9-7,7.6c-1.1-1.6-2.7-2.7-2.7-3.3
		c3.3-3.8,7.6-7.6,10.3-11.4c1.1-1.6-0.5-4.3-1.1-8.1c-9.2,11.4-16.8,21.7-25.5,31.4c-3.8,3.8-8.7,7.6-14.1,10.3
		c-7,3.8-11.4,3.8-20,1.1l9.8-3.3c0-0.5-0.5-1.6-0.5-2.2h-21.7c-2.2-3.8-3.3-6.5-4.9-9.2c-3.3,1.1-6.5,2.7-9.2,3.3
		c-1.6-2.7-2.7-7.6-4.9-7.6c-5.4-0.5-11.4,1.1-17.3,2.2c0-0.5-0.5-2.7-0.5-4.3c-6-1.1-29.3,26.5-31.4,37.4
		c-16.8,0-14.1,13.5-25.5,20c8.7-0.5,14.6-1.1,20.6-1.6c-11.9,7.6-18.4,8.1-23.8,3.3c-9.2,11.9-17.9,24.4-27.1,36.8
		c0.5,0.5,1.1,0.5,1.6,1.1c1.6-0.5,4.9-1.1,5.4-2.2c0.5-6,10.3-8.1,9.8-15.2c-0.5-4.9,15.2-8.7,21.7-4.9c-4.3,1.1-8.1,2.7-11.9,3.3
		c-5.4,1.1-8.1,3.3-5.4,7.6c0.5,1.1,1.1,3.3,1.1,4.3c-0.5,2.2-1.6,4.3-2.7,7c-1.6-1.6-3.3-3.3-4.9-5.4c-1.1,9.2-11.4,6.5-19,8.1
		c1.1,1.6,2.2,3.8,2.7,4.9c4.3-0.5,8.1-1.1,14.6-1.6c-4.3,4.9-6.5,7-8.7,9.2c-17.3-2.7-34.7-6-52-8.7c-0.5,1.1-0.5,2.2-1.1,4.9
		c-2.7-3.8-4.3-6-6.5-9.2c-30.9,10.3-36.3,34.7-49.3,55.3c-2.2-1.1-3.8-1.6-6-2.2c-4.3,6.5-9.8,13-13,19.5c-2.7,6-2.7,11.9-3.8,18.4
		c-0.5,3.8-1.6,7-2.7,10.8l-3.8-0.5c0.5-3.3,1.1-6.5,1.1-10.3c-14.1,6.5-17.3,18.4-23.8,28.2c6,1.1,11.4,2.7,17.9,3.8
		c-7.6,5.4-13.5,9.8-19.5,14.1c-0.5-0.5-1.1-0.5-1.6-1.1l12.5-12.5c-1.1-1.1-2.7-2.2-3.8-2.7c-5.4,3.8-11.9,6.5-16.8,10.8
		c-5.4,5.4-9.8,11.9-14.1,17.9c-7.6,9.8-16.8,18.4-30.3,23.8c-2.2,1.1-4.3,2.7-5.4,4.9c-6.5,14.1-14.1,18.4-35.8,19.5
		c-1.1-3.8-2.2-7.6-3.8-12.5c-3.8,2.2-6,3.3-8.7,4.9c8.7-9.8,3.8-17.3-3.8-25.5c-4.9-5.4-11.4-10.8-7.6-19c0.5-1.6-2.7-4.9-3.8-6
		c-8.1,2.2-14.1,3.8-20,6c-0.5-1.1-1.1-2.2-1.6-2.7c2.7-1.1,5.4-2.2,9.8-3.8c-1.1-2.7-0.5-8.1-3.3-9.8c-11.4-5.4-17.9,3.3-26,7.6
		l-1.6-1.6c4.3-3.3,8.1-6.5,12.5-10.3c-4.3,0.5-8.7,0.5-10.3,1.1c-4.9,4.3-8.1,7-13,11.4c-1.6-4.3-2.2-6-2.7-7.6
		c-4.3,1.1-7.6,1.6-11.4,2.7c-4.3-3.3-8.1-6-13-9.2c1.6-1.6,3.3-3.3,4.3-4.9c-0.5-0.5-1.1-1.1-2.2-1.6c-2.7,2.2-5.4,4.3-8.7,7
		c-4.9-6.5,0.5-10.8,5.4-16.3h-14.6c2.7-4.3,4.3-8.1,7-12.5c-7,3.3-13.5,6-20,8.7l-1.6-1.6c6-4.9,12.5-9.8,19-14.6
		c-9.8-1.1-16.8-2.2-24.4-3.3v-7c2.7,1.6,4.9,3.3,7.6,3.8c3.3,0.5,6.5,0,10.3,0c-0.5-2.2-0.5-4.9-1.1-7c-1.1-4.3-1.1-9.2-3.8-11.9
		c-4.3-4.9-3.8-12.5-14.6-14.1c-5.4-0.5-11.4-2.7-17.9-4.3c7-3.3,11.9-7,6.5-13.5c-2.2,1.1-4.9,2.2-7,3.3c-0.5-0.5-0.5-1.1-0.5-1.6
		c3.3-1.6,7-2.7,10.3-4.3c4.9,6,0.5,14.1,10.8,17.3c-2.7-7-4.3-14.6-8.1-21.1c-2.2-3.3-8.1-4.9-13-7l-1.6,1.6
		c0.5-2.7,0.5-5.4,1.1-8.7c-7,2.7-13.5,4.9-20,7.6c1.6,1.6,2.7,2.7,4.3,3.8c-2.7,1.1-4.9,2.2-7.6,3.8c1.6,1.1,3.3,2.2,4.3,2.7
		l-2.2,2.2c-4.3-2.7-8.7-4.9-13-7.6c-0.5-0.5-1.1-1.6-1.6-2.2c-5.4,4.9-10.8,9.8-17.3,15.2c0.5,0-2.2-0.5-5.4-2.2
		c-0.5,3.8-1.1,7-1.1,11.4c-2.7-0.5-5.4-1.1-7-2.2c-6-5.4-10.8-3.3-14.6,1.6c-6,7.6-10.8,15.7-16.3,23.8c-2.7-1.1-7-3.3-11.9-5.4
		c0,1.1,0.5,1.6,0.5,2.7c-6.5,3.3-13,7-20,9.2c-6.5,2.2-9.8,3.8-6,9.2c1.1,1.1,0,3.3,0,4.9h-2.7c-0.5-2.2-1.6-4.3-2.2-8.1
		c-1.6,2.2-2.7,3.8-4.3,5.4c-3.8-1.1-7.6-2.7-11.9-4.3c1.6-1.6,3.3-2.7,4.9-4.9c-4.9-1.6-9.8-2.7-17.3-4.9c1.6,7.6,2.7,13,3.8,19
		h-1.6c-2.7-3.8-4.9-7-7.6-10.8c-0.5,0.5-0.5,1.6-1.1,2.2c-9.2-1.1-18.4-1.6-27.6-2.7c0,0.5-0.5,1.1-0.5,1.6c2.2,1.6,3.8,3.3,6,5.4
		l-0.5,2.2c-6.5-0.5-13-1.1-21.7-1.6c-7.6,4.3,1.1,6.5,6.5,9.8c-2.7,1.1-5.4,2.2-6,2.2c-5.4-3.8-9.8-7-15.7-11.4
		c-2.2,11.9-5.4,13-15.7,9.2c-1.6,2.2-2.7,3.8-4.3,6c-7.6-2.7-13.5-3.8-14.6,4.9c0,2.2-2.7,4.3-4.3,6.5c9.2,11.4,9.8,15.7,2.7,21.1
		c-5.4-5.4-10.8-11.4-16.3-17.3c-0.5-2.2-1.1-4.9-2.2-7.6c-1.6-4.3-3.3-8.1-4.9-11.9c-2.2-5.4-5.4-9.8-14.1-8.7
		c-2.7,0-5.4-1.6-8.1-2.7c-5.4,4.9-10.3,9.8-16.8,15.2c-10.3-12.5-16.3-24.4-18.4-37.4c-1.1-7.6-9.8-9.2-19-8.7
		c-11.9,1.1-19,7-28.2,10.3c-3.3,1.1-8.1,0-11.9,0c-2.2,0-4.9,0.5-9.2,1.1c-2.2-5.4-5.4-11.9-7.6-17.9c-2.7-7.6-8.1-10.3-17.9-8.1
		c-13,3.3-28.2,4.3-31.4,18.4c-3.8-3.8-6.5-6.5-10.3-9.8c-2.2,10.8-9.2,6.5-15.7,5.4c-5.4,3.8-10.8,7.6-18.4,13
		c-2.7,0.5-10.3-5.4-14.6,2.7c-15.7-9.2-16.3,7-26.5,10.3c15.2,10.3,7.6,24.4,13.5,37.4c-3.8,0-7,0.5-9.8,0.5
		c0.5,0.5,1.1,0.5,1.1,1.1c-3.3,2.7-7,5.4-11.9,9.2c-1.1-4.3-1.1-6-1.6-7.6c-2.2,0.5-4.3,0.5-6,1.1c-2.2,0.5-3.8,0.5-5.4,1.1
		c-3.8-3.3-8.1-6.5-11.9-9.8c1.6-1.6,3.3-2.7,4.9-4.3c-0.5-0.5-1.1-1.1-2.2-1.6l-8.1,6.5c-1.1,0-1.6-0.5-2.7-0.5
		c2.2-4.9,3.8-9.8,6.5-15.7c-3.3-0.5-7.6-1.1-11.9-1.1c2.2-3.3,4.3-7,7-10.8c-7,2.2-13.5,4.9-20.6,7l-1.6-1.6
		c6.5-4.3,13-8.7,20.6-13.5c-9.8-1.6-16.8-3.3-24.4-4.3v-7c1.6,0.5,2.2,1.1,3.3,1.1c4.9,1.1,9.2,2.2,14.1,3.8
		c-0.5-3.3-1.1-7-1.6-10.3c-0.5-2.2-2.2-4.3-3.3-6.5c0-2.7,0-5.4-0.5-8.1c-2.2-10.8-16.3-9.8-26-14.6c6-3.3,11.9-6.5,6-13
		c-2.7,1.1-4.9,2.2-7,3.3c-0.5-0.5-0.5-1.1-1.1-1.6c3.8-1.1,7.6-2.2,11.9-3.3c4.3,6.5-0.5,14.1,9.2,17.9c-2.2-8.1-3.8-15.7-7.6-23.3
		c-1.1-2.7-7.6-3.8-12.5-6c0-1.1,0.5-3.3,1.1-6.5c-7,2.2-13.5,3.8-20.6,6c1.6,1.6,3.3,2.7,3.8,3.3l-7.6,7.6
		c-2.2-1.1-6.5-3.8-10.8-6.5c-0.5-1.1-0.5-1.6-1.1-2.7c-6,4.3-11.4,8.7-16.8,13l1.6,1.6c-2.2-1.1-4.9-1.6-8.1-2.7
		c-0.5,3.8-1.6,7-2.2,10.8c-2.2-0.5-3.8-0.5-4.9-1.1c-7-8.1-13.5-4.3-18.4,1.6c-6,6.5-10.3,14.1-15.7,21.1c-3.3-1.6-7.6-3.8-13-7
		c-2.7,8.7-10.8,11.4-20,12.5c-7,0.5-8.7,3.8-6,8.7c0.5,1.6,0,3.3-0.5,5.4h-2.7c-0.5-2.2-1.1-4.3-1.6-8.1c-2.2,2.2-3.3,3.8-4.3,5.4
		c-3.8-1.6-7-2.7-11.9-4.9c2.2-1.1,3.8-2.2,6.5-3.8c-4.9-1.6-9.2-3.3-13.5-4.9c-11.4,4.9,2.2,11.9-3.3,18.4c-2.7-4.3-4.9-8.1-7-11.9
		c-0.5,0.5-1.1,1.6-1.1,2.2c-9.2-1.6-17.9-2.7-27.1-4.3c-0.5,0.5-0.5,1.1-1.1,2.2l5.4,5.4c0,0.5-0.5,1.6-0.5,2.2
		c-6.5-1.1-13-1.6-21.1-2.7c-7.6,3.8,0.5,6.5,5.4,10.3c-3.8,1.1-6,1.6-6.5,1.6c-4.9-4.3-9.2-7.6-14.6-12.5
		c-3.8,11.9-6,12.5-16.8,8.7c-1.6,1.6-3.3,3.3-4.9,5.4c-17.3-8.1-12.5,7.6-19.5,10.3c8.7,13,8.1,17.3-0.5,22.8
		c-1.6-3.8-2.7-7.6-4.9-10.8c-2.7-3.3-7-4.9-8.1-8.1c0-2.7,0-4.9-0.5-7.6c-1.1-4.9-3.3-9.8-4.9-14.6s-4.9-8.1-11.9-8.1
		c-3.3,0-6-2.2-8.7-2.7c-5.4,4.3-10.8,8.7-17.9,14.1c-9.2-12.5-14.1-24.4-14.6-36.3c-0.5-9.2-8.7-13.5-20-10.3c-0.5,0-2.2,0-2.7-0.5
		V233c-0.5-9.8-1.1-16.3-1.6-17.3c-6,6.5-16.8,8.7-15.7,18.4c0.5,6.5-3.3,13-5.4,19.5c-7-1.6-11.9-3.3-17.9-4.3
		c0.5,3.3,1.1,6,1.6,8.1h-2.2c-4.9-9.8-13.5-11.9-26.5-10.8c-9.2,0.5-19,1.6-26.5-5.4c-1.6-1.6-7-0.5-8.7-0.5
		c-1.6,6-2.7,10.8-4.3,15.7c-1.1,0-2.7,0-3.8-0.5c0-2.7,0.5-4.9,0.5-8.7c-3.8-1.1-9.8-3.8-13-2.7c-11.4,4.3-4.9,13-5.4,19.5
		l-2.7,0.5c-1.1-4.3-2.7-8.1-4.3-13c-2.2,3.3-3.8,6.5-6,9.2c0.5,0,1.1-0.5,2.2-0.5c1.6,3.8,2.7,7.6,4.9,13c-5.4-1.6-7.6-2.2-9.8-2.7
		c-3.3,12.5-12.5,12.5-26,8.1c1.1,2.2,2.2,4.9,3.8,7.6c-0.5,0.5-1.6,1.1-2.2,1.6c-4.9-3.8-9.2-7.6-14.6-11.9
		c-2.2,2.2-4.3,5.4-6.5,8.1c-2.7-3.3-5.4-6.5-9.8-11.4v9.2c0,3.3-1.1,6-1.6,9.2h-2.2c-1.6-6.5-3.8-13-6-20
		c-6.5,5.4-11.4,9.8-17.3,14.6c-2.2-1.1-4.9-2.2-6.5-3.3c4.9-2.7,9.2-6,14.6-8.7c-7-6.5-14.6-4.3-21.7-3.8c-6-7-21.1-7.6-27.1-1.1
		c-2.7-1.6-4.9-4.3-8.1-5.4c-4.9-1.6-9.8-2.7-14.6-3.8c-8.1-2.2-15.7-2.2-19,6c-2.7-1.6-5.4-3.3-8.7-4.9c-2.7,4.9,1.1,12.5-9.2,12.5
		c-1.1-3.8-2.7-7.6-3.8-11.9c-3.3,1.6-5.4,2.7-6,2.7c-6.5-2.2-11.4-3.8-17.9-5.4c0,3.3,0.5,4.3,0.5,6.5
		c-19.5-1.6-34.7,5.4-52.6,11.4c-8.1-3.8-12.5,5.4-19,7.6c-19-4.3-20-17.9-26.5-28.7c-2.7-4.9-9.8-8.1-15.7-10.8
		c-3.3-1.6-8.7,0-12.5,1.1c-1.1,0.5,0.5,5.4,0.5,8.7c-0.5,0-2.2,0.5-2.7,0c-8.7-4.9-17.9-3.8-26.5-0.5c-9.2,3.3-17.3,8.1-26,11.9
		c-16.8,6.5-46,24.9-64.5,14.1c-1.1-0.5-2.7-1.6-3.8-2.7v1.1c-2.7-3.8-4.3-6-4.9-6.5v-0.5c-1.6-2.2-3.3-4.9-4.9-7
		c-4.9,0.5-9.2,0.5-13,1.1c0-0.5-0.5-1.6-0.5-2.2l11.4-1.6c-2.2-2.2-4.3-4.3-7.6-5.4c-4.9-1.6-12.5,3.8-18.4,2.2
		c-6.5-1.6-10.3-10.8-16.3-14.1c-8.1-4.3-22.2-0.5-28.2-4.3c-4.9-3.3-5.4-11.9-9.2-14.1c-7.6-5.4-3.8-6-15.2-9.2
		c-13-3.3-34.7,2.7-48.2,3.8v1.6c2.2,1.1,5.4,2.2,6.5,3.8s0,4.3,0,6c-2.7,0-6,0.5-7.6-0.5c-4.3-2.7-7.6-6.5-11.9-9.2
		c-0.5-0.5-2.7,0.5-3.3,0.5c3.3,4.3,6,8.1,9.2,11.9l-1.1,1.1l-10.8-5.4c-7,4.3-13,8.7-20,13c-0.5-2.2-0.5-3.8-1.1-6
		c-3.8,0.5-7.6,0.5-11.9,1.1c0-0.5-0.5-1.6-0.5-2.2c6.5-1.6,13.5-2.7,20-4.3c0.5,0.5,0.5,1.1,1.1,1.6c1.1-2.2,1.6-4.3,3.3-7
		c-15.2,2.7-29.3,6-43.3,7.6c-8.1,1.1-16.8,0-24.9-1.1c-4.3-1.1-8.1-4.9-10.8-8.7c3.3,0.5,6,1.6,9.2,2.2c0.5-0.5,1.1-1.6,1.6-2.2
		c-6.5-3.8-13-7-19-10.8c1.1-0.5,2.2-1.6,3.3-2.2c2.2-2.7,4.3-4.9,7.6-8.7c-5.4-0.5-9.2-1.1-12.5-1.6c1.6-2.7,6-7.6,4.3-8.7
		c-3.3-3.3-9.2-4.3-14.6-7l5.4-5.4c-20.6,1.6-40.1,0-57.4,9.8c-11.4-8.7-22.2,1.6-36.8,0c6.5,4.3,11.4,7.6,15.7,10.3
		c-19-3.3-20.6-4.9-19.5-11.4c-9.8,1.6-15.2,3.8-24.9,5.4 M660.9,358.7c-8.7,3.8-15.7,9.2-23.3,14.1c-1.6,1.1-3.3,2.2-4.3,2.2
		c-11.4,0-21.7,1.6-32,4.3h-19c34.1-10.8,68.3-21.7,102.9-32.5c3.3-1.1,7-1.1,10.8-2.2c0,0.5,0.5,1.6,0.5,2.2
		C684.2,350.6,671.8,353.8,660.9,358.7z M5699.8,241.7c0.5-2.2,0-7,2.2-7.6c6.5-2.2,13.5-2.2,20-2.7c0.5,0,1.1,3.8,1.6,4.9
		C5715.6,237.9,5708.5,239.5,5699.8,241.7z M6196.1,358.7c-8.7,3.8-15.7,9.2-23.3,14.1c-1.6,1.1-3.3,2.2-4.3,2.2
		c-11.4,0-21.7,1.6-32,4.3h-19c34.1-10.8,68.3-21.7,102.9-32.5c3.3-1.1,7-1.1,10.8-2.2c0,0.5,0.5,1.6,0.5,2.2
		C6219.4,350.6,6207.5,353.8,6196.1,358.7L6196.1,358.7z M6273,266.6h21.7c-3.8,1.1-7,2.7-10.8,3.8c6,4.9,11.9,9.8,17.3,14.1
		C6287.1,285,6287.1,285,6273,266.6L6273,266.6z M6420.9,258.5c-10.3-9.2-10.3-9.8-2.7-13.5c1.6,2.7,3.3,6,6,10.3
		C6424.2,255.7,6422.5,256.8,6420.9,258.5z M7683.8,194h21.7c-3.8,1.1-7,2.7-10.8,3.8c6,4.9,11.9,9.8,17.3,14.1
		C7697.9,212.4,7697.9,212.4,7683.8,194z M7829.5,188c-10.3-9.2-10.3-9.8-2.7-13.5c1.6,2.7,3.3,6,6,10.3
		C7832.7,185.3,7831.1,186.4,7829.5,188z M7877.2,185.3c-1.1-2.2-2.2-4.9-3.3-7.6c-4.9-0.5-8.7-2.2-11.9-4.3
		C7876.6,171.8,7881,175,7877.2,185.3L7877.2,185.3z M7898.3,184.8h-13c-4.3-7-4.3-8.1,5.4-8.1c-2.2,1.1-3.3,2.2-3.8,3.3
		c4.3,1.1,8.1,2.2,11.9,3.3C7898.8,183.7,7898.3,184.2,7898.3,184.8L7898.3,184.8z M8245,235.2c-8.1-2.7-15.7-4.9-22.8-7.6
		c0-0.5,0.5-1.1,0.5-1.6c7,1.1,14.1,2.2,22.2,3.3V235.2L8245,235.2z M8419.5,240.6c-3.3-1.1-6-2.2-11.4-4.9
		c7.6-1.1,12.5-2.2,17.9-3.3c0.5,0.5,0.5,1.1,1.1,1.6C8424.3,236.8,8422.2,238.4,8419.5,240.6z M8771.6,131.1v-1.1
		c7-0.5,13.5-1.6,22.8-2.7c0,0,1.1,2.2,1.6,3.8H8771.6z M8871.8,123.6c4.9-2.2,10.3-4.3,19-7.6c-1.6,5.4-1.6,10.8-3.8,11.4
		c-4.3,1.1-10.3,0-15.2-0.5V123.6z M8900.6,142c-8.7-1.1-15.7-2.7-22.2-3.8v-2.7c7-2.2,14.1-3.8,22.2-6V142z M8954.2,145.2
		c-3.8-4.9-6-7-6.5-8.1c2.2-3.8,3.3-6.5,5.4-10.3c-10.8,0.5-19.5,1.1-27.6,1.6c0-1.1-0.5-2.2-0.5-2.7c10.8-1.6,21.1-3.3,33.6-4.9
		C8956.9,130.1,8955.8,136.6,8954.2,145.2L8954.2,145.2z M9001.9,127.9h0.5H9001.9z M9001.9,127.9c-3.2-1.1-6-2.2-8.1-2.7
		c-1.6-1.1-3.2-1.6-4.9-1.6c-0.5-1.1-1.6-2.2-2.2-2.7c5.4-1.1,12.5,0.5,16.3,5.4C9002.4,126.8,9002.4,127.4,9001.9,127.9z
		 M9152.5,171.2c0.5-2.2,0-7,2.2-7.6c6.5-2.2,13.5-2.2,20-2.7c0.5,0,1.1,3.8,1.6,4.9C9167.6,167.4,9160.6,169.1,9152.5,171.2z
		 M9648.7,288.3c-8.7,3.8-15.7,9.2-23.3,14.1c-1.6,1.1-3.2,2.2-4.3,2.2c-27.1,0-49.3,9.8-72.1,19c-18.4,7-36.3,15.7-58,16.8
		l-1.6-1.6c8.1-3.3,16.3-6.5,24.4-10.3l1.6,1.6c0.5-2.7,1.1-4.9,1.1-6.5c4.3-0.5,7.6,0,10.8-1.1c48.2-15.2,96.4-30.3,145.2-46
		c3.2-1.1,7-1.1,10.8-2.2c0,0.5,0.5,1.6,0.5,2.2C9672,280.1,9659.6,283.4,9648.7,288.3L9648.7,288.3z M9728.9,194.5h21.7
		c-3.8,1.1-7,2.7-10.8,3.8c6,4.9,11.9,9.8,17.3,14.1C9743,212.9,9743,212.9,9728.9,194.5z M9873.6,188c-10.3-9.2-10.3-9.8-2.7-13.5
		c1.6,2.7,3.3,6,6,10.3C9876.8,185.3,9875.2,186.4,9873.6,188z M9942.9,183.2h-13c-4.3-7.6-4.3-8.1,7-8.1c-2.7,1.6-3.8,2.7-4.9,3.8
		c4.3,1.1,8.1,2.2,11.9,3.3C9942.9,182.1,9942.9,182.6,9942.9,183.2z M10292.3,149c-2.2-0.5-6.5-0.5-7-1.6
		c-2.2-3.3-3.2-7.6-4.3-11.4c1.1-0.5,2.7-1.1,3.8-1.1c3.2,2.7,7,5.4,9.2,8.1C10294.5,144.1,10292.9,146.9,10292.3,149L10292.3,149z"
		/>
</g>
</svg>
