<?xml version="1.0" encoding="utf-8"?>
<!-- Generator: Adobe Illustrator 28.0.0, SVG Export Plug-In . SVG Version: 6.00 Build 0)  -->
<svg version="1.1" id="comp-mbhloh6z-top" xmlns="http://www.w3.org/2000/svg" xmlns:xlink="http://www.w3.org/1999/xlink" x="0px"
	 y="0px" viewBox="0 0 8192.8 403.1" style="enable-background:new 0 0 8192.8 403.1;" xml:space="preserve">
<style type="text/css">
	.st0{fill:#1E1E1E;}
</style>
<g>
	<path class="st0" d="M0.8,403.1h8192V152.1l-4.3,0.9c-2.5,0.9-5.1-2.6-7.7-1.7l-1.3-1.3c3-1.7,5.5-3.9,8.5-5.5v-6.4
		c-4.3-0.9-7.7-1.3-11.5-2.1v-6c1.3,0.4,1.7,0.9,2.6,0.9l9,2.6v-9c-0.4-1.3-1.3-2.6-1.7-3.4v0.4l-0.4-0.4c-2.6-0.9-5.5-1.7-8.1-2.6
		c-2.1,4.3-4.3,9-6.4,14.1c-5.1-7.2-5.1-7.2,5.5-21.7c3.4,3.9,6,7.2,9,10.2h0.4c0-2.1,0-4.3-0.4-6.4c-1.7-8.5-12.8-7.7-20.5-11.5
		c4.7-2.6,9.4-5.1,4.7-10.2c-2.1,0.9-3.9,1.7-5.5,2.6c-0.4-0.4-0.4-0.9-0.9-1.3c3-0.9,6-1.7,9.4-2.6c3.4,5.1-0.4,11.1,7.2,14.1
		c-1.7-6.4-3-12.4-6-18.4c-0.9-2.1-6-3-9.8-4.7c0-0.9,0.4-2.6,0.9-5.1c-5.5,1.7-10.6,3-16.2,4.7c1.3,1.3,2.5,2.1,3,2.6l-6,6
		c-1.7-0.9-5.1-3-8.5-5.1c-0.4-0.9-0.4-1.3-0.9-2.1c-4.7,3.4-9,6.9-13.2,10.2l1.3,1.3c-1.7-0.9-3.9-1.3-6.4-2.1
		c-0.4,3-1.3,5.5-1.7,8.5c-1.7-0.4-3-0.4-3.9-0.9c-5.5-6.4-10.6-3.4-14.5,1.3c-4.7,5.1-8.1,11.1-12.4,16.6c-2.6-1.3-6-3-10.2-5.5
		c-2.1,6.9-8.5,9-15.8,9.8c-5.5,0.4-6.9,3-4.7,6.9c0.4,1.3,0,2.6-0.4,4.3h-2.1c-0.4-1.7-0.9-3.4-1.3-6.4c-1.7,1.7-2.5,3-3.4,4.3
		c-3-1.3-5.5-2.1-9.4-3.9c1.7-0.9,3-1.7,5.1-3c-3.9-1.3-7.2-2.6-10.6-3.9c-9,3.9,1.7,9.4-2.5,14.5c-2.1-3.4-3.9-6.4-5.5-9.4
		c-0.4,0.4-0.9,1.3-0.9,1.7c-7.2-1.3-14.1-2.1-21.3-3.4c-0.4,0.4-0.4,0.9-0.9,1.7l4.3,4.3c0,0.4-0.4,1.3-0.4,1.7
		c-5.1-0.9-10.2-1.3-16.6-2.1c-6,3,0.4,5.1,4.3,8.1c-3,0.9-4.7,1.3-5.1,1.3c-3.9-3.4-7.2-6-11.5-9.8c-3,9.4-4.7,9.8-13.2,6.9
		c-1.3,1.3-2.5,2.6-3.9,4.3c-13.6-6.4-9.8,6-15.4,8.1c6.9,10.2,6.4,13.6-0.4,18c-1.3-3-2.1-6-3.9-8.5c-2.1-2.6-5.5-3.9-6.4-6.4
		c0-2.1,0-3.9-0.4-6c-0.9-3.9-2.5-7.7-3.9-11.5c-1.3-3.9-3.9-6.4-9.4-6.4c-2.6,0-4.7-1.7-6.9-2.1c-4.3,3.4-8.5,6.9-14.1,11.1
		c-7.2-9.8-11.1-19.2-11.5-28.6c-0.4-7.2-6.9-10.6-15.8-8.1c-0.4,0-1.7,0-2.1-0.4v24.3c-0.4-7.7-0.9-12.8-1.3-13.6
		c-4.7,5.1-13.2,6.9-12.4,14.5c0.4,5.1-2.6,10.2-4.3,15.4c-5.5-1.3-9.4-2.6-14.1-3.4c0.4,2.6,0.9,4.7,1.3,6.4h-1.7
		c-3.9-7.7-10.6-9.4-20.9-8.5c-2.1,0-4.3,0.4-6.9,0.4c5.1,0.9,6.4,3.9,4.3,9.4c-0.9-1.7-1.7-3.9-2.5-6c-3.4-0.4-7.7-0.9-11.5-1.7
		c0-0.9,0.4-1.3,0.4-2.1h3.9c-3-0.4-6-1.7-8.5-4.3c-1.3-1.3-5.5-0.4-6.9-0.4c-1.3,4.7-2.1,8.5-3.4,12.4c-0.9,0-2.1,0-3-0.4
		c0-2.1,0.4-3.9,0.4-6.9c-3-0.9-7.7-3-10.2-2.1c-9,3.4-3.9,10.2-4.3,15.4l-2.1,0.4c-0.9-3.4-2.1-6.4-3.4-10.2
		c-1.7,2.6-3,5.1-4.7,7.2c0.4,0,0.9-0.4,1.7-0.4c1.3,3,2.1,6,3.9,10.2c-4.3-1.3-6-1.7-7.7-2.1c-2.6,9.8-9.8,9.8-20.5,6.4
		c0.9,1.7,1.7,3.9,3,6c-0.4,0.4-1.3,0.9-1.7,1.3c-3.9-3-7.2-6-11.5-9.4c-1.7,1.7-3.4,4.3-5.1,6.4c-2.1-2.6-4.3-5.1-7.7-9v7.2
		c0,2.6-0.9,4.7-1.3,7.2h-1.7c-1.3-5.1-3-10.2-4.7-15.8c-5.1,4.3-9,7.7-13.6,11.5c-1.7-0.9-3.9-1.7-5.1-2.6
		c3.9-2.1,7.2-4.7,11.5-6.9c-5.5-5.1-11.5-3.4-17.1-3c-4.7-5.5-16.6-6-21.3-0.9c-2.6,1.3-5.5,2.6-7.7,3.9c-3.9-3-8.1-5.5-13.6-9.4
		c4.3,1.3,7.2,2.1,10.6,3s6.9,1.7,10.6,2.6c-2.1-1.3-3.9-3.4-6.4-4.3c-3.9-1.3-7.7-2.1-11.5-3c-6.4-1.7-12.4-1.7-15,4.7
		c-2.1-1.3-4.3-2.6-6.9-3.9c-2.1,3.9,0.9,9.8-7.2,9.8c-0.9-3-2.1-6-3-9.4c-2.6,1.3-4.3,2.1-4.7,2.1c-5.1-1.7-9-3-14.1-4.3
		c0,2.6,0.4,3.4,0.4,5.1c-15.4-1.3-27.3,4.3-41.4,9c-6.4-3-9.8,4.3-15,6c-15-3.4-15.8-14.1-20.9-22.6c-2.1-3.9-7.7-6.4-12.4-8.5
		c-2.6-1.3-6.9,0-9.8,0.9c-0.9,0.4,0.4,4.3,0.4,6.9c-0.4,0-1.7,0.4-2.1,0c-6.9-3.9-14.1-3-20.9-0.4l-77.3,15.4
		c0.4-1.3,1.3-2.1,1.7-3.9c-6,0.4-11.1,0.9-15.4,1.3l6.4,4.3l-20.9,4.3c-1.3-0.4-2.1-0.4-3.4-1.3v1.3c-5.1-0.9-9.4-1.7-13.6-2.1
		v-1.7c2.1-0.4,3.9-1.3,6-1.7c-2.1-1.3-4.3-2.6-6.9-3.4c-0.4,0-1.3,0-1.7-0.4c-5.1-0.4-13.2,2.6-17.5-0.9
		c-7.2-5.1-5.5-11.1-6.4-19.2c-0.9-6.9,2.1-15.4-3.9-20.9c-4.3-3.4-44.8,1.3-44.8,1.7v1.3c1.7,0.9,4.3,1.7,5.1,3
		c0.9,1.3,0,3.4,0,4.7c-2.1,0-4.7,0.4-6-0.4c-3.4-2.1-6-5.1-9.4-7.2c-0.4-0.4-2.1,0.4-2.5,0.4c2.5,3.4,4.7,6.4,7.2,9.4l-0.9,0.9
		l-8.5-4.3c-5.5,3.4-10.2,6.9-15.8,10.2c-0.4-1.7-0.4-3-0.9-4.7c-3,0.4-6,0.4-9.4,0.9c0-0.4-0.4-1.3-0.4-1.7
		c5.1-1.3,10.6-2.1,15.8-3.4c0.4,0.4,0.4,0.9,0.9,1.3c0.9-1.7,1.3-3.4,2.5-5.5c-12,2.1-23.1,4.7-34.1,6c-6.4,0.9-13.2,0-19.6-0.9
		c-3.4-0.9-6.4-3.9-8.5-6.9c2.6,0.4,4.7,1.3,7.2,1.7c0.4-0.4,0.9-1.3,1.3-1.7c-5.1-3-10.2-5.5-15-8.5c0.9-0.4,1.7-1.3,2.5-1.7
		c1.7-2.1,3.4-3.9,6-6.9c-4.3-0.4-7.2-0.9-9.8-1.3c1.3-2.1,4.7-6,3.4-6.9c-2.6-2.6-7.2-3.4-11.5-5.5l4.3-4.3
		c-16.2,1.3-31.6,0-45.2,7.7c-9-6.9-17.5,1.3-29,0c5.1,3.4,9,6,12.4,8.1c-15-2.6-16.2-3.9-15.4-9c-7.2,1.3-14.1,2.6-21.3,4.3
		c-3.4-4.3-6.9-9-10.6-13.2c-0.9,2.1-1.3,3.4-2.1,4.7c-0.4,0-0.9-0.4-1.7-0.4c0.9-3,1.7-6,3-9.4c-5.1-1.7-10.2-2.6-15.4-2.6
		c-0.9,2.6-1.7,4.3-2.1,5.5c-6.9,0.4-12.8,0.9-19.6,1.3c0.9-2.1,1.7-3.9,3-4.7c-3.9,0.9-7.2,2.1-11.1,3c4.3,2.6,8.5,4.7,12.8,7.2
		c0,0.4,0,1.3,0.4,1.7c-5.5-0.4-11.1-0.4-17.1-0.9c2.5,2.1,5.1,4.7,7.7,6.9c-10.6-2.6-15.8-6-15.8-11.1c-3.4,0.9-6.9,2.1-10.2,3
		c-0.4-1.7-0.9-2.6-1.7-4.3l-9,2.6c0.9,2.1,1.7,4.3,2.1,6.4c0.4,1.7-1.3,3.9-2.5,5.5c0,0.4-3,0-3.4-0.4c-0.4-1.7-0.4-3.9,0-5.5
		c0-1.3,1.3-2.1,1.7-3c-1.7-0.4-3.4-0.9-4.7-1.3c-8.5,1.7-16.6,3.9-22.2,10.6c-1.7,1.7-5.5,2.6-8.5,3.4c-0.4-0.4-0.9-1.3-1.7-1.7
		c2.1-1.7,4.7-3,6.9-4.7c-9.4-2.6-30.3,2.1-32.4,5.5c-10.2,1.3-19.6,1.7-29,3.4c-14.5,2.6-28.6,5.1-43.1,0.4c-1.3-0.4-3.4,0-4.7,0.4
		c-15.4,5.1-30.7,9.8-45.7,15.4c-9,3.4-17.5,7.2-26,11.1c-1.3,0.4-3.4,1.7-4.7,1.3c-15-3.9-26.9,1.3-38.4,7.7
		c-4.3,2.1-8.1,3-13.2,3.4c-7.2,0.4-14.5,1.7-21.3,3.9c-4.7,1.3-8.1,4.7-13.6,7.7c-17.1-4.7-31.6,6.4-49.9,7.7
		c2.5,4.7,4.7,9,6.9,12.8c-7.2,5.5,5.1,7.7,3.4,12.8l-3.9-2.6c-3.4-2.1-6-3-10.2-0.4c-5.1,3.4-11.5,3.9-18.7,3.4
		c-11.5-0.9-23.5-0.4-35.4-0.9c-3,0-5.5-1.7-8.1-2.6c0-0.9,0.4-2.1,0.4-3c-12.4,0.9-24.7,1.7-36.7,2.6c-1.3,0-2.5,0-3.4-0.4
		c-11.1-7.2-23.1-6.9-35.8-3.4h-2.1c-10.2-6-23.1-5.1-34.6-6.4c-10.6-1.3-20.9-3.9-29.8-9c-2.1-1.3-5.1-2.1-7.7-1.7
		c-15.8,0.4-31.1,1.3-46.5,2.1c-10.6,0.9-21.3,2.1-31.6,3.4c-1.7,0-3.9,0.4-4.7,0c-12.8-7.7-26.5-5.5-40.6-2.6
		c-4.3,0.9-7.7,0.4-12.4-0.4c-7.7-2.1-15.8-3.4-23.5-2.6c-0.4,0-0.4-0.4-0.9-0.4l0.4,0.4l-6.4,1.3c-1.7-1.7-3-3.9-4.3-6
		c-3.4,0.4-6.9-0.9-9.4-3c-2.1-0.4-4.7-1.7-6.4-3c-2.5-1.7-4.7-4.3-6.9-6.4l-7.7-3.9c0.9-0.4,1.3-0.9,2.1-0.9
		c-6.4-3.4-19.2-3.4-26-1.7c0,0-0.4,0-0.4-0.4h-1.3c0.4,0,0.9,0,1.3-0.4c-4.3-2.6-8.1-6-14.1-6c-1.3,4.7-2.1,8.5-3.4,12.4
		c-0.9,0-2.1,0-3-0.4c0-2.1,0.4-3.9,0.4-6.9c-3-0.9-7.7-3-10.2-2.1c-9,3.4-3.9,10.2-4.3,15.4l-2.1,0.4c-0.9-3.4-2.1-6.4-3.4-10.2
		c-1.7,2.6-3,5.1-4.7,7.2c0.4,0,0.9-0.4,1.7-0.4c1.3,3,2.1,6,3.9,10.2c-4.3-1.3-6-1.7-7.7-2.1c-2.5,9.8-9.8,9.8-20.5,6.4
		c0.9,1.7,1.7,3.9,3,6c-0.4,0.4-1.3,0.9-1.7,1.3c-3.9-3-7.2-6-11.5-9.4c-1.7,1.7-3.4,4.3-5.1,6.4c-2.1-2.6-4.3-5.1-7.7-9v7.2
		c0,2.6-0.9,4.7-1.3,7.2h-1.7c-1.3-5.1-3-10.2-4.7-15.8c-5.1,4.3-9,7.7-13.6,11.5c-1.7-0.9-3.9-1.7-5.1-2.6
		c3.9-2.1,7.2-4.7,11.5-6.9c-5.5-5.1-11.5-3.4-17.1-3c-4.7-5.5-16.6-6-21.3-0.9c-2.6,1.3-5.5,2.6-7.7,3.9c-3.9-3-8.1-5.5-13.6-9.4
		c4.3,1.3,7.2,2.1,10.6,3s6.9,1.7,10.6,2.6c-2.1-1.3-3.9-3.4-6.4-4.3c-3.9-1.3-7.7-2.1-11.5-3c-6.4-1.7-12.4-1.7-15,4.7
		c-2.1-1.3-4.3-2.6-6.9-3.9c-0.4,0.9-0.9,2.1-0.9,3.4c-4.3,0.9-8.1,1.7-12.4,2.6c-3.4,0.9-6,2.6-9,3.9l-3-3
		c-0.9,2.1-1.7,3.9-2.1,4.7c2.6,1.7,5.1,3,9,5.1c-5.5,0.9-8.5,1.3-11.1,1.7c-7.2-9-14.5-18.4-22.6-28.2c-0.9,2.1-1.3,3.4-2.1,4.7
		c-0.4,0-0.9-0.4-1.7-0.4c0.9-3,1.7-6,3-9.4c-5.1-1.7-10.2-2.6-15.4-2.6c0.4-1.3,1.3-3,2.1-4.7c-8.1,1.7-15.8,2.1-20.5,6.9
		c-3.9,0.9-7.2,2.1-11.1,3c-0.4-0.4-0.9-0.4-1.3-0.9l-1.7,1.7c-2.1,0.4-3.9,0.9-6,1.7c-0.4-3-0.9-4.7-1.3-6.9
		c-1.7,3-2.1,5.5-2.1,7.7c-3.4,0.9-6.9,2.1-10.2,3c-0.4-1.7-0.9-2.6-1.7-4.3l-9,2.6c-0.9-2.1-1.7-4.7-2.6-6.9
		c-6.4,1.3-11.1,2.1-16.2,3c0,0.9-0.4,1.3-0.4,2.1c3.9,0.9,8.1,2.1,12.4,3.4c-8.5,1.7-16.6,3.9-22.2,10.6c-1.7,1.7-5.5,2.6-8.5,3.4
		c-0.4-0.4-0.9-1.3-1.7-1.7c2.1-1.7,4.7-3,6.9-4.7c-9.4-2.6-30.3,2.1-32.4,5.5c-10.2,1.3-19.6,1.7-29,3.4
		c-14.5,2.6-28.6,5.1-43.1,0.4c-1.3-0.4-3.4,0-4.7,0.4c-15.4,5.1-30.7,9.8-45.7,15.4c-9,3.4-17.5,7.2-26,11.1
		c-1.3,0.4-3.4,1.7-4.7,1.3c-15-3.9-26.9,1.3-38.4,7.7c-4.3,2.1-8.1,3-13.2,3.4c-7.2,0.4-14.5,1.7-21.3,3.9
		c-4.7,1.3-8.1,4.7-13.6,7.7c-17.1-4.7-31.6,6.4-49.9,7.7c2.6,4.7,4.7,9,6.9,12.8c-7.2,5.5,5.1,7.7,3.4,12.8l-3.9-2.6
		c-3.4-2.1-6-3-10.2-0.4c-5.1,3.4-11.5,3.9-18.7,3.4c-11.5-0.9-23.5-0.4-35.4-0.9c-3,0-5.5-1.7-8.1-2.6c0-0.9,0.4-2.1,0.4-3
		c-12.4,0.9-24.7,1.7-36.7,2.6c-1.3,0-2.6,0-3.4-0.4c-11.1-7.2-23.1-6.9-35.8-3.4h-2.1c-10.2-6-23.1-5.1-34.6-6.4
		c-10.6-1.3-20.9-3.9-29.8-9c-2.1-1.3-5.1-2.1-7.7-1.7c-15.8,0.4-31.1,1.3-46.5,2.1c-10.6,0.9-21.3,2.1-31.6,3.4
		c-1.7,0-3.9,0.4-4.7,0c-12.8-7.7-26.5-5.5-40.6-2.6c-4.3,0.9-7.7,0.4-12.4-0.4c-7.7-2.1-15.8-3.4-23.5-2.6c-0.4,0-0.4-0.4-0.9-0.4
		l-6-3c0-0.9-0.4-1.7-0.4-2.6c-0.9,0.4-1.7,0.9-2.6,0.9l-1.7-0.9c-0.4-0.9-0.9-2.1-1.3-3l-2.6,1.3l-12-6c-1.3-1.3-2.1-2.6-3.4-3.4
		c-3-2.6-6.4-5.5-9.4-4.7c-6.9-3.4-20.1-3.4-26.9-1.7c-4.3-2.6-8.1-6-14.1-6c-1.3,4.7-2.1,8.5-3.4,12.4c-0.9,0-2.1,0-3-0.4
		c0-2.1,0.4-3.9,0.4-6.9c-3-0.9-7.7-3-10.2-2.1c-9,3.4-3.9,10.2-4.3,15.4l-2.1,0.4c-0.9-3.4-2.1-6.4-3.4-10.2
		c-1.7,2.6-3,5.1-4.7,7.2c0.4,0,0.9-0.4,1.7-0.4c1.3,3,2.1,6,3.9,10.2c-4.3-1.3-6-1.7-7.7-2.1c-2.6,9.8-9.8,9.8-20.5,6.4
		c0.9,1.7,1.7,3.9,3,6c-0.4,0.4-1.3,0.9-1.7,1.3c-3.9-3-7.2-6-11.5-9.4c-1.7,1.7-3.4,4.3-5.1,6.4c-2.1-2.6-4.3-5.1-7.7-9v7.2
		c0,2.6-0.9,4.7-1.3,7.2h-1.7c-1.3-5.1-3-10.2-4.7-15.8c-5.1,4.3-9,7.7-13.6,11.5c-1.7-0.9-3.9-1.7-5.1-2.6
		c3.9-2.1,7.2-4.7,11.5-6.9c-5.5-5.1-11.5-3.4-17.1-3c-4.7-5.5-16.6-6-21.3-0.9c-2.6,1.3-5.5,2.6-7.7,3.9c-3.9-3-8.1-5.5-13.6-9.4
		c4.3,1.3,7.2,2.1,10.6,3c3.4,0.9,6.9,1.7,10.6,2.6c-2.1-1.3-3.9-3.4-6.4-4.3c-3.9-1.3-7.7-2.1-11.5-3c-6.4-1.7-12.4-1.7-15,4.7
		c-2.1-1.3-4.3-2.6-6.9-3.9c-2.1,3.9,0.9,9.8-7.2,9.8c-0.9-3-2.1-6-3-9.4c-2.6,1.3-4.3,2.1-4.7,2.1c-5.1-1.7-9-3-14.1-4.3
		c0,2.6,0.4,3.4,0.4,5.1c-15.4-1.3-27.3,4.3-41.4,9c-6.4-3-9.8,4.3-15,6c-15-3.4-15.8-14.1-20.9-22.6c-2.1-3.9-7.7-6.4-12.4-8.5
		c-2.6-1.3-6.9,0-9.8,0.9c-0.9,0.4,0.4,4.3,0.4,6.9c-0.4,0-1.7,0.4-2.1,0c-6.9-3.9-14.1-3-20.9-0.4c-7.2,2.6-13.6,6.4-20.5,9.4
		c-9.8,3.9-32.8,17.5-43.6,15.4c-3-0.9-5.5-2.6-7.7-4.3c0,0.4,0,0.9-0.4,1.3c-0.9-0.9-1.3-1.7-1.7-2.6c-1.7-0.9-3-1.7-5.1-2.1
		c-5.5-0.9-18.7-3-26.9-1.3v3.9c-5.1-0.9-9.4-1.7-13.6-2.1v-1.7c2.1-0.9,4.3-1.3,6.9-2.1c-3.4-3.9-10.2,0.4-15.8,1.3
		c-0.4-5.1-1.3-14.1-4.7-20.1c-2.1-0.4-3.9-0.9-6-1.3c0-0.4,0-1.3,0.4-1.7c0.9,0,1.7-0.4,2.6-0.4c-1.7-1.3-3.9-2.1-6.4-1.7
		c0.9-0.4-0.9-13.2-1.3-14.5c-3.9-0.9-7.2-2.6-11.1-4.7c-13.2,0.9-27.3,2.1-41.4,3.4v1.3c1.7,0.9,4.3,1.7,5.1,3c0.9,1.3,0,3.4,0,4.7
		c-2.1,0-4.7,0.4-6-0.4c-3.4-2.1-6-5.1-9.4-7.2c-0.4-0.4-2.1,0.4-2.6,0.4c2.6,3.4,4.7,6.4,7.2,9.4l-0.9,0.9l-8.5-4.3
		c-5.5,3.4-10.2,6.9-15.8,10.2c-0.4-1.7-0.4-3-0.9-4.7c-3,0.4-6,0.4-9.4,0.9c0-0.4-0.4-1.3-0.4-1.7c5.1-1.3,10.6-2.1,15.8-3.4
		c0.4,0.4,0.4,0.9,0.9,1.3c0.9-1.7,1.3-3.4,2.6-5.5c-12,2.1-23.1,4.7-34.1,6c-6.4,0.9-13.2,0-19.6-0.9c-3.4-0.9-6.4-3.9-8.5-6.9
		c2.6,0.4,4.7,1.3,7.2,1.7c0.4-0.4,0.9-1.3,1.3-1.7c-5.1-3-10.2-5.5-15-8.5c0.9-0.4,1.7-1.3,2.5-1.7c1.7-2.1,3.4-3.9,6-6.9
		c-4.3-0.4-7.2-0.9-9.8-1.3c1.3-2.1,4.7-6,3.4-6.9c-2.6-2.6-7.2-3.4-11.5-5.5l4.3-4.3c-16.2,1.3-31.6,0-45.2,7.7
		c-9-6.9-17.5,1.3-29,0c5.1,3.4,9,6,12.4,8.1c-15-2.6-16.2-3.9-15.8-9c-11.5,2.1-23.5,4.3-35.4,6.9c-1.7,0.4-3,0.9-4.3,1.7
		c4.7-0.4,9.4-0.4,14.5-0.9c0.9,0,1.7-1.3,2.6-1.7c5.5-3.9,15.8-1.7,19.2,5.1c-3.4-1.3-6.4-1.7-9-3c-4.3-1.7-6.9-2.1-9.8,1.7
		c-3.4,4.7-5.5,5.5-10.6,4.3c1.3-1.3,2.1-2.6,3-3.9c-5.1,3.9-8.1,0.4-11.1-1.3c-1.3,0.4-2.1,1.3-3.4,1.7l-3-3
		c-0.9,2.1-1.7,3.9-2.1,4.7c2.6,1.7,5.1,3,9,5.1c-5.5,0.9-8.5,1.3-11.1,1.7c-7.2-9-14.5-18.4-22.6-28.2c-0.9,2.1-1.3,3.4-2.1,4.7
		c-0.4,0-0.9-0.4-1.7-0.4c0.9-3,1.7-6,3-9.4c-11.1-3.4-22.6-3.4-34.1-0.4c-11.1,3-22.2,6-33.3,9.4c-0.4-1.7-0.9-2.6-1.7-4.3
		c-12.8,4.7-29,3.9-38,14.5c-1.7,1.7-5.5,2.6-8.5,3.4c-0.4-0.4-0.9-1.3-1.7-1.7c2.1-1.7,4.7-3,6.9-4.7c-9.4-2.6-30.3,2.1-32.4,5.5
		c-10.2,1.3-19.6,1.7-29,3.4c-14.5,2.6-28.6,5.1-43.1,0.4c-1.3-0.4-3.4,0-4.7,0.4c-15.4,5.1-30.7,9.8-45.7,15.4
		c-9,3.4-17.5,7.2-26,11.1c-1.3,0.4-3.4,1.7-4.7,1.3c-15-3.9-26.9,1.3-38.4,7.7c-4.3,2.1-8.1,3-13.2,3.4c-7.2,0.4-14.5,1.7-21.3,3.9
		c-4.7,1.3-8.1,4.7-13.6,7.7c-17.1-4.7-31.6,6.4-49.9,7.7c2.6,4.7,4.7,9,6.9,12.8c-7.2,5.5,5.1,7.7,3.4,12.8l-3.9-2.6
		c-3.4-2.1-6-3-10.2-0.4c-5.1,3.4-11.5,3.9-18.7,3.4c-11.5-0.9-23.5-0.4-35.4-0.9c-3,0-5.5-1.7-8.1-2.6c0-0.9,0.4-2.1,0.4-3
		c-12.4,0.9-24.7,1.7-36.7,2.6c-1.3,0-2.6,0-3.4-0.4c-11.1-7.2-23.1-6.9-35.8-3.4h-2.1c-10.2-6-23.1-5.1-34.6-6.4
		c-10.6-1.3-20.9-3.9-29.8-9c-2.1-1.3-5.1-2.1-7.7-1.7c-15.8,0.4-31.1,1.3-46.5,2.1c-10.6,0.9-21.3,2.1-31.6,3.4
		c-1.7,0-3.9,0.4-4.7,0c-12.8-7.7-26.5-5.5-40.6-2.6c-4.3,0.9-7.7,0.4-12.4-0.4c-12.4-3.4-25.2-4.7-37.6,2.1
		c-14.5-9.8-33.3-3-50.3-6.9v13.6c-9,3.9,1.3,9-2.1,13.2c-0.9-1.3-1.7-2.1-2.6-3.4c-2.1-3-4.3-4.7-9.8-3.4c-4.7,0.9-10.6,1.7-15,0.4
		c-9.4-2.6-15.8,0-24.3,6c1.7,3,3.9,7.2,6,11.1c0.4,0.4,0.4,1.3,0.4,1.7c-4.7,6,0,11.5,0.9,17.1c1.3,7.2,0.4,7.7-8.5,7.7
		c-1.3,0-3,0.4-5.1,0.9c3,3.9,5.5,7.2,8.5,11.5c-4.3-1.7-7.2-3-11.5-4.3c0-0.4,0.4-1.7,0.4-3.4c0-3-1.3-4.7-6-4.7
		c-8.1,0.4-16.2,0.9-24.3,0.4c-4.7,0-9.4-1.3-15-2.6c3,7.2,8.1,9.8,15,8.1c0.9,3.9,1.7,7.2,2.1,10.6c-0.4,0.4-1.3,0.9-1.7,1.3
		c-4.7-3.9-9.8-7.2-15.4-11.5c-1.7,2.1-3.9,3.9-4.7,4.7c-9,0.4-16.6,0.9-24.7,1.3c2.1-3,4.3-6.4,6.4-9c4.7,1.7,7.7,3,10.6,4.3
		c0-3,0.4-5.1,0.4-7.7h-46.5c0.4,1.3,0.4,3,0.4,3h29.5c0.4,0.4,0.9,1.3,0.9,1.7c-6.9,3-13.6,6-21.3,9.8c-0.9-3.9-1.7-6.9-2.1-9.4
		c-5.5,10.2-20.1,0.9-26.9,8.5c-3.4-4.3-6-7.7-9-11.1c2.1-0.9,3.9-1.3,6-2.1l-0.4-1.7c-5.5,0.9-11.5,1.3-17.1,2.1v2.1
		c3,0,6.4,0.4,9.4,0.4c-5.1,4.7-9.4,4.7-20.5-0.4c1.7-0.9,3.4-2.1,5.5-3.4c-3,0-5.1-0.9-7.7-0.4c-1.7,0.4-4.3,1.7-3.9,2.6
		c1.3,4.7,3,9.4,4.7,14.5c-5.1,0-12-0.9-18,0c-10.2,1.7-19.2-0.9-28.6-2.1c-9.8-1.7-20.1-1.3-29.5-3c-6.9-1.3-12.8-4.3-19.6-6.4
		c-2.6-0.9-5.1-1.7-7.7-1.7c-17.1,0.9-34.1,2.1-51.2,3.4c-9,0.9-18,2.6-26.9,3.9c-1.7,0.4-3.9,0.9-4.7,0.4
		c-13.2-7.2-26.5-4.7-40.6-2.1c-3.9,0.9-8.1,0.4-12,0c-12.8-2.1-25.6-4.3-37.6,3.4c-14.1-9.8-32-2.6-50.3-6c6.9-3,11.5-5.1,16.6-6.9
		c5.5-2.1,8.5-9,4.7-12.4c-5.1-4.7-11.1-9.4-16.2-14.1c-3-2.6-8.1-4.7-2.1-9l-5.1-2.6c2.1-1.7,3.4-3.4,5.5-4.3
		c3.4-2.1,7.2-3.9,11.1-5.5c7.7-3.4,8.5-7.7,3.9-13.2c-9.4-10.2-9.4-10.2-23.9-14.1c2.1-2.1,4.3-4.3,5.5-6c-3.4-1.7-7.2-3-7.2-3.9
		c0.9-6-5.5-9-10.2-10.2c-6.9-1.7-7.2-4.7-7.7-8.5c0-0.9-0.9-1.7-1.3-3c-1.3,0.4-2.6,0.9-5.1,1.3c5.1-12-9.4-9.8-13.2-12.8
		c-13.2,5.5-25.6,11.1-38.4,16.6c4.3,1.7,7.7,2.6,9.8,4.3c0.9,0.4-1.7,3.4-2.6,5.5c-6.4-2.6-12-6-18.7-4.3c4.3,2.6,8.1,4.3,12,6.4
		c0,0.4,0,0.9-0.4,1.3c-3.9-0.4-7.7-0.9-10.2-1.3c-3,4.7-6,9-7.7,11.5c-4.3,0-6.4-0.4-8.1,0c-2.1,0.4-3.9,1.3-6,1.7v-3
		c-7.7,3-15.4,5.5-23.5,8.5c-7.2,2.6-14.5,3.4-20.9-1.7c2.6-0.4,5.1-0.9,7.7-0.9V203l-16.6-5.1c0.4-3,0.9-5.1,1.3-8.5
		c-3.9,0.4-6.4,0.9-7.7,1.3c-1.3-2.6-1.3-6.4-3.9-7.7c-2.1-1.3-6.9-0.4-11.1-0.4c0-0.4,0.4-2.6,1.3-6c-13.6,6.4-29,9.4-37.6,20.9
		c-12-3.9-15.8,6.4-26.5,8.5c6.4,1.7,10.6,2.6,15.4,3.9c-0.4,0.9-0.9,1.3-0.9,2.1c-5.5-3-15,2.6-18-5.5c-13.2,7.7-26,15.4-40.6,23.9
		l11.1,5.5c-3.9,1.3-6,2.6-9,3.4c-11.1-6-22.6-12.4-34.6-19.2c0,1.7-0.4,3-0.4,4.3h-1.3c-0.9-3-1.3-6-2.1-9
		c-26.5,0.4-39.7,16.6-57.6,28.2l-3.4-3.4c-5.5,3.4-11.5,6.4-16.2,10.2c-4.3,3.9-7.2,8.5-11.1,13.2c-2.1,2.6-4.3,4.7-6.4,6.9
		c-0.9-0.4-1.7-0.9-2.1-1.3c1.3-2.1,2.6-4.3,4.3-6.9c-12.8,1.3-19.2,9.4-27.7,14.5c0.9,1.7,1.7,3,2.6,4.3
		c-8.1-1.7-14.1,1.3-20.1,4.7c-7.7,3.9-17.5,3.4-26-3c7.7,0.4,14.5,1.3,22.2,1.7c-3.9-5.1-6.4-9-9.4-13.2c1.7-1.3,3-2.1,4.3-3
		l5.1,10.2h3c3-4.3,5.5-8.1,8.5-12.4c1.7-0.9,4.3-1.3,4.7-2.6c2.1-5.1,5.1-10.6-0.4-15.8c-1.3-1.3-1.7-3.4-2.6-5.5
		c6.9,1.7,12.4,1.3,14.1-5.5c0.9,0.4,1.3,0.9,2.1,1.7c-3.4,4.3-7.2,8.5-10.6,12.8l2.6,1.3c4.3-5.1,9.4-9.8,12.8-15.4
		c1.3-2.1-0.9-5.5-1.3-8.5h-2.1c1.3-0.4,2.1-0.9,3.4-1.7c0.9-0.4,2.1-0.9,4.3-2.1c-5.5-2.1-10.6-3.9-15.8-6
		c-0.4,1.7-0.9,2.6-0.9,3.4c-3,0.4-6,0.4-10.2,0.9v-10.2c-5.5-0.4-12-0.4-18.4-0.9c-0.4,0.4-0.4,1.3-0.9,1.7c-0.4-1.7-1.3-3-1.7-5.1
		c-3,1.7-6,3-10.2,5.5c-0.9-3.4-1.3-6.4-2.1-9.8c-12-1.7-23.5-0.4-34.1,5.5c-0.9-3.9-1.3-7.2-2.1-11.1c-7.7,3-13.2,1.7-18.7-1.7
		c-4.3-2.6-8.1-3.4-10.6,1.7c-0.4,0.9-3,1.3-5.1,1.3c1.3-1.3,3-3,5.1-5.5c-3.4,0.4-5.1,0.9-6.9,1.3c-0.9-2.6-1.3-5.1-2.6-8.1
		c2.1,0.4,3.9,0.4,6.4,0.9c-1.3-3-2.6-6-5.1-11.1c-5.1,4.7-9,8.1-12.8,11.5c-0.4,0-0.9-0.4-0.9-0.4c1.7-3,3.4-6,5.1-9.4
		c-0.9,0.4-1.7,0.4-2.1,0.9l-11.5-14.1c-0.9,0-1.3,0.4-2.1,0.4c-0.4,1.7-0.9,3.4-1.7,7.7c-4.3-4.7-7.2-7.7-11.1-12.4
		c-6.4-0.9-4.7,3-3.9,6.9c-6-0.4-12-0.9-19.2-1.7c4.7-2.1,8.1-3.4,11.5-5.1c0.4,1.3,0.9,2.6,0.9,3.9h2.1v-10.6
		c-9.8,3.9-11.5,3.4-14.1-3.4c-2.1,0.4-4.7,0.4-7.2,0.9c-3-13.2-12-0.9-17.5-3c-6,11.5-9,13.2-15.8,12.4c1.7-5.5,3.4-11.1,4.7-15.4
		c4.3-5.1,8.1-9.8,12.8-13.6c7.2-6.4-1.7-11.1-2.6-17.1H2208c4.3-10.6,10.6-19.2,19.6-26.5c5.5-4.7,3.4-9.4-2.6-13.6
		c-6.4-4.7-14.1-5.5-21.7-7.7c-3.9-1.3-9-2.1-6-7.2c-2.1-0.4-3.4-0.4-5.5-0.9c0-0.4-0.4-1.3,0-1.7c3.4-4.3,6.4-9,10.2-13.2
		c4.7-4.7,3-8.5-2.1-11.1c-9.4-4.7-18-12.4-31.6-5.5c1.3-3.9,2.1-6.9,3-9.4c-0.4,0-1.3-0.4-1.7-0.4c-1.3,0.9-2.6,1.7-4.7,3
		c-3.4-5.1-8.1-8.5-15.8-8.5c-6.4,0-10.6-1.7-13.2-6c-0.4-0.9-3.9-0.9-6-0.9c-1.7-10.6-13.6-3.4-18.4-5.5
		c-9.4,9-18.4,17.5-27.7,26.9c5.1,0,8.5-0.4,11.5,0.4c0.9,0.4,0.4,3.9,0.9,5.5h-18c-0.4,0-0.9,2.1-0.9,2.1c4.7,0.9,9,1.3,13.2,2.1
		c0,0.4,0.4,0.9,0.4,1.3c-3.9,0.9-7.7,1.3-9.8,1.7c-0.4,5.5-0.9,10.2-1.3,15.8c-2.1-1.3-3.4-1.7-5.1-2.6c-1.7,1.7-3.4,3.9-5.5,6
		c-0.9-1.3-2.1-2.1-2.1-2.6c2.6-3,6-6,8.1-9c0.9-1.3-0.4-3.4-0.9-6.4c-7.2,9-13.2,17.1-20.1,24.7c-3,3-6.9,6-11.1,8.1
		c-5.5,3-9,3-15.8,0.9l7.7-2.6c0-0.4-0.4-1.3-0.4-1.7h-17.1c-1.7-3-2.6-5.1-3.9-7.2c-2.6,0.9-5.1,2.1-7.2,2.6c-1.3-2.1-2.1-6-3.9-6
		c-4.3-0.4-9,0.9-13.6,1.7c0-0.4-0.4-2.1-0.4-3.4c-4.7-0.9-23.1,20.9-24.7,29.5c-13.2,0-11.1,10.6-20.1,15.8
		c6.9-0.4,11.5-0.9,16.2-1.3c-9.4,6-14.5,6.4-18.7,2.6c-7.2,9.4-14.1,19.2-21.3,29c0.4,0.4,0.9,0.4,1.3,0.9c1.3-0.4,3.9-0.9,4.3-1.7
		c0.4-4.7,8.1-6.4,7.7-12c-0.4-3.9,12-6.9,17.1-3.9c-3.4,0.9-6.4,2.1-9.4,2.6c-4.3,0.9-6.4,2.6-4.3,6c0.4,0.9,0.9,2.6,0.9,3.4
		c-0.4,1.7-1.3,3.4-2.1,5.5c-1.3-1.3-2.6-2.6-3.9-4.3c-0.9,7.2-9,5.1-15,6.4c0.9,1.3,1.7,3,2.1,3.9c3.4-0.4,6.4-0.9,11.5-1.3
		c-3.4,3.9-5.1,5.5-6.9,7.2c-13.6-2.1-27.3-4.7-41-6.9c-0.4,0.9-0.4,1.7-0.9,3.9c-2.1-3-3.4-4.7-5.1-7.2
		c-24.3,8.1-28.6,27.3-38.8,43.6c-1.7-0.9-3-1.3-4.7-1.7c-3.4,5.1-7.7,10.2-10.2,15.4c-2.1,4.7-2.1,9.4-3,14.5
		c-0.4,3-1.3,5.5-2.1,8.5l-3-0.4c0.4-2.6,0.9-5.1,0.9-8.1c-11.1,5.1-13.6,14.5-18.7,22.2c4.7,0.9,9,2.1,14.1,3
		c-6,4.3-10.6,7.7-15.4,11.1c-0.4-0.4-0.9-0.4-1.3-0.9l9.8-9.8c-0.9-0.9-2.1-1.7-3-2.1c-4.3,3-9.4,5.1-13.2,8.5
		c-4.3,4.3-7.7,9.4-11.1,14.1c-6,7.7-13.2,14.5-23.9,18.7c-1.7,0.9-3.4,2.1-4.3,3.9c-5.1,11.1-11.1,14.5-28.2,15.4
		c-0.9-3-1.7-6-3-9.8c-3,1.7-4.7,2.6-6.9,3.9c6.9-7.7,3-13.6-3-20.1c-3.9-4.3-9-8.5-6-15c0.4-1.3-2.1-3.9-3-4.7
		c-6.4,1.7-11.1,3-15.8,4.7c-0.4-0.9-0.9-1.7-1.3-2.1c2.1-0.9,4.3-1.7,7.7-3c-0.9-2.1-0.4-6.4-2.6-7.7c-9-4.3-14.1,2.6-20.5,6
		l-1.3-1.3c3.4-2.6,6.4-5.1,9.8-8.1c-3.4,0.4-6.9,0.4-8.1,0.9c-3.9,3.4-6.4,5.5-10.2,9c-1.3-3.4-1.7-4.7-2.1-6c-3.4,0.9-6,1.3-9,2.1
		c-3.4-2.6-6.4-4.7-10.2-7.2c1.3-1.3,2.6-2.6,3.4-3.9c-0.4-0.4-0.9-0.9-1.7-1.3c-2.1,1.7-4.3,3.4-6.9,5.5c-3.9-5.1,0.4-8.5,4.3-12.8
		h-11.5c2.1-3.4,3.4-6.4,5.5-9.8c-5.5,2.6-10.6,4.7-15.8,6.9l-1.3-1.3c4.7-3.9,9.8-7.7,15-11.5c-7.7-0.9-13.2-1.7-19.2-2.6v-5.5
		c2.1,1.3,3.9,2.6,6,3c2.6,0.4,5.1,0,8.1,0c-0.4-1.7-0.4-3.9-0.9-5.5c-0.9-3.4-0.9-7.2-3-9.4c-3.4-3.9-3-9.8-11.5-11.1
		c-4.3-0.4-9-2.1-14.1-3.4c5.5-2.6,9.4-5.5,5.1-10.6c-1.7,0.9-3.9,1.7-5.5,2.6c-0.4-0.4-0.4-0.9-0.4-1.3c2.6-1.3,5.5-2.1,8.1-3.4
		c3.9,4.7,0.4,11.1,8.5,13.6c-2.1-5.5-3.4-11.5-6.4-16.6c-1.7-2.6-6.4-3.9-10.2-5.5l-1.3,1.3c0.4-2.1,0.4-4.3,0.9-6.9
		c-5.5,2.1-10.6,3.9-15.8,6c1.3,1.3,2.1,2.1,3.4,3c-2.1,0.9-3.9,1.7-6,3c1.3,0.9,2.6,1.7,3.4,2.1l-1.7,1.7c-3.4-2.1-6.9-3.9-10.2-6
		c-0.4-0.4-0.9-1.3-1.3-1.7c-4.3,3.9-8.5,7.7-13.6,12c0.4,0-1.7-0.4-4.3-1.7c-0.4,3-0.9,5.5-0.9,9c-2.1-0.4-4.3-0.9-5.5-1.7
		c-4.7-4.3-8.5-2.6-11.5,1.3c-4.7,6-8.5,12.4-12.8,18.7c-2.1-0.9-5.5-2.6-9.4-4.3c0,0.9,0.4,1.3,0.4,2.1c-5.1,2.6-10.2,5.5-15.8,7.2
		c-5.1,1.7-7.7,3-4.7,7.2c0.9,0.9,0,2.6,0,3.9h-2.1c-0.4-1.7-1.3-3.4-1.7-6.4c-1.3,1.7-2.1,3-3.4,4.3c-3-0.9-6-2.1-9.4-3.4
		c1.3-1.3,2.6-2.1,3.9-3.9c-3.9-1.3-7.7-2.1-13.6-3.9c1.3,6,2.1,10.2,3,15h-1.3c-2.1-3-3.9-5.5-6-8.5c-0.4,0.4-0.4,1.3-0.9,1.7
		c-7.2-0.9-14.5-1.3-21.7-2.1c0,0.4-0.4,0.9-0.4,1.3c1.7,1.3,3,2.6,4.7,4.3l-0.4,1.7c-5.1-0.4-10.2-0.9-17.1-1.3
		c-6,3.4,0.9,5.1,5.1,7.7c-2.1,0.9-4.3,1.7-4.7,1.7c-4.3-3-7.7-5.5-12.4-9c-1.7,9.4-4.3,10.2-12.4,7.2c-1.3,1.7-2.1,3-3.4,4.7
		c-6-2.1-10.6-3-11.5,3.9c0,1.7-2.1,3.4-3.4,5.1c7.2,9,7.7,12.4,2.1,16.6c-4.3-4.3-8.5-9-12.8-13.6c-0.4-1.7-0.9-3.9-1.7-6
		c-1.3-3.4-2.6-6.4-3.9-9.4c-1.7-4.3-4.3-7.7-11.1-6.9c-2.1,0-4.3-1.3-6.4-2.1c-4.3,3.9-8.1,7.7-13.2,12
		c-8.1-9.8-12.8-19.2-14.5-29.5c-0.9-6-7.7-7.2-15-6.9c-9.4,0.9-15,5.5-22.2,8.1c-2.6,0.9-6.4,0-9.4,0c-1.7,0-3.9,0.4-7.2,0.9
		c-1.7-4.3-4.3-9.4-6-14.1c-2.1-6-6.4-8.1-14.1-6.4c-10.2,2.6-22.2,3.4-24.7,14.5c-3-3-5.1-5.1-8.1-7.7c-1.7,8.5-7.2,5.1-12.4,4.3
		c-4.3,3-8.5,6-14.5,10.2c-2.1,0.4-8.1-4.3-11.5,2.1c-12.4-7.2-12.8,5.5-20.9,8.1c12,8.1,6,19.2,10.6,29.5c-3,0-5.5,0.4-7.7,0.4
		c0.4,0.4,0.9,0.4,0.9,0.9c-2.6,2.1-5.5,4.3-9.4,7.2c-0.9-3.4-0.9-4.7-1.3-6c-1.7,0.4-3.4,0.4-4.7,0.9c-1.7,0.4-3,0.4-4.3,0.9
		c-3-2.6-6.4-5.1-9.4-7.7c1.3-1.3,2.6-2.1,3.9-3.4c-0.4-0.4-0.9-0.9-1.7-1.3l-6.4,5.1c-0.9,0-1.3-0.4-2.1-0.4
		c1.7-3.9,3-7.7,5.1-12.4c-2.6-0.4-6-0.9-9.4-0.9c1.7-2.6,3.4-5.5,5.5-8.5c-5.5,1.7-10.6,3.9-16.2,5.5l-1.3-1.3
		c5.1-3.4,10.2-6.9,16.2-10.6c-7.7-1.3-13.2-2.6-19.2-3.4v-5.5c1.3,0.4,1.7,0.9,2.6,0.9c3.9,0.9,7.2,1.7,11.1,3
		c-0.4-2.6-0.9-5.5-1.3-8.1c-0.4-1.7-1.7-3.4-2.6-5.1c0-2.1,0-4.3-0.4-6.4c-1.7-8.5-12.8-7.7-20.5-11.5c4.7-2.6,9.4-5.1,4.7-10.2
		c-2.1,0.9-3.9,1.7-5.5,2.6c-0.4-0.4-0.4-0.9-0.9-1.3c3-0.9,6-1.7,9.4-2.6c3.4,5.1-0.4,11.1,7.2,14.1c-1.7-6.4-3-12.4-6-18.4
		c-0.9-2.1-6-3-9.8-4.7c0-0.9,0.4-2.6,0.9-5.1c-5.5,1.7-10.6,3-16.2,4.7c1.3,1.3,2.6,2.1,3,2.6l-6,6c-1.7-0.9-5.1-3-8.5-5.1
		c-0.4-0.9-0.4-1.3-0.9-2.1c-4.7,3.4-9,6.9-13.2,10.2l1.3,1.3c-1.7-0.9-3.9-1.3-6.4-2.1c-0.4,3-1.3,5.5-1.7,8.5
		c-1.7-0.4-3-0.4-3.9-0.9c-5.5-6.4-10.6-3.4-14.5,1.3c-4.7,5.1-8.1,11.1-12.4,16.6c-2.6-1.3-6-3-10.2-5.5c-2.1,6.9-8.5,9-15.8,9.8
		c-5.5,0.4-6.9,3-4.7,6.9c0.4,1.3,0,2.6-0.4,4.3h-2.1c-0.4-1.7-0.9-3.4-1.3-6.4c-1.7,1.7-2.6,3-3.4,4.3c-3-1.3-5.5-2.1-9.4-3.9
		c1.7-0.9,3-1.7,5.1-3c-3.9-1.3-7.2-2.6-10.6-3.9c-9,3.9,1.7,9.4-2.6,14.5c-2.1-3.4-3.9-6.4-5.5-9.4c-0.4,0.4-0.9,1.3-0.9,1.7
		c-7.2-1.3-14.1-2.1-21.3-3.4c-0.4,0.4-0.4,0.9-0.9,1.7l4.3,4.3c0,0.4-0.4,1.3-0.4,1.7c-5.1-0.9-10.2-1.3-16.6-2.1
		c-6,3,0.4,5.1,4.3,8.1c-3,0.9-4.7,1.3-5.1,1.3c-3.9-3.4-7.2-6-11.5-9.8c-3,9.4-4.7,9.8-13.2,6.9c-1.3,1.3-2.6,2.6-3.9,4.3
		c-13.6-6.4-9.8,6-15.4,8.1c6.9,10.2,6.4,13.6-0.4,18c-1.3-3-2.1-6-3.9-8.5c-2.1-2.6-5.5-3.9-6.4-6.4c0-2.1,0-3.9-0.4-6
		c-0.9-3.9-2.6-7.7-3.9-11.5s-3.9-6.4-9.4-6.4c-2.6,0-4.7-1.7-6.9-2.1c-4.3,3.4-8.5,6.9-14.1,11.1c-7.2-9.8-11.1-19.2-11.5-28.6
		c-0.4-7.2-6.9-10.6-15.8-8.1c-0.4,0-1.7,0-2.1-0.4v23.8c-0.4-7.7-0.9-12.8-1.3-13.6c-4.7,5.1-13.2,6.9-12.4,14.5
		c0.4,5.1-2.6,10.2-4.3,15.4c-5.5-1.3-9.4-2.6-14.1-3.4c0.4,2.6,0.9,4.7,1.3,6.4h-1.7c-3.9-7.7-10.6-9.4-20.9-8.5
		c-7.2,0.4-15,1.3-20.9-4.3c-1.3-1.3-5.5-0.4-6.9-0.4c-1.3,4.7-2.1,8.5-3.4,12.4c-0.9,0-2.1,0-3-0.4c0-2.1,0.4-3.9,0.4-6.9
		c-3-0.9-7.7-3-10.2-2.1c-9,3.4-3.9,10.2-4.3,15.4l-2.1,0.4c-0.9-3.4-2.1-6.4-3.4-10.2c-1.7,2.6-3,5.1-4.7,7.2
		c0.4,0,0.9-0.4,1.7-0.4c1.3,3,2.1,6,3.9,10.2c-4.3-1.3-6-1.7-7.7-2.1c-2.6,9.8-9.8,9.8-20.5,6.4c0.9,1.7,1.7,3.9,3,6
		c-0.4,0.4-1.3,0.9-1.7,1.3c-3.9-3-7.2-6-11.5-9.4c-1.7,1.7-3.4,4.3-5.1,6.4c-2.1-2.6-4.3-5.1-7.7-9v7.2c0,2.6-0.9,4.7-1.3,7.2h-1.7
		c-1.3-5.1-3-10.2-4.7-15.8c-5.1,4.3-9,7.7-13.6,11.5c-1.7-0.9-3.9-1.7-5.1-2.6c3.9-2.1,7.2-4.7,11.5-6.9c-5.5-5.1-11.5-3.4-17.1-3
		c-4.7-5.5-16.6-6-21.3-0.9c-2.1-1.3-3.9-3.4-6.4-4.3c-3.9-1.3-7.7-2.1-11.5-3c-6.4-1.7-12.4-1.7-15,4.7c-2.1-1.3-4.3-2.6-6.9-3.9
		c-2.1,3.9,0.9,9.8-7.2,9.8c-0.9-3-2.1-6-3-9.4c-2.6,1.3-4.3,2.1-4.7,2.1c-5.1-1.7-9-3-14.1-4.3c0,2.6,0.4,3.4,0.4,5.1
		c-15.4-1.3-27.3,4.3-41.4,9c-6.4-3-9.8,4.3-15,6c-15-3.4-15.8-14.1-20.9-22.6c-2.1-3.9-7.7-6.4-12.4-8.5c-2.6-1.3-6.9,0-9.8,0.9
		c-0.9,0.4,0.4,4.3,0.4,6.9c-0.4,0-1.7,0.4-2.1,0c-6.9-3.9-14.1-3-20.9-0.4c-7.2,2.6-13.6,6.4-20.5,9.4
		c-13.2,5.1-36.2,19.6-50.8,11.1c-0.9-0.4-2.1-1.3-3-2.1v0.9c-2.1-3-3.4-4.7-3.9-5.1v-0.4c-1.3-1.7-2.6-3.9-3.9-5.5
		c-3.9,0.4-7.2,0.4-10.2,0.9c0-0.4-0.4-1.3-0.4-1.7l9-1.3c-1.7-1.7-3.4-3.4-6-4.3c-3.9-1.3-9.8,3-14.5,1.7
		c-5.1-1.3-8.1-8.5-12.8-11.1c-6.4-3.4-17.5-0.4-22.2-3.4c-3.9-2.6-4.3-9.4-7.2-11.1c-6-4.3-3-4.7-12-7.2c-10.2-2.6-27.3,2.1-38,3
		v1.3c1.7,0.9,4.3,1.7,5.1,3c0.9,1.3,0,3.4,0,4.7c-2.1,0-4.7,0.4-6-0.4c-3.4-2.1-6-5.1-9.4-7.2c-0.4-0.4-2.1,0.4-2.6,0.4
		c2.6,3.4,4.7,6.4,7.2,9.4l-0.9,0.9l-8.5-4.3c-5.5,3.4-10.2,6.9-15.8,10.2c-0.4-1.7-0.4-3-0.9-4.7c-3,0.4-6,0.4-9.4,0.9
		c0-0.4-0.4-1.3-0.4-1.7c5.1-1.3,10.6-2.1,15.8-3.4c0.4,0.4,0.4,0.9,0.9,1.3c0.9-1.7,1.3-3.4,2.6-5.5c-12,2.1-23.1,4.7-34.1,6
		c-6.4,0.9-13.2,0-19.6-0.9c-3.4-0.9-6.4-3.9-8.5-6.9c2.6,0.4,4.7,1.3,7.2,1.7c0.4-0.4,0.9-1.3,1.3-1.7c-5.1-3-10.2-5.5-15-8.5
		c0.9-0.4,1.7-1.3,2.6-1.7c1.7-2.1,3.4-3.9,6-6.9c-4.3-0.4-7.2-0.9-9.8-1.3c1.3-2.1,4.7-6,3.4-6.9c-2.6-2.6-7.2-3.4-11.5-5.5
		l4.3-4.3c-16.2,1.3-31.6,0-45.2,7.7c-9-6.9-17.5,1.3-29,0c5.1,3.4,9,6,12.4,8.1c-15-2.6-16.2-3.9-15.4-9c-7.7,1.3-12,3-19.6,4.3
		 M521.3,282.3c-6.9,3-12.4,7.2-18.4,11.1c-1.3,0.9-2.6,1.7-3.4,1.7c-9,0-17.1,1.3-25.2,3.4h-15c26.9-8.5,53.8-17.1,81-25.6
		c2.6-0.9,5.5-0.9,8.5-1.7c0,0.4,0.4,1.3,0.4,1.7C539.6,276,529.9,278.5,521.3,282.3z M4489.7,190.2c0.4-1.7,0-5.5,1.7-6
		c5.1-1.7,10.6-1.7,15.8-2.1c0.4,0,0.9,3,1.3,3.9C4502.1,187.2,4496.5,188.5,4489.7,190.2z M4880.6,282.3c-6.9,3-12.4,7.2-18.3,11.1
		c-1.3,0.9-2.6,1.7-3.4,1.7c-9,0-17.1,1.3-25.2,3.4h-15c26.9-8.5,53.8-17.1,81-25.6c2.6-0.9,5.5-0.9,8.5-1.7c0,0.4,0.4,1.3,0.4,1.7
		C4898.9,276,4889.5,278.5,4880.6,282.3L4880.6,282.3z M4941.1,209.8h17.1c-3,0.9-5.5,2.1-8.5,3c4.7,3.9,9.4,7.7,13.6,11.1
		C4952.2,224.3,4952.2,224.3,4941.1,209.8L4941.1,209.8z M5057.6,203.4c-8.1-7.2-8.1-7.7-2.1-10.6c1.3,2.1,2.6,4.7,4.7,8.1
		C5060.2,201.2,5058.9,202.1,5057.6,203.4z M6052.2,152.6h17.1c-3,0.9-5.5,2.1-8.5,3c4.7,3.9,9.4,7.7,13.6,11.1
		C6063.3,167.1,6063.3,167.1,6052.2,152.6z M6167,147.9c-8.1-7.2-8.1-7.7-2.1-10.6c1.3,2.1,2.6,4.7,4.7,8.1
		C6169.5,145.8,6168.2,146.6,6167,147.9z M6204.5,145.8c-0.9-1.7-1.7-3.9-2.6-6c-3.9-0.4-6.9-1.7-9.4-3.4
		C6204,135.1,6207.5,137.7,6204.5,145.8L6204.5,145.8z M6221.1,145.4h-10.2c-3.4-5.5-3.4-6.4,4.3-6.4c-1.7,0.9-2.6,1.7-3,2.6
		c3.4,0.9,6.4,1.7,9.4,2.6C6221.5,144.5,6221.1,144.9,6221.1,145.4L6221.1,145.4z M6494.2,185.1c-6.4-2.1-12.4-3.9-18-6
		c0-0.4,0.4-0.9,0.4-1.3c5.5,0.9,11.1,1.7,17.5,2.6L6494.2,185.1L6494.2,185.1z M6631.6,189.3c-2.6-0.9-4.7-1.7-9-3.9
		c6-0.9,9.8-1.7,14.1-2.6c0.4,0.4,0.4,0.9,0.9,1.3C6635.4,186.3,6633.7,187.6,6631.6,189.3z M6908.9,103.1v-0.9
		c5.5-0.4,10.6-1.3,18-2.1c0,0,0.9,1.7,1.3,3H6908.9z M6987.8,97.2c3.9-1.7,8.1-3.4,15-6c-1.3,4.3-1.3,8.5-3,9
		c-3.4,0.9-8.1,0-12-0.4V97.2z M7010.5,111.7c-6.9-0.9-12.4-2.1-17.5-3v-2.1c5.5-1.7,11.1-3,17.5-4.7V111.7z M7052.7,114.2
		c-3-3.9-4.7-5.5-5.1-6.4c1.7-3,2.6-5.1,4.3-8.1c-8.5,0.4-15.4,0.9-21.7,1.3c0-0.9-0.4-1.7-0.4-2.1c8.5-1.3,16.6-2.6,26.5-3.9
		C7054.8,102.3,7054,107.4,7052.7,114.2L7052.7,114.2z M7090.3,100.6h0.4H7090.3z M7090.3,100.6c-2.5-0.9-4.7-1.7-6.4-2.1
		c-1.3-0.9-2.5-1.3-3.9-1.3c-0.4-0.9-1.3-1.7-1.7-2.1c4.3-0.9,9.8,0.4,12.8,4.3C7090.7,99.7,7090.7,100.2,7090.3,100.6z
		 M7208.9,134.7c0.4-1.7,0-5.5,1.7-6c5.1-1.7,10.6-1.7,15.8-2.1c0.4,0,0.9,3,1.3,3.9C7220.8,131.7,7215.3,133,7208.9,134.7z
		 M7599.7,226.9c-6.9,3-12.4,7.2-18.4,11.1c-1.3,0.9-2.5,1.7-3.4,1.7c-21.3,0-38.8,7.7-56.8,15c-14.5,5.5-28.6,12.4-45.7,13.2
		l-1.3-1.3c6.4-2.6,12.8-5.1,19.2-8.1l1.3,1.3c0.4-2.1,0.9-3.9,0.9-5.1c3.4-0.4,6,0,8.5-0.9c38-12,75.9-23.9,114.4-36.2
		c2.5-0.9,5.5-0.9,8.5-1.7c0,0.4,0.4,1.3,0.4,1.7C7618,220.4,7608.3,223,7599.7,226.9L7599.7,226.9z M7662.8,153h17.1
		c-3,0.9-5.5,2.1-8.5,3c4.7,3.9,9.4,7.7,13.6,11.1C7673.9,167.5,7673.9,167.5,7662.8,153z M7776.8,147.9c-8.1-7.2-8.1-7.7-2.1-10.6
		c1.3,2.1,2.6,4.7,4.7,8.1C7779.3,145.8,7778.1,146.6,7776.8,147.9z M7831.4,144.1h-10.2c-3.4-6-3.4-6.4,5.5-6.4
		c-2.1,1.3-3,2.1-3.9,3c3.4,0.9,6.4,1.7,9.4,2.6C7831.4,143.2,7831.4,143.6,7831.4,144.1z M8106.5,117.2c-1.7-0.4-5.1-0.4-5.5-1.3
		c-1.7-2.6-2.5-6-3.4-9c0.9-0.4,2.1-0.9,3-0.9c2.5,2.1,5.5,4.3,7.2,6.4C8108.3,113.3,8107,115.5,8106.5,117.2L8106.5,117.2z"/>
</g>
</svg>
