<?xml version="1.0" encoding="UTF-8"?>
<svg id="Layer_1" data-name="Layer 1" xmlns="http://www.w3.org/2000/svg" viewBox="0 0 128 128">
  <defs>
    <style>
      .cls-1 {
        fill: #951b81;
      }

      .cls-1, .cls-2, .cls-3, .cls-4 {
        stroke-width: 0px;
      }

      .cls-2 {
        fill: #a3195b;
      }

      .cls-3 {
        fill: #fff;
      }

      .cls-4 {
        fill: #d60b52;
      }
    </style>
  </defs>
  <path class="cls-4" d="m7.19,106.87c7.58-2.65,15.5-2.86,23.39-3.02,4.8-.1,9.6.05,14.4.26,27.1,1.16,48.26-9.8,63.99-31.54,3.75-5.18,6.73-10.92,10.11-16.37.41-.67,1.14-1.14,1.72-1.71v3.55c-3.12,5.16-5.91,10.56-9.43,15.43-5.71,7.89-12.94,14.38-20.51,20.48-.66.53-1.19,1.22-1.93,2,.6.14.75.21.87.19.21-.05.41-.15.61-.25,11.38-6.08,21.33-13.8,28.47-24.76.43-.65,1.27-1.03,1.92-1.54v17.31c-1.3,2.11-2.35,4.43-3.94,6.3-9.37,11.02-20.5,19.87-33.34,26.55h-24.41c-.63-1.1-.13-1.56.95-1.85,1.85-.5,3.66-1.12,5.5-1.65,9.48-2.7,18.65-6.08,26.69-11.97.48-.35.9-.77,1.35-1.16-.94-.25-1.62-.08-2.27.17-10.54,3.97-21.45,6.43-32.57,8-5.33.75-10.7,1.2-16.05,1.84-6.07.73-11.17,3.91-16.45,6.62h-3.55c4.36-2.44,8.73-4.87,12.68-7.08-.49,0-1.58-.11-2.65.02-7.93.91-15.67,2.57-23.11,5.55-.73.29-1.63.13-2.46.18v-11.54Z"/>
  <path class="cls-2" d="m121.8,24.99c-1.01.74-1.93,1.68-3.04,2.19-7.58,3.45-15.71,4.49-23.9,4.94-37.97,2.09-66.75,19.51-86.81,51.67-.43.69-1.22,1.14-1.85,1.71,0-1.81,0-3.61,0-5.42,1.39-2.29,2.58-4.74,4.23-6.82,2.42-3.05,5.05-5.97,7.82-8.72,9.18-9.11,19.73-16.43,30.79-23.04.74-.44,1.38-1.06,2.07-1.6-.11-.22-.22-.44-.33-.67-.76.1-1.56.08-2.28.31-2.21.71-4.44,1.41-6.58,2.32-13.51,5.76-24.37,14.95-33.69,26.14-.48.58-1.34.84-2.02,1.24,0-3.91,0-7.83,0-11.74,1.36-2.01,2.32-4.53,4.14-5.96,11.63-9.16,24.5-16.21,38.92-19.69,11.59-2.79,23.4-4.68,35.14-6.78,12.8-2.3,24.94-6.09,35.36-14.26.54-.42,1.35-.49,2.03-.72v14.9Z"/>
  <path class="cls-1" d="m122.8,35.09c-11.34,2.17-22.68,4.4-34.03,6.54-2.18.42-4.41.54-6.62.8-.08-.36-.16-.71-.24-1.07,6.28-3.61,13.55-4.56,21-6.87-13.84-1.71-50.18,10.7-65.81,22.22-14.9,11-26.03,25.07-34.18,42.12,1.25,0,2.03.16,2.71-.03,6.93-1.85,13.76-.96,20.62.47,10.77,2.25,21.57,3.94,32.63,2.17,15.08-2.41,27.8-8.81,37.06-21.34,5.12-6.92,8.08-14.85,11.17-22.75,3.52-8.99,8.4-16.91,17.7-21.07.18-.08.26-.4.74-1.21-1.18,0-1.99-.12-2.75.02Zm-85.12,57.74c-5.13-1.57-10.26-3.12-15.34-4.83-1.77-.59-2.47-2.13-1.22-3.65,3.51-4.25,7.2-8.34,10.81-12.5.34.16.68.31,1.01.46-2.25,8.16-1.06,15.2,7.09,20.54-1.33,0-1.88.13-2.35-.02Zm32-9.41c-4.67,7.62-15.35,11.32-23.7,8.19-5.14-1.93-8.89-7.03-8.66-12.55.03-1.94.37-5.58,2.54-9.42,1.3-2.3,2.84-3.92,4.03-4.98.43-.32,1.03-.73,1.77-1.15,4.39-2.49,13.22-4.5,20.5.2,7.48,4.82,6.68,14.57,3.52,19.71Zm28.38-33.43c-2.04,12.02-6.31,22.92-15.75,31.2-.41.36-.96.56-2.06,1.16,2.19-16-6.46-22.9-20.41-25.52.08-.24.16-.47.24-.7.7-.33,1.37-.74,2.1-.99,10.9-3.76,22.21-5.63,33.58-7.18,1.58-.22,2.61.21,2.3,2.03Z"/>
  <path class="cls-3" d="m66.73,82.12c-3.75,6.12-12.34,9.1-19.05,6.58-4.13-1.55-7.14-5.65-6.96-10.09.02-1.56.3-4.48,2.04-7.57,1.04-1.85,2.28-3.15,3.24-4,.35-.26.83-.59,1.42-.92,3.53-2,10.62-3.62,16.47.16,6.01,3.87,5.37,11.71,2.83,15.84Z"/>
</svg>