<?xml version="1.0" encoding="UTF-8"?>
<svg id="Layer_1" data-name="Layer 1" xmlns="http://www.w3.org/2000/svg" viewBox="0 0 128 128">
  <defs>
    <style>
      .cls-1 {
        fill: #d6ba8a;
        stroke-width: 0px;
      }
    </style>
  </defs>
  <path class="cls-1" d="m76.38,94.24c.06-1.41.15-2.82.19-4.22.06-2.1-.65-3.93-2.14-5.41-10.34-10.33-20.69-20.66-31.03-30.99-1.65-1.65-3.67-2.31-5.99-2.17-2.62.17-5.25.3-7.87.42-2.11.1-3.94-.59-5.44-2.07-2.37-2.34-4.74-4.68-7.07-7.06-1.37-1.4-2.08-3.11-2.01-5.1.08-2.31.13-4.62.35-6.92.06-.62.59-1.48,1.12-1.68.52-.2,1.48.1,1.95.52,1.64,1.46,3.13,3.07,4.7,4.61,3.26,3.19,8.1,3.26,11.18.17,3.09-3.09,3.02-7.89-.17-11.16-1.51-1.54-3.11-2.99-4.54-4.6-.44-.5-.71-1.39-.63-2.05.11-.87.98-1.11,1.83-1.14,2.16-.09,4.31-.18,6.47-.3,2.21-.11,4.08.62,5.64,2.17,2.28,2.26,4.56,4.53,6.82,6.81,1.55,1.56,2.26,3.44,2.14,5.64-.14,2.58-.25,5.16-.41,7.74-.15,2.37.57,4.38,2.25,6.07,10.29,10.27,20.58,20.54,30.87,30.81,1.68,1.68,3.72,2.37,6.09,2.21,2.54-.17,5.09-.26,7.64-.4,2.29-.13,4.23.63,5.84,2.25,2.19,2.19,4.38,4.38,6.58,6.56,1.62,1.61,2.42,3.52,2.3,5.81-.12,2.15-.2,4.3-.3,6.45-.04.84-.31,1.69-1.19,1.79-.63.07-1.49-.18-1.96-.6-1.63-1.46-3.13-3.08-4.69-4.61-3.24-3.18-8.08-3.21-11.17-.11-3.04,3.06-2.99,7.84.16,11.07,1.5,1.54,3.04,3.06,4.57,4.57.62.62,1.18,1.39.63,2.16-.39.54-1.21,1-1.88,1.07-2.14.22-4.31.24-6.46.34-2.21.11-4.07-.66-5.62-2.21-2.25-2.24-4.5-4.48-6.74-6.73-1.62-1.62-2.33-3.57-2.18-5.85.09-1.29.13-2.58.19-3.87.01,0,.03,0,.04,0Zm-7.17,25.26c2.16-.01,3.1-.79,3.46-2.87.44-2.58.83-5.18,1.3-7.75.25-1.35.03-2.57-.66-3.72-1.22-2.03-1.87-4.2-1.83-6.58.02-1.28-.39-1.56-1.68-1.42-1.67.19-3.35.42-5.03.48-15.18.51-29.19-9.81-33.23-24.44-1.34-4.87-1.63-9.78-.79-14.77.23-1.38-.04-1.85-1.2-1.84-2.5.02-4.75-.71-6.94-1.9-.9-.49-2.12-.73-3.14-.62-2.76.3-5.5.84-8.24,1.32-2.05.36-2.81,1.3-2.82,3.38,0,3.41,0,6.81,0,10.22,0,2.48.78,3.31,3.27,3.71,3.6.58,7.18,1.24,10.78,1.81.66.1.86.41,1.09.98,1.18,2.97,2.39,5.94,3.67,8.87.28.65.34,1.07-.1,1.67-2.19,3.01-4.33,6.05-6.48,9.09-1.25,1.77-1.16,2.95.36,4.47,2.43,2.44,4.87,4.88,7.32,7.31,1.58,1.57,2.75,1.66,4.57.37,3.01-2.12,6.03-4.24,9.01-6.4.64-.47,1.08-.41,1.78-.1,2.9,1.27,5.83,2.47,8.78,3.62.63.24.94.47,1.05,1.16.57,3.63,1.21,7.25,1.82,10.88.38,2.28,1.28,3.07,3.52,3.08,1.73,0,3.45,0,5.18,0,1.73,0,3.45,0,5.18,0Zm50.39-60.46c0-2.49-.74-3.31-3.24-3.73-3.59-.6-7.18-1.25-10.78-1.82-.65-.1-.88-.37-1.11-.95-1.17-2.98-2.37-5.94-3.67-8.87-.32-.72-.3-1.16.15-1.78,2.14-2.94,4.24-5.92,6.35-8.89,1.34-1.89,1.25-3.04-.36-4.66-2.41-2.42-4.82-4.82-7.24-7.23-1.58-1.57-2.76-1.66-4.57-.38-3.04,2.15-6.08,4.29-9.1,6.47-.51.37-.88.39-1.47.14-3.01-1.3-6.06-2.5-9.08-3.8-.37-.16-.81-.61-.88-.99-.67-3.61-1.28-7.24-1.88-10.87-.4-2.42-1.24-3.19-3.65-3.19-3.37,0-6.75,0-10.12,0-2.36,0-3.24.77-3.62,3.1-.37,2.24-.73,4.48-1.15,6.71-.31,1.63-.32,3.17.59,4.64,1.23,1.97,1.81,4.13,1.79,6.47-.02,1.29.39,1.57,1.67,1.43,1.63-.19,3.27-.41,4.91-.48,14.31-.57,27.93,8.72,32.63,22.19,1.95,5.59,2.48,11.28,1.49,17.11-.23,1.33.08,1.78,1.3,1.76,2.47-.03,4.68.69,6.82,1.88.84.47,1.97.78,2.91.66,2.95-.35,5.88-.9,8.81-1.44,1.71-.32,2.48-1.3,2.5-3.03.02-1.84,0-3.68,0-5.52,0-1.64,0-3.29,0-4.93Zm-50.09,33.42c1.11-.14,1.9-.75,2.25-1.81.35-1.06.08-2.01-.7-2.8-.82-.84-1.67-1.65-2.49-2.5-1.07-1.11-2.36-1.53-3.9-1.6-1.94-.1-3.94-.18-5.81-.67-8.84-2.32-14.74-10.18-14.65-19.33.01-1.46-.2-2.82-1.24-3.91-.94-.99-1.9-1.98-2.91-2.9-1.73-1.57-4.25-.78-4.51,1.54-.32,2.86-.69,5.8-.38,8.63,1.6,14.82,13.83,25.73,28.75,26.01,1.86-.22,3.73-.43,5.59-.66Zm-11-56.91c-1.11.14-1.89.74-2.24,1.81-.35,1.06-.07,2.01.71,2.8.77.78,1.58,1.53,2.32,2.33,1.17,1.27,2.6,1.65,4.3,1.78,2.4.19,4.88.4,7.13,1.16,8.03,2.73,13.18,10.27,13.08,18.82-.02,1.85.51,3.35,1.9,4.59.76.68,1.45,1.43,2.17,2.15.79.79,1.74,1.07,2.8.74,1.07-.33,1.64-1.11,1.85-2.21.67-3.46.74-6.93.13-10.38-2.46-14.02-14.23-23.94-28.56-24.26-1.86.22-3.73.43-5.59.66Z"/>
</svg>