<?xml version="1.0" encoding="UTF-8"?>
<svg id="Layer_1" data-name="Layer 1" xmlns="http://www.w3.org/2000/svg" viewBox="0 0 128 128">
  <defs>
    <style>
      .cls-1 {
        fill: #4ba34b;
        stroke-width: 0px;
      }
    </style>
  </defs>
  <path class="cls-1" d="m92.68,16.51c5.27,0,10.54,0,15.81,0,.35,0,.74-.1,1.03.03.63.28,1.35.55,1.77,1.05.54.66.23,1.44-.26,2.1-1.93,2.58-3.89,5.14-5.76,7.77-6.97,9.75-13.96,19.5-20.84,29.31-3.06,4.37-4.67,9.27-4.28,14.68.24,3.22,1.37,6.21,2.64,9.14,2.47,5.7,5.85,10.84,9.72,15.67,1.72,2.15,4.09,3.12,6.78,3.41,1.14.12,2.28.22,3.41.39,3.56.51,6.16,2.35,7.69,5.63,1.24,2.66-.24,5.07-3.18,5.08-6.07.03-12.14,0-18.21,0-3.16,0-6.31-.04-9.47,0-2.95.04-5.37-1.01-7.15-3.35-1.43-1.87-2.81-3.79-4.07-5.77-1.7-2.67-3.61-5.16-5.84-7.41-2.53-2.55-5.76-3.78-9.01-4.99-2.2-.82-4.43-1.59-6.6-2.5-4.94-2.06-8.33-5.57-9.49-10.9-1.46-6.71,2.27-13.4,8.67-15.77,1.4-.52,2.77-1.08,4.17-1.59,3.06-1.12,5.19-3.2,6.58-6.13,3.94-8.32,7.92-16.63,11.88-24.94,1.39-2.91,2.81-5.8,4.15-8.72.71-1.56,1.86-2.21,3.53-2.2,5.44.02,10.89,0,16.33,0ZM22.47,75.42c1.76,9.89,9.02,15.87,17.85,18.2,1.52.4,2.78-.91,2.23-2.25-.2-.48-.66-.87-1.06-1.23-2.08-1.88-4.33-3.6-6.23-5.64-5.9-6.36-6.41-15.92-1.38-23,2.8-3.94,6.52-6.86,10.47-9.54,3.69-2.5,6.78-5.62,9.09-9.44,3.29-5.42,5.6-11.27,7.56-17.28.52-1.61.99-3.24,1.43-4.88.29-1.11-.15-1.95-1.09-2.28-.9-.32-1.68.03-2.23,1-.15.27-.28.56-.43.83-2.69,4.88-5.34,9.79-8.09,14.63-2.84,4.98-6.72,8.93-11.77,11.75-3.22,1.8-6.09,4.11-8.68,6.75-4.98,5.07-7.93,11.04-8.14,18.27.16,1.37.24,2.76.48,4.12Zm22.4,30.3c-3.4-5.3-8.08-9.05-13.9-11.43-1.28-.52-2.57-1.04-3.79-1.69-3.1-1.68-5.67-3.95-7.5-7.01-.62-1.05-1.55-1.35-2.44-.89-.89.46-1.19,1.41-.72,2.5.31.73.68,1.44,1.09,2.12,2.57,4.33,6.28,7.41,10.72,9.7,4.24,2.19,7.54,5.36,9.84,9.55.25.45.45.94.74,1.37.88,1.36,2.56,1.96,4.1,1.5,1.54-.46,2.59-1.89,2.76-3.57-.3-.72-.49-1.51-.91-2.15ZM18.77,41.59c5.41-.73,10.18-2.8,14.08-6.71,3.66-3.67,5.62-8.26,7.11-13.1.36-1.15.66-2.34.83-3.53.21-1.49-1.21-2.56-2.45-1.87-.46.26-.82.82-1.07,1.32-1.42,2.92-2.67,5.94-4.21,8.8-2.48,4.61-6.21,7.94-11.02,10.01-1.43.61-2.91,1.11-4.36,1.68-.88.35-1.31,1.01-1.18,1.96.12.89.89,1.47,1.86,1.47.14,0,.28,0,.41-.03Zm-.03,15.89c1.04.31,2.06-.12,2.66-1.09.63-1.03,1.24-2.08,1.94-3.06,1.71-2.4,4.02-4.17,6.38-5.88,1.1-.8,1.41-1.64,1.01-2.54-.41-.89-1.28-1.21-2.58-.83-5.19,1.53-8.71,4.91-10.77,9.86-.17.41-.24.86-.3,1.07-.01,1.3.62,2.16,1.66,2.47Zm30.92-39.31c-.9-.3-1.67.02-2.15.82-2.59,4.38-5.17,8.77-7.73,13.17-.46.79-.27,1.57.41,2.16.72.63,1.52.59,2.29.04.28-.2.53-.45.77-.7,3.37-3.38,5.62-7.44,7.14-11.93.2-.59.34-1.19.45-1.58.02-1.1-.37-1.72-1.18-1.99ZM17.35,101.65c-.24.87.11,1.51.86,2.03,1.97,1.35,3.91,2.74,5.84,4.14,1.4,1.01,2.76,2.09,4.17,3.1.76.54,1.58.55,2.3-.07.76-.65.86-1.47.43-2.35-2.4-4.88-6.36-7.52-11.31-8.16-1.33.02-2.05.39-2.3,1.31Zm45.51,6.36c-1.93-3.16-4.67-5.44-7.94-7.1-1.22-.62-2.4-.25-2.93.81-.56,1.13-.08,2.23,1.18,2.89,1.13.59,2.34,1.12,3.29,1.94,1.33,1.13,2.48,2.47,3.65,3.78.6.67,1.3,1.07,2.09.66.56-.29.93-.95,1.36-1.43-.31-.7-.46-1.16-.71-1.56Zm-29.43-67.75c0,.95.76,1.75,1.68,1.77.94.02,1.73-.72,1.78-1.66.05-1.01-.68-1.83-1.67-1.86-.98-.03-1.79.77-1.8,1.76Zm14.46,54.5c-.92-.04-1.75.72-1.82,1.65-.07.92.67,1.77,1.6,1.84,1.03.08,1.85-.62,1.9-1.62.05-.99-.71-1.83-1.69-1.87Z"/>
</svg>