<?xml version="1.0" encoding="UTF-8"?>
<svg id="Layer_1" data-name="Layer 1" xmlns="http://www.w3.org/2000/svg" viewBox="0 0 128 128">
  <defs>
    <style>
      .cls-1 {
        fill: #e5a1db;
        stroke-width: 0px;
      }
    </style>
  </defs>
  <path class="cls-1" d="m9.65,92.17c5.84-2,11.59-2.66,17.4-2.04,7.63.82,15.22,2.12,22.85,2.95,8.18.88,16.37.88,24.45-1.03.63-.15,1.26-.35,1.88-.54.2-.06.38-.19.58-.28-.05-.27-.1-.54-.14-.81-.97,0-1.93-.02-2.9,0-10.4.27-20.74-.3-30.88-2.81-4.84-1.2-4.83-1.24-2.54-5.51,2.77-5.16.69-9.58-5.13-10.56-1.84-.31-3.04-1.18-4.07-2.57-2.14-2.91-3.12-6.22-3.19-9.77-.13-7.29,2.56-13.52,7.51-18.95-5.93,13.69-2.88,25.16,8.51,34.93,1.36-2.15,2.75-4.23,4.02-6.38,1.74-2.93,4.01-5.23,7.51-5.73,1.28-.18,3.01-.18,3.93.53,6.31,4.85,13.78,6.69,21.29,8.3,4.05.86,6.71,2.91,7.91,6.82.7,2.28,1.42,4.57,1.91,6.9.68,3.2,1.51,3.99,4.68,4.39,6.89.88,13.78,1.84,20.66,2.79.66.09,1.28.4,2.47.79-1.06.48-1.54.74-2.05.92-10.3,3.66-20.66,7.16-30.88,11.02-10.85,4.09-21.73,4.75-32.77,1.13-14.04-4.59-28.05-9.27-42.07-13.92-.2-.07-.36-.22-.93-.58Zm78.91-42.56c2.8-.67,5.61-1.48,8.23-2.66,3.48-1.57,5.08-4.57,5.17-8.39.17-6.88-3.25-11.74-8.83-15.21-12.1-7.52-30.11-5.1-39.87,5.28-3.14,3.34-5.46,7.2-6.97,11.53.51-.33.88-.76,1.23-1.2,6.93-8.9,15.93-13.22,27.27-12.31,4.62.37,9.04,1.41,12.59,4.69,5,4.63,4.56,11.14-1.07,14.97-1.42.96-3.14,1.46-4.66,2.29-2.14,1.17-4.23,2.45-6.46,3.75,4.7-.95,9.07-1.71,13.38-2.74Zm-53.14.35c-.41,6.37,2.45,15.98,5.62,18.09.45-1.99.61-4.15,1.42-6.03,1.2-2.78,1.28-5.49.47-8.27-2.04-7.05-.65-13.53,3.33-19.48,2.12-3.18,4.65-6.08,7.02-9.14-7.99,3.57-17.04,12.28-17.86,24.84Z"/>
</svg>