<?xml version="1.0" encoding="UTF-8"?>
<svg id="Layer_1" data-name="Layer 1" xmlns="http://www.w3.org/2000/svg" viewBox="0 0 128 128">
  <defs>
    <style>
      .cls-1 {
        fill: #825a9e;
        stroke-width: 0px;
      }
    </style>
  </defs>
  <path class="cls-1" d="m95.98,52.38c-8.19-7.5-18.02-10.87-29.09-11.07-10.93-.19-20.71,3.58-29.92,9.24-.08-.19-.16-.37-.25-.56.7-.48,1.37-1,2.09-1.43,18.95-11.28,37.7-10.74,56.25.98,1.16.73,2.36,1.42,3.41,2.29,2.44,2.02,5.22,2.6,8.28,2.3.46-.05.92-.06,1.56.31-3.44,2-6.8,4.18-10.38,5.88-.95.45-2.79-.33-3.91-1.04-4.92-3.09-10.06-5.6-15.77-6.81-14.02-2.99-26.78.23-38.55,8.01-2.56,1.69-4.9,3.71-7.38,5.62,17.75,15.41,51.57,16.36,71.16,0-1.13-.81-2.23-1.6-3.77-2.71,2.57-1.49,4.5-2.74,6.57-3.73.56-.27,1.72.03,2.24.48,2.36,2.07,4.59,4.29,7.14,6.72-20.85,13.96-42.48,22.51-67.91,14.91,1.38.71,2.7,1.57,4.15,2.1,7.25,2.63,14.75,3.6,22.45,3.02,14.38-1.08,27-6.71,38.56-15.03.72-.52,1.44-1.02,2.28-1.61-1.87,6.14-27.06,17.18-40.89,17.94-15.74.86-29.92-4.08-43.62-12.53,2.58,10.51,6.21,19.79,15.39,25.42,9.15,5.62,18.9,5.49,28.76,1.51.11.19.22.39.34.58-1.8,1.52-3.61,3.03-5.41,4.55.11.23.22.46.33.68,5.09.68,10.16.1,14.98-1.58,4.71-1.64,9.21-3.88,14.11-5.99-.61.66-1.02,1.17-1.49,1.61-10.4,9.99-22.95,13.85-37.11,12.75-12.72-.99-23.88-5.78-33.23-14.56-6.85-6.43-11.09-14.38-13.4-23.41-.54-2.12-.27-4.11,1.35-5.72,12.58-12.55,27.05-21.81,44.64-25.67,7.9-1.73,15.55-.66,23.03,2,3.67,1.3,7.21,2.97,10.81,4.48.61.25,1.22.51,1.82.77.12-.23.24-.46.36-.69Zm-69.79,20.67c1.56,8.25,4.5,15.43,10.69,20.96.11-.31.03-.55-.1-.74-3.66-5.08-6.02-10.74-7.21-16.86-.36-1.86-1.62-2.53-3.38-3.36Zm1-16.31c1.07-.92,1.98-2.25,2.48-3.57,1.09-2.89,2.49-5.44,5.04-7.32,3.75-2.77,7.4-5.67,11.09-8.51.45-.35.86-.73,1.29-1.1-.11-.19-.22-.38-.32-.56-4.36.79-7.15,5.3-11.87,5.67,1.83-5.79,11.07-14.19,19.7-17.75,15.57-6.43,30.45-5.18,44.56,4.35-.35-.59-.75-1.1-1.21-1.55-11.8-11.54-25.92-15.69-42.07-12.96-20.1,3.41-38.62,18.81-42.72,40.4-.89,4.7-1.09,9.42-.48,14.58,2.11-2.72,3.73-5.11,4.07-8.32.36-3.39,1.15-6.74,1.91-10.07.21-.92.95-1.71,1.45-2.56.29.11.59.22.88.32-1.23,4.9-2.56,9.79-1.81,15.1,2.83-2.14,5.53-4.02,8.02-6.15Zm32.46,8.07c.03,4.68,3.55,8.12,8.26,8.07,4.72-.05,8.23-3.57,8.18-8.19-.05-4.65-3.57-8.06-8.31-8.04-4.75.02-8.17,3.45-8.14,8.16Z"/>
</svg>