<?xml version="1.0" encoding="UTF-8"?>
<svg id="Layer_1" data-name="Layer 1" xmlns="http://www.w3.org/2000/svg" viewBox="0 0 128 128">
  <defs>
    <style>
      .cls-1 {
        fill: #f39200;
      }

      .cls-2 {
        fill: #a48a7b;
        stroke-width: 0px;
      }
    </style>
  </defs>
  <path class="cls-2" d="m34.24,48.41c0-3.51-.02-5.98,0-8.45.02-1.57.87-2.25,2.43-2.08,9.45,1.05,18.15-.8,25.83-6.63,1.03-.79,1.95-.75,2.97.02,7.57,5.73,16.16,7.6,25.48,6.63,2.04-.21,2.72.37,2.78,2.44.29,11.65-.78,23.16-3.18,34.56-.56,2.64-1.63,5.02-3.44,7.01-5.56,6.1-11.83,11.3-19.12,15.26-2.71,1.47-5.21,1.52-7.94.04-7.4-4.01-13.77-9.28-19.38-15.5-2.19-2.44-3.05-5.47-3.65-8.61-1.63-8.5-2.63-17.07-2.78-24.69Zm61.66,24.97c-.83,4.46-2.18,8.64-5.33,12.05-6.47,7-13.74,12.96-22.4,17.09-1.21.58-1.76,1.42-1.74,2.76.04,3.89-.03,7.79.05,11.68.01.67.34,1.67.83,1.92.49.25,1.5-.06,2.05-.45,4.4-3.12,8.79-6.25,13.09-9.51,7.29-5.51,14.3-11.35,20.55-18.05,2.14-2.29,3.57-4.92,3.94-8.05.5-4.23.97-8.46,1.37-12.7.72-7.67,1.49-15.34,2.02-23.02.57-8.29.91-16.6,1.3-24.91.02-.5-.42-1.02-.65-1.53-.49.27-1.12.43-1.43.83-3.26,4.14-6.47,8.33-9.72,12.48-.87,1.11-1.28,2.29-1.25,3.71.05,2.35.01,4.7.01,7.06.1,9.64-.91,19.17-2.67,28.65ZM29.43,37.74c.04-1.45-.39-2.68-1.28-3.82-3.23-4.12-6.41-8.27-9.65-12.38-.33-.41-.94-.61-1.41-.9-.24.54-.73,1.09-.7,1.62.54,10.21,1.02,20.42,1.76,30.61.59,8.09,1.48,16.15,2.28,24.22.25,2.54.5,5.09,1.03,7.58.74,3.44,3.13,5.88,5.53,8.28,9.73,9.75,20.75,17.89,32.02,25.72.45.31,1.33.45,1.75.21.43-.24.75-1.04.76-1.61.06-4.02.01-8.03.05-12.05.01-1.3-.52-2.12-1.68-2.68-8.51-4.05-15.68-9.88-22.09-16.71-2.52-2.69-4.24-5.81-5.04-9.43-2.29-10.41-3.41-20.96-3.34-31.62,0-2.35-.04-4.71.02-7.06Zm63.28-5.03c1.45-.16,2.57-.88,3.46-2.03,2.74-3.52,5.5-7.02,8.22-10.56.46-.59,1.36-1.18.71-2.1-.64-.91-1.49-.25-2.21-.04-5.87,1.66-11.82,2.49-17.91,1.7-7.34-.95-13.59-4.12-18.7-9.49-.7-.74-1.5-1.42-2.53-1.11-.8.24-1.62.74-2.21,1.34-5.52,5.61-12.18,8.73-20.01,9.41-5.83.51-11.47-.42-17.05-2.01-.48-.14-1.08.14-1.63.22.11.51.06,1.14.35,1.52,2.93,3.83,5.86,7.67,8.92,11.39.66.8,1.82,1.5,2.84,1.67,10.27,1.71,19.6-.04,27.27-7.67,1.11-1.1,2.42-1.06,3.56.01.47.44.9.94,1.39,1.36,5.55,4.82,12.09,6.9,19.37,7.06,2.05-.22,4.1-.44,6.16-.67Z"/>
  <path class="cls-1" d="m166.65-95.84c0-2.68.03-5.37,0-8.05-.04-2.52,1.52-3.57,3.74-2.45,10.1,5.1,20.84,7.87,32.07,8.86,1.49.13,3,.19,4.48.37,1.58.19,2.56,1.15,2.58,2.74.05,5.21.06,10.42-.01,15.64-.02,1.75-1.31,2.81-3.08,2.73-12.49-.56-24.71-2.52-36.42-7.1-2.11-.83-3.03-2.16-3.04-4.43-.01-2.76,0-5.53,0-8.29h-.32Zm90.7-.02c0-2.76,0-5.52,0-8.29,0-1.41-.6-2.47-1.74-2.57-.7-.06-1.49.14-2.13.45-4.99,2.5-10.17,4.47-15.56,5.92-6.5,1.75-13.11,2.78-19.84,3.12-2.85.15-3.65,1.04-3.65,3.93,0,4.58,0,9.16,0,13.74,0,2.62,1.16,3.7,3.74,3.5,3.38-.27,6.78-.47,10.15-.85,8.81-1.01,17.41-2.96,25.68-6.22,2.1-.83,3.01-2.18,3.02-4.46.01-2.76,0-5.53,0-8.29.11,0,.22,0,.33,0Zm-30.33,45.47c2.01-.1,2.75-.93,2.75-2.92,0-5.05,0-10.11,0-15.16,0-2.4-1.05-3.35-3.47-3.17-1.81.13-3.62.33-5.43.43-7.74.47-15.47.33-23.19-.43-2.42-.24-3.47.77-3.47,3.16,0,5.01,0,10.03,0,15.04,0,2.15.71,2.94,2.87,3.05,4.97.25,9.94.46,14.93.69,4.99-.23,10-.44,15-.7Zm.44-52.83c1.57-.16,2.3-1.05,2.31-2.62.01-4.46.02-8.93,0-13.39-.01-2.19-1.63-3.49-3.8-3.04-9.33,1.91-18.66,1.91-27.99,0-2.15-.44-3.75.87-3.76,3.08-.02,4.42-.01,8.85,0,13.27,0,1.67.7,2.54,2.34,2.71,5.14.54,10.28,1.02,15.45,1.52,5.17-.5,10.32-.99,15.46-1.52Zm-38.19-18.59c0-2.14-.49-2.9-2.45-3.68-4.88-1.95-9.34-4.56-13.11-8.29-1.44-1.42-3.25-1.57-5-.57-.55.31-1.05.7-1.61,1-2.11,1.16-2.76,2.93-2.47,5.27.44,3.52.8,7.06,1.08,10.59.15,1.9.97,3.24,2.59,4.23,5.53,3.37,11.43,5.84,17.62,7.67,2.04.6,3.33-.35,3.35-2.48.02-2.37,0-4.74,0-7.11,0-2.21,0-4.42,0-6.63Zm45.45,6.64c0,2.49-.03,4.97.01,7.46.03,1.65,1.32,2.66,2.88,2.22,6.56-1.84,12.8-4.45,18.57-8.11,1.25-.79,1.89-1.97,2.04-3.43.38-3.77.73-7.54,1.15-11.3.25-2.2-.45-3.86-2.4-4.97-.58-.33-1.13-.73-1.71-1.06-1.71-.97-3.51-.86-4.91.52-3.89,3.83-8.48,6.53-13.53,8.49-1.45.57-2.14,1.63-2.12,3.2.03,2.33,0,4.66,0,6.99,0,0,0,0,0,0Zm-45.45,44.91c-.01-1.7-.7-2.51-2.37-2.89-2.81-.64-5.64-1.18-8.41-1.95-3.07-.86-6.08-1.93-9.12-2.92-1.32-.43-2.55-.01-2.63,1.14-.22,3.54-.53,7.1-.31,10.62.24,3.98,2.46,7.29,4.72,10.44.56.78,1.66,1.42,2.62,1.65,4.15.96,8.33,1.77,12.51,2.57,1.84.35,2.97-.65,2.99-2.54.02-2.69,0-5.37,0-8.06,0-2.69.02-5.37,0-8.06Zm45.45,16.23c.02,1.73,1.16,2.75,2.87,2.43,4.22-.8,8.44-1.62,12.63-2.57.93-.21,1.99-.82,2.54-1.57,1.97-2.67,3.66-5.51,4.52-8.79,1.02-3.93.32-7.86.07-11.78-.11-1.64-1.19-2.3-2.73-1.71-5.66,2.17-11.49,3.66-17.42,4.84-1.83.36-2.47,1.18-2.48,3.03-.01,2.65,0,5.29,0,7.94,0,2.73-.02,5.45,0,8.18Zm-20.29,25.86c0,2.86,1.58,3.85,4.16,2.64,9.54-4.49,17.83-10.68,25.03-18.36.69-.74,1.22-1.49.71-2.52-.53-1.08-1.52-.98-2.47-.82-8.02,1.41-16.12,2.03-24.25,2.31-2.12.07-3.17,1.12-3.19,3.26-.02,2.29,0,4.58,0,6.87,0,2.21,0,4.42,0,6.63Zm-4.88-13.65c-.03-1.85-1.06-3.02-2.76-3.07-8.38-.27-16.72-.93-24.98-2.37-.87-.15-1.69-.08-2.14.83-.46.91-.12,1.64.53,2.35,7.3,7.83,15.71,14.13,25.43,18.67,2.24,1.05,3.89.05,3.92-2.41.03-2.29,0-4.58,0-6.87,0-2.37.03-4.74-.01-7.11Z"/>
</svg>