<?xml version="1.0" encoding="UTF-8"?>
<svg id="Layer_1" data-name="Layer 1" xmlns="http://www.w3.org/2000/svg" viewBox="0 0 128 128">
  <defs>
    <style>
      .cls-1 {
        fill: #be1622;
        stroke-width: 0px;
      }
    </style>
  </defs>
  <path class="cls-1" d="m24.97,50.92c.28-.7.69-1.38.81-2.11.53-3.13,1.02-6.26,1.44-9.41.26-1.93.35-3.87.54-5.81.19-1.88.96-2.62,2.87-2.85,8-1,14.88,1.76,20.98,6.61,2.53,2.01,4.66,4.52,6.88,6.89.99,1.05.92,2,.16,3.25-1.97,3.26-3.93,6.53-5.88,9.8-.16.27-.38.56-.4.85-.02.31.06.77.27.91.22.15.74.14.95-.03.49-.39.88-.91,1.31-1.38,7.99-8.83,16.61-16.97,26.35-23.87.45-.32.92-.63,1.39-.92,1.37-.85,2.36-.49,2.76,1.06,1.03,3.99,2.02,8,3.03,11.99.11.42.15.87.33,1.26.13.28.44.49.67.73.24-.27.66-.51.69-.8.28-2.48.65-4.97.68-7.46.1-7.98.06-15.97.07-23.95,0-.24,0-.48,0-.72.02-.63-.06-1.41.82-1.46.92-.06,1.19.64,1.21,1.44.09,3.42.18,6.83.26,10.25.07,2.89,1.44,4.27,4.32,4.66,7.15.97,12.53,4.82,16.46,10.68,5.17,7.71,5.51,16.04,2.49,24.61-2.37,6.72-6.5,12.32-11.34,17.45-4.05,4.29-8.56,8.05-13.32,11.52-1.08.78-1.38.65-1.57-.67-.19-1.37-.32-2.76-.6-4.12-.08-.39-.59-.7-.91-1.05-.26.38-.71.75-.75,1.15-.51,5.66-.96,11.32-1.41,16.98-.06.69-.04,1.46-.94,1.53-.92.07-1.01-.73-1.16-1.38-.15-.66-.25-1.32-.38-1.98-.43-2.09-1.84-2.61-3.55-1.39-4.77,3.42-9.57,6.81-14.35,10.23-2.01,1.44-4.01,1.53-6.08.15-5.9-3.96-11.82-7.87-17.69-11.87-2.12-1.45-3.07-3.65-3.48-6.14-.43-2.62-.93-5.23-1.45-7.84-.07-.35-.43-.65-.65-.97-.21.33-.59.65-.61.99-.36,5.3-.74,10.61-.96,15.92-.11,2.57.09,5.16.15,7.74.03,1.28-.44,1.95-1.38,1.97-.9.02-1.46-.68-1.53-1.89-.31-5.23-.63-10.47-.93-15.7-.1-1.74-.93-3.07-2.23-4.18-4.05-3.48-7.72-7.32-10.85-11.67-4.27-5.94-7.43-12.37-8.5-19.7-1.26-8.65.72-16.41,6.59-23.01,1.37-1.54,2.07-3.15,2.16-5.22.21-5.04.61-10.07.94-15.1.03-.44-.02-.92.16-1.29.19-.4.6-.69.91-1.03.32.37.88.72.93,1.13.17,1.46.15,2.93.24,4.4.49,8.21.96,16.41,1.5,24.61.11,1.66.44,3.3.71,4.95.07.44.31.84.48,1.26.12.01.25.03.37.04Zm44.11,25.56h0c.83,0,1.67,0,2.5,0,2.16.01,2.91.77,2.93,2.96.02,1.75-.01,3.49.01,5.24.03,2,.84,2.86,2.8,2.9,1.71.04,3.42.04,5.12,0,1.96-.05,2.77-.9,2.79-2.9.02-1.79-.01-3.57,0-5.36.02-2.02.83-2.82,2.82-2.84,1.79-.01,3.57,0,5.36,0,2.03-.02,2.93-.9,2.94-2.89,0-1.71.01-3.42,0-5.12-.02-1.8-.91-2.71-2.71-2.73-1.83-.02-3.65,0-5.48,0-2.05,0-2.91-.84-2.93-2.87-.02-1.83.01-3.65-.01-5.48-.03-1.88-.92-2.77-2.78-2.8-1.67-.02-3.34-.02-5,0-2.01.02-2.89.88-2.92,2.92-.03,1.83.02,3.65-.02,5.48-.04,1.92-.88,2.75-2.79,2.76-1.91.01-3.81-.02-5.72.01-1.66.03-2.56.94-2.58,2.61-.02,1.83-.02,3.65,0,5.48.02,1.64.94,2.58,2.57,2.65,1.03.04,2.06,0,3.1,0Z"/>
</svg>