<?xml version="1.0" encoding="UTF-8"?>
<svg data-bbox="0 0 474.49 85.7" viewBox="0 0 474.49 85.7" xmlns:xlink="http://www.w3.org/1999/xlink" xmlns="http://www.w3.org/2000/svg" data-type="ugc">
    <g>
        <defs>
            <linearGradient gradientUnits="userSpaceOnUse" y2="41.8" x2="474.49" y1="41.8" x1="0" id="07f390da-e32e-403d-9774-7be0b683ba3e">
                <stop stop-color="#a07c44" offset="0"/>
                <stop stop-color="#d4b55a" offset="1"/>
            </linearGradient>
            <linearGradient xlink:href="#07f390da-e32e-403d-9774-7be0b683ba3e" y2="44.2" x2="474.49" y1="44.2" id="6baa315a-a53e-4bcb-a44f-054b42e22dfb"/>
            <linearGradient xlink:href="#07f390da-e32e-403d-9774-7be0b683ba3e" y2="44.2" x2="474.49" y1="44.2" id="632e5f68-f98e-4daf-868c-0ba30b8c611c"/>
            <linearGradient xlink:href="#07f390da-e32e-403d-9774-7be0b683ba3e" y2="44.8" y1="44.8" id="f2f34063-53d7-4b90-97ad-5036eacff249"/>
            <linearGradient xlink:href="#07f390da-e32e-403d-9774-7be0b683ba3e" y2="44.2" y1="44.2" id="46aee2fb-4972-4cf6-a13a-521e5e8579e5"/>
            <linearGradient xlink:href="#07f390da-e32e-403d-9774-7be0b683ba3e" y2="43.2" x2="474.49" y1="43.2" id="9237860b-7384-4774-aa89-8824cfe5f015"/>
        </defs>
        <path d="M437.34 22.15c-.43-.57-.65-1.25-.65-2.05q.405-1.605.45-1.95c.03-.23.05-.42.05-.55V17c0-.13-.18-.37-.55-.7s-.58-.57-.65-.7c-1.87-3.4-4.23-5.72-7.1-6.95s-6.23-1.85-10.1-1.85c-.13 0-.47.03-1 .1s-1.08.15-1.65.25-1.1.2-1.6.3-.78.18-.85.25c-.13.13-.37.5-.7 1.1s-.53.97-.6 1.1v1.6q0 3.195-.6 6.15c-.4 1.97-.87 3.98-1.4 6.05l-.8 1.2 1.2 1.5c.07.13.13.52.2 1.15s.13 1.12.2 1.45v.8c-.27 0-.4.23-.4.7 0 .07.05.25.15.55s.18.48.25.55l-1.2 5.2c0 1.73.62 3.05 1.85 3.95q1.845 1.35 4.35 1.35h2.1c.13-.6.7-1.13 1.7-1.6s2.13-.85 3.4-1.15 2.5-.58 3.7-.85 2.07-.5 2.6-.7c.8-.33 1.58-.85 2.35-1.55s1.45-1.42 2.05-2.15l1.9-3.6c.6-1 1.08-2.03 1.45-3.1s.55-2.23.55-3.5c0-.6-.22-1.18-.65-1.75" fill="none"/>
        <path d="M49.55 54.1c-.17-.47-.35-.92-.55-1.35s-.33-.78-.4-1.05c0-.07-.12-.27-.35-.6q-.345-.495-.75-1.05c-.27-.37-.55-.72-.85-1.05s-.48-.53-.55-.6c-.13-.13-.28-.37-.45-.7q-.255-.495-.45-.9l-1-2.9-.4-.4c-.13-.13-.25-.22-.35-.25a.6.6 0 0 1-.25-.15l-6.7-4.3c-.93-.4-1.75-.77-2.45-1.1s-1.38-.67-2.05-1-1.35-.68-2.05-1.05-1.52-.85-2.45-1.45l-.6-.4c-1.73-.47-3.37-1.07-4.9-1.8s-2.88-1.65-4.05-2.75-2.1-2.4-2.8-3.9S14.1 22.07 14.1 20c0-.8.03-1.45.1-1.95s.18-.95.35-1.35.38-.85.65-1.35.6-1.18 1-2.05c.93-2.13 2.05-3.7 3.35-4.7s3.22-1.5 5.75-1.5c1.73 0 3.65.17 5.75.5s3.92 1 5.45 2c.6.4 1.37 1.25 2.3 2.55s1.87 2.62 2.8 3.95 1.77 2.53 2.5 3.6 1.27 1.6 1.6 1.6c.27 0 .4-.03.4-.1.13 0 .28-.08.45-.25s.28-.35.35-.55c.27-1.07.43-1.95.5-2.65s.1-1.58.1-2.65v-1.5L47 6.8 48.1 3c0-.6-.12-1.25-.35-1.95S47.03 0 46.3 0c-.8 0-1.52.22-2.15.65s-1.23.9-1.8 1.4-1.15.97-1.75 1.4-1.27.65-2 .65c-1.07 0-2.02-.18-2.85-.55S34 2.87 33 2.6c-1.47-.33-2.93-.6-4.4-.8s-3.03-.3-4.7-.3c-1.13 0-2.12.32-2.95.95S19.2 3.5 18.2 3.7s-2.03.32-3.1.35-2 .45-2.8 1.25a19.8 19.8 0 0 0-3.6 3.8A25.8 25.8 0 0 0 6 13.75c-.73 1.63-1.3 3.33-1.7 5.1s-.6 3.45-.6 5.05q0 1.995.15 3.3t.6 2.4c.3.73.72 1.47 1.25 2.2q.795 1.095 2.1 2.7c.13.27.33.6.6 1s.43.77.5 1.1c.4.67.65 1.3.75 1.9s.52 1.2 1.25 1.8c.47.4.88.7 1.25.9s.75.38 1.15.55.82.33 1.25.5.92.45 1.45.85l3 3.1c.07 0 .25.04.55.1.3.07.62.13.95.2s.63.13.9.2.47.1.6.1c.67.33 1.17.72 1.5 1.15s.77.85 1.3 1.25c1.13.33 2.22.52 3.25.55s2.08.35 3.15.95c.13.13.4.27.8.4s.63.2.7.2c.8.33 1.37.6 1.7.8s.6.42.8.65.38.52.55.85.48.83.95 1.5c.4.47.83.87 1.3 1.2q.705.495 1.2 1.2l.1.3c.33 1.13.55 1.97.65 2.5q.15.795.15 2.1v.9c0 .13-.02.4-.05.8s-.07.8-.1 1.2-.07.77-.1 1.1-.05.53-.05.6l-2.2 4c-.6 1-1.17 1.92-1.7 2.75s-.87 1.25-1 1.25l-2.4.6c-.13 0-.4.08-.8.25s-.67.32-.8.45c-.13.07-.33.2-.6.4s-.57.42-.9.65-.65.45-.95.65-.52.33-.65.4c-.07.07-.4.1-1 .1h-1.1q-.795 0-3-.45c-1.47-.3-2.98-.68-4.55-1.15s-3-.98-4.3-1.55-2.08-1.12-2.35-1.65c-1.27-2.2-2.43-4.28-3.5-6.25-1.07-1.96-2.37-3.98-3.9-6.05-.4-.73-1-1.1-1.8-1.1-.4 0-.67.08-.8.25s-.27.42-.4.75L0 72.3v1.5c0 2.33.52 4.02 1.55 5.05s2.33 1.77 3.9 2.2 3.23.73 5 .9 3.38.52 4.85 1.05l11.3.4c.13 0 .37.02.7.05.33.04 1.03.08 2.1.15h.7c1.47 0 2.68-.22 3.65-.65s1.87-.95 2.7-1.55 1.73-1.23 2.7-1.9q1.455-1.005 3.75-1.8.705-.405.75-1.2c.03-.53.22-1.03.55-1.5.33-.2.92-.68 1.75-1.45s1.35-1.52 1.55-2.25c.07-.07.18-.3.35-.7s.32-.82.45-1.25.27-.85.4-1.25.23-.67.3-.8c0-.13.03-.23.1-.3l.1-.1c0-.07.07-.13.2-.2.2-.33.38-.71.55-1.15.17-.43.25-.68.25-.75v-8.5c0-.2-.07-.5-.2-.9s-.28-.83-.45-1.3" fill="url(#07f390da-e32e-403d-9774-7be0b683ba3e)"/>
        <path d="M132 63c-.47 0-.87.22-1.2.65s-.62.92-.85 1.45-.45 1.05-.65 1.55-.4.82-.6.95c-.33.6-.87 1.33-1.6 2.2s-1.53 1.75-2.4 2.65-1.75 1.77-2.65 2.6-1.65 1.45-2.25 1.85l-4.6 1.8c-2.07.2-3.78.32-5.15.35s-2.98.05-4.85.05h-3.7l-1.1-.4-4.1-.3c-.8-.07-1.7-.33-2.7-.8q-1.5-.705-2.85-1.8c-.9-.73-1.67-1.53-2.3-2.4q-.945-1.305-1.05-2.7v-5l-.8-8.9v-4.6c.07-.53.2-1.15.4-1.85s.48-1.38.85-2.05.8-1.22 1.3-1.65S90.27 46 91 46c.53 0 1.38.07 2.55.2s2.48.3 3.95.5 2.97.47 4.5.8q2.295.495 4.2 1.05c1.27.37 2.32.78 3.15 1.25q1.245.705 1.35 1.5v1.8l1.6 2.8c.07.33.1.8.1 1.4 0 .67.1 1.3.3 1.9q.3.9 1.8.9c1.5 0 1.68-.37 2.05-1.1s.55-1.6.55-2.6c0-.4-.12-.83-.35-1.3s-.35-1.03-.35-1.7l.3-2.1c0-.67-.03-1.5-.1-2.5s-.15-2-.25-3-.18-1.88-.25-2.65-.1-1.22-.1-1.35l-.3-1.9.7-.9c.27-.73.45-1.28.55-1.65q.15-.555.15-1.35v-5.3c-.4-.73-.87-1.1-1.4-1.1-.6 0-1.12.4-1.55 1.2s-.83 1.73-1.2 2.8-.68 2.12-.95 3.15-.53 1.78-.8 2.25q-.6.705-1.95 1.65c-.9.63-1.65 1.02-2.25 1.15q-.9.6-1.8.6l-2.3-.1c-.27 0-.53.03-.8.1s-.5.13-.7.2c-.6.27-1.3.4-2.1.4l-9.3-.3c-1.53-1.46-2.48-3.05-2.85-4.75s-.55-3.48-.55-5.35v-2c0-.6.05-1.13.15-1.6s.32-.9.65-1.3v-6c0-1.73.03-3.42.1-5.05s.27-3.12.6-4.45c.13-.6.58-1.27 1.35-2s1.42-1.17 1.95-1.3c1.67-.2 3.33-.3 5-.3s3.37.1 5.1.3c.13.13.27.2.4.2.2 0 .33.03.4.1s.23.1.5.1c.47 0 1.02.03 1.65.1s1.28.1 1.95.1c.53 0 1.07-.07 1.6-.2.07-.07.27-.1.6-.1q1.305 0 1.8.9c.53.8 1.28 1.23 2.25 1.3s1.92.3 2.85.7c.13.27.37.72.7 1.35s.75 1.35 1.25 2.15 1.02 1.62 1.55 2.45 1.07 1.62 1.6 2.35c.13.2.27.38.4.55s.37.48.7.95c.6 1.33 1.3 2 2.1 2h.9c0-2.73-.2-5.4-.6-8 0-.27-.03-.8-.1-1.6s-.15-1.63-.25-2.5-.22-1.7-.35-2.5-.23-1.37-.3-1.7c0-.6-.28-1-.85-1.2s-1.05-.3-1.45-.3c-.33-.07-.7-.13-1.1-.2s-.8-.13-1.2-.2c-.47-.07-.93-.13-1.4-.2L106.7 5c-.6-.47-1.05-.73-1.35-.8s-.72-.1-1.25-.1q-1.395 0-2.7.45c-.87.3-1.7.45-2.5.45h-2.3c-.13-.33-.32-.52-.55-.55s-.55-.05-.95-.05-.7.1-.9.3-.37.3-.5.3c-.6 0-1.03-.1-1.3-.3s-.6-.3-1-.3c-1.07 0-2.15.28-3.25.85S86 6.1 85 6.1l-3.3-.6c-1.67-.13-3.48-.35-5.45-.65s-3.88-.45-5.75-.45h-1.1c-.2 0-.57.07-1.1.2-.73-.53-1.57-.83-2.5-.9s-1.93-.1-3-.1c-1.33 0-2.37.12-3.1.35S58.6 5 58.6 6.4c0 .8.2 1.43.6 1.9s.88.82 1.45 1.05 1.18.4 1.85.5 1.27.22 1.8.35c.07 0 .17.04.3.1.13.07.27.13.4.2l.4.2h4.2c.33.07.78.29 1.35.65q.855.555 1.65 1.35c.53.54 1 1.08 1.4 1.65s.6 1.08.6 1.55l.4 6.2-.4 3.4c0 .4.02.73.05 1s.15.67.35 1.2c.2 2.6.3 5.17.3 7.7s-.1 5.13-.3 7.6c.2 0 .45.12.75.35s.45.52.45.85c0 .2-.13.57-.4 1.1-.13.27-.27.5-.4.7 0 .13-.07.33-.2.6l-.2.4c-.2.8-.42 1.87-.65 3.2S74 52.6 74 53.4q0 2.895.3 5.85c.2 1.97.57 3.92 1.1 5.85l-.8 1.3c.07.4.12.78.15 1.15s.05.75.05 1.15c0 .47-.02.92-.05 1.35s-.08.85-.15 1.25c-.07.53-.3 1.1-.7 1.7s-.87 1.15-1.4 1.65-1.07.92-1.6 1.25-.97.53-1.3.6h-4.7c-.53 0-1.22.05-2.05.15q-1.245.15-2.4.6c-.77.3-1.43.68-2 1.15s-.85 1.07-.85 1.8c0 .8.23 1.48.7 2.05s1.03 1.03 1.7 1.4 1.4.65 2.2.85q1.2.3 2.1.3c1.13 0 2.3-.25 3.5-.75s2.5-.75 3.9-.75l5.2.3 7.4-.7c3 0 5.92.12 8.75.35s5.65.35 8.45.35l8.9-.7 1.9.4 3.7-.4c.6 0 1.05.12 1.35.35s.82.35 1.55.35l1.2-.3c.33-.07.7-.1 1.1-.1h1.3c1.33 0 2.62-.12 3.85-.35s2.25-.98 3.05-2.25c.2-2.13.57-4.23 1.1-6.3s1.1-4.1 1.7-6.1l1-3.6q0-.495-.3-1.05c-.2-.37-.5-.55-.9-.55" fill="url(#6baa315a-a53e-4bcb-a44f-054b42e22dfb)"/>
        <path d="M212.6 63c-.47 0-.87.22-1.2.65s-.62.92-.85 1.45-.45 1.05-.65 1.55-.4.82-.6.95c-.33.6-.87 1.33-1.6 2.2s-1.53 1.75-2.4 2.65-1.75 1.77-2.65 2.6-1.65 1.45-2.25 1.85l-4.6 1.8c-2.07.2-3.78.32-5.15.35s-2.98.05-4.85.05h-3.7l-1.1-.4-4.1-.3c-.8-.07-1.7-.33-2.7-.8q-1.5-.705-2.85-1.8c-.9-.73-1.67-1.53-2.3-2.4q-.945-1.305-1.05-2.7v-5l-.8-8.9v-4.6c.07-.53.2-1.15.4-1.85s.48-1.38.85-2.05.8-1.22 1.3-1.65 1.12-.65 1.85-.65c.53 0 1.38.07 2.55.2s2.48.3 3.95.5 2.97.47 4.5.8q2.295.495 4.2 1.05c1.27.37 2.32.78 3.15 1.25q1.245.705 1.35 1.5v1.8l1.6 2.8c.07.33.1.8.1 1.4 0 .67.1 1.3.3 1.9q.3.9 1.8.9c1.5 0 1.68-.37 2.05-1.1s.55-1.6.55-2.6c0-.4-.12-.83-.35-1.3s-.35-1.03-.35-1.7l.3-2.1c0-.67-.03-1.5-.1-2.5s-.15-2-.25-3-.18-1.88-.25-2.65-.1-1.22-.1-1.35l-.3-1.9.7-.9c.27-.73.45-1.28.55-1.65q.15-.555.15-1.35v-5.3c-.4-.73-.87-1.1-1.4-1.1-.6 0-1.12.4-1.55 1.2s-.83 1.73-1.2 2.8-.68 2.12-.95 3.15-.53 1.78-.8 2.25q-.6.705-1.95 1.65c-.9.63-1.65 1.02-2.25 1.15q-.9.6-1.8.6l-2.3-.1c-.27 0-.53.03-.8.1s-.5.13-.7.2c-.6.27-1.3.4-2.1.4l-9.3-.3c-1.53-1.46-2.48-3.05-2.85-4.75s-.55-3.48-.55-5.35v-2c0-.6.05-1.13.15-1.6s.32-.9.65-1.3v-6c0-1.73.03-3.42.1-5.05s.27-3.12.6-4.45c.13-.6.58-1.27 1.35-2s1.42-1.17 1.95-1.3c1.67-.2 3.33-.3 5-.3s3.37.1 5.1.3c.13.13.27.2.4.2.2 0 .33.03.4.1s.23.1.5.1c.47 0 1.02.03 1.65.1s1.28.1 1.95.1c.53 0 1.07-.07 1.6-.2.07-.07.27-.1.6-.1q1.305 0 1.8.9c.53.8 1.28 1.23 2.25 1.3s1.92.3 2.85.7c.13.27.37.72.7 1.35s.75 1.35 1.25 2.15 1.02 1.62 1.55 2.45 1.07 1.62 1.6 2.35c.13.2.27.38.4.55s.37.48.7.95c.6 1.33 1.3 2 2.1 2h.9c0-2.73-.2-5.4-.6-8 0-.27-.03-.8-.1-1.6s-.15-1.63-.25-2.5-.22-1.7-.35-2.5-.23-1.37-.3-1.7c0-.6-.28-1-.85-1.2s-1.05-.3-1.45-.3c-.33-.07-.7-.13-1.1-.2s-.8-.13-1.2-.2c-.47-.07-.93-.13-1.4-.2L187.3 5c-.6-.47-1.05-.73-1.35-.8s-.72-.1-1.25-.1q-1.395 0-2.7.45c-.87.3-1.7.45-2.5.45h-2.3c-.13-.33-.32-.52-.55-.55s-.55-.05-.95-.05-.7.1-.9.3-.37.3-.5.3c-.6 0-1.03-.1-1.3-.3s-.6-.3-1-.3c-1.07 0-2.15.28-3.25.85s-2.15.85-3.15.85l-3.3-.6c-1.67-.13-3.48-.35-5.45-.65s-3.88-.45-5.75-.45H150c-.2 0-.57.07-1.1.2-.73-.53-1.57-.83-2.5-.9s-1.93-.1-3-.1c-1.33 0-2.37.12-3.1.35S139.2 5 139.2 6.4c0 .8.2 1.43.6 1.9s.88.82 1.45 1.05 1.18.4 1.85.5 1.27.22 1.8.35c.07 0 .17.04.3.1.13.07.27.13.4.2l.4.2h4.2c.33.07.78.29 1.35.65q.855.555 1.65 1.35c.53.54 1 1.08 1.4 1.65s.6 1.08.6 1.55l.4 6.2-.4 3.4c0 .4.02.73.05 1s.15.67.35 1.2c.2 2.6.3 5.17.3 7.7s-.1 5.13-.3 7.6c.2 0 .45.12.75.35s.45.52.45.85c0 .2-.13.57-.4 1.1-.13.27-.27.5-.4.7 0 .13-.07.33-.2.6l-.2.4c-.2.8-.42 1.87-.65 3.2s-.35 2.4-.35 3.2q0 2.895.3 5.85c.2 1.97.57 3.92 1.1 5.85l-.8 1.3c.07.4.12.78.15 1.15s.05.75.05 1.15c0 .47-.02.92-.05 1.35s-.08.85-.15 1.25c-.07.53-.3 1.1-.7 1.7s-.87 1.15-1.4 1.65-1.07.92-1.6 1.25-.97.53-1.3.6h-4.7c-.53 0-1.22.05-2.05.15q-1.245.15-2.4.6c-.77.3-1.43.68-2 1.15s-.85 1.07-.85 1.8c0 .8.23 1.48.7 2.05s1.03 1.03 1.7 1.4 1.4.65 2.2.85q1.2.3 2.1.3c1.13 0 2.3-.25 3.5-.75s2.5-.75 3.9-.75l5.2.3 7.4-.7c3 0 5.92.12 8.75.35s5.65.35 8.45.35l8.9-.7 1.9.4 3.7-.4c.6 0 1.05.12 1.35.35s.82.35 1.55.35l1.2-.3c.33-.07.7-.1 1.1-.1h1.3c1.33 0 2.62-.12 3.85-.35s2.25-.98 3.05-2.25c.2-2.13.57-4.23 1.1-6.3s1.1-4.1 1.7-6.1l1-3.6q0-.495-.3-1.05c-.2-.37-.5-.55-.9-.55" fill="url(#632e5f68-f98e-4daf-868c-0ba30b8c611c)"/>
        <path d="M298.8 78.95c-.6-.43-1.29-.73-2.05-.9q-1.155-.255-2.25-.45c-.73-.13-1.2-.43-1.4-.9-.4-.87-.93-1.6-1.6-2.2s-1.38-1.17-2.15-1.7q-1.155-.795-2.25-1.65a8.7 8.7 0 0 1-1.9-2.05q0-.105-.3-.45c-.2-.23-.33-.38-.4-.45-.87-1-1.95-2.03-3.25-3.1q-1.95-1.605-3.15-3c-1.07 0-1.85-.47-2.35-1.4s-.92-1.8-1.25-2.6q-.795-1.395-1.8-1.65c-.67-.17-1.17-.25-1.5-.25-.2 0-.33-.1-.4-.3-.4-.8-.88-1.45-1.45-1.95s-1.12-.98-1.65-1.45-1.07-.92-1.6-1.35-.97-.98-1.3-1.65c0-.13-.13-.4-.4-.8s-.43-.63-.5-.7c-.33-.4-.98-1.12-1.95-2.15s-2.03-2.08-3.2-3.15-2.3-2-3.4-2.8-1.88-1.2-2.35-1.2v-2.5c-.07-.07-.13-.25-.2-.55s-.1-.52-.1-.65q0-.3.3-.3c.87-.67 1.57-1.45 2.1-2.35s1.3-1.65 2.3-2.25l1.7-.3.8-.7c1.4-1.67 2.68-3.23 3.85-4.7s2.58-2.87 4.25-4.2l.9-.9q.405-.495 1.05-1.5t1.5-1.95c.57-.63 1.13-1.18 1.7-1.65.57-.46 1.08-.7 1.55-.7l1.7-.8c.07 0 .18-.03.35-.1q.255-.105 1.05-.6c.27 0 .68-.1 1.25-.3s1.18-.45 1.85-.75 1.35-.63 2.05-1 1.35-.71 1.95-1.05c.6-.33 1.08-.57 1.45-.7s.58-.5.65-1.1c0-.53-.27-.97-.8-1.3a7.4 7.4 0 0 0-1.8-.8c-.67-.2-1.32-.33-1.95-.4s-1.08-.1-1.35-.1c-.53 0-1.5.02-2.9.05s-2.85.1-4.35.2-2.88.22-4.15.35-2.07.3-2.4.5l-5.2-.4-1.2-.4c-.73 0-1.45.37-2.15 1.1s-1.05 1.47-1.05 2.2q0 1.5 1.35 2.1t2.85.6l1-.1c.07.07.2.25.4.55s.42.63.65 1 .55.88.95 1.55c0 .47-.28 1.17-.85 2.1s-1.22 1.9-1.95 2.9-1.45 1.93-2.15 2.8-1.18 1.43-1.45 1.7c-.53.53-1.17.85-1.9.95s-1.27.42-1.6.95c-.4.93-.78 1.92-1.15 2.95a7.4 7.4 0 0 1-1.75 2.75c-1.13 1.13-2.45 2-3.95 2.6a21.3 21.3 0 0 0-4.15 2.2q-.9.6-1.2 1.5c-.2.6-.67.9-1.4.9q-1.2 0-1.2-.6c0-.13.07-.27.2-.4l.3-.3v-4.5c0-.07-.08-.28-.25-.65s-.25-.62-.25-.75c0-.53.13-1.1.4-1.7s.4-1.17.4-1.7v-1.4q-.3-.705-.75-.6c-.3.07-.45-.2-.45-.8l1.2-2.6c0-.4-.05-.68-.15-.85s-.15-.35-.15-.55c0-.4.07-.98.2-1.75s.3-1.58.5-2.45.43-1.65.7-2.35.5-1.22.7-1.55c.27-.2.75-.43 1.45-.7a16.5 16.5 0 0 0 3.85-2.1c.53-.4.8-.87.8-1.4 0-.13-.03-.43-.1-.9s-.17-.73-.3-.8l-2.3-.6c-.53-.2-1.03-.32-1.5-.35s-.97-.05-1.5-.05h-1.4c-.53 0-.93.04-1.2.1l-2.7.9c-.8.2-1.63.3-2.5.3-.4 0-.83-.02-1.3-.05s-.9-.12-1.3-.25c-.33-.27-.72-.42-1.15-.45s-.82-.05-1.15-.05l-4.9.2-5.3-.3H219c-.47.13-.73.33-.8.6s-.1.63-.1 1.1c0 .67.2 1.2.6 1.6s.87.73 1.4 1 1.12.5 1.75.7q.945.3 1.65.6c.33.07.67.1 1 .1h1.3c.47 0 .95.27 1.45.8s.95 1.17 1.35 1.9.72 1.47.95 2.2.35 1.3.35 1.7c0 1 .03 2.07.1 3.2s.27 2.57.6 4.3l-.5 1.5c0 .47.08.93.25 1.4s.25.97.25 1.5l-.5 4.2.1 2.3c.07.07.15.17.25.3s.15.27.15.4l-.8 2.8c0 .33.02.72.05 1.15s.15 1.48.35 3.15l-.3 1.2c-.07 0-.1.17-.1.5 0 .8.12 1.58.35 2.35s.52 1.55.85 2.35v5.8l.2 1.3c-.07.13-.1.23-.1.3-.07.07-.1.13-.1.2v.1c-.07.07-.15.35-.25.85s-.15.92-.15 1.25v.1c0 .53.07 1.12.2 1.75s.27 1.25.4 1.85l-.9 1.8-.3 3.8c.07.13.12.37.15.7s.05.97.05 1.9q0 2.205-1.35 3.45c-.9.83-1.92 1.72-3.05 2.65-1 .07-1.88.3-2.65.7s-1.25 1.23-1.45 2.5q0 .3.9.6t1.2.3l4.4-.3 3 .3c1.47 0 2.83-.15 4.1-.45q1.905-.45 3.9-.45c1.87 0 3.7.37 5.5 1.1s3.57 1.1 5.3 1.1c2.4 0 3.6-1.17 3.6-3.5 0-.46-.18-.71-.55-.75-.37-.03-.85-.48-1.45-1.35q0-.105-.45-.45c-.3-.23-.65-.45-1.05-.65s-.8-.38-1.2-.55-.7-.25-.9-.25h-1.2c-.73-.07-1.42-.17-2.05-.3s-1.2-.35-1.7-.65q-.75-.45-1.2-1.35t-.45-2.4l.7-3.2-.7-1.9-.4-3.3-.3-1.7.7-2.2q0-1.995-.15-4.05c-.1-1.37-.18-2.68-.25-3.95-.07-.53-.22-1.12-.45-1.75s-.35-1.25-.35-1.85.25-1.27.75-2 1.12-1.1 1.85-1.1c.27 0 .65.02 1.15.05s1 .1 1.5.2.95.22 1.35.35.67.3.8.5l5.4 5.2c.13.73.4 1.33.8 1.8s.87.9 1.4 1.3 1.07.78 1.6 1.15.97.78 1.3 1.25c.33.73.72 1.5 1.15 2.3s1.05 1.47 1.85 2c1 .8 2.18 1.63 3.55 2.5s2.25 1.87 2.65 3l1.3 2.2 3.4 3.4c.33.33.57.67.7 1s.27.65.4.95.3.62.5.95.5.7.9 1.1c.13.27.47.6 1 1s1 .83 1.4 1.3c.4.2.63.4.7.6s.13.37.2.5l2.1 2.4q.495.3 1.65.75a25 25 0 0 0 2.4.8c.83.23 1.62.45 2.35.65s1.27.3 1.6.3c.47 0 1.13-.05 2-.15q1.305-.15 1.5-.15c.67 0 1.2.15 1.6.45s1.03.45 1.9.45c1.27 0 2.38-.28 3.35-.85s1.45-1.58 1.45-3.05q0-1.605-.9-2.25" fill="url(#f2f34063-53d7-4b90-97ad-5036eacff249)"/>
        <path d="M379.99 63c-.47 0-.87.22-1.2.65s-.62.92-.85 1.45-.45 1.05-.65 1.55-.4.82-.6.95c-.33.6-.87 1.33-1.6 2.2s-1.53 1.75-2.4 2.65-1.75 1.77-2.65 2.6-1.65 1.45-2.25 1.85l-4.6 1.8c-2.07.2-3.79.32-5.15.35-1.37.03-2.98.05-4.85.05h-3.7l-1.1-.4-4.1-.3c-.8-.07-1.7-.33-2.7-.8q-1.5-.705-2.85-1.8c-.9-.73-1.67-1.53-2.3-2.4q-.945-1.305-1.05-2.7v-5l-.8-8.9v-4.6c.07-.53.2-1.15.4-1.85s.48-1.38.85-2.05.8-1.22 1.3-1.65 1.12-.65 1.85-.65c.53 0 1.38.07 2.55.2s2.48.3 3.95.5 2.97.47 4.5.8q2.295.495 4.2 1.05c1.27.37 2.32.78 3.15 1.25q1.245.705 1.35 1.5v1.8l1.6 2.8c.07.33.1.8.1 1.4 0 .67.1 1.3.3 1.9q.3.9 1.8.9c1.5 0 1.68-.37 2.05-1.1s.55-1.6.55-2.6c0-.4-.12-.83-.35-1.3s-.35-1.03-.35-1.7l.3-2.1c0-.67-.04-1.5-.1-2.5-.07-1-.15-2-.25-3s-.18-1.88-.25-2.65-.1-1.22-.1-1.35l-.3-1.9.7-.9c.27-.73.45-1.28.55-1.65q.15-.555.15-1.35v-5.3c-.4-.73-.87-1.1-1.4-1.1-.6 0-1.12.4-1.55 1.2s-.83 1.73-1.2 2.8-.68 2.12-.95 3.15-.53 1.78-.8 2.25q-.6.705-1.95 1.65c-.9.63-1.65 1.02-2.25 1.15q-.9.6-1.8.6l-2.3-.1c-.27 0-.53.03-.8.1s-.5.13-.7.2c-.6.27-1.3.4-2.1.4l-9.3-.3c-1.53-1.46-2.48-3.05-2.85-4.75s-.55-3.48-.55-5.35v-2c0-.6.05-1.13.15-1.6s.32-.9.65-1.3v-6c0-1.73.03-3.42.1-5.05s.27-3.12.6-4.45c.13-.6.58-1.27 1.35-2s1.42-1.17 1.95-1.3c1.67-.2 3.33-.3 5-.3s3.37.1 5.1.3c.13.13.27.2.4.2.2 0 .33.03.4.1s.23.1.5.1c.47 0 1.02.03 1.65.1s1.28.1 1.95.1c.53 0 1.07-.07 1.6-.2.07-.07.27-.1.6-.1q1.305 0 1.8.9c.53.8 1.28 1.23 2.25 1.3s1.92.3 2.85.7c.13.27.37.72.7 1.35s.75 1.35 1.25 2.15 1.02 1.62 1.55 2.45 1.07 1.62 1.6 2.35c.13.2.27.38.4.55s.37.48.7.95c.6 1.33 1.3 2 2.1 2h.9c0-2.73-.2-5.4-.6-8 0-.27-.03-.8-.1-1.6s-.15-1.63-.25-2.5-.22-1.7-.35-2.5-.23-1.37-.3-1.7c0-.6-.28-1-.85-1.2s-1.05-.3-1.45-.3c-.33-.07-.7-.13-1.1-.2s-.8-.13-1.2-.2c-.47-.07-.93-.13-1.4-.2l-10.4-.5c-.6-.47-1.05-.73-1.35-.8s-.72-.1-1.25-.1q-1.395 0-2.7.45c-.87.3-1.7.45-2.5.45h-2.3c-.13-.33-.32-.52-.55-.55s-.55-.05-.95-.05-.7.1-.9.3-.37.3-.5.3c-.6 0-1.04-.1-1.3-.3-.27-.2-.6-.3-1-.3-1.07 0-2.15.28-3.25.85s-2.15.85-3.15.85l-3.3-.6c-1.67-.13-3.48-.35-5.45-.65s-3.88-.45-5.75-.45h-1.1c-.2 0-.57.07-1.1.2-.73-.53-1.57-.83-2.5-.9s-1.93-.1-3-.1c-1.33 0-2.37.12-3.1.35s-1.1 1.05-1.1 2.45c0 .8.2 1.43.6 1.9s.88.82 1.45 1.05 1.18.4 1.85.5 1.27.22 1.8.35c.07 0 .17.04.3.1.13.07.27.13.4.2l.4.2h4.2c.33.07.78.29 1.35.65q.855.555 1.65 1.35c.53.54 1 1.08 1.4 1.65s.6 1.08.6 1.55l.4 6.2-.4 3.4c0 .4.02.73.05 1s.15.67.35 1.2c.2 2.6.3 5.17.3 7.7s-.1 5.13-.3 7.6c.2 0 .45.12.75.35s.45.52.45.85c0 .2-.13.57-.4 1.1-.13.27-.27.5-.4.7 0 .13-.07.33-.2.6l-.2.4c-.2.8-.42 1.87-.65 3.2s-.35 2.4-.35 3.2q0 2.895.3 5.85c.2 1.97.57 3.92 1.1 5.85l-.8 1.3c.07.4.12.78.15 1.15s.05.75.05 1.15c0 .47-.02.92-.05 1.35s-.08.85-.15 1.25c-.07.53-.3 1.1-.7 1.7s-.87 1.15-1.4 1.65-1.07.92-1.6 1.25-.97.53-1.3.6h-4.7c-.53 0-1.22.05-2.05.15q-1.245.15-2.4.6c-.77.3-1.43.68-2 1.15s-.85 1.07-.85 1.8c0 .8.23 1.48.7 2.05s1.03 1.03 1.7 1.4 1.4.65 2.2.85q1.2.3 2.1.3c1.13 0 2.3-.25 3.5-.75s2.5-.75 3.9-.75l5.2.3 7.4-.7c3 0 5.92.12 8.75.35s5.65.35 8.45.35l8.9-.7 1.9.4 3.7-.4c.6 0 1.05.12 1.35.35s.82.35 1.55.35l1.2-.3c.33-.07.7-.1 1.1-.1h1.3c1.33 0 2.62-.12 3.85-.35s2.25-.98 3.05-2.25c.2-2.13.57-4.23 1.1-6.3s1.1-4.1 1.7-6.1l1-3.6q0-.495-.3-1.05c-.2-.37-.5-.55-.9-.55" fill="url(#46aee2fb-4972-4cf6-a13a-521e5e8579e5)"/>
        <path d="M473.69 81.65a7.7 7.7 0 0 0-1.9-1.45c-.73-.4-1.52-.75-2.35-1.05s-1.55-.65-2.15-1.05q-1.995-1.5-3.9-2.7c-1.27-.8-2.63-1.73-4.1-2.8q-.405-.405-.75-1.2c-.23-.53-.45-1.05-.65-1.55s-.42-.97-.65-1.4-.48-.71-.75-.85c-1.13-.67-2.13-1.5-3-2.5s-1.73-2-2.6-3a34 34 0 0 1-3.95-5.45c-1.1-1.9-2.38-3.78-3.85-5.65-.07-.07-.25-.32-.55-.75s-.63-.92-1-1.45-.7-1.02-1-1.45-.48-.72-.55-.85c-.33-.6-.75-.98-1.25-1.15s-.75-.65-.75-1.45c0-.87.27-1.55.8-2.05s1.17-.92 1.9-1.25 1.46-.68 2.2-1.05c.73-.37 1.3-.85 1.7-1.45.8-.8 1.65-1.48 2.55-2.05s1.68-1.32 2.35-2.25c.4-.6.65-1.48.75-2.65s.32-2.15.65-2.95c.33-.67.67-1.12 1-1.35s.5-.78.5-1.65c0-1-.1-1.92-.3-2.75s-.33-1.75-.4-2.75c-.13-2-.45-3.68-.95-5.05q-.75-2.055-2.1-3.6c-.9-1.03-1.97-1.97-3.2-2.8s-2.62-1.72-4.15-2.65l-1.3-.9c-.8-.53-1.73-.88-2.8-1.05s-2.04-.42-2.9-.75c-1.87-.53-3.7-.98-5.5-1.35s-3.67-.55-5.6-.55l-4.9.5-4.8-.5c-1.2 0-2.3.13-3.3.4s-2.04.4-3.1.4l-5.1-1.1-3.6.3-3.4-.3c-.33 0-.95.05-1.85.15s-1.82.28-2.75.55-1.75.58-2.45.95q-1.05.555-1.05 1.35c0 .6.27.93.8 1 1.4.33 2.63.68 3.7 1.05s2.05.83 2.95 1.4q1.35.855 2.55 1.95c.8.73 1.63 1.6 2.5 2.6v1.2l1 8.8-.3 3.7v1.7l.3 1.5c0 .13-.05.4-.15.8s-.15.63-.15.7l-.7 3.1.7 3.6c0 .27-.03.47-.1.6s-.33.27-.8.4c-.07.2-.13.72-.2 1.55s-.1 1.35-.1 1.55v.3l.3 1.3.9 5.6-1.2 10.4c0 .67.08 1.3.25 1.9s.25 1.3.25 2.1V65c0 1.13-.05 2.27-.15 3.4s-.32 2.13-.65 3c-.07 0-.22.12-.45.35s-.42.38-.55.45c-.13.54-.22 1.2-.25 2s-.25 1.5-.65 2.1c-.4.33-1.15.6-2.25.8s-2.23.48-3.4.85-2.2.82-3.1 1.35-1.35 1.27-1.35 2.2q0 .6.6 1.2l9.4.3q.795 0 1.5-.6c.47-.4.93-.6 1.4-.6l4.1.4c.6 0 1.13-.07 1.6-.2.46-.13.93-.2 1.4-.2 1.73.53 3.28.9 4.65 1.1s2.75.43 4.15.7c1.27.2 2.38.52 3.35.95s2.05.65 3.25.65c.47 0 1.03-.1 1.7-.3s1.3-.47 1.9-.8 1.12-.73 1.55-1.2.65-1 .65-1.6q0-1.695-1.5-2.25t-3.6-.75c-1.4-.13-2.82-.25-4.25-.35s-2.55-.45-3.35-1.05l-2.7-1.8c-.47-.2-.85-.53-1.15-1q-.45-.705-.45-1.2c.07-.6.1-1.17.1-1.7v-3.8c0-.6-.03-1.23-.1-1.9l-.1-1.2.5-9.2c-.13-.67-.23-1.18-.3-1.55s-.1-.85-.1-1.45c0-.33.07-.62.2-.85s.2-.62.2-1.15l-.4-2.2q0-.795.6-1.35c.4-.37.88-.68 1.45-.95s1.13-.45 1.7-.55 1.05-.15 1.45-.15c.93 0 2.12.25 3.55.75s2.82 1.17 4.15 2q1.995 1.245 3.45 2.85c.97 1.07 1.48 2.17 1.55 3.3l4.3 4.7 1.3 2.1q.495 1.095 1.8 2.25c.87.77 1.5 1.55 1.9 2.35l.8 2.1c1.27 2.73 2.78 5.3 4.55 7.7a36.7 36.7 0 0 0 6.15 6.5l.3.2c.73.54 1.68 1.12 2.85 1.75s2.05 1.02 2.65 1.15c1.53.13 2.87.22 4 .25s2.3.32 3.5.85h8.5c.8 0 1.53-.12 2.2-.35s1-.75 1-1.55c0-.87-.27-1.58-.8-2.15M437.44 27.4c-.37 1.07-.85 2.1-1.45 3.1l-1.9 3.6c-.6.73-1.28 1.45-2.05 2.15s-1.55 1.22-2.35 1.55c-.54.2-1.4.43-2.6.7s-2.43.55-3.7.85-2.4.68-3.4 1.15-1.57 1-1.7 1.6h-2.1q-2.505 0-4.35-1.35c-1.23-.9-1.85-2.22-1.85-3.95l1.2-5.2c-.07-.07-.15-.25-.25-.55s-.15-.48-.15-.55c0-.47.13-.7.4-.7V29c-.07-.33-.13-.82-.2-1.45s-.13-1.02-.2-1.15l-1.2-1.5.8-1.2c.53-2.07 1-4.08 1.4-6.05q.6-2.955.6-6.15V9.9c.07-.13.27-.5.6-1.1s.57-.97.7-1.1c.07-.07.35-.15.85-.25s1.03-.2 1.6-.3 1.12-.18 1.65-.25.87-.1 1-.1c3.87 0 7.23.62 10.1 1.85s5.23 3.55 7.1 6.95c.07.13.28.37.65.7s.55.57.55.7v.6c0 .13-.02.32-.05.55q-.045.345-.45 1.95c0 .8.21 1.48.65 2.05.43.57.65 1.15.65 1.75 0 1.27-.18 2.43-.55 3.5" fill="url(#9237860b-7384-4774-aa89-8824cfe5f015)"/>
    </g>
</svg>
