<?xml version="1.0" encoding="UTF-8"?>
<svg id="Layer_1" data-name="Layer 1" xmlns="http://www.w3.org/2000/svg" viewBox="0 0 128 128">
  <defs>
    <style>
      .cls-1 {
        fill: #d4b55a;
        stroke-width: 0px;
      }
    </style>
  </defs>
  <path class="cls-1" d="m122.47,38.46c-2.68-2.89-4.84-6.15-6.95-9.53.03.25.02.51.1.74,1.26,4.02,3.21,7.66,5.93,10.89,1.78,2.12,1.47,4.5-1.02,5.71-2.94,1.42-6.04,2.57-9.15,3.61-3.99,1.33-7.94,2.67-11.67,4.68-1.66.9-3.67,1.2-5.56,1.62-1.05.23-1.93-.37-2.58-1.22-3.55-4.69-5.39-9.91-4.8-15.86.44-4.42,4.87-7.99,8.88-7.14,2.13.45,3.65,2.15,3.8,4.24.15,2.04-.94,3.57-3.17,4.35-1.02.36-1.6,1-1.64,2.1-.02.67-.09,1.34-.04,2,.14,2,1.17,2.91,3.15,2.53,4.17-.8,8-2.55,11.56-4.83,1.55-.99,2.24-2.57,1.99-4.43-.67-4.94-1.9-9.72-4.4-14.09-.51-.89-1.12-1.84-1.93-2.42-.93-.67-2.14-1.39-3.21-1.37-7.97.15-15.36,2.14-21.78,7.13-2.82,2.2-4.35,4.99-4.38,8.56-.06,7.67,1.17,15.09,4.3,22.14.2.46.39.92.59,1.38.8,1.87.48,3.57-1.01,4.89-1.42,1.27-2.96,2.43-4.53,3.52-3.63,2.53-7.25,5.06-9.82,8.78-.48.7-1.07,1.33-1.61,1.99-.46-.75-.97-1.47-1.37-2.25-.53-1.04-.91-2.15-1.46-3.17-.68-1.25-.43-2.22.67-3.05.17-.12.3-.28.46-.42,4.82-4.21,6.08-9.52,4.84-15.62-1.26-6.21-2.26-12.46-1.9-18.84.27-4.74,1.56-9.05,5.57-12.04.96-.71,2.03-1.36,3.15-1.75,10.67-3.7,20.86-8.54,31.08-13.3,1.74-.81,3.49-1.17,5.31-.46,2.07.81,3.45,2.3,3.42,4.6-.12,8.86,3.32,16.44,8.28,23.5.55.78.92,1.7,1.37,2.55l-.46.27Zm-54.06,24.77c1.17-1.11,1.6-2.38,1.85-3.71.67-3.45.19-6.89-.33-10.3-.88-5.75-2.33-11.43-2.07-17.31,0-.16-.18-.32-.46-.81-.28.78-.51,1.27-.64,1.78-1.16,4.71-.73,9.42.06,14.13.86,5.07,2.23,10.1,1.3,15.33-.04.2.14.43.29.89Z"/>
  <path class="cls-1" d="m14.63,125.19c2.45-2.64,4.66-5.43,5.96-8.77-.11-.09-.22-.18-.34-.27-.34.32-.68.63-1.02.95-2.58,2.48-5.17,4.95-7.73,7.45-.92.9-1.96,1.13-3.42.78.4-.39.66-.72.99-.96,7.36-5.4,12.96-12.29,17.1-20.39,1.09-2.13,2.78-3.59,4.91-4.61,2.82-1.34,5.62-2.7,8.43-4.05.37-.18.71-.41,1.16-.68-.2-.45-.37-.86-.56-1.26-2.98-6.14-5.95-12.28-8.97-18.4-.65-1.31-.79-2.56-.39-3.97.97-3.41.73-6.75-.71-10-.53-1.18-.19-2.15,1.02-2.57.26-.09.92.36,1.1.72,1.92,3.64,3.77,7.32,5.65,10.99,9.11,17.82,18.23,35.63,27.34,53.44.15.3.32.59.45.89.26.63.02.98-.65.98-2.67,0-5.33.03-8-.02-1.1-.02-1.64-.82-2.08-1.73-3.36-6.93-6.73-13.84-10.1-20.76-.15-.3-.29-.6-.44-.89-.82-1.59-1.77-1.94-3.36-1.15-3.56,1.77-6.54,4.27-9.1,7.29-3.99,4.69-6.7,10.11-8.84,15.83-.4,1.06-.89,1.52-2.06,1.47-2.03-.1-4.08-.03-6.11-.03l-.23-.28Z"/>
  <path class="cls-1" d="m75.87,125.48c-.96,0-1.92-.06-2.87.01-1.45.11-2.3-.56-2.94-1.82-5.28-10.39-10.6-20.76-15.9-31.13-5.99-11.71-11.98-23.42-17.95-35.14-.25-.5-1.04-1.09-.07-1.68,1.23-.74,1.96-.58,2.66.39,1.11,1.55,2.09,3.29,3.51,4.5,1.37,1.17,3.18,1.91,4.89,2.6,1.4.56,2.4,1.33,3.09,2.69,9.82,19.28,19.67,38.55,29.51,57.83.81,1.59.71,1.75-1.05,1.76-.96,0-1.92,0-2.87,0Z"/>
  <path class="cls-1" d="m26.43,44.04c1.87-.1,3.74-.18,5.61-.29,1-.06,1.8.16,2.28,1.14.43.86,1.1.92,2,.66,5.69-1.69,11.49-2.74,17.44-2.77,3.71-.02,3.77.17,2.56,3.62-1.63,4.65-1.74,3.59-5.33,3.23-14.17-1.41-26.85,4.14-33.59,17.84-.9,1.84-1.37,2.05-3.35,1.66-1.51-.3-3.01-.65-4.53-.86-1.01-.14-1.14-.67-.68-1.35,1.07-1.58,2.12-3.19,3.37-4.64,3.43-3.98,7.12-7.71,11.42-10.78.82-.59.98-1.23.56-2.14-.65-1.39-1.22-2.83-1.83-4.24-.37-.85-.15-1.25.82-1.22,1.08.04,2.16,0,3.25,0,0,.05,0,.1,0,.15Z"/>
  <path class="cls-1" d="m20.52,12.55c.01,4.79-2.18,7.67-5.79,7.97-1.32.11-2.85-.27-4.04-.89-3.85-2.02-6.23-7.66-5.24-11.91C6.57,2.96,11.54.96,15.57,3.75c3.32,2.29,4.76,5.65,4.94,8.8Zm-4.74.05c-.08-1.51-.69-2.98-1.94-4.13-.7-.64-1.64-1.19-2.47-.57-.64.48-1.24,1.39-1.33,2.18-.19,1.67.52,3.17,1.71,4.37.73.74,1.6,1.25,2.68.79,1.06-.46,1.32-1.4,1.34-2.64Z"/>
  <path class="cls-1" d="m17.18,32.99c3.35,0,6.51-.05,9.66.05.57.02,1.33.57,1.64,1.09,1.11,1.85,2.07,3.79,3.08,5.7.38.72.17,1.13-.66,1.13-2.99,0-5.99.05-8.98-.05-.59-.02-1.44-.53-1.69-1.05-1.12-2.26-2.06-4.6-3.05-6.87Z"/>
  <path class="cls-1" d="m26.17,29.83c-.66.15-1.05.32-1.43.31-2.62-.09-5.24-.16-7.84-.4-.55-.05-1.23-.62-1.54-1.14-.6-1.03-.99-2.19-1.45-3.31-.5-1.22-.34-1.44.88-1.71,2.02-.44,4.02-.97,6.05-1.37.42-.08,1.16.1,1.34.41,1.34,2.28,2.58,4.63,3.99,7.2Z"/>
</svg>