<?xml version="1.0" encoding="UTF-8"?>
<svg id="Layer_1" data-name="Layer 1" xmlns="http://www.w3.org/2000/svg" viewBox="0 0 128 128">
  <defs>
    <style>
      .cls-1 {
        fill: #d4b55a;
        stroke-width: 0px;
      }
    </style>
  </defs>
  <path class="cls-1" d="m105.2,17.82c-4.23,3.51-8.52,6.94-12.67,10.54-10.91,9.45-20.91,19.84-31.06,30.09-4.81,4.86-9.68,9.65-14.53,14.47-.35.35-.72.69-1.25,1.19-1.18-1.63-2.35-3.18-3.43-4.78-.74-1.1-1.39-2.27-2.02-3.44-.79-1.47-.65-2.14.63-3.26,6.94-6.12,13.88-12.24,20.81-18.36,10.46-9.24,20.94-18.47,31.37-27.74,6.09-5.4,12.91-9.39,20.93-11.14,1.58-.34,3.21-.47,4.81-.67.27-.03.56.03,1.08.07-.46,1.86-.84,3.63-1.33,5.37-2.27,8.03-6.23,15.22-11.01,22.01-6.03,8.58-13.15,16.26-20.03,24.13-1.07,1.22-2.12,2.45-3.26,3.77,1.02.91,1.98,1.75,2.93,2.61,1.23,1.12,1.45,1.78.62,3.16-1.67,2.78-3.46,5.48-5.27,8.33-1.99-2.11-3.77-4-5.66-6.01-1.39,1.49-2.47,2.63-3.52,3.8-.57.64-.28,1.23.27,1.74,1.3,1.24,2.58,2.49,3.9,3.7.33.31.76.5,1.24.8-2.73,2.77-5.15,5.24-8.23,6.9-1.86,1-2.49.86-3.93-.62-.35-.36-.69-.72-1.04-1.09-1.41-1.51-1.71-1.51-3.15.06-.48.52-.93,1.07-1.46,1.55-1.1,1.01-1.77,1.01-3.22.02,8.64-8.77,17.29-17.49,24.85-27.19-.11-.15-.23-.31-.34-.46-.72.39-1.54.66-2.14,1.18-2.98,2.6-6.06,5.11-8.82,7.93-5.16,5.27-10.14,10.72-15.14,16.14-.77.84-1.37.95-2.15.19-1.29-1.24-2.57-2.49-3.87-3.72-.58-.55-.4-.93.12-1.43,8.49-8.25,16.98-16.48,25.43-24.78,10.38-10.21,20.34-20.79,28.63-32.83.44-.63.86-1.28,1.29-1.92-.12-.1-.24-.21-.36-.31Z"/>
  <path class="cls-1" d="m22.21,18.27c2.37,3.25,4.52,6.71,7.16,9.72,5.52,6.3,11.29,12.37,16.98,18.52,2.56,2.77,2.55,3.16-.27,5.63-4.04,3.55-8.03,7.15-12.1,10.65-1.46,1.25-3.12,2.28-4.68,3.41-.11-.1-.21-.19-.32-.29.22-.34.41-.72.67-1.03,1.99-2.41,4.02-4.78,5.98-7.22,2.08-2.58,2.11-3.48.28-6.24-1.06-1.59-2.24-3.11-3.33-4.68-.51-.73-1.18-1.01-1.94-.65-1.65.78-3.26,1.64-4.85,2.52-1.07.59-2.1,1.27-3.3,1.73,3.21-3.87,7.01-7.2,9.79-11.39-.1-.13-.19-.27-.29-.4-.73.37-1.49.69-2.17,1.13-2.31,1.46-1.71,1.55-3.5-.54-6.17-7.22-11.69-14.89-15.16-23.81-1.3-3.35-2.15-6.88-3.21-10.32.13-.14.25-.27.38-.41,1.45.16,2.92.25,4.35.51,8.52,1.55,15.77,5.64,22.19,11.31,8.28,7.31,16.53,14.64,24.8,21.97.28.25.57.48.98.82-2.39,2.16-4.65,4.21-7,6.34-10.13-9.54-19.6-19.7-30.99-27.68l-.45.39Z"/>
  <path class="cls-1" d="m92.02,66.28c1.55,1.41,2.95,2.64,4.3,3.93.77.73.75,1.65.3,2.54-1.02,2.04-1.98,4.13-3.16,6.08-1.11,1.84-1.25,3.44-.02,5.32,3.72,5.69,8.58,10.28,13.63,14.72,2.63,2.31,5.29,4.59,7.92,6.9,2.14,1.88,2.24,2.87.57,5.23-.38.54-.78,1.06-1.02,1.88.63-.29,1.32-.48,1.86-.88.83-.62,1.55-1.39,2.32-2.09,1.57-1.42,2.96-1.53,4.75-.38,2.75,1.76,4.02,5.05,3.21,8.28-.75,3-3.45,5.18-6.74,5.44-1.95.15-3.82-.09-5.55-1.09-1.8-1.04-2.93-2.63-2.86-4.67.11-3.16-1.17-5.48-3.26-7.77-6.15-6.71-12.44-13.23-19.69-18.78-.36-.28-.72-.57-1.11-.81-.35-.22-.74-.37-1.17-.57.79-1.41,1.58-2.82,2.37-4.22-.12-.1-.24-.2-.37-.29-.3.22-.61.43-.91.66-3.2,2.46-6.39,4.93-9.62,7.37-.56.42-1.22.71-1.86.99-.91.4-1.74.18-2.37-.56-1.03-1.2-2-2.44-3.11-3.82,8.99-6.09,16.16-13.79,21.58-23.39Z"/>
  <path class="cls-1" d="m12.55,112.04c-.46-.96-.91-1.92-1.38-2.88-.44-.9-.29-1.52.54-2.24,8.41-7.41,16.95-14.68,24.63-22.87,1.14-1.21,2.11-2.57,3.14-3.88.11-.14.14-.36.36-.93-1.6.84-2.89,1.51-4.07,2.13-1.39-2.69-2.79-5.31-4.1-7.98-1.01-2.05-.87-2.48.82-3.99,1.11-.99,2.22-1.99,3.48-3.11,5.41,9.5,12.52,17.26,21.6,23.35-1.12,1.37-2.12,2.7-3.23,3.92-.72.79-1.71.88-2.64.38-1.9-1.03-3.78-2.1-5.65-3.17-.58-.33-1.1-.75-1.67-1.09-1.28-.78-2.52-.7-3.71.22-8.43,6.48-15.85,14-22.8,22.02-.94,1.08-1.29,2.38-1.3,3.82,0,.91-.05,1.84-.23,2.73-.63,2.99-2.91,4.06-5.56,4.66-4.82,1.09-9.05-1.85-9.67-6.72-.46-3.6,2.78-7.65,6.35-7.84.38-.02.9.36,1.17.71,1.01,1.3,2.19,2.35,3.93,2.76Z"/>
  <path class="cls-1" d="m25.79,69c.12.14.16.17.17.21.1,1.02-.52,1.49-1.37,1.72-.13.04-.55-.35-.53-.49.16-.95.86-1.29,1.74-1.44Z"/>
</svg>