<?xml version="1.0" encoding="UTF-8"?>
<svg id="Layer_1" data-name="Layer 1" xmlns="http://www.w3.org/2000/svg" viewBox="0 0 128 128">
  <defs>
    <style>
      .cls-1 {
        fill: #d4b55a;
        stroke-width: 0px;
      }
    </style>
  </defs>
  <path class="cls-1" d="m50.36,21.33c.73.16,1.11.19,1.45.32,12.4,4.7,24.84,9.32,37.19,14.16,3.94,1.54,7.67,3.62,11.48,5.5,1.5.74,1.67,1.54.71,2.88-9.86,13.74-18.66,28.19-27.74,42.44-1.09,1.71-1.09,1.74-3.03,1.07-15.19-5.21-30.34-10.5-44.8-17.56-1.72-.84-3.43-1.7-5.1-2.64-1.55-.87-1.7-1.62-.81-3.12,8.7-14.63,18.49-28.5,29.09-41.8.45-.56,1.15-.92,1.57-1.25Zm-2.91,13.78c-.03,2.56,1.78,4.51,4.26,4.59,2.65.08,5.59-2.79,5.65-5.51.05-2.42-2.12-4.7-4.52-4.75-3-.06-5.35,2.42-5.38,5.67Zm10.75,24.95c2.61.05,5.34-2.66,5.41-5.37.06-2.41-1.83-4.34-4.29-4.4-2.99-.07-5.49,2.38-5.54,5.41-.04,2.54,1.76,4.31,4.42,4.36Zm8.68,20.99c2.81.04,5.35-2.31,5.39-4.99.03-2.42-2.07-4.33-4.81-4.38-2.91-.05-5.27,2.25-5.29,5.17-.02,2.5,1.84,4.16,4.72,4.21Z"/>
  <path class="cls-1" d="m113.88,71.27c-.19.64-.39,1.79-.84,2.84-4.05,9.43-9.17,18.29-14.43,27.08-2.63,4.39-5.28,8.77-7.92,13.16-.11.18-.18.41-.33.53-.66.53-1.29,1.27-2.04,1.41-.34.06-1.07-1.01-1.36-1.68-3.15-7.38-6.22-14.8-9.37-22.18-.47-1.09-.46-1.97.12-3.04,7.33-13.47,15.38-26.5,24.37-38.93.93-1.28,1.9-2.53,2.94-3.72.97-1.12,2.09-.95,2.63.42,3,7.61,5.27,15.42,6.23,24.12Zm-19.9,13.18c.31.39.77,1.37,1.55,1.89,1.19.79,2.55.41,3.6-.45,1.95-1.59,3.08-3.71,3.32-6.21.18-1.83-1.39-3.08-3.16-2.66-2.38.55-5.36,4.38-5.31,7.43Z"/>
  <path class="cls-1" d="m16.49,70.96c.37.13.97.3,1.54.54,7.94,3.32,15.82,6.79,23.83,9.94,9.09,3.58,18.28,6.9,27.46,10.27,1.25.46,2,1.12,2.48,2.36,2.6,6.66,5.28,13.3,7.93,19.95.23.58.6,1.11.75,1.71.13.55.28,1.37,0,1.67-.35.37-1.2.57-1.72.44-4.15-1.06-8.29-2.17-12.4-3.35-10.57-3.04-20.93-6.64-30.82-11.5-2.17-1.06-4.32-2.17-6.41-3.36-.77-.44-1.6-1.06-2-1.81-4.25-8.01-8.82-15.86-11.87-24.46-.11-.31-.23-.63-.27-.96-.11-.93.32-1.42,1.51-1.43Zm10.26,10.17c-.36.28-1.18.59-1.28,1.05-.14.66.02,1.63.46,2.11,1.61,1.8,3.84,2.6,6.11,3.13.52.12,1.44-.34,1.77-.82.27-.39.19-1.38-.14-1.79-1.68-2.11-4.01-3.14-6.92-3.68Zm20.83,13.4c1.93.01,2.93-1.28,2.12-2.55-1.32-2.05-3.24-3.26-5.71-3.19-.71.02-1.72.65-2.01,1.27-.25.53.13,1.65.6,2.16,1.38,1.48,3.28,2.03,5.01,2.31Zm-1.14,6.24c-.3.22-1.06.5-1.39,1.05-.47.76-.03,1.54.66,2.05,1.66,1.23,3.58,1.74,5.59,1.78.49.01,1.15-.51,1.42-.96.19-.32.02-1.14-.28-1.41-1.56-1.44-3.44-2.28-6.01-2.5Zm-9.33-.91c.36-.18,1.2-.35,1.47-.84.22-.4-.04-1.49-.42-1.73-1.72-1.05-3.52-1.98-5.38-2.77-.38-.16-1.27.37-1.6.81-.25.33-.2,1.25.09,1.57,1.47,1.59,3.25,2.7,5.83,2.95Zm23.39-4.96c-.35.19-1.1.45-1.65.94-.61.55-.75,1.43.02,1.94,1.75,1.15,3.67,1.99,5.81,1.8.54-.05,1.32-.57,1.47-1.04.15-.47-.2-1.32-.61-1.71-1.28-1.19-2.87-1.78-5.05-1.94Zm6.15,15.67c.71-.41,1.41-.68,1.89-1.16.24-.25.21-.99.02-1.36-.72-1.42-4.12-2.83-5.59-2.26-.57.22-1.22.86-1.35,1.42-.1.47.36,1.37.82,1.61,1.3.69,2.72,1.15,4.22,1.75Z"/>
  <path class="cls-1" d="m95.46,2.62c.26.73.65,1.44.74,2.18.25,2.07.39,4.14.53,6.22.39,6.14,4.71,7.42,9.09,6.26,2.88-.77,5.24-2.49,7.53-4.31,1.99-1.58,3.91-3.25,5.86-4.87.32-.27.61-.62.98-.76.48-.17,1.02-.15,1.53-.21-.08.48-.02,1.04-.27,1.42-.61.94-1.46,1.73-2.02,2.69-1.23,2.11-2.56,4.2-3.46,6.45-1.16,2.9-.42,5.69,1.87,7.75,1.74,1.56,3.85,2.71,5.81,4.03.31.21.71.29.99.52.23.19.54.55.49.77-.07.29-.41.54-.69.75-.15.11-.39.12-.6.15-4.19.71-5.98,2.66-6.34,6.91-.03.33.03.7-.1.98-.12.26-.42.6-.66.62-.3.02-.74-.17-.92-.41-.29-.39-.41-.9-.61-1.36-3.89-9.12-10.7-15.24-19.74-18.93-3.65-1.49-7.47-2.53-11.21-3.78-.35-.12-.82-.16-1.01-.41-.25-.32-.34-.81-.34-1.23,0-.1.6-.26.94-.29.28-.03.57.1.86.14,3.44.53,6.25-.8,7.72-3.95.82-1.75,1.24-3.69,1.85-5.54.19-.57.4-1.14.59-1.71.2-.03.4-.05.6-.08Z"/>
  <path class="cls-1" d="m8.9,124.91c.27-.39.53-.79.82-1.16,1.55-1.97,2.96-4.02,3.62-6.49.74-2.78.03-5.3-2.44-6.75-2.04-1.2-4.41-1.84-6.61-2.77-.53-.22-1.38-.6-1.39-.92-.01-.55.41-1.23.86-1.63.76-.69,1.68-1.22,2.54-1.81,1.55-1.05,2.35-2.5,2.49-4.38.13-1.66.4-3.3.62-4.95.04-.29.07-.62.23-.83.24-.33.59-.57.89-.86.16.34.41.67.45,1.03.23,2.15.16,4.36.63,6.45,2.26,9.86,8.31,16.53,17.56,20.4.11.05.27.03.35.11.32.27.61.57.91.85-.37.18-.73.5-1.11.53-1.91.12-3.83.12-5.73.25-4.51.31-8.88,1.25-13.08,2.94-.43.17-.91.24-1.37.35-.08-.12-.16-.24-.24-.36Z"/>
  <path class="cls-1" d="m73.22,14.96c-.5-.16-1.2-.29-1.8-.62-.32-.18-.66-.7-.64-1.04.02-.36.4-.83.75-1,1.1-.52,2.22-.31,3.16.39.37.28.72.87.7,1.3,0,.27-.7.55-1.12.75-.25.12-.56.12-1.05.21Z"/>
  <path class="cls-1" d="m39.11,123.71c-.75-.7-1.71-1.18-1.71-1.67-.01-1.13,1.12-1.17,1.97-1.15.77.02,1.85.18,1.65,1.19-.11.57-1.09.97-1.91,1.63Z"/>
</svg>