<?xml version="1.0" encoding="UTF-8"?>
<svg id="Layer_1" data-name="Layer 1" xmlns="http://www.w3.org/2000/svg" viewBox="0 0 128 128">
  <defs>
    <style>
      .cls-1 {
        fill: #d4b55a;
        stroke-width: 0px;
      }
    </style>
  </defs>
  <path class="cls-1" d="m64.05,112.86c-14.9,0-29.81,0-44.71,0-2.89,0-4.19-1.3-4.19-4.18,0-29.77,0-59.54,0-89.31,0-2.97,1.26-4.22,4.26-4.22,3.05,0,6.11,0,9.16,0,2.66,0,4.03,1.36,4.03,4.02,0,18.36-.01,36.71,0,55.07.01,13.85,8.59,25.73,21.66,30.09,18.15,6.06,37.88-5.99,40.72-24.91.28-1.86.41-3.76.41-5.64.03-18.14.02-36.27.02-54.41,0-2.96,1.27-4.21,4.26-4.21,3.13,0,6.25,0,9.38,0,2.37,0,3.8,1.43,3.8,3.8,0,30.02,0,60.05,0,90.07,0,2.44-1.41,3.83-3.88,3.83-14.98,0-29.95,0-44.93,0Z"/>
  <path class="cls-1" d="m91.92,35.67c-.7-.42-1.27-.7-1.78-1.07-3.69-2.69-8.3-2.68-11.96.03-2.63,1.95-5.53,1.95-8.15.02-3.73-2.75-8.33-2.75-12.04,0-2.59,1.91-5.49,1.93-8.06.05-3.83-2.8-8.32-2.81-12.13-.03-.48.35-1.03.61-1.7,1.01,0-3.6,0-6.97.02-10.35,0-.23.2-.52.4-.67,4.17-3.3,10.14-3.38,14.39-.22,1.9,1.41,4.14,1.42,6.05.02,4.22-3.11,9.94-3.11,14.12,0,1.89,1.4,4.13,1.4,6.05-.01,4.31-3.16,10.26-3.08,14.38.21.19.16.4.44.4.67.03,3.37.02,6.75.02,10.36Z"/>
  <path class="cls-1" d="m91.92,49.67c-.76-.47-1.33-.78-1.85-1.15-3.61-2.64-8.26-2.62-11.87.05-2.68,1.98-5.53,1.98-8.24,0-3.66-2.69-8.29-2.68-11.96.03-2.64,1.95-5.51,1.96-8.15.02-3.74-2.75-8.29-2.74-12.05,0-.48.35-1.03.62-1.73,1.03,0-3.02.07-5.8-.03-8.59-.04-1.24.15-2,1.52-2.32.81-.19,1.56-.75,2.26-1.26,2.51-1.83,5.52-1.85,7.98-.01,3.77,2.81,8.37,2.84,12.13.06,2.62-1.94,5.51-1.93,8.15.03,3.65,2.7,8.33,2.71,11.96.02,2.68-1.99,5.56-1.95,8.25-.02.9.65,2,1.01,2.97,1.56.28.16.62.51.62.78.05,2.91.03,5.81.03,8.72,0,.25,0,.5,0,1.05Z"/>
  <path class="cls-1" d="m91.92,63.61c-.75-.46-1.31-.76-1.83-1.13-3.63-2.64-8.27-2.64-11.87.03-2.69,1.99-5.55,2-8.24.02-3.67-2.7-8.3-2.7-11.96,0-2.68,1.98-5.53,1.98-8.24-.02-3.62-2.67-8.26-2.67-11.87-.03-.51.38-1.08.67-1.83,1.13,0-1.43,0-2.61,0-3.79,0-1.93.02-3.85-.01-5.78-.01-.61.19-.83.76-1.07,1.09-.46,2.18-1,3.15-1.68,2.37-1.65,5.39-1.69,7.73.03,3.99,2.94,8.4,2.95,12.39.03,2.41-1.77,5.4-1.77,7.8,0,3.98,2.92,8.39,2.91,12.39-.02,2.38-1.75,5.42-1.69,7.82.02.96.68,2.1,1.11,3.14,1.7.28.16.64.5.64.77.04,3.16.03,6.32.03,9.78Z"/>
  <path class="cls-1" d="m36.23,77.46c-.06-1.1-.13-2-.14-2.9-.02-2.18.01-4.36-.02-6.54,0-.59.16-.84.75-1.08,1.1-.45,2.18-.99,3.15-1.67,2.37-1.66,5.4-1.7,7.73.01,4.04,2.97,8.4,2.97,12.47,0,2.35-1.72,5.34-1.71,7.71.02,4.04,2.96,8.38,2.94,12.47-.04,2.29-1.67,5.33-1.63,7.64-.04,1.03.71,2.22,1.19,3.32,1.81.24.13.58.39.58.6.04,3.19.03,6.37.03,9.93-.82-.49-1.34-.76-1.81-1.1-3.69-2.67-8.27-2.65-11.95.07-2.61,1.93-5.51,1.93-8.15-.01-3.72-2.74-8.31-2.73-12.04.03-2.57,1.9-5.48,1.91-8.06.03-3.82-2.8-8.29-2.8-12.13-.02-.43.31-.91.54-1.55.91Z"/>
  <path class="cls-1" d="m87.73,89.08c-3.73-1.23-7.03-.61-10.11,1.74-2.07,1.59-5.2,1.55-7.23-.11-3.68-3-9.12-2.99-12.78,0-2.03,1.66-5.19,1.68-7.24.11-3.07-2.36-6.38-2.97-10.1-1.75-1.58-2.52-2.71-5.19-3.33-7.92,1.25-.8,2.37-1.52,3.49-2.24,2.11-1.34,5.12-1.38,7.08.23,3.72,3.06,9.21,2.94,12.78.03,2.19-1.79,5.3-1.61,7.69.17,3.16,2.35,6.57,2.73,10.17,1.22.73-.3,1.4-.77,2.04-1.24,2.44-1.79,5.47-1.8,7.9-.04.9.65,1.9,1.17,2.96,1.82-.62,2.76-1.76,5.39-3.33,7.98Z"/>
  <path class="cls-1" d="m85.46,92.16c-11.14,13.85-32.42,13.31-42.9,0,1.88-.4,3.56-.08,5.08,1.01,4.22,3.02,8.4,3.02,12.56,0,2.3-1.67,5.3-1.66,7.62.02,4.11,2.98,8.4,2.99,12.47.03,1.53-1.11,3.21-1.44,5.17-1.05Z"/>
</svg>