<?xml version="1.0" encoding="UTF-8"?>
<svg id="Layer_1" data-name="Layer 1" xmlns="http://www.w3.org/2000/svg" viewBox="0 0 128 128">
  <defs>
    <style>
      .cls-1 {
        fill: #d4b55a;
        stroke-width: 0px;
      }
    </style>
  </defs>
  <path class="cls-1" d="m0,108.06c1.76-1.92,3.46-3.89,5.31-5.71.52-.51,1.51-.76,2.29-.77,12.61-.05,25.22-.03,37.83-.03.2,0,.4.04.7.07-.46,3.73-.92,7.4-1.39,11.19h-1.51c-12.78,0-25.55-.04-38.33.03-2.29.01-3.94-.68-4.91-2.79C0,109.4,0,108.73,0,108.06Z"/>
  <path class="cls-1" d="m60.73,45.26h6.52c2.8,22.47,5.6,44.92,8.42,67.47h-23.35c2.8-22.48,5.61-44.95,8.42-67.47Z"/>
  <path class="cls-1" d="m82.74,22.66v14.95h-15c0-.36,0-.75,0-1.15,0-3.21,0-6.43,0-9.64,0-2.45-1.53-4.14-3.71-4.16-2.23-.02-3.78,1.69-3.78,4.21,0,3.54,0,7.09,0,10.72h-14.94v-14.94c-1.15,0-2.21,0-3.27,0-2.55,0-4.25-1.49-4.28-3.72-.02-2.23,1.69-3.79,4.21-3.79,14.71,0,29.41,0,44.12,0,2.45,0,4.13,1.52,4.16,3.71.02,2.24-1.69,3.78-4.2,3.8-1.04,0-2.08,0-3.29,0Z"/>
  <path class="cls-1" d="m81.84,101.55h1.43c12.12,0,24.24.02,36.36-.02,1.66,0,2.99.47,4.11,1.69,1.01,1.1,2.13,2.11,3.16,3.21,1.12,1.21,1.44,2.63.74,4.16-.67,1.46-1.87,2.22-3.48,2.22-13.45,0-26.9,0-40.36,0-.16,0-.32-.04-.57-.08-.46-3.69-.92-7.36-1.39-11.19Z"/>
  <path class="cls-1" d="m13.27,94c.73-2.9,1.38-5.66,2.12-8.39.49-1.8,1.82-2.83,3.66-2.83,9.61-.02,19.23-.01,28.84,0,.16,0,.32.04.59.07-.47,3.73-.93,7.43-1.4,11.15H13.27Z"/>
  <path class="cls-1" d="m114.71,93.98h-33.82c-.47-3.71-.93-7.38-1.41-11.21h1.39c9.12,0,18.23,0,27.35,0,2.77,0,3.88.88,4.57,3.6.63,2.5,1.26,5,1.91,7.61Z"/>
  <path class="cls-1" d="m24.52,75.16c.76-2.95,1.44-5.91,2.29-8.81.42-1.43,1.63-2.31,3.11-2.32,6.9-.06,13.81-.03,20.9-.03-.46,3.75-.92,7.41-1.38,11.16h-24.93Z"/>
  <path class="cls-1" d="m103.46,75.19h-24.91c-.46-3.72-.92-7.39-1.4-11.2.54,0,.95,0,1.35,0,6.2,0,12.4,0,18.61,0,2.59,0,3.77.94,4.41,3.48.64,2.54,1.28,5.08,1.94,7.72Z"/>
  <path class="cls-1" d="m53.17,45.23c-.47,3.76-.92,7.43-1.39,11.16h-16.03c.77-2.99,1.46-5.97,2.33-8.9.39-1.33,1.54-2.2,2.91-2.23,4.03-.1,8.05-.03,12.17-.03Z"/>
  <path class="cls-1" d="m76.2,56.38c-.46-3.69-.92-7.36-1.39-11.18,1.43,0,2.8,0,4.16,0,2.41,0,4.83-.01,7.24,0,2.07.01,3.43,1.01,3.95,2.96.71,2.69,1.35,5.4,2.05,8.21h-16Z"/>
</svg>