<?xml version="1.0" encoding="UTF-8"?>
<svg id="Layer_1" data-name="Layer 1" xmlns="http://www.w3.org/2000/svg" viewBox="0 0 128 128">
  <defs>
    <style>
      .cls-1 {
        fill: #d4b55a;
        stroke-width: 0px;
      }
    </style>
  </defs>
  <path class="cls-1" d="m105.64,39.36h7.25v66.61h-1.39c-11.52,0-23.04,0-34.56,0-2.45,0-2.91.47-2.91,2.96,0,1.8.01,3.59,0,5.39-.01,1.57-.57,2.15-2.1,2.15-5.31,0-10.62,0-15.93,0-1.41,0-2.01-.58-2.03-1.98-.03-1.91,0-3.83,0-5.74,0-2.23-.53-2.77-2.75-2.77-11.56,0-23.12,0-34.68,0h-1.43V39.38h7.23c0,.54,0,1.04,0,1.53,0,18.78,0,37.56,0,56.34,0,2.54.48,3.02,3,3.02,5.08,0,10.15-.01,15.23,0,2.36,0,4.52-.57,6.56-1.81,4.68-2.84,10.45-2.53,14.86.71,1.91,1.4,2.12,1.4,3.97.04,4.46-3.29,10.21-3.6,14.96-.72,1.97,1.19,4.06,1.76,6.34,1.76,5.23,0,10.47,0,15.7,0,2.1,0,2.68-.6,2.68-2.75,0-18.86,0-37.72,0-56.58,0-.5,0-1,0-1.57Z"/>
  <path class="cls-1" d="m101.85,96.52c-1.66,0-3.22,0-4.77,0-3.32,0-6.64.1-9.95-.05-1.35-.06-2.83-.42-3.98-1.09-5.45-3.16-10.97-3.49-16.67-.84-.13.06-.28.1-.52.19v-31.45c8.79-.89,15.93-4.77,20.94-12.1,4.99-7.3,6.06-15.31,3.66-23.98.69.16,1.31.29,1.92.46,3.07.83,5.93,2.15,8.63,3.82.6.37.82.81.82,1.51-.02,20.81-.01,41.61-.02,62.42,0,.31-.03.62-.05,1.12Z"/>
  <path class="cls-1" d="m37.39,27.19c-5.37,18.09,7.82,35.04,24.65,36.11v31.32c-1.42-.47-2.82-1.04-4.28-1.39-4.29-1.02-8.39-.44-12.18,1.81-1.74,1.04-3.54,1.52-5.55,1.49-4.18-.06-8.35-.02-12.53-.02h-1.41v-1.37c0-20.65,0-41.3-.02-61.95,0-.91.3-1.41,1.05-1.86,3.16-1.92,6.52-3.32,10.27-4.15Zm-7.5,52.74c0,1.72-.02,3.43,0,5.15.02,1.4.73,2.23,1.85,2.25,1.13.02,1.87-.81,1.88-2.2.02-3.39.02-6.78,0-10.18,0-1.4-.73-2.24-1.84-2.25-1.14-.02-1.88.87-1.9,2.32-.02,1.64,0,3.28,0,4.91Zm3.75-13.03c0-1.46-.7-2.3-1.92-2.27-1.16.03-1.83.85-1.83,2.25,0,1.44.73,2.31,1.93,2.28,1.15-.03,1.81-.85,1.82-2.26Z"/>
  <path class="cls-1" d="m45.87,20.04c2.07,4.33,4.15,8.64,6.19,12.97.12.27.08.8-.11,1-3.33,3.5-6.7,6.98-10.07,10.47-3.88-5.65-1.55-19.93,3.99-24.44Z"/>
  <path class="cls-1" d="m87.79,37.02c-4.26-2.32-8.5-4.62-12.73-6.95-.2-.11-.39-.5-.35-.72.71-4.61,1.45-9.22,2.19-13.85,6.35,2.65,12.64,15.08,10.89,21.52Z"/>
  <path class="cls-1" d="m86.95,42.4c-2.19,8.02-9.41,14.67-16.95,16.27.28-1.85.55-3.65.83-5.44.39-2.46.78-4.93,1.19-7.39.08-.49.02-1.06.82-1.18,4.66-.72,9.31-1.49,14.11-2.27Z"/>
  <path class="cls-1" d="m72.17,13.09c-3.24,3.36-6.46,6.7-9.76,10.12-4.21-2.29-8.41-4.56-12.63-6.85,5.65-4.78,15.35-6.31,22.39-3.27Z"/>
  <path class="cls-1" d="m44.43,49.27c4.79-.77,9.49-1.53,14.33-2.31,1.98,4.13,3.96,8.25,5.95,12.4-5.78,1.51-16.9-4.01-20.27-10.09Z"/>
  <path class="cls-1" d="m63.63,28.15c1.8.98,4.06,2.19,6.29,3.46.24.14.46.62.42.91-.4,2.78-.84,5.55-1.33,8.31-.05.3-.48.71-.79.77-2.14.4-4.31.71-6.46,1.08-.66.12-.98-.11-1.25-.7-1.06-2.3-2.2-4.56-3.25-6.87-.15-.33-.15-.99.07-1.19,2.01-1.91,4.07-3.75,6.29-5.76Z"/>
  <path class="cls-1" d="m72.83,40.88c.4-2.46.76-4.67,1.15-7.1,3.28,1.78,6.4,3.47,9.83,5.33-3.82.62-7.29,1.18-10.98,1.77Z"/>
  <path class="cls-1" d="m46.76,44.82c2.41-2.5,4.83-5.01,7.33-7.6,1,2.08,1.94,4.04,2.97,6.19-3.46.56-6.81,1.11-10.16,1.66-.05-.08-.1-.16-.15-.24Z"/>
  <path class="cls-1" d="m50.83,21.2c2.9,1.57,5.79,3.15,8.79,4.78-1.63,1.45-3.19,2.83-4.73,4.2-1.27-2.64-2.75-5.73-4.23-8.81.06-.05.12-.11.18-.16Z"/>
  <path class="cls-1" d="m65.59,24.95c2.51-2.26,4.85-4.37,7.02-6.31-.45,2.81-.96,5.98-1.5,9.3-1.8-.98-3.46-1.88-5.52-2.99Z"/>
  <path class="cls-1" d="m62.66,46.4c.34-.11.44-.17.56-.18,1.61-.25,3.23-.5,5.06-.79-.5,3.13-.98,6.15-1.46,9.18-.07,0-.15.02-.22.03-1.3-2.71-2.6-5.42-3.94-8.23Z"/>
</svg>