<?xml version="1.0" encoding="UTF-8"?>
<svg id="Layer_1" data-name="Layer 1" xmlns="http://www.w3.org/2000/svg" viewBox="0 0 128 128">
  <defs>
    <style>
      .cls-1 {
        fill: #d4b55a;
        stroke-width: 0px;
      }
    </style>
  </defs>
  <path class="cls-1" d="m104.05,64.62c-.52.71-.98,1.46-1.56,2.11-7.57,8.44-15.17,16.86-22.74,25.3-.83.93-1.76,1.36-3,1.36-4.98-.03-9.96,0-14.94-.01-1.69,0-2.73-.72-3.07-2.1-.26-1.07.18-1.92.88-2.69,4.14-4.59,8.27-9.18,12.4-13.77,3.02-3.35,6.03-6.7,9.05-10.06.21-.23.41-.47.66-.76-.21-.24-.4-.48-.61-.71-7.17-7.96-14.33-15.93-21.5-23.89-1.3-1.45-1.32-3.16.07-4.15.53-.38,1.29-.61,1.95-.61,5.13-.05,10.27-.02,15.41-.03,1,0,1.8.37,2.47,1.12,7.86,8.74,15.73,17.48,23.58,26.22.37.41.62.94.93,1.41v1.25Z"/>
  <path class="cls-1" d="m47.05,63.99c-1.31-1.46-2.58-2.87-3.85-4.28-6.1-6.78-12.2-13.56-18.31-20.34-.83-.93-1.22-1.95-.69-3.15.53-1.19,1.56-1.61,2.8-1.61,5.11,0,10.22,0,15.33,0,1.03,0,1.85.38,2.54,1.15,7.84,8.73,15.69,17.44,23.54,26.16,1.27,1.41,1.27,2.74,0,4.16-7.83,8.7-15.66,17.4-23.48,26.1-.73.81-1.59,1.2-2.68,1.2-5.06-.01-10.11,0-15.17,0-1.27,0-2.32-.4-2.87-1.63-.55-1.23-.09-2.26.75-3.2,7.1-7.88,14.2-15.77,21.3-23.65.26-.29.51-.58.8-.91Z"/>
</svg>