<?xml version="1.0" encoding="UTF-8"?>
<svg id="Layer_1" data-name="Layer 1" xmlns="http://www.w3.org/2000/svg" viewBox="0 0 128 128">
  <defs>
    <style>
      .cls-1 {
        fill: #d4b55a;
        stroke-width: 0px;
      }
    </style>
  </defs>
  <path class="cls-1" d="m27.99,122.35c1.24-5.68,5.2-8.87,11.01-8.87,16.67,0,33.34,0,50.01,0,5.81,0,9.73,3.17,11.01,8.87H27.99Z"/>
  <path class="cls-1" d="m60.53,106.41h-16.33c3.5-27.98,6.98-55.87,10.5-84.01,1.41,1.41,2.61,2.78,3.98,3.93,1.46,1.23,1.9,2.62,1.9,4.53-.07,24.68-.04,49.37-.04,74.05,0,.48,0,.97,0,1.5Z"/>
  <path class="cls-1" d="m73.31,22.38c3.52,28.17,7.01,56.06,10.5,84.04h-16.33c0-.48,0-.89,0-1.29,0-25.25,0-50.51-.02-75.76,0-.84.25-1.41.84-1.98,1.63-1.57,3.21-3.21,5-5.01Z"/>
  <path class="cls-1" d="m64.01,5.65c2.44,3.04,4.78,5.95,7.04,8.76-2.41,2.42-4.75,4.78-6.99,7.03-2.25-2.25-4.6-4.59-7.06-7.06,2.21-2.75,4.57-5.68,7.02-8.73Z"/>
</svg>