<?xml version="1.0" encoding="UTF-8"?>
<svg id="Layer_1" data-name="Layer 1" xmlns="http://www.w3.org/2000/svg" viewBox="0 0 747.84 857.97">
  <defs>
    <style>
      .cls-1 {
        fill: #d4b55a;
        stroke-width: 0px;
      }
    </style>
  </defs>
  <path class="cls-1" d="m747.84,132.67c-.14.53-.37,1.05-.39,1.59-.5,10.55-2.88,20.73-6.55,30.58-12.04,32.28-33.97,55.57-64.91,70.47-18.44,8.88-37.95,12.45-58.4,11.73-40.84-1.45-79.59-25.53-100.22-61.99-3.91-6.91-7.08-14.14-9.96-21.51-.38-.96-.78-1.92-1.18-2.92H205.14v164.83c.52-.5.92-.8,1.23-1.19,31.06-38.58,70.33-64.42,118.59-76.24,17.44-4.27,35.2-5.46,53.11-4.79,12.25.46,24.4,1.7,36.42,4.13,31.88,6.44,60.34,19.73,84.23,42.1,16.27,15.24,28.55,33.33,37.82,53.52,8.28,18.03,13.84,36.91,17.4,56.41,4.56,24.98,5.6,50.17,4.69,75.48-1.2,33.23-6.12,65.86-16.97,97.4-17.26,50.17-44.59,94.11-82.03,131.78-22.62,22.75-47.86,42.1-75.01,59.1-37.49,23.47-77.26,42.12-118.85,57.03-25.91,9.28-52.35,16.69-79.12,23-19.45,4.58-38.98,8.75-58.64,12.27-4.86.87-9.74,1.66-14.98,2.55.33-27.03.73-53.84,1.2-80.81,3.1-.56,6.07-1.08,9.03-1.64,57.99-10.92,113.64-28.75,165.97-56.29,23.03-12.12,45.12-25.8,65.48-42.08,28.69-22.95,53.01-49.76,71.25-81.81,12.44-21.85,22.11-44.82,27.84-69.38,2.62-11.22,4.46-22.56,5.63-34.02,1.47-14.42,1.96-28.87,1.34-43.35-.93-21.75-4.92-42.83-14.35-62.65-8.28-17.41-20.01-31.91-36.23-42.55-12.15-7.97-25.48-12.92-39.83-15.04-30.05-4.44-58.39.86-85.11,15.16-13.97,7.48-26.51,16.96-38.45,27.29-19.11,16.54-34.57,36.1-47.77,57.53-.29.48-.62.94-.86,1.44-.47,1.01-1.24,1.27-2.32,1.27-26.8-.03-53.6-.02-80.4-.03-.31,0-.61-.07-1.15-.14V160.58c-1.14-.03-2.06-.09-2.98-.09-27.68,0-55.36,0-83.04,0-9.43,0-18.87,0-28.3,0,0-26.07,0-52.13,0-78.2,1.1-.11,2.21-.33,3.31-.33,35.92-.02,71.84-.01,107.76-.02,1,0,2-.08,3.15-.13v-26.15c0-8.56,0-17.11,0-25.67.01-8.59-.05-17.19.04-25.75h90.77v77.57h301.18c1.41-3.41,2.69-6.77,4.16-10.04,23.33-51.62,80.21-80.55,137.07-69.42,38.74,7.58,72.45,34.09,89.42,69.72,5.79,12.14,9.72,24.82,10.58,38.34.03.54.26,1.07.39,1.61v20.63Zm-58.09-10.76c-.3-3.28-.4-6.57-.92-9.79-3.53-21.89-14.81-38.36-34.76-48.4-14.63-7.36-30.14-8.62-46.01-5.07-14.04,3.14-25.75,10.24-34.72,21.58-19.59,24.76-19.12,60.31,1.01,85.2,21.27,26.29,55.52,29.79,80.44,15.73,22.94-12.93,33.78-33.3,34.95-59.26Z"/>
</svg>