<?xml version="1.0" encoding="UTF-8"?>
<svg id="Layer_1" data-name="Layer 1" xmlns="http://www.w3.org/2000/svg" viewBox="0 0 756.9 854.63">
  <defs>
    <style>
      .cls-1 {
        fill: #d4b55a;
        stroke-width: 0px;
      }
    </style>
  </defs>
  <path class="cls-1" d="m756.9,333.07h-103.06c-1.59-10.65-2.25-20.76-4.68-30.41-10.79-42.92-45.73-52.29-75.43-46.23-25.84,5.28-38.47,27.25-34.14,56.92,4.01,27.53,15.83,51.86,30.25,75.12,26.89,43.39,61.62,80.35,97.03,116.61,25.19,25.78,51.35,50.61,77.27,75.67,3.71,3.59,5.56,7.04,5.48,12.35-.3,21.43-.13,42.87-.13,64.3,0,2.45,0,4.89,0,7.98h-328.03v189.24h-84.89v-188.84H9.98c-.16-3.42-.37-5.86-.37-8.31-.03-21.43.12-42.87-.11-64.3-.05-4.9,1.42-8.29,4.91-11.82,39.96-40.59,80.36-80.79,119.34-122.31,30.62-32.62,57.58-68.32,74.83-110.1,5.41-13.09,9.25-27.28,11.08-41.32,4.54-34.96-21.33-53.68-51.58-52.83-34.62.97-55.51,20.5-60.07,55.79-.93,7.2-1.42,14.46-2.16,22.14H0c1.16-10.82,1.91-21.73,3.55-32.5,10.26-67.59,58.79-121.73,124.37-137.07,44.28-10.36,87.85-6.6,128.83,13.98,40.08,20.13,60.88,54.39,67.48,97.96,7.23,47.67-7.01,90.7-29.14,131.86-23.74,44.17-56.29,81.68-90.69,117.61-16.9,17.65-35.06,34.07-52.66,51.05.48.76.97,1.51,1.45,2.27h183.1v-7.74c0-117.26-.05-234.52.15-351.78,0-5.65-1.81-8.23-6.74-10.74-43.13-21.93-66.33-66.75-59.78-114.75,6.12-44.82,41.13-81.44,86.73-90.7,53.09-10.78,106.58,19.22,124.64,69.9,18.61,52.23-3.94,110.09-53.1,135.3-5.5,2.82-7.25,5.89-7.24,11.95.19,116.75.14,233.51.14,350.26,0,2.72,0,5.44,0,8.63h186c-5.08-4.86-8.88-8.37-12.53-12.02-41.81-41.71-82.39-84.52-115.4-133.78-22.21-33.14-39.73-68.6-45.16-108.6-5.85-43.05.71-83.66,29.83-117.92,22.08-25.98,51.62-38.71,84.54-44.37,42.07-7.23,83.09-4.62,121.16,16.43,51.26,28.35,77.98,73.34,85.88,130.49.37,2.68,1,5.31,1.51,7.97v16.64ZM345.42,109.78c.05,18.3,14.93,33.64,32.72,33.73,17.81.09,32.65-15.11,32.78-33.56.13-18.84-14.78-34.23-32.99-34.05-17.81.18-32.56,15.55-32.51,33.88Z"/>
</svg>