<?xml version="1.0" encoding="UTF-8"?>
<svg id="Layer_1" data-name="Layer 1" xmlns="http://www.w3.org/2000/svg" viewBox="0 0 128 128">
  <defs>
    <style>
      .cls-1 {
        fill: #56a9bf;
        stroke-width: 0px;
      }
    </style>
  </defs>
  <path class="cls-1" d="m69.34,25.14c14.22.18,26.27,1.06,38.2,3.25,1.65.3,3.29.67,4.91,1.13,4.33,1.22,6.81,4.64,6.63,9.14-.29,7.31-2.32,14.17-5.41,20.74-3.95,8.4-9.53,15.63-15.99,22.24-2.83,2.9-5.71,5.79-8.22,8.96-4.48,5.65-5.35,12.18-3.75,19.09.4,1.73,1.16,3.31,2.42,4.6,1.75,1.78,3.72,1.93,5.68.39,1.87-1.47,2.99-3.47,3.84-5.64,1.25-3.18,1.87-6.45,1.26-9.87-.33-1.89-1.61-3.11-3.33-3.27-1.89-.18-3.33.66-4.04,2.5-.85,2.19-1.56,4.43-1.07,6.83.18.88.52,1.98,1.5,1.84.65-.09,1.32-1.03,1.69-1.74.23-.44-.1-1.16-.14-1.75-.05-.8-.23-1.66-.03-2.4.27-.96,1.25-1.04,1.84-.21.3.43.54.98.6,1.5.26,2.21-.17,4.31-1.45,6.15-1.17,1.69-2.77,1.85-4.3.5-1.28-1.12-1.87-2.6-2.11-4.22-.51-3.42.09-6.62,2.07-9.5,1.41-2.05,3.38-2.9,5.8-2.44,2.38.46,3.83,2.02,4.42,4.35,1.59,6.29.26,11.99-3.45,17.24-2.28,3.24-5.28,4.67-9.27,4.5-11.47-.51-22.9-1.43-34.26-3.16-7.77-1.18-15.45-2.74-22.92-5.24-6.23-2.09-10.21-7.46-10.6-14.03-.44-7.53,2.04-14,6.73-19.73,1.6-1.95,3.29-3.82,5.05-5.64,2.48-2.56,6.27-2.74,8.72-.17,3.15,3.3,6.06,6.83,9.04,10.29.24.27.21.77.31,1.16-.37.09-.74.28-1.1.24-2.29-.25-4.57-.53-6.85-.83-1.01-.13-1.82.03-2.22,1.09-.5,1.32.19,2.42,1.58,2.62,3.51.5,7.01,1.02,10.51,1.55,1.72.26,3.13,1.12,4.36,2.35,4.26,4.23,9.12,7.52,14.89,9.36.42.13.85.37,1.26.34.57-.05,1.36-.14,1.63-.52.3-.43.31-1.27.09-1.79-.42-1.04-1.18-1.94-1.62-2.98-1.6-3.72-3.21-7.43-4.65-11.21-.61-1.6-1.36-2.84-3-3.51-1.51-.62-2.49-1.88-3.29-3.27-.16-.28-.28-.8-.13-.97.21-.24.68-.39,1.03-.36,2.95.25,5.89.64,8.84.79,3.09.16,6.2.16,9.3.1.64-.01,1.67-.52,1.81-1,.27-.94-.74-1.4-1.49-1.56-2.89-.6-5.78-1.23-8.71-1.57-3.34-.39-6.7-.52-10.06-.73-2.05-.13-3.4-.91-4.13-3.04-1.98-5.76-4.19-11.45-6.3-17.17-.67-1.81-.28-2.45,1.6-2.59,7.27-.55,14.54-.32,21.8.21,9.6.7,19.08,2.14,28.48,4.23,1.07.24,2.15.46,3.19.76,2.5.73,4.55-.1,6.26-1.87,2.34-2.43,3.12-5.54,3.66-8.75.4-2.36.27-4.68-.69-6.88-.4-.92-.94-1.84-1.59-2.6-1.94-2.23-4.27-2.06-5.89.43-1.36,2.09-2.09,4.41-2.21,6.91-.09,1.85.11,3.65.95,5.33.71,1.43,1.37,1.59,2.67.66,1.72-1.23,2.57-3,2.75-5.03.11-1.22-.04-2.48-.22-3.69-.06-.41-.56-.98-.93-1.04-.32-.05-.87.45-1.09.83-.69,1.17-.62,2.44-.24,3.71.13.45.27.91.32,1.38.06.65-.03,1.41-.82,1.39-.38,0-.96-.65-1.06-1.1-.42-1.81-.31-3.64.31-5.4.27-.78.62-1.58,1.1-2.25,1.01-1.42,2.37-1.31,3.18.25,1.38,2.66,1.5,5.46.7,8.31-.56,1.96-1.5,3.72-2.97,5.17-.93.92-1.96,1.23-3.29.9-9.79-2.45-19.66-4.5-29.71-5.47-6.32-.61-12.69-.87-19.04-.99-6.54-.12-11.04-3.05-13.31-9.21-.4-1.1-.81-2.19-1.21-3.29-.62-1.69-.31-2.46,1.43-2.81,3.97-.8,7.93-1.69,11.95-2.13,4.61-.5,9.26-.56,11.8-.69Zm-36.17,69.05s-.02.09-.03.14c-.29,0-.58,0-.88,0-1.29.01-1.83.42-1.92,1.45-.09,1.12.48,1.87,1.62,2.08.54.1,1.09.11,1.63.2,8.25,1.32,16.5,2.66,24.75,3.98,1.87.3,3.75.56,5.63.82.98.14,1.77-.24,2.09-1.19.33-.98-.39-1.48-1.15-1.83-.59-.27-1.22-.5-1.86-.62-5.16-.97-10.32-1.96-15.5-2.83-4.78-.81-9.59-1.47-14.39-2.2Zm33.83-34.6c-.01.07-.03.14-.04.22-.99,0-1.97-.02-2.96,0-1.37.03-2.15.65-2.24,1.75-.09,1.11.46,1.74,1.93,1.85,4.98.36,9.97.67,14.96.93.89.05,1.82-.15,2.69-.38,1-.26,1.17-.96.33-1.54-.76-.52-1.66-1-2.56-1.14-4.03-.63-8.07-1.14-12.11-1.69Zm23.19,16.51c-.02-.9-.79-1.64-1.7-1.62-.91.02-1.54.71-1.5,1.64.04.88.74,1.55,1.63,1.56.91,0,1.58-.67,1.57-1.58ZM23.67,15.24c-4.05-2.1-8.13-4.14-12.22-6.18-.28-.14-.67-.08-1-.11.06.32.03.7.19.97,5.72,9.44,11.45,18.87,18.61,27.33,10.79,12.75,19.71,26.68,25.86,42.26,2.52,6.38,6.92,10.99,12.43,14.75.24.16.57.17.87.25-.04-.3,0-.63-.12-.88-1.19-2.35-2.33-4.72-3.64-7-.54-.94-1.42-1.71-2.22-2.47-1.18-1.13-2.56-2.08-3.62-3.31-2.22-2.55-3.43-5.65-4.48-8.83-2.91-8.8-5.71-17.64-8.84-26.36-2.64-7.36-5.82-14.51-10.11-21.1-1.6-2.46-3.36-4.8-5.84-6.47-1.55-1.05-2.17-.81-2.84.92-.75,1.94-1.57,3.85-2.42,5.74-.15.33-.61.51-.93.76-.13-.39-.41-.81-.36-1.18.18-1.26.44-2.51.73-3.75.31-1.31.68-2.61,1.09-4.19-.33-.34-.65-.9-1.14-1.15Zm-14.76.9c.02.5.01,1,.07,1.49,1.05,8.73,3.76,16.91,8.06,24.59.86,1.54,2.07,2.23,3.78,2.36,2.91.22,5.82.54,8.72.78.34.03.71-.17,1.06-.26-.16-.3-.25-.68-.49-.9-3.72-3.6-6.91-7.64-9.82-11.89-3.47-5.06-6.8-10.21-10.2-15.31-.24-.36-.56-.67-.85-1.01-.12.05-.23.11-.35.16Zm22.58,44.22c.27.14.55.28.81.43,2.05,1.18,4.2,2.23,6.13,3.58,3.49,2.45,6.35,5.6,9.02,8.91.25.31.74.43,1.11.65,0-.42.13-.91-.03-1.26-3.3-7.37-7.41-14.25-12.37-20.62-1.22-1.57-2.74-2.74-4.68-3-2.48-.34-5.01-.41-7.52-.54-.37-.02-.77.27-1.15.42.15.39.19.9.47,1.15,1.92,1.78,3.83,3.58,5.87,5.22,1.56,1.25,3.32,2.26,4.96,3.42.27.19.38.62.57.94-.32.12-.63.32-.96.35-.71.05-1.43.02-2.14.02-.03.12-.06.24-.09.36Z"/>
</svg>