<?xml version="1.0" encoding="UTF-8"?>
<svg id="Layer_1" data-name="Layer 1" xmlns="http://www.w3.org/2000/svg" viewBox="0 0 128 128">
  <defs>
    <style>
      .cls-1 {
        fill: #ad3131;
        stroke-width: 0px;
      }
    </style>
  </defs>
  <path class="cls-1" d="m50.24,35.74c.46.39.88.84,1.39,1.13.39.22.9.32,1.35.31,2.63-.08,4.26,1.42,5.57,3.46.63.97,1.27,1.92,1.94,2.85,2.34,3.27,3.56,6.9,3.92,10.91.66,7.27,1.45,14.53,2.21,21.79.05.49.33.96.5,1.44.29-.45.76-.86.83-1.34.46-2.94,1.04-5.89,1.16-8.85.16-3.99-.05-7.99-.11-11.98-.02-1.61.46-1.96,1.93-1.36,4.42,1.8,4.44,1.84,5.93,6.29,1.29,3.85,2.72,7.65,3.89,11.54,2.32,7.67,1.04,15.03-2.39,22.08-3.31,6.8-8.18,12.31-14.31,16.72-1.05.75-1.95.75-3.07.13-9.27-5.13-13.58-13.19-14.05-23.55-.31-6.92.8-13.69,2.04-20.46.45-2.47.94-4.94,1.29-7.43.31-2.14.08-4.26-1.13-6.13-1.21-1.87-2.46-3.71-3.75-5.53-.64-.91-1.37-1.76-2.11-2.6-3.41-3.87-3.98-8.25-2.26-12.99.73-2.02,1.64-3.98,2.49-5.96.43-1.01,1.24-1.33,2.29-1.16,6.46,1.06,12.97,1,19.48.74.25-.01.5-.04.75-.05,1.75-.04,2.24.56,1.78,2.22-1.07,3.86-3.7,5.86-8.06,6.29-3.11.31-6.2.75-9.3,1.14-.07.12-.14.24-.22.36Zm-14.77,47.3c.08.3.2.61.24.92.37,3.43.57,6.89,1.13,10.29,1.28,7.73,3.76,15.05,7.93,21.74.21.34.45.67.76,1.11.07-.27.11-.35.1-.4-.1-.3-.21-.61-.34-.9-3.08-6.76-5.51-13.73-6.92-21.04-2.05-10.58-2.08-21,1.73-31.26.66-1.76,1.17-3.68,1.25-5.54.26-5.99-3.55-10.1-9.35-9.21-4.45.69-7.68,4.4-7.51,8.74.11,2.75,2.25,4.8,4.81,4.6,3.05-.24,5.38-2.82,5.32-5.88,0-.39.03-.78.05-1.18.11-.03.23-.06.34-.09.32.52.73,1.02.96,1.58,1.23,3.06.56,5.89-1.29,8.45-.81,1.12-1.9,2.05-2.91,3.02-.94.91-1.93,1.77-2.05,3.18-.15,1.86-.34,3.73-.37,5.6-.18,12.76,3.28,24.57,9.43,35.66.34.61.93,1.07,1.4,1.61.08-.06.16-.11.24-.17-3.58-9.95-6.43-20.01-5.46-30.72.17-.03.34-.06.51-.1Zm49.6,31.27c4.1-5.78,7.44-11.96,9.74-18.68,2.58-7.57,3.83-15.33,3.39-23.34-.1-1.85-.85-3.26-2.34-4.39-2.13-1.6-3.6-3.71-4.34-6.28-.58-2.01-.52-3.99.59-5.83.19-.32.52-.57.78-.86.1.04.2.08.3.12,0,.59-.03,1.19,0,1.78.17,2.96,3.01,5.51,5.79,5.24,2.8-.28,4.69-2.9,4.27-5.93-.73-5.31-6.44-8.89-11.53-7.18-.72.24-1.5.67-1.96,1.25-1.56,1.99-2.52,4.24-2.66,6.82-.17,3.09.72,5.99,1.65,8.86,2.77,8.56,3.4,17.23,1.83,26.09-1.34,7.51-3.7,14.69-6.58,21.72-.19.45-.36.91-.55,1.4.97.39,1.28-.31,1.62-.79Zm-2.81-78.93c-.09-.38-.8-.88-1.23-.88-3.67.01-7.34.04-11,.24-2.51.14-4.87.93-6.93,2.43-1.43,1.04-1.58,1.97-.53,3.37,1.06,1.41,2.19,2.76,3.25,4.17,2.48,3.29,5.54,5.91,9.09,8,1.03.61,1.79.54,2.58-.26,1.44-1.45,2.89-2.9,4.34-4.35,1.32-1.32,1.95-2.91,2.05-4.82-.52-2.64-1.01-5.28-1.62-7.9Zm26.13,53.35c-.01.28.04.59-.05.85-.7,1.84-1.21,3.79-2.2,5.46-1.31,2.22-2.98,4.22-4.52,6.3-.5.68-1.04,1.34-1.56,2,.08.12.17.24.25.35.35-.21.77-.34,1.04-.63,3.84-4.01,6.71-8.62,8.27-13.97,2.5-8.61,1.12-16.37-5.26-22.93-.46-.48-1.47-1.03-1.87-.83-.56.28-1.08,1.24-1.06,1.89.03,1.11.32,2.29.8,3.28,2.01,4.13,2.55,8.49,1.79,12.93-.68,3.99-1.8,7.9-2.72,11.85-.1.41-.13.84-.2,1.26.11.05.23.1.34.15,2.61-2.36,4.79-5.09,6.6-8.14.11.05.23.11.34.16Zm-81.51,6.87c-1.52-4.66-2.61-9.42-3.03-14.31-.34-3.92.42-7.64,2.22-11.17.45-.87.61-1.99.57-2.98-.02-.64-.53-1.63-1.03-1.79-.5-.15-1.46.39-1.86.9-1.41,1.77-2.78,3.58-3.94,5.51-2.31,3.86-2.81,8.02-1.59,12.36,1.42,5.02,4.52,8.93,8.24,12.42.13.12.36.15.78.32-.15-.56-.23-.92-.35-1.27ZM77.75,16.4c-1.15-1.5-2.96-2.23-4.82-2.63-1.1-.24-1.48.1-1.47,1.21.07,5.18-.17,10.34-1.37,15.41-.2.86.12,1.24,1.04,1.29,3.19.17,5.19-.98,6.16-4.06.76-2.41,1.13-4.94,1.71-7.56-.4-1.24-.52-2.69-1.26-3.65Zm-23.37-4.96c-.86-.34-1.77-.59-2.69-.74-1.39-.23-2.34.23-2.69,1.55-.73,2.74-1.29,5.52-1.88,8.29-.14.63.13,1.19.84,1.27,2.6.29,5.21.58,7.82.75.33.02.95-.56,1.02-.94.34-1.83.54-3.69.67-4.67.01-3.65-.51-4.48-3.11-5.51Zm6.98,4.49c-.18,1.82-.38,3.65-.54,5.47-.11,1.26.15,1.55,1.42,1.57,1.51.03,3.02.02,4.53.02.93,0,1.49-.41,1.55-1.4.11-1.97.24-3.95.34-5.92.05-.99-.34-1.77-1.27-2.19-1.31-.59-2.61-1.2-3.96-1.67-1.3-.46-2,.02-2.14,1.41-.09.89-.02,1.8-.02,2.7.03,0,.06,0,.09,0ZM12.77,77.63c.92-4.28,2.99-7.91,6.19-10.89.58-.54,1.18-1.06,1.68-1.67.6-.74,1.39-1.52.76-2.59-.63-1.07-1.72-.85-2.72-.76-.18.02-.36.07-.52.14-3.35,1.46-5.95,3.67-6.87,7.36-.78,3.13-.05,6.22.5,9.3.03.14.2.26.51.64.21-.67.37-1.1.46-1.53Zm103.42.89c.64-3.14,1.31-6.32.45-9.49-1.08-3.94-3.85-6.29-7.69-7.42-.86-.25-1.76-.06-2.3.77-.54.83-.16,1.6.41,2.26.66.76,1.35,1.49,2.07,2.19,3.25,3.17,5.46,6.91,6.3,11.42.04.22.18.42.35.79.24-.29.39-.39.41-.51Zm-36.43-50.22c-.42.93-.17,1.38.84,1.39,2.7.02,4.87-.99,6.06-3.5.47-.98.69-2.1.89-3.19.74-3.85-1.79-5.53-4.91-6.55-.64-.21-1.05.13-1.05.83,0,.61.06,1.22.1,1.83.01,3.71-.44,5.85-1.94,9.18Z"/>
</svg>