<?xml version="1.0" encoding="UTF-8"?>
<svg id="Layer_1" data-name="Layer 1" xmlns="http://www.w3.org/2000/svg" viewBox="0 0 128 128">
  <defs>
    <style>
      .cls-1 {
        fill: #6b7ace;
        stroke-width: 0px;
      }
    </style>
  </defs>
  <path class="cls-1" d="m94.97,115.79c-8.71,0-17.41,0-26.12,0-11.82,0-23.65,0-35.47,0-2.81,0-3.87-1.15-3.56-3.94.75-6.78,3.81-12.47,8.6-17.18,2.23-2.2,4.81-4.07,7.36-5.89,4.78-3.42,8.55-7.58,9.89-13.43.48-2.07.25-4.31.29-6.47,0-.24-.31-.59-.57-.72-4.05-2.09-5.91-5.6-6.61-9.93-.06-.36-.36-.87-.67-.98-4.32-1.63-6.51-5.37-6.24-10.32.02-.3.03-.61.06-.91.17-1.94,1.79-3.05,3.64-2.46.57.18,1.13.43,1.61.62,0-2.63-.14-5.21.03-7.77.45-6.72,3.04-12.22,9.43-15.27,10.69-5.1,22.7,1.47,24.04,13.24.32,2.81.07,5.68.07,8.52,0,.4-.04.81-.07,1.36.71-.27,1.26-.51,1.83-.69,1.91-.62,3.6.49,3.68,2.5.05,1.36.06,2.75-.17,4.08-.57,3.38-2.58,5.69-5.74,6.96-.66.26-.88.58-.99,1.28-.66,4.28-2.55,7.76-6.59,9.8-.24.12-.53.5-.52.75.04,2.16-.19,4.4.3,6.47,1.39,5.92,5.13,10.26,10.15,13.49,4.84,3.12,8.91,6.96,11.9,11.91,2.09,3.46,3.4,7.19,3.82,11.23.27,2.54-.83,3.79-3.4,3.79Zm5.41-92.27c-1.35-2.95-2.9-5.81-5.17-8.14-1.05-1.08-2.46-1.84-3.8-2.58-.35-.19-1.26.13-1.55.5-.28.36-.29,1.16-.09,1.63.29.68.87,1.23,1.32,1.84,1.12,1.53,2.34,3,3.33,4.61,4.25,6.9,5.85,14.5,5.78,22.53-.06,7.3-1.38,14.44-2.71,21.57-.95,5.12.14,9.57,3.74,13.36,1.52,1.6,3.06,3.18,4.61,4.74,2.6,2.62,4.89,5.4,5.73,9.14.27,1.18,1.37,1.64,2.51,1.24,1.23-.43,1.78-1.46,1.47-2.81-.6-2.61-1.78-4.95-3.52-6.95-2.2-2.51-4.48-4.97-6.85-7.33-3.32-3.3-4.35-7.13-3.33-11.67,1.54-6.91,2.68-13.88,2.67-20.99.06-7.2-1.13-14.14-4.13-20.72ZM14.49,94.09c1.06.15,1.87-.38,2.15-1.56.71-2.98,2.33-5.42,4.41-7.59.89-.93,1.83-1.82,2.71-2.77,1.55-1.67,3.15-3.31,4.57-5.08,2.32-2.92,3.07-6.32,2.53-9.98-.41-2.74-.9-5.47-1.36-8.2-1.17-6.91-1.99-13.84-1.26-20.87.82-7.83,3.53-14.88,8.6-20.97.49-.58.94-1.19,1.4-1.8.47-.63.68-1.29.13-1.98-.56-.71-1.33-.8-2.05-.38-1.04.61-2.23,1.16-2.95,2.06-1.69,2.13-3.37,4.33-4.65,6.72-4.57,8.55-5.73,17.82-4.86,27.32.5,5.47,1.46,10.91,2.49,16.31.86,4.53-.05,8.34-3.37,11.57-1.42,1.38-2.84,2.76-4.13,4.26-1.58,1.84-3.18,3.69-4.48,5.73-.94,1.47-1.42,3.24-2.1,4.87.21,1.25,1.04,2.2,2.22,2.36Zm24.25-31.02c1.38,2.48,2.41,5.06,2.41,7.98,0,1.5.77,2.27,2,2.22,1.23-.05,1.96-.89,1.99-2.3.05-2.83-.63-5.5-1.9-8.01-.89-1.76-1.94-3.46-2.68-5.28-5.32-13.05-3.76-25.27,4.69-36.56,1.62-2.16,3.43-4.17,5.07-6.31.3-.39.19-1.08.27-1.63-.55-.04-1.18-.27-1.65-.09-2.34.86-4.21,2.43-5.79,4.31-6.28,7.46-9.47,16.09-9.64,25.01.02,7.9,1.81,14.49,5.23,20.67Zm47.05-44.76c-1.78-2.27-3.86-4.21-6.62-5.24-.45-.17-1.04.03-1.56.07.05.55-.09,1.24.19,1.62,1.27,1.7,2.65,3.33,4,4.97,7.49,9.03,10.29,19.28,8.08,30.86-.84,4.4-2.79,8.33-4.88,12.22-1.41,2.63-2.09,5.45-1.98,8.44.04,1.22.87,2.01,2.02,2.02,1.14.01,1.94-.68,1.93-1.92-.02-3.07,1.06-5.79,2.51-8.42,3.38-6.11,5.12-12.64,5.15-20.12-.11-8.84-3.11-17.16-8.85-24.49ZM16.59,65.76c.6-1,1.05-2.11,1.37-3.23,1.01-3.57.79-7.23.6-10.88-.28-5.31-.75-10.63-.76-15.94,0-6.77,1.59-13.18,5.62-18.8.46-.64.79-1.38,1.15-2.09.4-.8.33-1.55-.34-2.18-.68-.65-1.37-.45-2.09-.05-1.76.97-2.98,2.46-3.96,4.16-1.83,3.14-3.06,6.53-3.85,10.07-1.58,7-1.19,14.06-.61,21.12.45,5.47.99,10.91-1.16,16.2-.6,1.47.6,2.83,2.65,2.77.29-.22,1.03-.56,1.38-1.14Zm98.13-32.74c-.44-5.71-1.85-11.15-4.7-16.17-1.03-1.81-2.32-3.39-4.21-4.38-.67-.35-1.31-.42-1.89.14-.57.55-.81,1.22-.42,1.96.56,1.07,1.11,2.16,1.78,3.17,1.72,2.59,2.96,5.38,3.77,8.38,1.74,6.42,1.47,12.94,1.01,19.48-.29,4.13-.5,8.27-.56,12.41-.04,2.64.56,5.21,1.88,7.56.7,1.25,1.86,1.65,3.08,1.11,1.15-.51,1.56-1.47,1.02-2.86-1.31-3.4-1.69-6.92-1.45-10.53.32-4.89.65-9.78.97-14.42-.1-2.12-.14-3.99-.28-5.84Zm-3.13,78.56c-.25-2.65-.41-5.31-.76-7.94-.71-5.23-2.65-9.81-7.17-12.96-3.05-2.13-6.05-4.33-9.13-6.41-.52-.35-1.64-.64-1.9-.38-.43.43-.45,1.33-.5,2.04-.02.38.18.84.43,1.15.78.97,1.52,2.03,2.47,2.8,1.88,1.53,3.9,2.91,5.86,4.34,1.92,1.4,3.44,3.18,4.17,5.43.64,1.97,1.13,4.02,1.41,6.08.32,2.37.34,4.77.49,7.16.09,1.49,1.02,2.45,2.33,2.42,1.38-.03,2.22-.96,2.24-2.48,0-.42,0-.84,0-1.25.01,0,.03,0,.04,0Zm-95-1.4c0,.84,0,1.67,0,2.51,0,.15,0,.3,0,.46.09,1.25.89,2.07,2.08,2.17,1.15.1,2.15-.64,2.41-1.82.08-.37.06-.76.09-1.13.23-2.8.34-5.62.71-8.4.59-4.47,2.58-8.14,6.53-10.59.97-.6,1.93-1.23,2.79-1.97,1.36-1.15,2.74-2.31,3.89-3.65.59-.69.91-1.76.99-2.69.1-1.27-.71-1.69-1.86-1.18-.28.12-.53.29-.78.47-2.76,1.95-5.47,3.97-8.27,5.85-3.71,2.49-6.22,5.83-7.16,10.18-.69,3.22-1.03,6.51-1.53,9.77l.12.03Zm24.28-29c1.18-.03,2.1-.94,2.12-2.1.02-1.18-1-2.22-2.15-2.21-1.21.01-2.15.98-2.15,2.19,0,1.24.94,2.14,2.18,2.12Zm46.45-4.31c-1.15-.03-2.18,1-2.18,2.18,0,1.15.92,2.09,2.09,2.13,1.24.04,2.19-.86,2.21-2.09.01-1.23-.9-2.18-2.12-2.22Z"/>
</svg>