<?xml version="1.0" encoding="UTF-8"?>
<svg id="Layer_1" data-name="Layer 1" xmlns="http://www.w3.org/2000/svg" xmlns:xlink="http://www.w3.org/1999/xlink" viewBox="0 0 488.96 490.57">
  <defs>
    <style>
      .cls-1 {
        fill: url(#linear-gradient);
        stroke-width: 0px;
      }
    </style>
    <linearGradient id="linear-gradient" x1="-21.36" y1="364.43" x2="528.52" y2="164.29" gradientUnits="userSpaceOnUse">
      <stop offset=".4" stop-color="#7e9e85"/>
      <stop offset=".6" stop-color="#8a3c30"/>
    </linearGradient>
  </defs>
  <path class="cls-1" d="m70.51,259.5c6.66,3.76,13.51,7.21,20.38,10.57,57.84,28.25,118.45,49.41,179.2,70.24,7.76,2.66,7.77,2.56,12.13-4.29,36.33-57.01,71.52-114.78,110.97-169.76,3.85-5.37,3.14-8.58-2.85-11.53-15.22-7.51-30.15-15.82-45.9-21.98-49.4-19.34-99.13-37.84-148.75-56.64-1.37-.52-2.89-.65-5.8-1.29-1.69,1.31-4.5,2.74-6.29,4.99-42.38,53.23-81.53,108.71-116.34,167.22-3.56,5.98-2.94,8.97,3.25,12.47Zm187.73,16.75c10.98.2,19.38,7.84,19.26,17.52-.13,10.73-10.29,20.14-21.54,19.97-11.54-.18-18.98-6.81-18.89-16.82.11-11.67,9.55-20.88,21.17-20.66Zm-15.36-67.96c-.26,10.84-11.18,21.68-21.62,21.48-10.67-.21-17.85-7.29-17.7-17.46.18-12.13,10.21-21.92,22.15-21.64,9.87.24,17.41,7.96,17.18,17.61Zm-43.08-101.02c9.61.19,18.31,9.33,18.09,19.01-.24,10.88-12,22.34-22.6,22.03-9.9-.3-17.14-8.1-17.03-18.34.14-13.03,9.54-22.93,21.54-22.69Zm208.72,69.15c-4.16,4.76-8.07,9.77-11.77,14.9-35.95,49.73-68.13,101.83-97.47,155.72-2.32,4.26-2.33,7.78-.47,12.15,12.59,29.54,24.89,59.2,37.48,88.74,1.15,2.69,4.06,7,5.43,6.74,2.97-.56,5.51-3.55,8.15-5.65.61-.49.88-1.39,1.31-2.11,10.56-17.55,21.15-35.08,31.67-52.65,21.05-35.14,41.55-70.59,57.74-108.32,1.8-4.19,2.63-8.79,3.37-11.35-3.84-34.8-12.92-66.04-24.93-96.48-2.17-5.49-6.61-6.14-10.51-1.68Zm-10.31,131.8c-.97,10-5.5,18.47-13.28,24.84-4.2,3.43-9.61,4.96-14.38,1.8-3.11-2.06-4.97-5.99-6.2-7.56-.2-12.2,11.73-27.52,21.24-29.74,7.08-1.65,13.34,3.33,12.63,10.66Zm-90.88,137.36c-10.62-26.57-21.31-53.12-31.72-79.78-1.93-4.95-4.92-7.59-9.92-9.42-36.7-13.47-73.47-26.77-109.83-41.09-32.02-12.61-63.55-26.48-95.31-39.76-2.28-.95-4.67-1.65-6.17-2.17-4.76.03-6.47,1.99-6.03,5.72.15,1.3.63,2.58,1.07,3.83,12.19,34.37,30.47,65.8,47.48,97.83,1.6,3.01,4.91,5.5,7.98,7.25,8.38,4.77,16.98,9.19,25.64,13.45,39.56,19.44,81.02,33.83,123.29,46.01,16.46,4.74,33.02,9.17,49.62,13.41,2.11.54,5.51-.26,6.9-1.76,1.13-1.21.53-4.49,0-6.68-.58-2.38-2.06-4.52-2.99-6.84Zm-215.21-118.9c-1.73-1.93-2.38-5.82-1.83-8.45.39-1.84,3.66-3.08,5.11-4.19,11.64,2.15,20.95,6.29,27.67,14.72,1.3,1.63,1.66,5.6.56,7.16-1.33,1.9-4.99,3.77-7.08,3.28-9.09-2.14-18.01-5.34-24.44-12.53Zm50.63,58.94c-1.1,1.95-4.47,2.62-5.9,3.35-10.32-1.01-17.45-5.45-23.33-11.81-1.16-1.25-1.37-4.93-.37-6.26,1.34-1.79,4.9-3.89,6.41-3.26,7.42,3.14,14.64,6.86,21.52,11.06,1.53.94,2.58,5.33,1.68,6.92Zm15.95-27.21c-1.9-2.04-3.4-6.53-2.41-8.65,1.15-2.48,5.19-4.99,8.05-5.08,9.87-.31,17.57,4.57,22.85,12.75,3.27,5.08-.73,10.26-8.46,10.21-6.91-1.11-14.5-3.29-20.02-9.23Zm40.6,49.88c-1.1,1.83-3.75,3.9-5.69,3.85-8.05-.18-15.75-2.21-22.37-7.12-2.77-2.06-4.52-5.16-2.65-8.2,1.34-2.18,4.36-3.34,5.57-4.2,10.28.9,17.79,4.25,24.04,10.02,1.2,1.11,1.86,4.38,1.1,5.65Zm24.53-35.37c2.18-1.97,5.19-3.01,6.59-3.78,8.74.63,15.1,3.01,20.21,7.75,1.64,1.53,3.02,4.93,2.43,6.82-.58,1.87-3.71,3.97-5.87,4.16-8.59.75-16.26-2.62-23.26-7.2-3.1-2.03-2.55-5.54-.09-7.76Zm38.75,54.23c-1.88,1.96-4.71,3-7.54,4.66-5.99-2.4-11.68-4.23-16.86-7-1.84-.98-3.68-4.56-3.26-6.45.49-2.23,3.1-4.78,5.38-5.66,5.89-2.28,19.5,3.35,22.37,9.02.76,1.5.87,4.46-.08,5.44ZM488.94,112.54c-.27,1.17-1.66,2.18-2.75,3.01-.6.46-1.58.46-2.39.6-16.76,2.85-23.92,10.64-25.37,27.62-.11,1.33.11,2.8-.41,3.94-.48,1.06-1.68,2.4-2.65,2.47-1.21.09-2.94-.67-3.66-1.65-1.15-1.56-1.65-3.6-2.44-5.44-15.56-36.47-42.79-60.97-78.97-75.71-14.58-5.94-29.88-10.11-44.85-15.1-1.41-.47-3.27-.66-4.05-1.66-.99-1.27-1.35-3.23-1.38-4.91,0-.39,2.41-1.03,3.75-1.17,1.11-.11,2.28.39,3.43.56,13.78,2.12,25-3.18,30.88-15.79,3.27-7.01,4.96-14.77,7.38-22.18.75-2.29,1.58-4.56,2.38-6.84.8-.1,1.61-.2,2.41-.3,1.03,2.91,2.61,5.75,2.97,8.74.98,8.26,1.57,16.58,2.1,24.88,1.57,24.55,18.85,29.69,36.36,25.02,11.52-3.07,20.98-9.98,30.11-17.26,7.94-6.33,15.63-12.99,23.43-19.49,1.28-1.07,2.45-2.5,3.94-3.02,1.9-.67,4.07-.6,6.12-.85-.32,1.91-.09,4.17-1.06,5.67-2.44,3.76-5.83,6.92-8.09,10.77-4.93,8.43-10.24,16.79-13.84,25.8-4.64,11.6-1.7,22.78,7.5,31.01,6.97,6.24,15.41,10.86,23.24,16.14,1.23.83,2.83,1.15,3.96,2.07.93.76,2.14,2.22,1.95,3.07ZM106.52,470.87c1.26,1.08,2.44,2.26,3.64,3.41-1.48.73-2.92,2.01-4.44,2.11-7.63.49-15.3.48-22.93,1-18.03,1.25-35.52,5.01-52.34,11.76-1.73.69-3.64.96-5.46,1.42-.32-.48-.64-.96-.96-1.44,1.09-1.55,2.11-3.16,3.28-4.64,6.21-7.89,11.86-16.09,14.47-25.96,2.95-11.14.12-21.19-9.77-27.02-8.16-4.81-17.63-7.37-26.45-11.09-2.11-.89-5.52-2.38-5.55-3.67-.05-2.18,1.65-4.92,3.43-6.53,3.06-2.77,6.71-4.89,10.15-7.23,6.19-4.22,9.39-10,9.98-17.52.52-6.62,1.59-13.2,2.47-19.8.15-1.15.27-2.47.9-3.34.96-1.31,2.36-2.3,3.57-3.42.62,1.37,1.65,2.7,1.8,4.12.9,8.6.62,17.44,2.54,25.79,9.03,39.42,33.24,66.11,70.25,81.61.46.19,1.08.14,1.42.43ZM271.55,42.72c.1-1.43,1.62-3.34,3.01-3.99,4.4-2.07,8.88-1.25,12.65,1.58,1.49,1.12,2.86,3.46,2.81,5.2-.03,1.07-2.8,2.18-4.48,3.01-1,.49-2.25.47-4.21.83-1.99-.64-4.81-1.18-7.21-2.49-1.3-.71-2.65-2.78-2.56-4.15Zm-119.01,435.07c-.43,2.27-4.36,3.87-7.65,6.54-3.01-2.79-6.83-4.71-6.85-6.68-.05-4.52,4.48-4.68,7.89-4.61,3.09.06,7.39.71,6.62,4.75Z"/>
</svg>