<?xml version="1.0" encoding="UTF-8"?>
<svg id="Layer_1" data-name="Layer 1" xmlns="http://www.w3.org/2000/svg" viewBox="0 0 256 256">
  <defs>
    <style>
      .cls-1 {
        fill: #fff;
        stroke-width: 0px;
      }
    </style>
  </defs>
  <path class="cls-1" d="m156.57,113.21c-.18-.05,1.61-12.04,1.8-13.74,1.2-10.36,7.22-17.4,15.75-22.58,14.67-8.9,32.64-8.28,45.74,1.45,14.49,10.76,18.79,28.85,10.85,45.06-3.27,6.67-6.81,13.28-9.25,20.26-6.12,17.53-2.6,33.34,10.13,46.9,4.64,4.95,9.69,9.52,14.56,14.26.33.32.79.57.97.95.34.7.89,1.62.67,2.19-.21.57-1.24,1.09-1.95,1.16-6.31.59-12.64.88-18.93,1.63-7.76.92-15.47,2.2-23.16,3.77,5.84-.21,11.69-.65,17.53-.55,5.86.11,11.74.55,17.57,1.25,5.84.7,11.62,1.9,17.14,3.99-.02.18-.04.36-.06.54-.66,0-1.32.07-1.97-.01-9.95-1.19-19.93-1.58-29.93-1.18-24.6.97-48.2,6.3-70.6,16.63-.47.22-.94.46-1.42.67-2.55,1.12-4.28.12-4.45-2.65-.51-8.31,1.28-16.09,6.46-22.65,3.54-4.48,7.77-8.43,11.75-12.56,4.17-4.32,8.67-8.34,12.55-12.9,5.01-5.9,7.22-12.91,6.54-20.74-.26-2.97.37-3.64,3.12-4.87,2.49-1.11,4.96-2.33,7.25-3.8,1.15-.73,1.89-2.11,2.81-3.2-.2-.23-.4-.47-.59-.7-3.08.77-6.15,1.55-9.23,2.29-7.61,1.83-15.22,3.67-22.84,5.44-4.19.97-5.7-.29-6.22-4.59-.68-5.63-1.53-11.25-2.27-16.87-.22-1.71-.99-2.83-2.66-3.45-2.14-.79-4.21-1.76-6.31-2.65-2.98-1.27-3.28-3.07-1.3-5.58,3.59-4.55,7.06-9.2,10.48-13.88,1.2-1.65,2.74-2.31,4.66-2.41,5.28-.28,10.57-.58,15.85-.89,1.04-.06,2.14-.08,3.08-.44.61-.23,1.44-1.11,1.38-1.59-.09-.65,3.47,2.9,2.81,2.58-.65-.31-4.96,1.23-5.74,1.23"/>
  <path class="cls-1" d="m116.66,65.56c.21-.06-1.89-14.13-2.12-16.13-1.41-12.16-8.47-20.41-18.48-26.49-17.21-10.44-38.3-9.71-53.66,1.7-17,12.63-22.05,33.84-12.73,52.87,3.83,7.82,7.99,15.58,10.85,23.77,7.18,20.57,3.05,39.12-11.88,55.03-5.45,5.81-11.37,11.17-17.08,16.73-.38.37-.92.67-1.14,1.12-.4.82-1.05,1.9-.79,2.57.25.66,1.45,1.28,2.29,1.36,7.4.69,14.83,1.03,22.21,1.91,9.1,1.08,18.15,2.59,27.17,4.42-6.86-.24-13.72-.77-20.56-.64-6.88.13-13.78.64-20.61,1.46-6.85.82-13.63,2.23-20.11,4.69.02.21.04.42.07.63.77,0,1.55.08,2.31-.01,11.67-1.4,23.38-1.85,35.11-1.38,28.87,1.14,56.54,7.4,82.83,19.51.56.26,1.1.54,1.66.79,2.99,1.31,5.03.14,5.23-3.11.6-9.75-1.5-18.88-7.58-26.57-4.16-5.26-9.12-9.89-13.79-14.74-4.89-5.07-10.17-9.79-14.72-15.14-5.88-6.92-8.47-15.14-7.67-24.33.3-3.48-.43-4.27-3.66-5.72-2.92-1.31-5.81-2.74-8.5-4.46-1.35-.86-2.22-2.48-3.3-3.75.23-.27.46-.55.7-.82,3.61.9,7.21,1.82,10.83,2.69,8.93,2.14,17.85,4.3,26.8,6.38,4.91,1.14,6.69-.34,7.3-5.39.79-6.61,1.8-13.19,2.66-19.8.26-2.01,1.16-3.32,3.13-4.05,2.51-.93,4.94-2.06,7.41-3.11,3.49-1.49,3.85-3.6,1.53-6.55-4.21-5.34-8.28-10.79-12.29-16.28-1.41-1.93-3.21-2.71-5.47-2.83-6.2-.33-12.4-.68-18.59-1.05-1.22-.07-2.51-.1-3.62-.52-.72-.27-1.7-1.3-1.62-1.86.1-.76-4.07,3.4-3.3,3.03.76-.37,5.81,1.44,6.73,1.44"/>
</svg>