<?xml version="1.0" encoding="UTF-8"?>
<svg id="Layer_1" data-name="Layer 1" xmlns="http://www.w3.org/2000/svg" viewBox="0 0 128 128">
  <defs>
    <style>
      .cls-1 {
        fill: #d4b55a;
        stroke-width: 0px;
      }
    </style>
  </defs>
  <path class="cls-1" d="m13.98,91.34c1.79.42,3.56.99,5.37,1.24,9.43,1.26,18.85,2.58,28.31,3.62,9.12,1,18.28,1.71,27.42,2.48,4.15.35,8.31.54,12.47.85.47.04.92.39,1.38.6-.33.4-.58,1-1,1.17-.93.36-1.95.75-2.92.7-5.94-.29-11.89-.62-17.82-1.09-5.85-.46-11.68-1.08-17.51-1.65-1.26-.12-2.14.18-2.58,1.48-.3.89-.1,1.26.83,1.35,3.34.32,6.68.69,10.02,1,6.35.58,12.69,1.19,19.05,1.67,2.88.21,5.78.24,8.67.16,4.19-.12,7.17-2.03,8.55-6.17,2.14-6.44,4.55-12.8,6.5-19.3,5.88-19.55,11.59-39.14,17.39-58.72,1.06-3.58,2.18-7.14,3.33-10.7.21-.66.63-1.31,1.12-1.8.64-.65,1.3-.38,1.39.53.05.58.02,1.2-.14,1.76-6.12,21.11-12.17,42.24-18.42,63.31-2.79,9.39-6.08,18.64-9,28-1.08,3.46-3.36,5.43-6.71,6.03-2.99.54-6.06.69-9.1.84-2.09.1-2.77.56-3.05,2.8,5.02.73,10.04,1.29,15.06.17,2.96-.66,4.73-2.63,5.62-5.5,4.06-13,8.27-25.96,12.19-39.01,4.99-16.62,9.73-33.32,14.6-49.98.18-.62.07-1.7,1.12-1.55,1.04.15.59,1.16.63,1.8.25,4.47-1.25,8.64-2.43,12.83-7.24,25.82-14.56,51.63-21.86,77.43-1.51,5.33-5.49,8.43-11.07,8.37-4.33-.05-8.66-.38-12.98-.65-1.5-.09-2.33.24-2.69,1.69-.76,3.04-1.39,6.12-2.06,9.19-.07.33-.08.69-.21.99-.12.28-.32.68-.55.72-.24.05-.63-.19-.82-.42-1.08-1.37-2.12-2.77-3.18-4.15-1.41-1.85-2.2-1.93-3.95-.4-1.38,1.2-2.74,2.42-4.15,3.59-.36.3-.86.43-1.29.64-.1-.5-.35-1.03-.28-1.51.85-6.02,2.21-11.93,4.1-17.72.14-.43.27-.87.45-1.48-1.15-.1-2.19-.19-3.24-.28-4.53-.39-9.06-.77-13.59-1.16-.91-.08-1.69.05-2.11,1.01-.45,1.03-.29,1.39.86,1.52,2.79.3,5.58.55,8.37.83,1.89.19,3.77.39,5.78.59-.11.55-.22.95-.28,1.35-.17,1.12-.8,1.39-1.89,1.29-4.4-.38-8.82-.66-13.22-1.04-.85-.07-1.24.2-1.42,1-.51,2.32-1.04,4.64-1.6,6.94-.12.5-.42.96-.64,1.44-.43-.29-.93-.52-1.28-.89-.96-1.02-1.84-2.12-2.79-3.15-.96-1.04-2.05-1.12-3.16-.24-1.13.9-2.2,1.88-3.33,2.77-.33.26-.8.36-1.2.53-.15-.42-.42-.83-.42-1.25-.04-5.8,1.03-11.4,3.09-16.81.29-.75.59-1.5.93-2.23.41-.89.08-1.26-.82-1.34-4.4-.42-8.8-.85-13.2-1.29-2.71-.27-5.41-.58-8.12-.79-.51-.04-1.05.26-1.58.41.4.41.74,1.07,1.22,1.2,2.54.67,5.09,1.32,7.68,1.74,3.1.51,6.24.75,9.36,1.16.67.09,1.7-.13,1.57,1.13-.1.93-1,1.59-2.05,1.48-1.31-.14-2.61-.36-3.92-.51-2.4-.29-4.81-.6-7.22-.82-.42-.04-.87.3-1.31.46.29.4.51,1.04.88,1.15,3.08.93,6.19,1.76,9.29,2.61.2.06.43.02.63.09.69.23,1.77-.02,1.62,1.29-.17,1.41-1,2.21-2.25,2.04-3.03-.4-6.06-.83-9.09-1.26-2.56-.36-5.13-.72-7.69-1.12-2.24-.35-3.7-1.67-4.34-3.8-.71-2.36-1.35-4.73-1.96-7.12-.41-1.61.05-3.06.83-4.51,5.14-9.63,10.46-19.16,15.28-28.95,9.05-18.39,16.74-37.33,22.23-57.12.88-3.18,2.95-4.7,6.22-4.41,6.86.6,13.71,1.29,20.56,1.94,8.78.83,17.58,1.07,26.36.19,6.89-.69,13.74-1.71,20.61-2.54,1.05-.13,2.13-.13,3.18-.04,3.18.27,4.3,1.91,3.34,4.92-2.4,7.56-4.92,15.09-7.24,22.68-3.39,11.12-6.53,22.32-9.99,33.42-3.1,9.97-6.5,19.84-9.75,29.76-1.28,3.91-4.42,5.2-8.04,5.27-4.07.07-8.15-.21-12.21-.58-7.7-.71-15.38-1.6-23.07-2.41-6.8-.72-13.6-1.54-20.41-2.14-4.44-.39-8.9-.5-13.36-.68-.63-.03-1.26.25-1.9.38,0,.22-.02.45-.02.67Zm74.66-54.01c2.11-.07,3.82-1.22,4.61-3.33.92-2.46,1.8-4.94,2.65-7.43.69-2.01-.17-3.62-2.23-4.05-9.48-1.98-19.03-3.57-28.74-3.83-4.04-.1-8.07.11-12,1.2-1.48.41-2.74,1.18-3.21,2.64-1.01,3.15-1.9,6.33-2.72,9.53-.35,1.38.6,2.41,2.04,2.43.85.01,1.7-.07,2.54-.15,7.86-.69,15.7-.56,23.49.76,4.52.77,9.04,1.48,13.56,2.22Zm-7.36,53.04c1.05-.1,2.07-.15,3.08-.29,1.98-.28,3.55-1.16,4.25-3.15.73-2.08,1.46-4.15,2.1-6.26.12-.4-.04-1.15-.32-1.34-.36-.23-1.1-.23-1.48,0-4.65,2.72-9.28,5.49-13.88,8.29-.38.23-.79.92-.71,1.29.08.37.72.83,1.17.89,1.93.26,3.88.39,5.8.57Z"/>
</svg>