<?xml version="1.0" encoding="UTF-8"?>
<svg id="Layer_1" data-name="Layer 1" xmlns="http://www.w3.org/2000/svg" viewBox="0 0 128 128">
  <defs>
    <style>
      .cls-1 {
        fill: #d4b55a;
        stroke-width: 0px;
      }
    </style>
  </defs>
  <path class="cls-1" d="m0,15.87c1.72-4.16,3.31-5.22,7.88-5.22,29.12,0,58.25,0,87.37,0,2.65,0,4.81.86,6.24,3.18.99,1.61,1.01,3.38.86,5.27h-4.22c0-.67.04-1.29,0-1.91-.1-1.43-.88-2.17-2.32-2.26-.33-.02-.67,0-1,0-29.08,0-58.17,0-87.25,0-2.72,0-3.29.58-3.29,3.3,0,17.75,0,35.51,0,53.26,0,2.58.59,3.18,3.13,3.18,15.46,0,30.92,0,46.37,0h1.6v6.83c-.71-.63-1.5-1.52-2.47-2.13-1.03-.65-2.24-.54-3.37-.06-1.76.75-2.74,2.46-2.55,4.44.17,1.74,1.58,3.3,3.3,3.64,2.15.42,3.75-.47,5.11-2.96v7.33c-.95,0-1.88,0-2.82,0-1.87,0-3.75.03-5.62-.01-.65-.01-.97.19-1.13.83-.91,3.72-1.85,7.43-2.77,11.14-.06.23-.03.48-.06.87h12.43v4.18c-.4.03-.76.08-1.12.08-7.21,0-14.42,0-21.62,0-.25,0-.5,0-.75-.02-1.29-.15-2.1-1.06-2.03-2.25.07-1.13.91-1.94,2.16-1.98,1.58-.04,3.17-.06,4.75,0,1.15.04,1.72-.41,1.99-1.56.8-3.45,1.7-6.87,2.55-10.3.07-.27.1-.55.17-.98h-1.56c-10.67,0-21.33-.08-32,.04-3.94.05-6.67-1.32-7.96-5.15V15.87Z"/>
  <path class="cls-1" d="m128,81.12c0,9.71,0,19.41,0,29.12,0,4.52-2.61,7.12-7.13,7.12-9.5,0-18.99,0-28.49,0-4.43,0-7.06-2.64-7.06-7.09,0-19.45,0-38.9,0-58.36,0-4.48,2.58-7.09,7.03-7.09,9.54,0,19.07,0,28.61,0,4.49,0,7.04,2.56,7.04,7.05,0,9.75,0,19.49,0,29.24Zm-4.3-27.71h-34.04c-.03.41-.07.78-.07,1.14,0,14.83,0,29.67-.02,44.5,0,.98.27,1.27,1.26,1.27,10.58-.03,21.16-.02,31.75-.02.36,0,.73-.05,1.13-.08v-46.81Zm-17.02,51.17c-2.4,0-4.26,1.86-4.25,4.26.01,2.33,1.85,4.21,4.17,4.26,2.31.05,4.31-1.9,4.35-4.24.03-2.34-1.89-4.28-4.26-4.28Z"/>
  <path class="cls-1" d="m119.32,40.48h-4.07v-8.38h-51.17v68.16h16.86v12.84h-1.17c-4.33,0-8.67,0-13,0-4.44,0-7.03-2.62-7.03-7.1,0-25.17,0-50.33,0-75.5,0-4.45,2.6-7.05,7.08-7.05,15.16,0,30.33,0,45.49,0,4.6,0,7.17,2.6,7.17,7.23,0,3.17-.02,6.33-.03,9.5,0,.07-.06.15-.13.3Z"/>
</svg>