<svg class="svg-icon" style="width: 1em;height: 1em;vertical-align: middle;fill: currentColor;overflow: hidden;" viewBox="0 0 1024 1024" version="1.1" xmlns="http://www.w3.org/2000/svg"><path d="M801.152 170.922667c28.202667 0 51.072 22.869333 51.072 51.114666v579.114667c0 28.202667-22.869333 51.072-51.072 51.072H222.037333a51.114667 51.114667 0 0 1-51.114666-51.072V222.037333c0-28.245333 22.869333-51.114667 51.114666-51.114666h579.114667z m0 51.114666H222.037333v579.114667h579.114667V222.037333z" fill="#B2B2B2" /><path d="M221.141333 771.413333L768 224.512c18.858667-18.858667 34.090667-22.485333 45.696-10.837333 11.605333 11.605333 8.021333 26.88-10.837333 45.696L256 806.229333c-18.858667 18.858667-34.090667 22.485333-45.696 10.88-11.605333-11.648-8.021333-26.88 10.837333-45.738666zM464.981333 811.264l328.106667-328.106667c11.306667-11.306667 22.741333-11.136 34.389333 0.469334 11.605333 11.648 11.776 23.082667 0.426667 34.389333l-328.106667 328.106667c-11.264 11.306667-22.741333 11.178667-34.346666-0.426667-11.648-11.648-11.776-23.125333-0.469334-34.432zM202.538667 512.597333l328.106666-328.106666c11.306667-11.306667 22.741333-11.136 34.389334 0.469333 11.605333 11.648 11.776 23.082667 0.426666 34.389333l-328.106666 328.106667c-11.306667 11.306667-22.741333 11.178667-34.389334-0.426667-11.605333-11.648-11.776-23.125333-0.426666-34.432z" fill="#B2B2B2" /></svg>