<?xml version="1.0" encoding="UTF-8"?>
<svg id="Layer_1" data-name="Layer 1" xmlns="http://www.w3.org/2000/svg" viewBox="0 0 1024 1024">
  <defs>
    <style>
      .cls-1 {
        fill: #4a5e6a;
        stroke-width: 0px;
      }
    </style>
  </defs>
  <path class="cls-1" d="m511.54,796v89.06c-1.17.28-2.34.56-3.52.84-55.29-34.15-97.83-81.52-135.67-133.79-.99.28-1.99.56-2.98.83,1.02,8.5,1.32,17.15,3.17,25.46,6.32,28.31,22.02,51.76,41.87,71.89,22.74,23.05,46.72,44.99,71.34,66.04,12.42,10.62,20.12,21.38,18.52,38.36-1.12,11.9-.22,23.99-.22,39.04-84.75-44.83-146.65-111.29-203.92-184.31-15.67,12.82-30.5,26.18-46.6,37.78-15.83,11.41-32.94,21.03-49.48,31.44-1.19-1.07-2.37-2.14-3.56-3.21,1.94-3.61,3.3-7.73,5.93-10.73,12.57-14.32,25.44-28.39,38.29-42.46,46.88-51.36,93.91-102.59,140.57-154.15,5.75-6.36,10.11-14.13,14.22-21.74,1.65-3.05.88-7.42,1.21-11.19-3.75.25-8.22-.73-11.13.97-14.12,8.23-27.85,17.14-41.64,25.91-4.42,2.81-8.64,5.95-14.98,10.34-3.37-16.39-6.64-30.86-9.28-45.44-14.62-80.76-21.27-162.33-24.51-244.23-.99-25.06-1.69-50.14-2.77-75.2-.68-15.76,2.16-20.08,16.89-26.84,30.03-13.78,60.31-27.1,89.73-42.1,33.49-17.07,63.71-39.23,91.91-64.11,1.99-1.76,4.04-3.48,6.21-5.01.7-.49,1.89-.27,4.19-.52.27,3.62.75,7.06.75,10.5,0,123.43-.04,246.85-.07,370.28,0,1.67-.54,3.62.13,4.96,1.64,3.27,3.84,6.27,5.81,9.38,2.88-1.83,6.88-2.99,8.45-5.61,10.78-18.01,17.91-37.2,17.89-58.65-.09-105.03-.04-210.06-.04-315.09,0-7.67,0-15.33,0-25,3.79,1.61,6.69,2.11,8.6,3.76,56.05,48.66,120.62,83.72,186.34,116.94,2.6,1.32,5.01,3.01,9.37,5.65-33.25,33.24-65.53,66.04-93.01,102.93.7,1.13,1.4,2.27,2.1,3.4,5.01-1.58,10.79-2.05,14.9-4.92,24.92-17.36,49.48-35.25,74.13-53,2.55-1.83,4.95-3.86,9.75-7.62,0,7.21.3,11.66-.05,16.06-4.46,56.65-8.77,113.31-13.6,169.93-8.18,95.88-41.82,181.9-102.27,256.84-28.12,34.85-57.96,68.31-87.09,102.35-1.65,1.93-3.83,3.41-7.43,6.57-.79-4.3-1.66-6.91-1.69-9.52-.14-12.71.14-25.42-.1-38.13-.32-16.6-8.63-28.39-26.68-34.95Z"/>
  <path class="cls-1" d="m861.57,232.89c-1.1,23.02-1.48,42.73-3.09,62.34-4.9,59.62-8.98,119.34-15.81,178.75-8.46,73.53-23.08,146.25-52.73,214.27-14.93,34.26-36.75,65.91-58.21,96.83-44.56,64.2-98.15,120.94-152.73,176.61-14.66,14.96-26.24,30.95-31.31,51.43-.94,3.8-3.27,7.26-4.96,10.87-1.04-.16-2.09-.31-3.13-.47-.45-2.95-1.27-5.89-1.29-8.84-.11-23.75-.11-47.49-.05-71.24.03-12.92,4.58-23.84,13.56-33.41,48.12-51.22,94.66-103.73,132.98-162.99,41.24-63.78,65.97-133.74,73.72-208.82,7.51-72.76,11.27-145.92,16.13-218.94.87-13.01,5.16-22.75,15.55-30.81,20.08-15.57,39.51-31.97,59.31-47.91,2.91-2.34,6.32-4.05,12.07-7.68Z"/>
  <path class="cls-1" d="m7.74,997.63c1.51-3.39,2.72-6.95,4.59-10.13,30.99-52.86,71.05-98.6,112.67-143.11,32.43-34.68,64.56-69.65,97.47-103.88,12.91-13.43,15.51-27.23,12.19-45.55-10.3-56.81-19.87-113.83-27.24-171.08-9.57-74.33-12.71-149.19-12.54-224.15.03-11.07-4.86-19.77-11.69-27.97-50.33-60.45-97.12-123.46-137.67-190.97-6.8-11.32-13.3-22.81-19.93-34.22.83-.79,1.66-1.59,2.49-2.38,2.5,1.76,5.42,3.15,7.45,5.35,50.91,54.94,101.61,110.06,152.61,164.91,19.12,20.57,38.59,40.84,58.52,60.62,9.75,9.67,13.6,20.68,14.02,34.06,1.67,53.13,3.28,106.27,5.9,159.35,3.7,75.23,13.51,149.69,31.09,223,2.58,10.75.48,19.89-6.89,27.81-77.88,83.73-154.46,168.73-239.37,245.61-10.9,9.87-22.07,19.46-33.2,29.09-2.4,2.08-5.13,3.78-7.71,5.66-.92-.68-1.85-1.35-2.77-2.03Z"/>
  <path class="cls-1" d="m1007.69,71.4c-2.31,2.17-4.5,4.48-6.95,6.48-71.72,58.58-143.56,117.01-215.09,175.82-12.01,9.88-23.59,11.59-37.84,5.41-74.84-32.46-142.93-75.33-203.16-130.43-2.88-2.63-5.72-7.1-5.77-10.75-.41-27.41-.13-54.83,0-82.25,0-1.21.65-2.41,1.6-5.71,3.4,3.34,6.02,5.45,8.1,8.01,56.9,69.69,129.69,116.63,213.02,148.21,19.8,7.51,38.01.86,55.14-9.78,43.69-27.15,87.24-54.55,131.3-81.09,15.4-9.27,32.08-16.42,48.29-24.31,3.01-1.47,6.54-1.87,9.84-2.76.51,1.05,1.02,2.1,1.53,3.16Z"/>
  <path class="cls-1" d="m174.98,151.83c3.27,1.16,6.64,2.11,9.79,3.53,15.52,7,31.11,13.87,46.42,21.3,13.2,6.42,25.87,5.95,39.63,1.09,63.84-22.52,122.03-55.23,177.4-93.91,26.13-18.25,45.52-39.63,52.46-71.25.97-4.4,3.74-8.41,5.68-12.6.82.22,1.65.43,2.47.65.51,1.74,1.45,3.48,1.46,5.23.03,31.42-.5,62.86.09,94.27.26,13.8-5.58,23.39-15.45,31.95-35.53,30.77-73.64,57.8-115.88,78.53-28.16,13.82-56.76,26.75-85.41,39.54-15.97,7.13-23.96,5.2-35.98-7.17-25.86-26.62-51.6-53.36-77.3-80.13-2.6-2.7-4.58-5.99-6.85-9.01.49-.67.98-1.34,1.47-2.01Z"/>
  <path class="cls-1" d="m853.15,986.06c-2.74-2.1-5.62-4.05-8.2-6.33-37.54-33.16-75.05-66.35-112.56-99.55-13.54-11.98-14.11-18.84-4.18-33.44,11.44-16.83,22.3-34.04,33.43-51.08,2.16-3.3,4.34-6.59,8.57-9.5,0,7.26.7,14.61-.18,21.77-1.14,9.24-2.72,18.58-5.59,27.41-4.18,12.86-.85,23.36,6.9,33.6,26.39,34.87,52.6,69.87,78.77,104.91,2.3,3.08,3.81,6.74,5.69,10.13-.88.69-1.76,1.38-2.65,2.08Z"/>
  <path class="cls-1" d="m1016.26,492.49c-2.82,1.18-5.55,2.67-8.48,3.49-27.92,7.79-55.89,15.37-83.79,23.2-17.64,4.95-32.03-1.3-45.16-12.41-18.33-15.51-18.77-11.86.52-27.36,14.1-11.34,29.48-15.97,47.6-11.5,27.49,6.79,55.15,12.84,82.73,19.28,2.11.49,4.08,1.53,6.12,2.31.16,1,.31,2,.47,3Z"/>
  <path class="cls-1" d="m20.52,488.73c12.55-2.9,25.1-5.81,37.65-8.69,17.56-4.03,35.23-7.66,52.66-12.18,16.26-4.22,30.37-.25,43.34,9.42,6.32,4.71,12.32,9.83,18.42,14.73-19.53,25.97-40.27,33.18-69.24,24.99-25.04-7.07-50.11-14.05-75.13-21.18-2.88-.82-5.55-2.36-8.32-3.56.21-1.17.42-2.35.62-3.52Z"/>
  <path class="cls-1" d="m777.24,953.41c-4.89.49-8.17,1.87-10,.79-3.95-2.33-7.18-5.89-10.67-9-16.91-15.11-33.81-30.22-50.68-45.38-2.23-2-4.57-4.02-6.21-6.47-1.11-1.65-1.07-4.07-1.54-6.15,2.42-.32,5.18-1.51,7.19-.75,3.01,1.14,5.75,3.38,8.17,5.62,19.11,17.65,38.14,35.38,57.13,53.17,1.83,1.72,3.21,3.93,6.61,8.18Z"/>
  <path class="cls-1" d="m151.93,141.02c-2.55-4.62-4.69-7.32-5.34-10.34-.22-1.03,4.6-4.38,4.95-4.09,2.5,2.1,4.92,4.65,6.26,7.56.39.86-2.78,3.36-5.87,6.87Z"/>
</svg>