<?xml version="1.0" encoding="UTF-8"?>
<svg id="Layer_1" data-name="Layer 1" xmlns="http://www.w3.org/2000/svg" viewBox="0 0 1024 1024">
  <defs>
    <style>
      .cls-1 {
        fill: #8b3a3a;
        stroke-width: 0px;
      }
    </style>
  </defs>
  <path class="cls-1" d="m729.19,616.47c.18-2.95.52-5.9.52-8.85,0-12.94-8.55-18.54-20.75-13.37-7.81,3.31-15.49,6.96-23.06,10.78-9.71,4.9-19.16,6.23-27.56-2.09-8.8-8.72-7.04-18.29-1.93-28.43,64.63-128.19,129.12-256.44,193.64-384.68,1-1.98,2.7-3.89,2.87-5.93.36-4.35,1.61-10.56-.64-12.66-2.34-2.19-9.11-1.97-12.67-.21-46.63,23.08-93.02,46.65-139.49,70.04-83.39,41.98-166.81,83.89-250.16,125.94-9.09,4.59-18.03,7.42-26.91.37-8.17-6.49-10.51-15.04-6.35-24.74,3.78-8.81,8.18-17.35,12.08-26.12,6.49-14.59.73-23.36-15.19-22.27-47.17,3.23-94.32,6.81-141.47,10.3-11.42.84-22.83,1.8-34.24,2.76-13.28,1.12-20.49-2.85-22.55-12.49-1.87-8.77,3.29-15.49,15.24-19.61,129.03-44.46,258.06-88.89,387.09-133.33,125.19-43.11,250.37-86.29,375.66-129.11,5.29-1.81,13.79-2.62,16.99.29,3.01,2.74,2.71,11.61.94,16.77-87.31,254.36-174.92,508.62-262.64,762.84-1.62,4.71-4,10.67-7.81,12.71-4.47,2.39-12.57,3.42-16.07.88-4.46-3.24-8.32-10.72-8.18-16.26.54-21.39,2.76-42.75,4.39-64.11,2.79-36.47,5.6-72.93,8.4-109.4-.06,0-.12,0-.18-.01Z"/>
  <path class="cls-1" d="m202.88,748.51c4.45-8.82,6.59-16.16,11.1-21.51,75.4-89.63,150.86-179.21,226.99-268.23,10.14-11.86,23.05-22.03,36.28-30.46,92.78-59.15,185.97-117.65,279.04-176.34,2.49-1.57,4.96-3.87,7.66-4.25,3.27-.45,8.15-.39,9.84,1.58,2.1,2.45,2.64,7.26,2.04,10.74-.59,3.4-3.38,6.46-5.34,9.58-58.12,92.14-115.93,184.46-174.7,276.18-9.81,15.32-22.26,29.74-36.07,41.57-86.42,74.03-173.57,147.22-260.49,220.67-16.08,13.59-32.51,13.03-44.93-1.11-3.92-4.46-4.38-8.23.06-12.36,2.16-2.01,4.19-4.17,6.28-6.26,108.71-108.7,217.43-217.4,326.13-326.1,12.84-12.84,14.97-22.79,6.74-31.32-8.6-8.91-18.84-6.89-32.14,6.42-107.92,107.93-215.79,215.9-323.89,323.65-4.72,4.71-15.06,11.6-16.71,10.22-7.1-5.95-11.94-14.6-17.89-22.68Z"/>
  <path class="cls-1" d="m556.4,5.35C638.74,3.59,721.09,1.87,803.43.02c8.39-.19,16.24.71,17.99,10.49,1.77,9.95-5.61,13.2-13.5,15.73-90.23,28.9-180.47,57.79-270.64,86.9-21.04,6.79-41.28,5.7-61.45-3.18-57.71-25.42-115.55-50.53-173.18-76.14-4.55-2.02-9.49-6.22-11.32-10.62-2.82-6.76,3.69-12.34,13.62-12.55,67.57-1.48,135.15-2.95,202.72-4.27,16.24-.32,32.49-.05,48.74-.05,0-.33,0-.65,0-.98Z"/>
  <path class="cls-1" d="m1018.47,467.96c-1.76,81.62-3.52,163.23-5.27,244.85-.06,2.59.79,5.65-.31,7.66-2.42,4.42-5.33,10.99-8.95,11.64-3.7.67-10.5-3.68-12.45-7.57-8.07-16.14-14.82-32.95-22.06-49.5-18.47-42.24-36.81-84.53-55.49-126.68-9.1-20.54-10.12-41.1-3.21-62.51,29.03-89.82,57.82-179.72,86.63-269.62,2.5-7.79,5.37-15.5,15.38-14,10.51,1.58,11.22,9.93,11.02,18.65-1.85,82.35-3.59,164.71-5.36,247.07.03,0,.05,0,.08,0Z"/>
  <path class="cls-1" d="m189.89,896.28c-33.86,27.42-66.94,53.91-99.67,80.84-15.68,12.9-30.61,26.7-46.01,39.95-11.01,9.48-16.44,9.22-26.52-.73-23.34-23.06-22.72-22.53-1.67-47.57,34.45-40.97,68-82.69,101.88-124.14,2.77-3.38,5.11-7.11,8.39-11.73-16.13-15.96-32.35-31.49-47.97-47.62-19.6-20.24-21.2-49.39-4.5-70.65,7.93-10.1,13.43-10.61,22.64-1.41,71.36,71.25,142.66,142.56,213.92,213.91,9.46,9.47,8.83,15.17-1.99,23.35-21.21,16.01-49.96,14.28-69.8-4.92-16.14-15.61-31.61-31.92-48.71-49.27Z"/>
  <path class="cls-1" d="m317.23,393.23c8.1,2.26,16.55,3.71,24.23,6.97,10.51,4.46,12.3,14.69,3.61,22-7.81,6.58-16.49,12.65-25.72,16.94-33.78,15.7-67.95,30.56-101.98,45.72-5.48,2.44-11.29,5.39-15.71-1.37-4.55-6.95.78-10.73,5.41-14.6,23.81-19.9,47.66-39.77,71.37-59.79,11.16-9.42,23.77-14.66,38.79-15.86Z"/>
  <path class="cls-1" d="m630.42,706.81c-1.24,14.13-5.74,26.38-14.56,36.98-20.57,24.68-41.25,49.28-61.81,73.97-3.82,4.59-8.52,9.09-13.67,4-2.61-2.57-3.44-9.66-1.87-13.32,15.42-35.92,31.26-71.67,47.6-107.18,3.64-7.91,9.07-15.25,14.8-21.89,8.24-9.56,18.5-7.68,23.19,4.16,2.94,7.43,4.27,15.51,6.33,23.29Z"/>
</svg>