<?xml version="1.0" encoding="UTF-8"?>
<svg id="Layer_1" data-name="Layer 1" xmlns="http://www.w3.org/2000/svg" viewBox="0 0 1024 1024">
  <defs>
    <style>
      .cls-1 {
        fill: #667054;
        stroke-width: 0px;
      }
    </style>
  </defs>
  <path class="cls-1" d="m862.04,1009.92c-16.43-41.29-32.35-82.82-50.53-123.32-13-28.97-35.09-50.45-65.1-62.53-35.65-14.35-71.49-28.3-107.16-42.6-7.77-3.12-14.51-2.03-22,1.59-54.52,26.31-109.21,52.24-163.85,78.31-2.72,1.29-5.4,3.34-8.21,3.58-2.9.24-7.25-.44-8.54-2.36-1.25-1.81-.36-6.72,1.37-8.58,4.55-4.85,10.01-8.88,15.24-13.02,45.19-35.67,95.44-62.95,147-87.99,3.89-1.89,8.09-3.83,10.93-6.88,2.09-2.23,3.98-7.71,2.76-9.3-1.93-2.52-6.5-4.01-10-4.11-3.46-.1-6.99,2.03-10.45,3.22-17.66,6.04-33.36,3.82-44.63-12.18-9.2-13.04-19.12-26.01-25.61-40.42-15.26-33.84-17.03-70.66-18.96-107.06-.34-6.62,3.76-14.09,7.43-20.19,11.51-19.12,24.24-37.52,35.63-56.71,5.72-9.6,12.44-17.39,22.83-21.56,18.6-7.43,30.42-21.32,37.89-39.38,7.93-19.18,10.35-39.36,10.15-59.93-.14-13.75-5.58-18.86-19.51-17.11-7.35.91-14.47,3.58-21.46,5.42,1.05-16.47,3.02-32.45,2.76-48.38-.26-15.98-1.57-32.15-4.45-47.85-14.23-77.59-74.02-131.76-149.82-136.61-65.73-4.21-129.16,35.73-156.96,99.31-12.06,27.54-18.3,56.69-20.03,86.56-1.21,20.61-.22,41.35-.22,63.05-5.72-.97-8.01-1.39-10.33-1.73-19.22-2.8-30.26,6.9-29.67,26.47.2,6.66.85,13.39,2.11,19.93,5.7,29.25,17.8,53.71,49.88,61.26,12.78,3,21.7,10.17,30.4,19.67,20.76,22.69,41.79,45.26,64.42,66.01,12.36,11.35,27.76,19.67,42.54,28.04,13.49,7.65,27.38,7.15,40.58-2.42,7.01-5.09,14.62-9.46,22.33-13.47,2.84-1.49,6.72-.97,10.13-1.37-.38,3.38.36,7.53-1.33,10.05-9.54,14.13-19,28.38-29.73,41.59-11.11,13.67-19.87,15.14-36.46,8.33-5.86-2.42-11.64-5.27-16.89-8.76-11.98-7.95-23.49-16.63-35.53-24.52-3-1.97-7.59-3.46-10.75-2.6-1.85.48-3.1,5.98-3.34,9.34-.91,12.34-.99,24.74-1.91,37.08-2.48,32.99-15.32,59.95-45.31,76.88-18.34,10.37-35.87,22.31-54.78,31.53-47.77,23.31-95.97,45.78-144.3,67.96-24.12,11.05-39.68,28.61-47.15,53.99-11.6,39.44-23.75,78.71-35.43,118.15-5.07,17.13-2.86,19.65,15.6,19.65h554.7c90.11,0,180.21.02,270.3,0,13.07-.02,17.41-4.07,13.45-14.05Z"/>
  <path class="cls-1" d="m687.62,710.47c-3.27,1.57-6.8,3.46-10.49,4.99-11.56,4.79-16.62,3.52-24.29-6.52-18.52-24.27-28.11-52.27-33.25-81.93-6.43-37.07-6.67-74.22,5.2-110.19,5.48-16.61,13.89-32.53,22.85-47.65,13.75-23.2,26.27-46.65,29.85-73.79,2.97-22.47-2.59-41.27-24.11-52.55-8.53-4.47-7.1-12.15-6.4-19.37,3.6-37.45-3.98-72.82-21.64-105.62-34.67-64.42-87.78-103.95-160.67-115.85-3.49-.57-8.57-2.81-9.39-5.4-1.11-3.46-.04-9.28,2.43-11.75,2.47-2.47,7.9-3.1,11.9-2.77,62.13,5,114.12,29.96,152.49,79.95,33.66,43.87,50.05,94.14,51.42,149.21.27,10.88,3.2,19.06,11.67,26.2,16.27,13.72,20.7,32.19,18.36,52.62-3.37,29.48-13.78,56.29-30.58,80.78-22.24,32.44-32.99,68.61-32.46,107.81.52,38.05,9.98,74.21,27.42,107.95,4.45,8.61,12.5,15.37,19.68,23.9Z"/>
  <path class="cls-1" d="m891.11,617.41c-18.48,10.93-26.91,9.66-35.26-9.01-33.8-75.52-37.87-150.31,8.3-223.04,13.92-21.93,25.13-45.02,28.63-71.09,3-22.38-2.41-41.37-23.91-52.7-6.99-3.68-7.44-9.6-6.92-16.23,6.13-78.84-26.77-139.48-88.02-186.3-27.32-20.88-58.51-33.44-92.79-37.85-6.8-.87-12.73-2.47-11.25-11.62,1.44-8.86,7.18-10.16,14.73-9.39,101.5,10.41,173.08,72.86,196.42,172.87,4.68,20.04,5.12,41.03,8.24,61.48.9,5.91,2.69,13.43,6.84,16.81,23.84,19.45,26.43,44.27,20.52,71.87-4.82,22.48-13.47,43.28-25.93,62.65-48.94,76.1-45.69,152.47-.66,228.9.48.82.72,1.77,1.07,2.64Z"/>
  <path class="cls-1" d="m782.89,664.81c-17.22,11.23-25.24,9.68-34.64-7.82-19.84-36.92-26.63-76.79-25.61-118.28.95-38.3,10.36-73.85,32.49-105.83,14.77-21.36,25.42-44.87,29.13-70.87,3.23-22.66-1.87-42.07-23.89-53.64-6.92-3.64-7.42-9.68-6.82-16.33,5.33-59.09-13.83-110.22-52.28-154.14-33.81-38.62-76.85-61.79-127.7-69.86-7.26-1.15-13.42-2.13-11.95-11.86,1.43-9.44,7.98-9.35,15.05-8.72,88.05,7.8,148.66,53.38,183.46,133.9,13.55,31.35,20.44,64.34,20.37,98.58-.02,8.34,2.22,15.27,8.85,20.26,18.79,14.13,22.78,34,20.91,55.56-2.33,26.8-11.42,51.56-26.17,74.02-50.6,77.05-48.23,154.46-2.08,232.33.48.81.6,1.82.88,2.7Z"/>
  <path class="cls-1" d="m976.08,1023.78c-7.48,0-14.15.59-20.67-.15-8.35-.95-12.64-6.29-13.74-14.76-5.6-43.11-20.47-82.96-43.29-119.82-31.69-51.19-75.94-87.48-131.54-110.35-20.07-8.26-39.8-17.35-59.62-26.2-2.89-1.29-5.43-3.35-8.72-5.42,19.15-10.22,37-13.36,56.9-3.37,25.63,12.86,53.75,21.23,78.2,35.87,61.88,37.04,99.31,94.37,123.5,160.71,7.97,21.84,12.15,45.08,17.72,67.76,1.16,4.72.83,9.81,1.25,15.73Z"/>
  <path class="cls-1" d="m1018.03,873.82c-11.08-16.12-20.61-31.74-31.84-46.02-30.66-38.99-69.77-66.71-115.83-85.09-19.82-7.91-39.07-17.22-58.53-26.02-2.88-1.3-5.45-3.31-9.12-5.58,19.36-8.7,37.02-13.02,56.49-2.89,14.74,7.68,30.92,12.56,46.29,19.07,41.11,17.42,76.09,43.3,103.82,78.26,4.95,6.24,7.6,15.5,8.34,23.64,1.32,14.44.37,29.08.37,44.61Z"/>
  <path class="cls-1" d="m929.35,675.33c27.37-8.73,51.31-11.76,75.53,1.05,8.78,4.64,14.25,9.03,13.24,19.46-.54,5.61-.1,11.32-.1,17.4-29.24-12.5-57.89-24.75-88.67-37.91Z"/>
</svg>