<?xml version="1.0" encoding="UTF-8"?>
<svg id="Layer_1" data-name="Layer 1" xmlns="http://www.w3.org/2000/svg" viewBox="0 0 1024 1024">
  <defs>
    <style>
      .cls-1 {
        fill: #b89b4b;
        stroke-width: 0px;
      }
    </style>
  </defs>
  <path class="cls-1" d="m829.14,396.78c-81.25-74.39-178.75-107.83-288.49-109.78-108.4-1.92-205.34,35.5-296.67,91.62-.82-1.85-1.63-3.69-2.45-5.54,6.91-4.75,13.57-9.91,20.76-14.19,187.95-111.82,373.91-106.53,557.88,9.74,11.49,7.26,23.45,14.09,33.86,22.71,24.17,20.02,51.78,25.83,82.11,22.82,4.52-.45,9.08-.59,15.44,3.12-34.13,19.84-67.39,41.49-102.95,58.29-9.4,4.44-27.65-3.28-38.79-10.28-48.78-30.61-99.81-55.5-156.35-67.57-139-29.68-265.58,2.28-382.29,79.45-25.37,16.77-48.56,36.84-73.19,55.72,176.03,152.85,511.38,162.2,705.75-.07-11.21-8.07-22.1-15.91-37.38-26.91,25.47-14.79,44.65-27.22,65.11-36.98,5.56-2.66,17.07.25,22.21,4.76,23.4,20.55,45.5,42.58,70.8,66.68-206.74,138.41-421.24,223.21-673.45,147.9,13.69,7.02,26.82,15.59,41.18,20.8,71.94,26.09,146.32,35.72,222.6,30,142.63-10.7,267.73-66.53,382.4-149.05,7.1-5.11,14.28-10.12,22.58-16-18.59,60.85-268.36,170.41-405.54,177.87-156.08,8.48-296.69-40.49-432.58-124.29,25.58,104.26,61.57,196.23,152.61,252.11,90.73,55.69,187.48,54.47,285.26,14.96,1.11,1.92,2.22,3.83,3.33,5.75-17.89,15.04-35.78,30.09-53.68,45.13,1.1,2.26,2.21,4.52,3.31,6.79,50.51,6.77,100.74,1.01,148.54-15.67,46.68-16.29,91.31-38.48,139.91-59.4-6.03,6.57-10.14,11.56-14.77,16.01-103.11,99.04-227.62,137.37-368.03,126.41-126.16-9.85-236.85-57.33-329.57-144.4-67.91-63.77-109.98-142.57-132.86-232.16-5.37-21.01-2.71-40.76,13.35-56.77,124.77-124.45,268.25-216.27,442.69-254.56,78.38-17.2,154.25-6.51,228.43,19.81,36.41,12.92,71.53,29.5,107.23,44.43,6.04,2.52,12.06,5.07,18.1,7.6,1.2-2.28,2.4-4.56,3.61-6.84Zm-692.1,204.98c15.48,81.86,44.6,153.03,106,207.89,1.05-3.12.32-5.44-1.03-7.31-36.3-50.42-59.74-106.47-71.47-167.23-3.56-18.43-16.07-25.05-33.51-33.36Z"/>
  <path class="cls-1" d="m67.5,500.96c-7.42-52.68,5.73-101.17,17.95-149.74-2.93-1.07-5.85-2.13-8.78-3.2-4.95,8.43-12.36,16.3-14.42,25.38-7.48,33.04-15.37,66.26-18.91,99.85-3.35,31.86-19.43,55.52-40.33,82.54-6.09-51.1-4.14-97.92,4.71-144.54C48.41,197.08,232.06,44.36,431.43,10.56c160.17-27.16,300.23,14.05,417.25,128.48,4.54,4.44,8.49,9.46,11.96,15.35-139.85-94.54-287.46-106.91-441.86-43.18-85.56,35.32-177.25,118.65-195.39,176.06,46.8-3.73,74.48-48.42,117.72-56.25,1.07,1.86,2.14,3.72,3.22,5.58-4.26,3.64-8.38,7.48-12.81,10.9-36.59,28.25-72.85,56.95-110,84.44-25.28,18.7-39.15,43.96-49.97,72.61-4.96,13.14-13.93,26.35-24.57,35.45-24.65,21.09-51.42,39.71-79.49,60.96Z"/>
  <path class="cls-1" d="m549.68,439.13c46.96-.22,81.89,33.61,82.36,79.76.47,45.85-34.37,80.7-81.16,81.2-46.71.5-81.62-33.59-81.94-80.01-.33-46.7,33.62-80.74,80.74-80.96Z"/>
</svg>