<?xml version="1.0" encoding="UTF-8"?>
<svg id="Layer_1" data-name="Layer 1" xmlns="http://www.w3.org/2000/svg" viewBox="0 0 128 128">
  <defs>
    <style>
      .cls-1 {
        fill: #cbbba0;
        stroke-width: 0px;
      }
    </style>
  </defs>
  <path class="cls-1" d="m58.2,51.75c.32-.33.6-.73.98-.97,3.8-2.43,7.61-4.84,11.44-7.22,2.14-1.33,4.33-2.59,6.49-3.89.35-.21.67-.47,1-.71-.03-.1-.06-.19-.09-.29-.44.08-.91.08-1.31.24-5.87,2.4-11.74,4.8-17.58,7.26-2.75,1.16-5.42,2.48-8.15,3.68-.72.32-1.52.59-2.3.61-3.86.14-7.73.19-11.59.27-.11,0-.22-.06-.72-.22.6-.42.96-.78,1.39-.96,4.12-1.63,8.29-3.14,12.38-4.85,11.13-4.65,21.94-9.92,32.04-16.56,3.26-2.14,5.66-4.79,6.92-8.52.94-2.78,2.17-5.47,3.2-8.22,2.17-5.8,10.3-6.6,14.11-3.61,1.95,1.53,2.6,3.73,3.04,6,.88,4.61-.6,8.65-3.35,12.23-1.57,2.05-3.51,3.83-5.25,5.76-.29.32-.41.8-.61,1.2.46.08.95.29,1.38.21,1.75-.33,3.2-1.26,4.43-2.5,1.02-1.03,2.02-2.1,2.86-3.28.91-1.27,2.07-1.6,3.49-1.39,4.76.7,8.18,5.08,7.77,9.92-.5,5.76-4.47,10.13-10.18,10.89-1.54.21-3.18-.18-4.76-.4-1.36-.19-2.7-.52-4.05-.8-3.61-.77-6.94.58-10.38,1.25-8.11,1.59-14.92,5.71-21.31,10.72-1.96,1.54-3.95,3.03-5.94,4.51-.27.2-.65.23-.98.34-.03-.32-.14-.67-.06-.97.46-1.89.87-3.81,1.47-5.65.27-.82.83-1.65,1.48-2.21,1.56-1.35,3.28-2.51,4.87-3.83.4-.33.9-1.08.78-1.41-.31-.82-1.04-.27-1.57-.09-3.32,1.15-6.63,2.35-9.94,3.51-.4.14-.83.18-1.24.27-.06-.1-.11-.2-.17-.3Z"/>
  <path class="cls-1" d="m53.92,101.64c6.94,4.91,12.29,11.37,17.9,17.62-.09-.23-.16-.47-.27-.69-2.8-5.69-5.7-11.34-8.33-17.11-.8-1.75-.95-3.83-1.23-5.79-.4-2.9-1.07-5.7-2.29-8.37-1.28-2.82-2.48-5.67-3.71-8.51-.27-.61-.78-1.23.16-1.75.98-.54,1.81-.36,2.38.47,2.1,3.06,4.21,6.11,6.32,9.16.24.35.49.7.78.99.16.16.44.19.67.28.02-.27.15-.58.05-.79-.63-1.35-1.33-2.67-1.98-4.01-1.26-2.57-2.52-5.15-3.76-7.73-.26-.55-.65-1.19.11-1.61.83-.46,1.24.16,1.59.81,2.6,4.86,5.27,9.67,7.77,14.57,2.13,4.17,4.55,8.14,7.31,11.91,2.74,3.73,5.4,7.52,8.12,11.27,2.07,2.85,4.12,5.71,6.83,8.02.27.23.34.7.51,1.05-.36.16-.71.45-1.07.45-8.42.02-16.84.04-25.26-.03-.66,0-1.56-.54-1.95-1.1-3.43-5.07-6.77-10.19-10.14-15.3-.76-1.15-.8-2.42-.52-3.82Z"/>
  <path class="cls-1" d="m44.16,84.55c.91.35,1.75.62,2.53,1.01.19.1.3.61.25.89-.65,3.73-1.32,7.45-2.02,11.17-.2,1.08-.91,1.31-1.85.76-2.25-1.29-4.5-2.58-6.79-3.79-1.35-.72-1.55-1.23-.49-2.32,2.21-2.27,4.47-4.51,6.74-6.72.45-.43,1.07-.68,1.63-1.01Z"/>
  <path class="cls-1" d="m21.65,80.67c-1.85-.31-4.14-.65-6.42-1.1-1.8-.36-2.74-1.61-2.9-3.38-.11-1.25-.11-2.51-.01-3.76.09-1.16,1.05-1.74,2.14-1.32.84.33,1.63.82,2.41,1.3,2.73,1.68,5.44,3.38,8.16,5.08.29.18.65.35.81.62.26.43.55.96.5,1.41-.03.28-.63.64-1.03.72-1.04.2-2.11.27-3.66.44Z"/>
  <path class="cls-1" d="m7.79,109.24c.13-.68.16-1.05.27-1.39.82-2.5,1.65-5,2.48-7.5.5-1.5,1.45-2.62,2.97-3.11,2.72-.88,5.47-1.69,8.2-2.53.24-.07.5-.07,1.05-.15-.24.57-.36.97-.57,1.31-1.92,3.09-4.43,5.64-7.2,7.96-1.93,1.62-3.92,3.17-5.9,4.73-.29.23-.67.35-1.3.67Z"/>
  <path class="cls-1" d="m20.97,48.44c.53-1.73.9-3.54,1.65-5.17.82-1.76,2.05-1.74,3.22-.17,1.86,2.47,3.7,4.96,4.68,7.96.42,1.3-.12,2.47-1.3,2.88-2.01.7-6.77-1.24-7.6-3.18-.29-.68-.33-1.47-.48-2.21-.06-.04-.12-.08-.17-.12Z"/>
  <path class="cls-1" d="m43.29,70.68c-.64,0-1.67-.56-2.43-1.54-1.53-1.97-1.91-4.3-1.9-6.71,0-.96.82-1.64,1.86-1.34,2.52.71,5.02,1.55,7.45,2.52.49.19.94,1.14.97,1.76.09,2.35-2.97,5.32-5.95,5.31Z"/>
  <path class="cls-1" d="m28.2,63.1c.9.04,2.71,1.48,2.88,2.36.15.77-.15,1.36-.95,1.57-1.07.27-3.08-1.11-3.23-2.18-.14-.98.46-1.78,1.3-1.75Z"/>
  <path class="cls-1" d="m34.97,106.25c0,1.2-1.15,2.68-2.11,2.65-.79-.03-1.27-.44-1.26-1.3,0-1.31,1.07-2.87,1.97-2.87.76,0,1.4.71,1.4,1.52Z"/>
</svg>