<?xml version="1.0" encoding="UTF-8"?>
<svg id="Layer_1" data-name="Layer 1" xmlns="http://www.w3.org/2000/svg" viewBox="0 0 128 128">
  <defs>
    <style>
      .cls-1 {
        fill: #a86a8a;
        stroke-width: 0px;
      }
    </style>
  </defs>
  <path class="cls-1" d="m9.92,115.5c7.06-5.8,13.04-11.93,21.31-14.88,2.04-.73,4.03-1.72,5.85-2.9,2.6-1.67,3.49-4.24,3.06-7.82-1.13.67-2.09,1.08-2.86,1.72-2.64,2.2-5.73,3.29-8.96,4.37-2.8.93-5.36,2.72-7.89,4.34-1.97,1.25-3.69,2.88-5.6,4.22-.68.47-1.61.59-2.42.87-.15-.2-.29-.39-.44-.59.42-.55.74-1.21,1.27-1.62,5.12-3.93,8.62-8.84,10.48-15.13.57-1.92,2.6-3.59,4.31-4.94,1.22-.96,2.97-1.34,4.54-1.75,6-1.56,11.99-3.1,16.41-8.68.68,3.1,1.24,5.66,1.8,8.23.33-.02.66-.04,1-.06.99-5,.25-10.11.17-15.63,2.91,1.23,5.66,2.98,8.31.83,1.55-1.26,2.66-3.07,3.97-4.63-.19-.22-.38-.45-.57-.67-.98.5-2.05.87-2.92,1.52-1.78,1.33-3.57,1.24-5.53.51-10.67-3.98-18.13-17.77-15.56-28.86.04-.19.25-.34.6-.8.17,4.51.34,8.72,2.97,12.45-.05-.94-.07-1.88-.17-2.81-.59-5.81-.65-11.65,1.56-17.1,1.23-3.02,3.46-5.64,5.27-8.43.34-.52,1.02-.87,1.2-1.41,1.7-5.07,5.92-6.98,10.55-7.83,4.69-.86,8.71-2.7,12.4-5.65,3.02-2.41,6.53-3.06,10.43-1.36-1.28.34-2.54.78-3.84,1.02-9.28,1.72-16.65,9.22-17.65,18.45-.46,4.26-2.34,7.14-6.21,8.85-3.72,1.65-6.18,4.36-7.16,8.41-.32,1.35-1.11,2.58-1.57,3.9-.81,2.32-.48,4.5,1.27,6.3,1.53,1.57,3.43,1.26,4.4-.71,1-2.02,1.19-4.22-.35-5.96-1.76-1.99-1.35-3.9.09-5.45,1.61-1.74,3.51-3.47,5.64-4.42,4.81-2.13,7.04-5.64,7.25-10.75.06-1.39.4-2.78.76-4.13.65-2.46,2.35-3.73,5.12-3.93-4,2.62-2.9,6.08-1.95,9.56,1.83,6.71.02,12.12-5.69,16.25-1.48,1.07-2.9,2.45-3.83,4-.98,1.64-1.09,3.73.55,5.17.61.53,2.05.76,2.76.41,1.92-.96,3.11-3.11,2.37-4.87-1.28-3.04.55-4.13,2.39-5.39,3.78-2.6,6.43-5.91,8.05-10.32,1.96-5.36,6.01-8.85,11.54-10.46.92-.27,1.92-.26,2.89-.38.08.21.15.43.23.64-.6.31-1.17.72-1.8.92-4.28,1.36-7.06,4.2-8.41,8.44-1.48,4.65-3.35,9.05-6.59,12.82-.76.89-1.17,2.24-1.36,3.43-.54,3.44-.88,6.9-1.33,10.64,3.1-.6,4.16-3.82,6.88-5.1-.25.57-.39,1.24-.77,1.71-1.78,2.16-3.53,4.37-5.48,6.37-2.5,2.57-4.17,5.45-4.16,9.11,0,1.88.45,3.69,2.34,4.51,1.93.84,3.46-.18,4.79-1.54,1.15-1.17,2.25-2.4,3.5-3.45.68-.57,1.63-.82,2.71-.94-3.09,3.41-3.71,7.54-4.5,11.71-.71,3.79-4.22,6.44-8.5,6.94-4.31.5-8.49,1.36-12.16,3.82-2.69,1.8-4.8,4.07-5.78,7.48.54,0,.85.09.95-.01,3.85-4.08,8.97-5.29,14.18-5.94,7.38-.93,13.29-4.21,17.96-9.94,1.08-1.33,2.37-2.48,3.6-3.69,2.28-2.22,4.86-3.54,8.21-3.15,2.22.25,4.15-.6,5.5-2.48.35-.49.66-1,.99-1.51.28.18.57.37.85.55-.85,2.1-1.65,4.22-2.55,6.29-.93,2.14-2.15,4.18-2.91,6.38-1.86,5.37-5.66,8.77-10.82,10.6-4.18,1.48-8.51,2.55-12.81,3.69-4.68,1.23-8.96,3.17-12.62,6.39-6.2,5.44-12.97,10.02-20.46,13.51-1.11.52-2.34,1.1-3.51,1.11-8.44.06-16.88-.02-25.32-.07-.52,0-1.03-.14-2.23-.32Z"/>
  <path class="cls-1" d="m112.86,105.07c-.85.72-1.62,1.6-2.57,2.14-2.35,1.31-4.09,3.12-5.05,5.63-.8,2.1-2.28,2.96-4.52,2.96-14.3.02-28.59.09-42.89.14-.44,0-.87-.16-2.19-.41,5.28-5.11,9.93-10.02,15.07-14.35,1.94-1.64,4.99-2.02,7.58-2.81,4.02-1.23,8.15-2.13,12.11-3.51,5.43-1.9,8.98-5.77,10.6-11.34.2-.67.49-1.31.77-1.95.09-.2.29-.34.68-.76,1.83,2.99,2.34,6.12,1.94,9.36-.27,2.15-.96,4.25-1.45,6.38-.59,2.58-.95,5.2,1.21,7.24,2.21,2.09,4.82,1.83,7.45.82.27-.1.57-.1.86-.14.13.2.26.4.39.61Z"/>
  <path class="cls-1" d="m12.43,30.43c.51-.73.92-1.56,1.55-2.17,4.01-3.88,6.82-8.45,8.5-13.8,1.45-4.62,5.52-6.12,9.42-7.7.24.18.49.37.73.55-.52,1.01-.81,2.28-1.6,3-4.06,3.7-6.93,8.09-9.03,13.19-1.64,3.99-4.97,6.39-9.57,6.93Z"/>
  <path class="cls-1" d="m9.24,78.73c.54-1.81.93-3.67,1.64-5.41,1.81-4.44,5.18-7.35,9.55-9.12.72-.29,1.68.02,2.54.06-.2.86-.16,1.88-.64,2.54-.81,1.12-1.94,2.01-2.93,3.01-2.83,2.88-5.65,5.77-8.49,8.65-.24.25-.57.41-.86.61-.27-.11-.54-.23-.81-.34Z"/>
  <path class="cls-1" d="m85.28,40.53c-1.44-6.29,7.06-14.32,16.2-15.76.07,2-.94,3.4-2.45,4.39-1.49.98-3.07,1.88-4.73,2.53-3.42,1.35-6.02,3.52-7.62,6.86-.3.62-.8,1.14-1.41,1.97Z"/>
  <path class="cls-1" d="m98.86,61.27c2.62-3.9,4.64-8.27,9.01-10.8,3.12-1.81,6.26-3.59,9.86-5.66-.76,1.3-1.18,2.7-2.11,3.46-1.73,1.4-3.7,2.57-5.69,3.58-2.57,1.31-4.6,3.04-6.14,5.52-1.07,1.71-2.64,3.11-3.99,4.66-.31-.25-.62-.5-.93-.76Z"/>
  <path class="cls-1" d="m117.71,20.61c-3.3,4.28-6.08,8.03-9.05,11.61-.7.85-2.09,1.13-3.41,1.8.05-.61-.02-.9.09-1,2.86-2.49,4.92-5.5,6.49-8.97.96-2.12,3.15-2.74,5.88-3.45Z"/>
  <path class="cls-1" d="m112.32,98.73c-1.65-.48-2.33-1.04-1.46-2.32,1.46-2.14,3.43-3.64,6.1-3.85.57-.04,1.39.32,1.71.77.23.31,0,1.37-.36,1.62-1.94,1.34-3.98,2.53-5.99,3.77Z"/>
</svg>