<?xml version="1.0" encoding="UTF-8"?>
<svg id="Layer_1" data-name="Layer 1" xmlns="http://www.w3.org/2000/svg" viewBox="0 0 128 128">
  <defs>
    <style>
      .cls-1 {
        fill: #95c11f;
        stroke-width: 0px;
      }
    </style>
  </defs>
  <path class="cls-1" d="m46.93,44.87c-.12.29-.19.63-.38.88-2.58,3.45-5.13,6.93-7.8,10.31-.67.84-1.66,1.48-2.6,2.05-1.39.85-2.05.63-3.05-.62-6.52-8.14-7.63-17.28-4.74-27.01,2.4-8.07,7.02-14.6,14.61-18.61,12.87-6.8,28.97-4.38,39.4,5.77.21.2.41.41.62.61,2.02,1.94,1.92,2.5.06,4.67-3.38,3.93-6.61,7.99-9.93,11.96-.31.38-.85.57-1.28.85.09-.53.08-1.11.29-1.58.36-.82.89-1.57,1.29-2.38.81-1.66-.06-3.08-1.91-3.16-1.46-.07-2.65.51-3.63,1.53-3.48,3.62-4.42,8.05-4.01,12.87.23,2.74,1.28,5.15,3.22,7.16,4.48,4.65,11.2,4.33,15.14-.8,2.08-2.71,2.9-5.85,2.4-9.18-.21-1.39-.98-2.78-1.78-3.98-2.19-3.28-2.25-5.13.21-8.23,1.1-1.38,2.35-2.65,3.6-3.89,2.11-2.08,4.66-3.12,7.64-3.27,3.54-.18,5.04-1.54,5.87-4.98.12-.5.49-.95.74-1.42.15.57.47,1.16.41,1.71-.12,1.26-.33,2.53-.68,3.74-.48,1.65-1.62,2.73-3.31,3.17-.71.19-1.43.37-2.14.58-3.72,1.09-5.6,4.12-4.9,7.94.25,1.37.6,2.73.93,4.08.83,3.34.56,6.6-.7,9.8-1.24,3.13-3.03,5.92-5.18,8.49-.68.82-1.34,1.67-2.08,2.44-4.17,4.37-6.81,9.47-7.9,15.46-.66,3.67-1.8,7.25-2.73,10.87-.07.28-.11.62-.29.8-.38.38-.84.68-1.27,1.01-.22-.41-.6-.8-.63-1.22-.12-1.97-.12-3.94-.2-5.91-.04-.98-.12-1.97-.3-2.93-.06-.32-.46-.78-.74-.8-.31-.03-.82.29-.96.58-.34.73-.68,1.53-.74,2.32-.38,4.46-.67,8.93-1.02,13.4-.15,1.88-.3,3.77-.55,5.64-.08.62-.48,1.2-.74,1.8-.15-.01-.3-.03-.45-.04-.16-.46-.46-.92-.47-1.39-.14-4.39-.31-8.79-.32-13.18-.02-6.91.14-13.82.06-20.72-.02-2.03-.57-4.06-.97-6.07-.14-.71-.46-1.41-.83-2.04-.55-.93-1.33-.99-1.97-.12-.53.72-1.02,1.53-1.27,2.37-.91,3.07-1.77,6.15-2.48,9.27-.14.61.52,1.41.81,2.12.62-.3,1.24-.59,1.85-.91.13-.07.18-.29.3-.38.28-.21.58-.38.88-.56.18.3.49.6.51.91.1,1.35.3,2.72.15,4.04-.95,8.74-1.12,17.49-.42,26.25.28,3.57.74,7.12,1.06,10.68.11,1.26.13,2.55.05,3.81-.03.42-.52.8-.79,1.2-.3-.35-.79-.66-.87-1.05-.52-2.57-1.04-5.15-1.38-7.75-.96-7.21-1.79-14.44-2.76-21.64-.18-1.36-.73-2.69-1.21-4-.27-.72-.62-1.52-1.18-1.99-.63-.53-1.56-1.04-2.32-.99-1.04.07-1.28,1.18-1.29,2.11-.02,1.85.09,3.7.04,5.55-.01.48-.42.94-.65,1.41-.47-.24-1.22-.37-1.37-.75-.94-2.26-1.79-4.57-2.57-6.89-.37-1.12-.52-2.32-.74-3.49-.51-2.82-1.74-5.29-3.61-7.45-1.44-1.66-1.43-2.18-.12-3.98.99-1.36,1.97-2.74,2.99-4.08.69-.91,1.57-1.42,2.77-1.64,1.73-.31,3.47-.75,5.08-1.42,5.91-2.47,8.65-7.35,7.86-13.73-.41-3.28-1.4-6.33-3.4-9.01-2.42-3.24-5.68-4.77-9.7-4.66-1.41.04-2.64.52-3.63,1.58-3.77,4.06-5.91,8.85-6.41,14.36-.18,2.01.2,3.94,1.27,5.68.86,1.4,1.86,1.71,3.17.73,1.64-1.22,3.12-2.66,4.68-4,.38-.33.79-.63,1.19-.94.08.08.16.17.24.25Z"/>
  <path class="cls-1" d="m37.29,91.82c-.45,2.23-.08,4,.44,5.73,1.68,5.6,4.83,10.41,8.13,15.14.51.73.95,1.53,1.27,2.36.13.33-.17.81-.28,1.23-.41-.11-.97-.08-1.21-.34-.76-.85-1.43-1.79-2.1-2.72-1.62-2.27-3.18-4.59-4.85-6.82-.53-.71-1.28-1.29-2.03-1.77-.36-.23-1.19-.27-1.4-.03-.29.33-.41,1.11-.21,1.5.58,1.12,1.36,2.15,2.06,3.21.19.3.36.61.54.91-.08.13-.16.26-.24.39-.72-.32-1.68-.44-2.11-.99-2.42-3.09-5.26-3.21-8.9-2.3-6.75,1.69-12.38-.71-16.72-6.08-3.75-4.64-5.63-10.09-6.49-15.91-1.02-6.87-.64-13.62,2.09-20.11,1.19-2.84,2.91-5.32,5.2-7.41,1.51-1.39,2.97-2.85,4.34-4.38,1.23-1.37,2.03-2.97,2.13-4.88.02-.36.41-.7.63-1.04.23.34.6.66.67,1.03.29,1.63,0,3.22-.77,4.66-.91,1.7-1.93,3.34-2.91,5.01-1.73,2.95-2.54,6.09-1.63,9.45.31,1.16.83,2.4,1.62,3.27,1.33,1.46,1.69,3.12,1.79,4.96.18,3.47,1.1,6.74,3.01,9.66,1.74,2.65,3.98,4.68,7.17,5.47,3.5.87,7.01-1.47,6.99-5.2-.02-4-.9-7.72-2.79-11.24-1.56-2.9-4.24-3.67-7.23-3.9-.78-.06-1.56-.09-2.33-.19-2.84-.38-4.65-2.09-5.35-5.03-.65-2.71.38-5.73,2.45-7.17,1.46-1.01,3.02-.86,4.6-.32,5.55,1.91,9.57,5.63,12,10.88,1.96,4.24,3.43,8.7,5.19,13.04,1.51,3.73,3.07,7.43,4.71,11.1.46,1.03,1.23,1.95,2,2.79.87.94,1.56.73,2.02-.44.03-.08.06-.15.09-.23.28-.55.56-1.1.83-1.65.29.63.78,1.23.85,1.88.25,2.25.39,4.51.5,6.76.27,5.39,1.53,10.55,3.42,15.59.38,1.02.51,2.15.62,3.24.03.33-.4,1.02-.59,1.01-.46-.02-1.09-.25-1.3-.6-.39-.65-.54-1.45-.79-2.19-2.48-7.52-5.45-14.81-9.85-21.44-1.09-1.64-2.41-3.12-3.67-4.63-.37-.44-.91-.72-1.6-1.25Zm-20.05-.72c-3.48.01-5.49,2.36-4.8,5.7.18.86.59,1.72,1.08,2.46,1.36,2.03,3.29,3.46,5.51,4.41,3.24,1.38,6.6-1.04,6.48-4.56-.15-4.38-3.92-8.03-8.27-8.01Z"/>
  <path class="cls-1" d="m66.46,116.98c.02-9.36,2.58-18.14,6.66-26.43,1.53-3.12,3.95-5.84,6.16-8.58,2.24-2.78,4.8-5.31,7.1-8.05,3.45-4.11,5.45-8.85,5.81-14.26.08-1.26.36-2.52.6-3.77.95-4.92,4.3-7.32,8.92-8.13,2.95-.51,5.96-.67,8.94-.99,2.57-.28,5.02-.85,7.01-2.69.2-.18.58-.17.87-.25.05.33.21.7.12.99-1.1,3.65-4.48,6.32-8.25,6.32-3.84,0-6.79,1.64-9.19,4.49-2.23,2.65-3.76,5.71-4.76,8.98-.72,2.35-1.94,4.33-3.59,6.1-.7.75-1.43,1.5-1.98,2.36-.62.95-1.19,1.98-1.53,3.06-.63,2,.51,3.56,2.58,3.41,1.44-.1,2.97-.41,4.25-1.04,3.56-1.75,5.79-4.62,6.49-8.61.27-1.53.11-2.98-.69-4.29-1.09-1.8-.79-3.41.35-5.05,2.26-3.24,5.53-4.95,9.14-6.16,1.67-.56,3.41-.94,5.07-1.51,2.15-.74,3.75.02,5.14,1.61,1.81,2.08,2.78,4.54,3.29,7.2,1.7,8.93-2.55,21.14-13.87,25.75-2.43.99-4.83,2.08-7.32,2.91-4.74,1.58-8.66,4.32-11.88,8.08-1.79,2.09-3.48,4.28-5.27,6.37-.35.41-.97.59-1.47.87-.12-.59-.46-1.24-.33-1.77.6-2.42,2.11-4.34,3.71-6.18,1.41-1.61,2.88-3.17,4.24-4.81.58-.7,1.45-1.65.69-2.49-.79-.87-1.66.16-2.37.59-7.33,4.48-11.73,11.09-13.98,19.27-.15.55-.25,1.15-.53,1.63-.18.32-.64.49-.98.73-.2-.35-.58-.71-.57-1.05.19-5.13,1.43-9.89,4.74-13.98,1.41-1.75,2.67-3.64,3.89-5.54.47-.74,1.2-1.77.24-2.56-.98-.82-1.85.07-2.61.65-5.81,4.43-8.98,10.49-10.58,17.45-.89,3.88-1.51,7.82-2.28,11.73-.16.8-.09,2.01-1.27,1.91-1.12-.1-.59-1.25-.67-1.95-.09-.77-.02-1.56-.02-2.34Zm51.87-45.64c-.16-.63-.31-1.74-.73-2.75-.7-1.68-2.23-2.35-3.95-1.74-.95.34-1.93.81-2.66,1.47-1.42,1.3-2.85,2.64-3.94,4.21-1.84,2.66-3.03,5.64-2.86,8.98.09,1.79,1,2.87,2.76,3.08,2.79.33,5.23-.62,7.1-2.66,2.61-2.84,3.98-6.27,4.27-10.61Zm-24.2,15.32c2.57,0,5.19-2.17,6.21-4.89.15-.41.19-1.14-.04-1.33-.33-.27-1.02-.35-1.44-.2-2.25.81-4.1,2.23-5.54,4.13-.3.4-.53,1.18-.34,1.55.23.44.95.61,1.16.73Z"/>
  <path class="cls-1" d="m80.17,69.57c.45-2.42,1.2-4.35,3.32-5.31.55-.25,1.3-.06,1.96-.07-.03.58.15,1.29-.12,1.73-.9,1.49-1.92,2.93-2.99,4.3-.26.33-1.01.58-1.36.44-.4-.17-.61-.81-.8-1.09Z"/>
  <path class="cls-1" d="m51.29,38.69c.15.29.55.76.45.93-.48.81-1.05,1.59-1.7,2.28-.16.17-.82.05-1.09-.15-.18-.13-.19-.7-.07-.99.39-.98,1.02-1.77,2.4-2.07Z"/>
  <path class="cls-1" d="m120.43,38.22c.55-.72,1.04-1.46,1.64-2.1.18-.19.76-.25.98-.11.22.14.42.71.31.94-.35.76-.79,1.5-1.33,2.14-.17.21-.78.19-1.12.08-.2-.06-.28-.52-.48-.96Z"/>
  <path class="cls-1" d="m103.04,7.81c-.63.74-1.03,1.66-1.54,1.72-.97.11-1.13-.89-1.14-1.68,0-.83.16-1.85,1.18-1.78.47.03.88.99,1.49,1.74Z"/>
  <path class="cls-1" d="m17.09,41.39c-.48.41-.75.63-1.01.86-.36-.52-.79-1.02-1.05-1.59-.06-.14.4-.52.62-.79.43.46.87.91,1.45,1.52Z"/>
</svg>