<?xml version="1.0" encoding="UTF-8"?>
<svg id="Layer_1" data-name="Layer 1" xmlns="http://www.w3.org/2000/svg" viewBox="0 0 128 128">
  <defs>
    <style>
      .cls-1 {
        fill: #be1622;
        stroke-width: 0px;
      }
    </style>
  </defs>
  <path class="cls-1" d="m72.98,46.75c-.49-2.2-.84-4.45-1.5-6.59-1.38-4.41-3.61-8.38-6.56-11.95-4.4-5.33-7.41-11.42-9.62-17.93-.42-1.22-.2-2.35.71-3.29.96-.98,2.12-1.1,3.4-.74,5.52,1.55,10.82,3.67,15.94,6.24,12.32,6.17,23.64,13.69,32.26,24.66,2.99,3.81,5.59,7.94,8.33,11.95.86,1.26.92,2.63-.02,3.89-.9,1.2-2.14,1.61-3.59,1.22-3.9-1.06-7.82-2.04-11.66-3.27-3.01-.96-5.53-2.81-7.59-5.22-2.1-2.45-4.15-4.95-6.22-7.43-1.43-1.71-3.33-2.06-4.83-.91-1.5,1.16-1.81,3.28-.34,4.88,3.47,3.75,4.73,8.13,4.12,13.09-.29,2.33.66,3.81,2.35,5.42,9.01,8.56,17.86,17.29,26.75,25.96,1.66,1.62,2.15,3.57,1.26,5.72-.81,1.96-2.31,3.19-4.49,3.26-.87.02-1.8-.19-2.6-.53-2.41-1.01-4.77-2.14-7.15-3.2-4.14-1.85-8.02.87-7.59,5.35.2,2.03.77,4.02.88,6.05.11,1.85.03,3.77-.33,5.58-.47,2.41-1.92,4.18-4.5,4.58-2.77.43-4.95-.76-6.29-3.11-1.91-3.33-2.24-7.13-.33-10.34,3.46-5.82,1.77-16.07-5.24-21.28-1.51-1.12-3.07-2.17-4.67-3.16-2-1.24-4.21-1.54-6.49-1-3.25.76-4.95,3.05-5.36,7.05-.64,6.22-.19,12.42.65,18.58.52,3.8,1.38,7.55,1.89,11.35.23,1.67.14,3.44-.09,5.12-.4,2.94-2.79,4.99-5.69,5.17-3.14.19-5.69-1.5-6.54-4.43-.85-2.93-.97-5.95-.14-8.85,2.55-8.89,2.39-17.93,1.73-27.01-.38-5.3-.9-10.57-2.28-15.74-2.22-8.32-6.68-15.29-12.67-21.35-1.95-1.98-4.04-3.82-6.07-5.72-1.09-1.01-2.25-1.1-3.17-.27-.93.83-.97,1.94-.1,3.18,1.13,1.6,2.25,3.22,3.43,4.78,1.6,2.12,1.67,4.24.55,6.65-.79,1.71-1.54,3.61-1.61,5.46-.2,5.3-.21,10.63.01,15.93.2,4.73,1.58,9.23,3.5,13.57,1.4,3.17,1.69,6.46.85,9.82-1.2,4.81-5.27,7.96-9.78,7.59-4.94-.4-8.45-4.04-8.87-9.18-.28-3.5.29-6.86,1.9-9.98,2.01-3.9,2.87-8.02,2.81-12.4-.09-6.38.1-12.76-.09-19.13-.36-12.12-2.22-23.99-6.64-35.34-.85-2.19-2.07-4.25-3.26-6.28-1.3-2.21-1.28-4.24.26-5.84,1.55-1.6,3.62-1.77,5.81-.44,13.9,8.41,27.02,17.95,39.72,28.06,4.67,3.72,9.23,7.57,13.84,11.36.21.17.43.34.65.5.12-.04.24-.09.36-.13Zm-44.84,44.02c-.19-.5-.38-1.4-.83-2.14-.85-1.41-2.48-1.63-3.82-.67-1.93,1.4-2.51,4.64-1.19,6.61.96,1.43,2.56,1.71,3.92.66,1.33-1.03,1.79-2.47,1.92-4.46Z"/>
</svg>