<?xml version="1.0" encoding="UTF-8"?>
<svg id="Layer_1" data-name="Layer 1" xmlns="http://www.w3.org/2000/svg" viewBox="0 0 128 128">
  <defs>
    <style>
      .cls-1 {
        fill: #a86a8a;
        stroke-width: 0px;
      }
    </style>
  </defs>
  <path class="cls-1" d="m127.99,114.94c0,3.64,0,7.27,0,10.91,0,1.67-.53,2.2-2.2,2.2-6.3,0-12.6.02-18.9-.05-.71,0-1.57-.38-2.09-.87-3.36-3.15-6.65-6.38-9.97-9.58-1.87-1.81-1.89-2.1-.33-4.25,2.76-3.8,5.48-7.62,8.29-11.37.92-1.23,1.44-2.46,1.13-3.98-.26-1.3.3-1.9,1.57-2.22,3.68-.91,7.27-.52,10.67.94,3.64,1.56,7.16,3.42,10.73,5.15.88.43,1.11,1.17,1.1,2.09-.02,3.68,0,7.36,0,11.04Z"/>
  <path class="cls-1" d="m.02,110.52c0-4.23,0-8.46,0-12.69,0-1.42.25-1.64,1.64-1.47,1.64.2,3.27.38,4.91.58,2.01.25,2.17.14,3.22-1.65,1.28-2.19,2.53-4.39,3.93-6.5,1.04-1.56,3.56-2.22,5.29-1.47.51.22.98.81,1.22,1.35,2.5,5.45,4.92,10.94,7.43,16.38.6,1.31.67,2.5.01,3.75-1.1,2.1-2.21,4.18-3.28,6.29-.52,1.02-1.28,1.24-2.32.96-1.3-.35-2.6-.74-3.92-.99-2.14-.41-4.04.17-5.6,1.68-3.19,3.09-6.89,5.44-10.72,7.62-1.39.79-1.82.56-1.82-1.02,0-4.27,0-8.55,0-12.82Z"/>
  <path class="cls-1" d="m80.95,128.04c-3.76,0-7.53.03-11.29-.03-.76-.01-1.6-.25-2.26-.63-1.86-1.08-3.65-2.3-5.48-3.43-.7-.43-.98-.91-.79-1.78.3-1.36.46-2.75.66-4.13.31-2.15,1.49-3.79,3.23-4.95,1.82-1.22,3.72-2.33,5.67-3.35,1.89-.99,3.2-2.31,3.88-4.41.43-1.33,1.31-2.55,2.17-3.69.42-.55,1.21-1.07,1.88-1.14,2.26-.24,4.55-.41,6.82-.31,1,.05,2.15.62,2.9,1.31,1.1,1.02,1.94,2.33,2.79,3.59.2.3.14.91,0,1.3-1.17,3.17-2.33,6.34-3.61,9.46-.39.96-.34,1.63.29,2.42,1.75,2.17,3.44,4.4,5.15,6.6.18.23.37.46.52.72.96,1.65.53,2.43-1.35,2.44-3.72,0-7.44,0-11.17,0Z"/>
  <path class="cls-1" d="m63.39,105.69c-.24.4-.43.93-.8,1.28-2.93,2.7-4.84,5.94-5.44,9.92-.18,1.21-1.28,1.56-2.26.71-.82-.72-1.67-1.49-2.24-2.41-4.31-6.9-11.1-9.58-18.62-11.01-1.01-.19-1.54-.64-1.78-1.65-.55-2.3-1.25-4.57-1.77-6.87-.12-.51.06-1.3.4-1.67,3.27-3.49,6.6-6.92,9.93-10.35.98-1.01,1.52-.91,2.21.37,1.14,2.12,2.28,4.24,3.36,6.4.76,1.51,1.9,2.33,3.59,2.39.63.02,1.27.17,1.9.12,4.37-.34,6.92,2.04,8.58,5.73.83,1.85,1.64,3.71,2.44,5.57.18.42.31.87.51,1.47Z"/>
  <path class="cls-1" d="m57.08,127.96c-.41.02-.82.06-1.22.06-14.68,0-29.35,0-44.03-.02-.49,0-.98-.28-1.47-.42.28-.42.5-.9.86-1.24,1.57-1.47,3.22-2.87,4.77-4.37.84-.82,1.7-1.09,2.86-.92,1.42.22,2.86.29,4.29.37,2.58.14,4.57-.97,5.73-3.23.96-1.87,1.66-3.88,2.37-5.86,1.17-3.26,1.15-3.3,4.34-2.02,3.33,1.34,6.63,2.74,9.95,4.12,1.64.69,2.8,1.84,3.4,3.54.48,1.35,1.08,2.67,1.52,4.03.5,1.54,1.41,2.66,2.86,3.37,1.02.5,2.04,1.01,3.05,1.54.33.17.61.43.91.65-.06.13-.12.26-.18.38Z"/>
  <path class="cls-1" d="m127.99,82.33c0,4.31,0,8.62,0,12.94,0,1.64-.42,1.91-1.89,1.25-4.42-1.99-8.73-4.23-13.49-5.42-1.34-.34-1.92-1.7-2.07-2.97-.36-3.02-.57-6.06-.79-9.09-.03-.39.11-.87.35-1.18,2.18-2.81,4.32-5.55,8.07-6.57,2.83-.77,5.52-2.09,8.27-3.16,1.22-.48,1.54-.29,1.54,1.01.01,4.4,0,8.79,0,13.19Z"/>
  <path class="cls-1" d="m0,74.66c0-4.57,0-9.14,0-13.71,0-1.74.41-1.98,1.96-1.13,1.93,1.05,3.88,2.07,5.75,3.23.57.35,1.07,1.07,1.26,1.73,1.46,4.89,2.86,9.8,4.22,14.72.15.55.13,1.29-.12,1.78-1.71,3.4-3.51,6.75-5.25,10.13-.41.8-.93.99-1.75.66-1.76-.71-3.53-1.42-5.32-2.05C.02,89.75,0,89.24,0,88.62c0-4.65,0-9.31,0-13.96Z"/>
  <path class="cls-1" d="m29.33,57.6c-1.59-.67-3.29-1.31-4.89-2.14-.28-.14-.36-1.18-.15-1.65,1.91-4.36,3.9-8.7,5.89-13.03.6-1.3,1.24-2.59,1.91-3.86.27-.52.6-1.03,1.01-1.44,1.21-1.21,2.16-1.11,3.28.16,3.02,3.42,6.06,6.82,9.11,10.21.54.6,1.13,1.14,1.73,1.68.68.61.71,1.31.08,1.86-.84.74-1.74,1.52-2.75,1.96-4.68,2.03-9.41,3.95-14.12,5.91-.31.13-.64.2-1.09.34Z"/>
  <path class="cls-1" d="m99.98,55.71c1.81.1,3.46.19,5.11.27,1.26.07,2.22.62,2.61,1.85.6,1.85,1.15,3.71,1.67,5.58.24.85.02,1.67-.86,2.03-3.26,1.38-6.55,2.72-9.83,4.04-.85.34-1.42-.05-2.11-.65-2.19-1.93-2.66-4.03-1.29-6.66.65-1.26.95-2.7,1.41-4.07q.82-2.47,3.29-2.39Z"/>
  <path class="cls-1" d="m7.2,16.63c.48-2.64,1.06-5.97,1.69-9.28.2-1.06.99-1.51,2-1.64,4.13-.55,5.76.33,7.45,4.18.49,1.12.77,2.32,1.23,3.45.38.92-.02,1.32-.81,1.63-2.31.91-4.63,1.83-6.92,2.79-.74.31-1.43.72-2.13,1.1-1.41.76-2.49.11-2.5-2.22Z"/>
  <path class="cls-1" d="m97.53,25.48c0-1.27.03-2.53,0-3.8-.03-.87.3-1.51,1.12-1.77,2.36-.75,4.7-1.67,7.13-2.09,1.08-.19,2.36.62,3.51,1.07.17.07.26.76.14,1.06-.89,2.24-1.99,4.34-3.73,6.1-1.39,1.4-2.66,2.95-3.86,4.52-.91,1.2-1.94.88-3.06.6-1.04-.27-1.04-1.09-1.05-1.9-.01-1.26,0-2.53,0-3.79h-.19Z"/>
  <path class="cls-1" d="m22.74,81.48c-1.05.02-1.55-.52-1.28-1.58.68-2.61,1.37-5.22,2.15-7.79.48-1.58.91-1.72,2.43-1.06,2.78,1.22,5.53,2.49,8.32,3.69.93.4,1.2.91.8,1.86-.36.85-.49,1.81-.92,2.61-.27.52-.86,1.14-1.37,1.21-3.35.43-6.71.72-10.12,1.06Z"/>
  <path class="cls-1" d="m73.78,43.67c-1.22-.87-2.72-1.65-3.77-2.84-.46-.52-.21-1.97.14-2.82.77-1.86,1.74-3.65,2.75-5.39.77-1.34,1.88-1.41,2.86-.23,1.51,1.82,2.94,3.7,4.42,5.54.49.61.48,1.13-.18,1.61-1.71,1.23-3.41,2.48-5.13,3.7-.23.16-.53.22-1.09.43Z"/>
  <path class="cls-1" d="m70.47,67.09c-.38.42-.7,1.05-1.2,1.26-1.86.79-3.75,1.5-5.67,2.12-.84.27-1.36-.23-1.39-1.14-.06-1.44-.21-2.88-.14-4.31.02-.51.44-1.19.88-1.46,1.37-.82,2.85-1.47,4.27-2.22.98-.52,1.71-.2,2.01.76.48,1.57.81,3.19,1.25,4.99Z"/>
  <path class="cls-1" d="m66.5,102.63c-.18-.19-.71-.49-.83-.91-1.07-3.68-2.07-7.38-3.06-11.08-.06-.22.06-.63.23-.75.16-.1.59-.02.75.14,2.51,2.5,5,5.01,7.48,7.55.61.63.54,1.29.07,2.05-1,1.65-2.32,2.76-4.65,2.99Z"/>
  <path class="cls-1" d="m86.01,90.72c-1.79.21-2.76-1.19-3.83-2.35-.18-.19-.11-.75.03-1.06.75-1.74,1.9-3.2,3.59-4.1.4-.21,1.37-.16,1.53.11,1,1.65,1.98,3.37,1.7,5.41-.23,1.65-.77,1.97-3.01,2Z"/>
  <path class="cls-1" d="m98.88,97.23c-.5.79-.94,1.72-1.6,2.44-2.66,2.93-1.7,2.78-4.46.15-.8-.76-.85-1.47-.09-2.27,1.25-1.31,2.48-2.63,3.73-3.94.62-.65,1.06-.57,1.33.33.31,1.04.68,2.07,1.08,3.29Z"/>
  <path class="cls-1" d="m51.3,28.81c-1.21-.05-1.95-.59-1.89-1.7.08-1.38.31-2.76.58-4.12.19-.93.94-1.07,1.67-.68.66.35,1.28.83,1.8,1.37.73.75,1.54,1.59.92,2.77-.67,1.28-1.64,2.24-3.08,2.36Z"/>
  <path class="cls-1" d="m52.35,86.94c-1.44-.05-2.73-1.15-2.7-2.32.03-1.23,1.65-3.09,2.63-3.01.84.06,2,2.18,2,3.65,0,1.02-.81,1.72-1.93,1.68Z"/>
  <path class="cls-1" d="m81.18,73.89c-.53,1.36-.92,2.48-1.41,3.54-.08.17-.7.28-.91.16-.8-.47-1.53-1.04-2.29-1.58-.03-.02-.1-.07-.09-.08.39-1.14.73-2.3,1.23-3.38.14-.3.97-.63,1.2-.49.82.5,1.52,1.2,2.27,1.83Z"/>
  <path class="cls-1" d="m49.37,58.43c-.52-.21-1.32-.52-2.11-.84.44-.59.83-1.21,1.32-1.75.42-.46.96-.82,1.43-1.24.68-.62,1.48-.71,1.98,0,.37.52.61,1.45.4,2.01-.42,1.13-1.49,1.65-3.03,1.82Z"/>
  <path class="cls-1" d="m115.42,21.79c.19,2.47-1,3.92-2.41,5.22-.19.18-.77.17-1.01,0-.23-.16-.46-.72-.35-.93.83-1.66,1.91-3.12,3.77-4.3Z"/>
  <path class="cls-1" d="m122.3,46.78c-.24.18-.86.92-1.13.81-.82-.34-1.74-.87-2.15-1.59-.34-.61,1.23-2.19,1.92-2.17.87.03,1.4,1.01,1.36,2.95Z"/>
  <path class="cls-1" d="m25.47,90.73c-1.21,0-2.33-1.07-2.35-1.94-.02-.73,1.06-1.86,1.79-1.87.72,0,1.48,1.17,1.46,2.37-.01.78-.27,1.42-.9,1.44Z"/>
  <path class="cls-1" d="m25.31,16.69c.29,1.35.22,2.66-.59,3.83-.2.28-.7.51-1.03.48-.22-.02-.51-.53-.57-.86-.41-2.15.39-3.43,2.18-3.45Z"/>
  <path class="cls-1" d="m83.7,12.56c-.61.72-.96,1.33-1.49,1.68-.33.21-1.02.17-1.36-.06-.23-.15-.17-.82-.15-1.24.02-.32.13-.68.31-.95.34-.52.76-.98,1.15-1.47.47.62.94,1.24,1.55,2.04Z"/>
</svg>