<?xml version="1.0" encoding="UTF-8"?>
<svg id="Layer_1" data-name="Layer 1" xmlns="http://www.w3.org/2000/svg" viewBox="0 0 128 128">
  <defs>
    <style>
      .cls-1 {
        fill: #be1622;
        stroke-width: 0px;
      }
    </style>
  </defs>
  <path class="cls-1" d="m73.92,44.94c-.54-2.43-.92-4.91-1.66-7.28-1.52-4.87-3.98-9.26-7.24-13.21-4.86-5.89-8.18-12.61-10.63-19.8-.46-1.35-.22-2.6.79-3.63,1.06-1.08,2.34-1.22,3.75-.82,6.1,1.71,11.95,4.06,17.61,6.89,13.61,6.82,26.12,15.12,35.64,27.24,3.31,4.21,6.17,8.77,9.2,13.2.96,1.4,1.01,2.9-.03,4.29-.99,1.32-2.36,1.78-3.96,1.35-4.3-1.17-8.64-2.25-12.88-3.61-3.32-1.06-6.11-3.1-8.38-5.76-2.32-2.71-4.58-5.47-6.87-8.21-1.58-1.89-3.68-2.28-5.34-1-1.66,1.28-2,3.63-.38,5.39,3.83,4.15,5.23,8.98,4.55,14.46-.32,2.57.73,4.21,2.59,5.99,9.95,9.45,19.72,19.1,29.55,28.68,1.83,1.79,2.38,3.94,1.4,6.32-.89,2.17-2.55,3.53-4.96,3.6-.96.03-1.98-.21-2.88-.59-2.66-1.11-5.27-2.36-7.9-3.53-4.58-2.04-8.86.96-8.38,5.91.22,2.24.85,4.45.97,6.68.12,2.05.03,4.16-.36,6.17-.52,2.66-2.12,4.62-4.97,5.06-3.06.47-5.47-.84-6.95-3.43-2.12-3.68-2.48-7.87-.37-11.42,3.82-6.43,1.95-17.76-5.79-23.51-1.66-1.24-3.4-2.39-5.16-3.49-2.21-1.38-4.65-1.7-7.17-1.11-3.59.84-5.46,3.37-5.92,7.78-.71,6.88-.21,13.72.71,20.53.57,4.2,1.52,8.34,2.09,12.54.25,1.85.16,3.8-.1,5.66-.44,3.25-3.08,5.52-6.28,5.71-3.47.21-6.28-1.66-7.22-4.9-.94-3.23-1.07-6.57-.15-9.77,2.82-9.82,2.64-19.81,1.91-29.83-.42-5.85-.99-11.68-2.52-17.39-2.45-9.2-7.38-16.89-14-23.58-2.16-2.18-4.46-4.22-6.71-6.32-1.2-1.12-2.48-1.21-3.5-.29-1.02.92-1.07,2.14-.11,3.52,1.25,1.77,2.48,3.55,3.79,5.28,1.77,2.34,1.84,4.68.61,7.35-.88,1.89-1.7,3.99-1.78,6.03-.22,5.86-.23,11.74.02,17.6.22,5.22,1.74,10.2,3.86,14.99,1.55,3.5,1.87,7.13.94,10.85-1.33,5.31-5.82,8.8-10.8,8.39-5.46-.45-9.34-4.46-9.8-10.14-.31-3.87.32-7.58,2.1-11.03,2.22-4.31,3.17-8.86,3.1-13.7-.1-7.04.11-14.09-.1-21.13-.39-13.39-2.46-26.5-7.33-39.04-.94-2.42-2.28-4.69-3.6-6.94-1.43-2.45-1.42-4.68.29-6.45,1.71-1.77,4-1.95,6.42-.49,15.36,9.29,29.85,19.83,43.88,31,5.16,4.11,10.19,8.36,15.29,12.55.23.19.48.37.72.56.13-.05.26-.1.4-.15Zm-49.53,48.63c-.21-.56-.42-1.55-.91-2.37-.94-1.55-2.74-1.81-4.22-.74-2.13,1.54-2.78,5.12-1.31,7.3,1.06,1.58,2.82,1.89,4.33.73,1.47-1.13,1.98-2.73,2.12-4.93Z"/>
</svg>