<?xml version="1.0" encoding="UTF-8"?>
<svg id="Layer_1" data-name="Layer 1" xmlns="http://www.w3.org/2000/svg" viewBox="0 0 128 128">
  <defs>
    <style>
      .cls-1 {
        fill: #cbbba0;
        stroke-width: 0px;
      }
    </style>
  </defs>
  <path class="cls-1" d="m57.59,50.46c.36-.36.66-.8,1.08-1.07,4.2-2.68,8.41-5.35,12.64-7.98,2.37-1.47,4.79-2.86,7.17-4.3.39-.23.74-.52,1.1-.79-.03-.11-.06-.21-.09-.32-.48.09-1,.09-1.45.27-6.48,2.66-12.97,5.3-19.43,8.03-3.03,1.28-5.99,2.75-9.01,4.07-.8.35-1.68.65-2.54.68-4.27.15-8.54.21-12.81.29-.12,0-.24-.07-.79-.24.66-.46,1.06-.87,1.54-1.06,4.55-1.8,9.16-3.47,13.68-5.36,12.3-5.14,24.24-10.96,35.41-18.3,3.6-2.37,6.25-5.3,7.65-9.42,1.04-3.08,2.4-6.04,3.54-9.09,2.4-6.4,11.38-7.29,15.59-3.99,2.15,1.69,2.87,4.12,3.35,6.63.97,5.09-.67,9.56-3.7,13.52-1.74,2.27-3.88,4.23-5.8,6.36-.32.36-.46.88-.68,1.33.51.09,1.05.32,1.52.23,1.93-.36,3.54-1.4,4.89-2.77,1.13-1.14,2.23-2.33,3.16-3.63,1-1.41,2.28-1.77,3.86-1.54,5.26.78,9.04,5.61,8.58,10.96-.55,6.37-4.94,11.19-11.25,12.03-1.71.23-3.52-.2-5.26-.45-1.5-.21-2.99-.57-4.47-.89-3.98-.85-7.67.64-11.47,1.38-8.97,1.76-16.49,6.31-23.55,11.85-2.16,1.7-4.36,3.35-6.57,4.99-.29.22-.72.26-1.09.38-.03-.36-.15-.74-.07-1.07.5-2.09.96-4.21,1.63-6.25.3-.9.91-1.82,1.63-2.45,1.72-1.49,3.62-2.78,5.38-4.23.44-.37,1-1.19.86-1.56-.34-.91-1.15-.3-1.73-.1-3.67,1.28-7.32,2.59-10.99,3.88-.44.15-.91.2-1.37.3-.06-.11-.12-.22-.19-.33Z"/>
  <path class="cls-1" d="m52.87,105.59c7.67,5.43,13.59,12.57,19.78,19.48-.1-.25-.18-.52-.3-.76-3.09-6.29-6.3-12.53-9.21-18.9-.88-1.94-1.06-4.24-1.35-6.4-.44-3.2-1.19-6.29-2.53-9.25-1.42-3.11-2.74-6.27-4.1-9.41-.29-.68-.86-1.36.18-1.93,1.08-.59,2-.4,2.63.52,2.32,3.38,4.65,6.75,6.98,10.12.26.38.54.77.87,1.09.18.17.49.21.74.31.03-.29.17-.64.06-.87-.7-1.49-1.47-2.95-2.19-4.43-1.39-2.84-2.78-5.69-4.16-8.55-.29-.61-.71-1.31.12-1.77.92-.51,1.38.17,1.76.89,2.87,5.37,5.82,10.69,8.59,16.11,2.35,4.6,5.02,8.99,8.08,13.16,3.03,4.13,5.97,8.31,8.97,12.45,2.29,3.15,4.55,6.32,7.55,8.87.3.26.38.77.56,1.17-.39.17-.78.5-1.18.5-9.31.03-18.61.05-27.92-.03-.73,0-1.73-.6-2.15-1.22-3.79-5.6-7.48-11.27-11.21-16.91-.84-1.27-.89-2.67-.58-4.22Z"/>
  <path class="cls-1" d="m42.07,86.7c1.01.39,1.94.69,2.79,1.12.21.11.33.67.28.99-.72,4.12-1.45,8.24-2.23,12.34-.23,1.2-1,1.44-2.05.84-2.48-1.43-4.97-2.85-7.5-4.19-1.49-.79-1.71-1.36-.54-2.56,2.45-2.51,4.94-4.98,7.45-7.43.49-.48,1.19-.75,1.8-1.12Z"/>
  <path class="cls-1" d="m17.2,82.43c-2.04-.34-4.58-.72-7.09-1.22-1.99-.4-3.03-1.78-3.2-3.74-.12-1.38-.12-2.78-.01-4.16.1-1.28,1.16-1.93,2.37-1.46.93.37,1.81.9,2.66,1.43,3.01,1.86,6.01,3.74,9.01,5.62.32.2.71.38.9.68.29.47.61,1.06.55,1.55-.04.31-.7.71-1.14.79-1.15.22-2.33.29-4.04.49Z"/>
  <path class="cls-1" d="m1.88,114c.14-.75.18-1.16.3-1.53.9-2.77,1.82-5.53,2.74-8.29.55-1.66,1.6-2.9,3.28-3.44,3.01-.97,6.04-1.87,9.06-2.79.27-.08.56-.08,1.16-.16-.27.62-.39,1.07-.63,1.45-2.12,3.41-4.9,6.24-7.96,8.8-2.14,1.79-4.34,3.5-6.53,5.23-.32.26-.75.39-1.43.74Z"/>
  <path class="cls-1" d="m16.45,46.8c.59-1.91.99-3.91,1.82-5.71.9-1.95,2.26-1.92,3.56-.19,2.06,2.73,4.09,5.49,5.17,8.79.47,1.43-.13,2.73-1.44,3.19-2.22.78-7.48-1.37-8.4-3.51-.32-.75-.36-1.62-.53-2.44-.06-.04-.13-.09-.19-.13Z"/>
  <path class="cls-1" d="m41.11,71.38c-.71-.01-1.84-.62-2.69-1.7-1.69-2.18-2.11-4.75-2.1-7.41,0-1.06.91-1.81,2.06-1.48,2.79.79,5.54,1.72,8.24,2.78.54.22,1.04,1.26,1.07,1.95.1,2.59-3.28,5.88-6.57,5.87Z"/>
  <path class="cls-1" d="m24.44,63c1,.04,3,1.64,3.18,2.61.16.85-.17,1.51-1.05,1.73-1.18.3-3.4-1.22-3.57-2.41-.15-1.08.51-1.97,1.44-1.93Z"/>
  <path class="cls-1" d="m31.91,110.69c0,1.32-1.27,2.97-2.33,2.93-.87-.03-1.4-.48-1.39-1.44,0-1.45,1.18-3.18,2.18-3.17.84,0,1.55.78,1.54,1.68Z"/>
</svg>