<?xml version="1.0" encoding="utf-8"?>
<!-- Generator: Adobe Illustrator 28.0.0, SVG Export Plug-In . SVG Version: 6.00 Build 0)  -->
<svg version="1.1" id="Layer_1" xmlns="http://www.w3.org/2000/svg" xmlns:xlink="http://www.w3.org/1999/xlink" x="0px" y="0px"
	 viewBox="0 0 489 490.6" style="enable-background:new 0 0 489 490.6;" xml:space="preserve">
<style type="text/css">
	.st0{fill:url(#SVGID_1_);}
</style>
<linearGradient id="SVGID_1_" gradientUnits="userSpaceOnUse" x1="-21.4051" y1="995.7349" x2="528.4553" y2="795.6021" gradientTransform="matrix(1 0 0 1 0 -631.3913)">
	<stop  offset="0.4" style="stop-color:#7E9E85"/>
	<stop  offset="0.6" style="stop-color:#8A3C30"/>
</linearGradient>
<path class="st0" d="M70.5,259.5c6.7,3.8,13.5,7.2,20.4,10.6c57.8,28.2,118.5,49.4,179.2,70.2c7.8,2.7,7.8,2.6,12.1-4.3
	c36.3-57,71.5-114.8,111-169.8c3.9-5.4,3.1-8.6-2.9-11.5c-15.2-7.5-30.1-15.8-45.9-22c-49.4-19.3-99.1-37.8-148.7-56.6
	c-1.4-0.5-2.9-0.6-5.8-1.3c-1.7,1.3-4.5,2.7-6.3,5C141.2,133,102.1,188.5,67.2,247C63.7,253,64.3,256,70.5,259.5z M258.2,276.3
	c11,0.2,19.4,7.8,19.3,17.5c-0.1,10.7-10.3,20.1-21.5,20c-11.5-0.2-19-6.8-18.9-16.8C237.2,285.3,246.6,276,258.2,276.3L258.2,276.3
	z M242.9,208.3c-0.3,10.8-11.2,21.7-21.6,21.5c-10.7-0.2-17.9-7.3-17.7-17.5c0.2-12.1,10.2-21.9,22.1-21.6
	C235.6,190.9,243.1,198.6,242.9,208.3L242.9,208.3z M199.8,107.3c9.6,0.2,18.3,9.3,18.1,19c-0.2,10.9-12,22.3-22.6,22
	c-9.9-0.3-17.1-8.1-17-18.3C178.4,116.9,187.8,107,199.8,107.3L199.8,107.3z M408.5,176.4c-4.2,4.8-8.1,9.8-11.8,14.9
	c-36,49.7-68.1,101.8-97.5,155.7c-2.3,4.3-2.3,7.8-0.5,12.1c12.6,29.5,24.9,59.2,37.5,88.7c1.1,2.7,4.1,7,5.4,6.7
	c3-0.6,5.5-3.5,8.1-5.6c0.6-0.5,0.9-1.4,1.3-2.1c10.6-17.5,21.1-35.1,31.7-52.6c21-35.1,41.5-70.6,57.7-108.3
	c1.8-4.2,2.6-8.8,3.4-11.4c-3.8-34.8-12.9-66-24.9-96.5C416.8,172.6,412.4,172,408.5,176.4L408.5,176.4z M398.2,308.2
	c-1,10-5.5,18.5-13.3,24.8c-4.2,3.4-9.6,5-14.4,1.8c-3.1-2.1-5-6-6.2-7.6c-0.2-12.2,11.7-27.5,21.2-29.7
	C392.7,295.9,398.9,300.9,398.2,308.2L398.2,308.2z M307.3,445.6c-10.6-26.6-21.3-53.1-31.7-79.8c-1.9-5-4.9-7.6-9.9-9.4
	c-36.7-13.5-73.5-26.8-109.8-41.1c-32-12.6-63.5-26.5-95.3-39.8c-2.3-1-4.7-1.6-6.2-2.2c-4.8,0-6.5,2-6,5.7c0.1,1.3,0.6,2.6,1.1,3.8
	C61.7,317.2,80,348.6,97,380.6c1.6,3,4.9,5.5,8,7.2c8.4,4.8,17,9.2,25.6,13.5c39.6,19.4,81,33.8,123.3,46c16.5,4.7,33,9.2,49.6,13.4
	c2.1,0.5,5.5-0.3,6.9-1.8c1.1-1.2,0.5-4.5,0-6.7C309.7,450,308.3,447.9,307.3,445.6L307.3,445.6z M92.1,326.7
	c-1.7-1.9-2.4-5.8-1.8-8.5c0.4-1.8,3.7-3.1,5.1-4.2c11.6,2.1,21,6.3,27.7,14.7c1.3,1.6,1.7,5.6,0.6,7.2c-1.3,1.9-5,3.8-7.1,3.3
	C107.4,337.1,98.5,333.9,92.1,326.7L92.1,326.7z M142.7,385.6c-1.1,2-4.5,2.6-5.9,3.4c-10.3-1-17.4-5.5-23.3-11.8
	c-1.2-1.2-1.4-4.9-0.4-6.3c1.3-1.8,4.9-3.9,6.4-3.3c7.4,3.1,14.6,6.9,21.5,11.1C142.6,379.6,143.6,384,142.7,385.6L142.7,385.6z
	 M158.7,358.4c-1.9-2-3.4-6.5-2.4-8.6c1.1-2.5,5.2-5,8-5.1c9.9-0.3,17.6,4.6,22.9,12.8c3.3,5.1-0.7,10.3-8.5,10.2
	C171.8,366.5,164.2,364.4,158.7,358.4L158.7,358.4z M199.3,408.3c-1.1,1.8-3.8,3.9-5.7,3.9c-8.1-0.2-15.8-2.2-22.4-7.1
	c-2.8-2.1-4.5-5.2-2.6-8.2c1.3-2.2,4.4-3.3,5.6-4.2c10.3,0.9,17.8,4.2,24,10C199.4,403.8,200,407,199.3,408.3L199.3,408.3z
	 M223.8,372.9c2.2-2,5.2-3,6.6-3.8c8.7,0.6,15.1,3,20.2,7.8c1.6,1.5,3,4.9,2.4,6.8c-0.6,1.9-3.7,4-5.9,4.2
	c-8.6,0.8-16.3-2.6-23.3-7.2C220.8,378.6,221.4,375.1,223.8,372.9L223.8,372.9z M262.6,427.2c-1.9,2-4.7,3-7.5,4.7
	c-6-2.4-11.7-4.2-16.9-7c-1.8-1-3.7-4.6-3.3-6.5c0.5-2.2,3.1-4.8,5.4-5.7c5.9-2.3,19.5,3.4,22.4,9
	C263.4,423.2,263.5,426.2,262.6,427.2L262.6,427.2z M488.9,112.5c-0.3,1.2-1.7,2.2-2.8,3c-0.6,0.5-1.6,0.5-2.4,0.6
	c-16.8,2.9-23.9,10.6-25.4,27.6c-0.1,1.3,0.1,2.8-0.4,3.9s-1.7,2.4-2.6,2.5c-1.2,0.1-2.9-0.7-3.7-1.6c-1.1-1.6-1.6-3.6-2.4-5.4
	c-15.6-36.5-42.8-61-79-75.7c-14.6-5.9-29.9-10.1-44.9-15.1c-1.4-0.5-3.3-0.7-4-1.7c-1-1.3-1.4-3.2-1.4-4.9c0-0.4,2.4-1,3.8-1.2
	c1.1-0.1,2.3,0.4,3.4,0.6c13.8,2.1,25-3.2,30.9-15.8c3.3-7,5-14.8,7.4-22.2c0.8-2.3,1.6-4.6,2.4-6.8c0.8-0.1,1.6-0.2,2.4-0.3
	c1,2.9,2.6,5.8,3,8.7c1,8.3,1.6,16.6,2.1,24.9c1.6,24.5,18.9,29.7,36.4,25c11.5-3.1,21-10,30.1-17.3c7.9-6.3,15.6-13,23.4-19.5
	c1.3-1.1,2.5-2.5,3.9-3c1.9-0.7,4.1-0.6,6.1-0.8c-0.3,1.9-0.1,4.2-1.1,5.7c-2.4,3.8-5.8,6.9-8.1,10.8c-4.9,8.4-10.2,16.8-13.8,25.8
	c-4.6,11.6-1.7,22.8,7.5,31c7,6.2,15.4,10.9,23.2,16.1c1.2,0.8,2.8,1.1,4,2.1C487.9,110.2,489.1,111.7,488.9,112.5L488.9,112.5z
	 M106.5,470.9c1.3,1.1,2.4,2.3,3.6,3.4c-1.5,0.7-2.9,2-4.4,2.1c-7.6,0.5-15.3,0.5-22.9,1c-18,1.2-35.5,5-52.3,11.8
	c-1.7,0.7-3.6,1-5.5,1.4c-0.3-0.5-0.6-1-1-1.4c1.1-1.5,2.1-3.2,3.3-4.6c6.2-7.9,11.9-16.1,14.5-26c3-11.1,0.1-21.2-9.8-27
	c-8.2-4.8-17.6-7.4-26.5-11.1c-2.1-0.9-5.5-2.4-5.5-3.7c0-2.2,1.7-4.9,3.4-6.5c3.1-2.8,6.7-4.9,10.1-7.2c6.2-4.2,9.4-10,10-17.5
	c0.5-6.6,1.6-13.2,2.5-19.8c0.1-1.1,0.3-2.5,0.9-3.3c1-1.3,2.4-2.3,3.6-3.4c0.6,1.4,1.6,2.7,1.8,4.1c0.9,8.6,0.6,17.4,2.5,25.8
	c9,39.4,33.2,66.1,70.2,81.6C105.5,470.6,106.2,470.6,106.5,470.9L106.5,470.9z M271.5,42.7c0.1-1.4,1.6-3.3,3-4
	c4.4-2.1,8.9-1.2,12.6,1.6c1.5,1.1,2.9,3.5,2.8,5.2c0,1.1-2.8,2.2-4.5,3c-1,0.5-2.2,0.5-4.2,0.8c-2-0.6-4.8-1.2-7.2-2.5
	C272.8,46.2,271.5,44.1,271.5,42.7L271.5,42.7z M152.5,477.8c-0.4,2.3-4.4,3.9-7.6,6.5c-3-2.8-6.8-4.7-6.9-6.7
	c-0.1-4.5,4.5-4.7,7.9-4.6C149,473.1,153.3,473.8,152.5,477.8L152.5,477.8z"/>
</svg>
