<?xml version="1.0" encoding="UTF-8"?>
<svg id="Layer_1" data-name="Layer 1" xmlns="http://www.w3.org/2000/svg" viewBox="0 0 756.9 854.63">
  <defs>
    <style>
      .cls-1 {
        fill: #7e9e85;
        stroke-width: 0px;
      }
    </style>
  </defs>
  <path class="cls-1" d="m253.12,203.09c3.94,2.07,6.46,3.04,8.58,4.56,81.32,58.33,166.73,110.4,251.05,164.14,9.78,6.23,9.9,6.25,6.11,17.34-30.64,89.67-61.92,179.1-103.53,264.48-4.95,10.15-10.04,20.24-15.57,30.09-5.3,9.45-9.74,10.39-18.9,4.94-86.07-51.27-167.71-108.92-246.13-171.18-7.33-5.82-8.75-9.98-5.54-18.49,27.6-73,54.84-146.15,83.27-218.83,9.1-23.25,21.33-45.29,32.47-67.72,1.76-3.54,5.35-6.18,8.19-9.33Zm-44.63,321.92c15.11.16,26.62-10.54,27.05-25.14.46-15.64-16.45-32.99-32.5-33.34-14.28-.31-27.75,12.52-28.03,26.71-.35,17.7,14.26,31.56,33.48,31.77Zm147.21-63.07c.45-15.47-15.25-31.65-31.31-32.27-14.25-.55-25.74,10.34-26.33,24.96-.71,17.54,13.51,32.46,31.52,33.06,14.94.5,25.67-10.08,26.12-25.74Zm123.85-51.32c.36-16.64-13.35-31.71-29.18-32.05-14.3-.31-25.71,12-26.1,28.15-.42,17.22,12.99,31.21,30.21,31.5,14.85.25,24.7-10.59,25.07-27.6Z"/>
  <path class="cls-1" d="m422.38,132.89c4.06,1.24,10.57,2.58,16.55,5.15,55.42,23.81,107.49,53.95,159.13,84.87,26.13,15.64,52.19,31.41,78.29,47.12,1.05.63,2.38,1.05,3.11,1.94,3.01,3.7,7.68,7.38,8.07,11.41.24,2.48-5.76,6.6-9.68,8.27-44.25,18.87-88.67,37.34-132.96,56.1-4.89,2.07-9.04,2.47-13.9-.16-80.23-43.48-157.71-91.35-231.7-144.81-7.56-5.47-14.94-11.24-22.01-17.33-6.73-5.79-6.05-12.42,1.91-15.58,45.34-18.01,91.91-31.49,143.2-37Zm77.15,117.53c2.3-1.79,8.11-4.53,11.17-9.1,4.7-7.02,2.45-15.03-2.59-21.23-9.36-11.51-21.87-18.18-36.61-19.65-10.81-1.08-18.19,8.11-15.79,18.57,3.22,14.02,25.76,31.65,43.82,31.41Z"/>
  <path class="cls-1" d="m697.55,337.17c-.86,3.35-1.95,7.62-3.06,11.89-18.69,71.81-39.35,143.01-69.42,211.04-10.91,24.68-23.39,48.68-35.73,72.7-2.56,4.99-6.89,10.14-11.74,12.72-44.85,23.88-88.96,49.31-136.75,67.2-3.45,1.29-6.86,2.76-10.41,3.67-7.55,1.93-11.62-1.89-10.06-9.49.63-3.09,1.92-6.08,3.15-9.02,17.84-42.54,36.57-84.74,53.38-127.68,22.82-58.28,44.25-117.1,66.08-175.76,2.22-5.97,5.43-9.94,11.47-12.32,39.97-15.74,79.86-31.69,119.74-47.64,4.09-1.64,7.92-3.91,12-5.6,5.74-2.38,11.27,1.28,11.34,8.29Zm-179.09,276.52c-2.1-2.86-3.75-7.29-6.72-8.51-2.92-1.2-8.23-.37-10.66,1.71-11.62,9.91-18.41,22.92-20.14,38.06-.36,3.13,2.12,8.09,4.79,9.64,2.65,1.54,8.22,1.21,10.7-.68,12.87-9.76,16.78-24.73,22.03-40.22Zm40.64-89.52c-.09-11.16-7.09-16.42-14.75-12.62-10.82,5.37-21.22,23.18-19.16,34.99.72,4.17,4.14,9.51,7.73,11.05,3.12,1.34,9.32-.73,12.23-3.4,9.03-8.31,12.33-19.69,13.95-30.02Zm67.73-20.39c-2.86-3.64-4.9-8.45-8.32-9.84-2.44-.99-8.43,1.69-9.9,4.35-4.76,8.65-8.75,17.85-11.85,27.23-1.77,5.37-.99,11.7,5.76,14.08,6.64,2.34,11.24-1.82,13.62-7.1,3.97-8.82,6.83-18.15,10.69-28.73Zm-36.26,82.02c-1.14-1.97-2.44-6.93-5.54-8.65-2.24-1.24-8.65.74-10.12,3.16-6.04,9.97-11.37,20.46-15.83,31.22-.94,2.27,2.09,7.51,4.71,9.51,1.95,1.49,7.39,1.25,9.24-.45,9.43-8.65,15.99-19.15,17.54-34.8Zm-29.34-137.8c1.3,2.18,3.07,7.21,6.59,10.21,1.98,1.69,8.83,1.39,10.04-.38,7.26-10.57,12.6-22.24,10.88-35.53-.38-2.95-3.55-7.07-6.2-7.79-2.74-.74-7.37,1.11-9.52,3.39-7.07,7.5-10.61,16.84-11.78,30.1Zm92.49-36.16c-2.36-4.04-4.02-8.35-7.01-11.35-1.36-1.37-5.82-1.09-8.02.07-8.14,4.29-16.3,23.61-13.3,32.38,1.17,3.43,4.79,7.65,7.95,8.29,3.05.62,8.59-1.99,10.14-4.79,4.1-7.36,6.63-15.6,10.23-24.6Z"/>
  <path class="cls-1" d="m16.77,241.68c4.29-1.51,8.48-3.86,12.89-4.38,12.19-1.45,24.45-2.31,36.7-3.1,36.21-2.32,43.79-27.81,36.91-53.65-4.52-16.99-14.72-30.96-25.46-44.43-9.34-11.72-19.16-23.06-28.75-34.58-1.57-1.89-3.68-3.62-4.46-5.81-.99-2.81-.89-6-1.25-9.03,2.82.47,6.16.14,8.36,1.56,5.54,3.6,10.21,8.61,15.89,11.93,12.43,7.28,24.77,15.11,38.06,20.43,17.11,6.85,33.6,2.5,45.74-11.06,9.21-10.29,16.01-22.75,23.8-34.3,1.22-1.81,1.7-4.17,3.05-5.85,1.12-1.38,3.27-3.16,4.53-2.87,1.72.39,3.21,2.44,4.44,4.05.68.89.68,2.33.89,3.53,4.21,24.74,15.7,35.31,40.75,37.44,1.71.15,3.68-.28,5.09.42,1.77.89,4.23,2.61,4.31,4.09.11,1.89-1.42,4.48-3.05,5.71-2.28,1.72-5.3,2.47-8.01,3.63-53.55,22.92-89.37,63.1-111.03,116.2-8.77,21.51-14.92,44.1-22.28,66.19-.69,2.08-.97,4.82-2.44,5.97-1.88,1.46-4.77,2-7.24,2.03-.58,0-1.53-3.56-1.72-5.54-.16-1.64.57-3.37.83-5.06,3.13-20.33-4.69-36.89-23.3-45.58-10.35-4.83-21.78-7.32-32.71-10.9-3.38-1.11-6.73-2.33-10.09-3.5-.15-1.19-.3-2.37-.45-3.56Z"/>
  <path class="cls-1" d="m738.46,752.6c-2.3-1.56-4.7-3-6.88-4.71-11.63-9.16-23.71-17.52-38.28-21.4-16.46-4.39-30.2.38-40.26,14.05-8.78,11.93-12.73,25.82-16.24,39.95-.73,2.94-3.18,7.45-5.15,7.62-2.98.26-7.05-1.93-9.2-4.37-4.51-5.13-8.08-11.1-12.02-16.73-5.88-8.39-13.97-12.6-24.15-13.58-10.25-.99-20.44-2.52-30.65-3.92-1.92-.26-4.04-.63-5.58-1.68-1.59-1.08-2.59-3.04-3.84-4.62,1.73-.96,3.4-2.58,5.22-2.77,13.17-1.39,26.71-1,39.5-3.95,57.87-13.35,96.96-49.07,119.77-103.37.57-1.35.68-3,1.53-4.11,1.06-1.39,2.67-2.37,4.04-3.53,1.11,1.65,2.5,3.2,3.24,5,.52,1.27.18,2.91.17,4.38-.27,37.92,5.12,74.85,19.33,110.24.8,1.99.77,4.32,1.12,6.49-.56.33-1.12.66-1.67,1Z"/>
  <path class="cls-1" d="m89.57,372.89c-.94,2.93-1.73,7.1-3.65,10.65-1.04,1.92-4.09,3.94-6.1,3.81-2.1-.13-4.94-2.36-5.9-4.41-3.07-6.49-1.87-13.1,2.3-18.67,1.65-2.21,5.09-4.24,7.66-4.18,1.56.04,3.23,4.12,4.46,6.59.73,1.47.7,3.32,1.23,6.21Z"/>
  <path class="cls-1" d="m731.22,574.24c-4.11,4.45-6.45,8.66-9.99,10.33-3.32,1.57-7.38-5.32-6.75-11.81.44-4.58,1.12-10.91,7.08-9.79,3.35.63,5.72,6.42,9.66,11.27Z"/>
</svg>