<?xml version="1.0" encoding="UTF-8"?>
<svg id="Layer_1" data-name="Layer 1" xmlns="http://www.w3.org/2000/svg" viewBox="0 0 128 128">
  <defs>
    <style>
      .cls-1 {
        fill: #008d36;
      }

      .cls-2 {
        fill: #36a9e1;
        stroke-width: 0px;
      }
    </style>
  </defs>
  <path class="cls-1" d="m245.86-99.97c4.19-.03,8.3.49,12.26,1.92,4.01,1.45,6.96,4.01,7.94,8.3,1.01,4.45-.43,8.18-3.99,10.96-1.35,1.06-2.99,1.83-4.61,2.44-3.03,1.14-4.42,2.93-4.41,6.18.01,6.74-4.45,12.49-10.63,13.24-6.24.75-11.5-1.3-15.05-6.66-1.51-2.27-2.64-4.81-3.81-7.29-1.77-3.74-3.59-7.46-6.7-10.29-1.46-1.33-3.11-2.45-4.76-3.54-1.21-.8-2.23-.44-2.94.85-1.65,3.04-2.43,6.32-2.68,9.74-.32,4.45.32,8.83,1.02,13.21.46,2.85.47,5.71-.4,8.5-1.5,4.81-5.79,7.25-11.01,6.24-4.52-.88-8.1-3.24-10.69-7.06-2.06-3.04-4.15-3.77-7.66-2.7-3.39,1.03-6.72.93-9.89-.74-3.77-2-5.1-5.74-3.53-9.72.95-2.41,2.59-4.3,4.52-5.96,3.81-3.28,8.28-5.44,12.89-7.3,5.67-2.3,11.53-3.97,17.5-5.28.45-.1.98.11,1.47.17-.21.48-.3,1.08-.64,1.43-4.36,4.47-7.66,9.59-9.54,15.56-.2.64-.22,1.44-.03,2.09.22.78.87.78,1.35.11.07-.09.12-.2.17-.3,3.06-7,7.89-12.75,12.83-18.44.55-.63,1.12-1.26,1.56-1.97.88-1.42.5-2.46-1.07-3.04-3.48-1.29-7.05-1.17-10.62-.6-6.45,1.01-12.47,3.46-18.63,5.48-3.47,1.14-7,2.12-10.56,2.95-1.32.31-2.82.15-4.19-.09-1.73-.3-2.75-1.53-3.17-3.24-1.72-7.06.66-12.82,7.1-16.33,3.45-1.88,4.63-4.73,4.83-8.33.08-1.48.06-2.99.39-4.43.78-3.5,3.28-5.35,6.61-6.04,5.02-1.04,9.98-.48,14.74,1.29,3.58,1.33,6.18,4,8.03,7.22,2.44,4.26,4.58,8.69,6.82,13.07.39.76.53,1.62-.2,2.33-.77.75-1.52.35-2.3-.04-3.18-1.57-6.27-3.36-9.58-4.58-2.9-1.07-6.04-1.51-9.09-2.18-.8-.18-1.57-.03-1.77.96-.19.98.44,1.33,1.24,1.6,7.46,2.47,14.82,5.21,21.81,8.84,1.15.6,2.17.49,3.09-.63,1.13-1.37,2.23-2.84,2.99-4.44,1.95-4.09,3.66-8.3,5.56-12.42.96-2.07,2.13-4.04,3.15-6.09.19-.38.1-.9.14-1.36-.45.02-.96-.11-1.33.08-2.61,1.33-4.55,3.41-5.82,5.97-1.28,2.58-2.2,5.34-3.28,8.02-.08.21-.08.48-.2.65-.23.3-.53.55-.8.82-.25-.3-.62-.55-.73-.89-.28-.83-.45-1.69-.66-2.54-1.17-4.78-2.53-9.52-2.38-14.51.14-4.42,1.1-8.61,3.26-12.5,2.43-4.37,7.24-6.44,11.74-5.04,2.44.76,4.17,2.31,5.14,4.69,1.05,2.58,2.58,3.36,5.25,2.62,3.17-.87,6.26-.71,9.31.5,4.86,1.93,7.3,6.92,5.94,12.18-.97,3.76-3.19,6.62-6.27,8.88-3.33,2.44-7.13,3.93-10.91,5.49-3.91,1.61-7.83,3.22-11.65,5.02-2.71,1.29-5.03,3.19-6.71,5.75-1.07,1.63-.36,3.21,1.56,3.68,5.26,1.29,10.52,2.52,15.74,3.94,3.45.94,6.83,2.16,10.24,3.25,1.25.4,2.08.09,2.35-.87.28-.99-.24-1.57-1.07-2.01-4.66-2.53-9.6-4.35-14.82-5.23-2.96-.5-5.99-.62-8.98-.98-.48-.06-.92-.44-1.38-.68.3-.44.51-1.04.93-1.29,5.78-3.44,11.93-6,18.53-7.32,3.65-.73,7.38-1.07,11.08-1.58.01.1.03.2.04.31Zm-20.48-19.58c.18,0,.35.01.53.02.34-.47.84-.91.96-1.43.15-.64-.25-1.2-1.01-1.21-.78-.02-1.25.51-1.2,1.21.03.49.46.94.72,1.41Zm28.41,89.04c-11.87-2.56-21.96-8.18-29.76-17.6-6.78-8.18-10.22-17.77-11.57-28.19-.21-1.59-.27-3.19-.5-4.78-.06-.4-.47-.76-.71-1.14-.24.35-.55.68-.69,1.07-.13.34-.12.76-.09,1.13.28,3.92.32,7.87.92,11.74,1.69,11.07,6.42,20.7,14.36,28.67,8.08,8.12,17.98,13,28.92,15.95,2.85.77,2.9.71,2.88-2.23-.02-3.36-.5-3.93-3.75-4.63Z"/>
  <g>
    <path class="cls-2" d="m33,53.69c.32-2.42.5-4.14.79-5.85.53-3.17-.23-6.18-.98-9.21-.11-.43-.23-.86-.3-1.3-.19-1.2.35-1.72,1.48-1.37,4.97,1.51,9.27,4.01,12.74,8,2.48,2.86,4.98,5.88,8.05,8.01,3.73,2.6,6.59,5.72,8.94,9.5,1.22,1.96,2.71,3.76,4.1,5.62.76,1.01.56,1.77-.65,1.84-4.28.25-8.17,1.83-12.05,3.43-3.92,1.62-4.98,1.22-7.83-1.91-3.15-3.46-6.58-6.68-9.89-10-1.01-1.01-2.11-1.95-3-3.06-1-1.25-1.68-2.7-1.4-3.71Z"/>
    <path class="cls-2" d="m66.78,98.18c.63-8.42,1.17-15.81,1.75-23.19.13-1.69.52-1.91,2.08-1.23,3.4,1.46,6.77,3,10.18,4.44,3.15,1.33,4.81,3.74,5.49,7.02.87,4.15,1.74,8.31,2.85,12.4.45,1.68.23,2.98-1.03,3.96-3.37,2.65-6.68,5.41-10.29,7.69-2.89,1.83-6.19,3.02-9.31,4.5-1.09.52-1.6,0-1.67-1.04-.08-1.18-.05-2.37-.05-3.56,0-4,0-8,0-10.99Z"/>
    <path class="cls-2" d="m70.73,60.44c.75-2.12.26-3.8-.7-5.24-1.29-1.92-2.79-3.7-4.27-5.48-1.21-1.46-1.15-2.21.58-3.06,3.51-1.74,7.25-1.76,11.02-1.24,4.05.56,8.05.82,12.03-.47,1.63-.53,2.82.14,3.66,1.72,1.95,3.64,1.29,9.16-1.52,12.2-1.14,1.23-2.39,2.37-3.62,3.51-1.7,1.59-2.9,3.47-3.54,5.73-.26.9-.57,1.79-.97,2.64-1.28,2.75-3.27,3.35-5.56,1.41-2.17-1.85-4.2-3.91-6.03-6.09-1.42-1.69-2.49-3.68-3.61-5.6-1.96-3.37-4.33-6.37-7.32-8.88-.38-.32-.54-.91-.8-1.37.55.15,1.22.15,1.64.46,3.13,2.31,5.76,5.11,7.95,8.33.27.4.56.78,1.04,1.44Z"/>
    <path class="cls-2" d="m63.01,94.12c-.23,5.78-.44,11.56-.68,17.34-.07,1.62-.44,1.95-1.88,1.12-2.31-1.32-4.65-2.67-6.66-4.39-2.84-2.43-5.44-5.16-8.04-7.85-1.45-1.5-1.63-3.32-1.06-5.37,1.44-5.13,2.73-10.3,4.07-15.46.11-.43.16-.88.18-1.32.06-1.17.69-1.66,1.82-1.65,3.79.02,7.48-.59,11.01-2,.97-.39,1.55.02,1.78.94.15.61.2,1.27.17,1.9-.23,5.58-.49,11.16-.74,16.74,0,0,.02,0,.03,0Z"/>
    <path class="cls-2" d="m66.19,122.65c-4.9-.17-9.45-1.54-13.6-3.92-4.45-2.55-8.73-5.4-12.96-8.31-2.57-1.77-2.21-6.33.45-8.08,1.06-.7,2.2-.39,3.24.81,1.97,2.27,3.83,4.66,5.98,6.73,3.44,3.31,7.33,6.02,12.05,7.28,4.74,1.27,9.21.32,13.52-1.71,5.1-2.4,9.5-5.84,13.84-9.36.84-.68,1.68-1.4,2.62-1.92,1.29-.71,2.45-.27,2.77,1.14.31,1.38.43,2.84.39,4.25-.01.58-.49,1.38-1,1.69-6.72,4.15-13.38,8.47-21.19,10.4-2,.49-4.08.67-6.12.99Z"/>
    <path class="cls-2" d="m31.85,29.7c.48.18,1,.31,1.44.55,2.94,1.56,5.89,3.33,9.37,3.36,4.37.04,8.45,1.32,12.67,1.93,2.94.42,6.01.16,9.02.17.91,0,1.83-.14,2.74-.1,1.99.09,2.98,1.36,2.17,3.04-.48,1-1.3,1.98-2.23,2.66-3.22,2.33-6.94,3.53-11.03,3.74-2,.1-3.75-.48-4.96-1.98-2.93-3.6-6.91-5.79-11.27-7.64-2.54-1.08-4.82-2.7-7.17-4.14-.44-.27-.68-.81-1.02-1.22l.27-.37Z"/>
    <path class="cls-2" d="m78.3,24.46c.18,0,.58.01.97.05,4.23.43,5.79,2.46,4.53,6.43-.84,2.65-2.09,5.2-3.39,7.67-.88,1.66-2.46,2.68-4.35,3.07-2.52.51-3.95-.85-3.56-3.39.5-3.27,1.03-6.53,1.54-9.8.03-.2.07-.39.1-.58.38-3.01.9-3.46,4.17-3.45Z"/>
    <path class="cls-2" d="m70.9,26c-.1,1.33-.1,2.67-.36,3.97-.08.43-.82,1.02-1.27,1.04-2.26.07-4.53-.03-6.8-.08-3.43-.07-4.26-.89-4.34-4.32-.02-.64.09-1.32-.07-1.92-.87-3.43.74-4.58,4.57-5.46,2.6-.6,5.02.27,7.07,1.92.5.4.81,1.22.92,1.89.15.96.04,1.97.04,2.96.08,0,.15,0,.23,0Z"/>
    <path class="cls-2" d="m53.91,26.57c-.33,3.28-.81,3.53-3.88,2.79-2.63-.63-5.33-1-8.02-1.33-1.19-.15-1.85-.47-1.8-1.76.05-1.43.07-2.87.01-4.3-.05-1.4.71-2.08,1.92-2.43,3.32-.96,8.59.78,10.51,3.65.65.97.85,2.25,1.25,3.39Z"/>
    <path class="cls-2" d="m57.85,17.43c.11-1.46.03-2.75.33-3.94.51-2.04.98-4.16,1.95-5.99,1.31-2.46,3.9-2.81,6.06-1.06,2.92,2.35,3.83,5.67,4.02,9.22.07,1.27-.98.9-1.62.66-3.28-1.24-6.4-.84-9.46.7-.29.15-.62.2-1.28.4Z"/>
    <path class="cls-2" d="m84.77,20.96c.05,1.01-.36,1.59-1.41,1.05-2.3-1.18-4.74-1.31-7.22-1.05-1.29.13-1.75-.33-1.78-1.62-.03-1.48-.3-2.94-.43-4.42-.24-2.78,1.79-4.32,4.25-3.06,3.69,1.88,6.48,4.55,6.58,9.1Z"/>
    <path class="cls-2" d="m87.88,22.84c.06-.46.12-1.25.28-2.02.41-1.93,1.84-2.63,3.54-1.57.98.61,1.87,1.48,2.53,2.42,1.45,2.06,2.12,4.43,2.18,6.96.02,1.04-.39,1.62-1.42.96-1.5-.96-3.12-1.11-4.83-1.03-1.86.09-1.97-.06-2.04-1.99-.05-1.13-.15-2.27-.25-3.73Z"/>
    <path class="cls-2" d="m53.07,18.86c-3.59-2.34-7.46-2.61-11.78-2,1.13-3.02,2.29-5.55,5.09-6.77,1.35-.59,2.74-.32,3.87.71,2.32,2.13,2.8,4.94,2.82,8.06Z"/>
    <path class="cls-2" d="m90.38,31.64c1.1.36,1.9.5,2.57.87,2.25,1.23,2.65,2.64.89,4.44-1.63,1.67-3.59,3.03-5.53,4.35-.49.34-1.66.26-2.14-.12-.47-.37-.77-1.45-.59-2.06.58-2.03,1.23-4.09,2.23-5.93.43-.8,1.77-1.1,2.58-1.56Z"/>
  </g>
</svg>