<?xml version="1.0" encoding="UTF-8"?>
<svg id="Layer_1" data-name="Layer 1" xmlns="http://www.w3.org/2000/svg" viewBox="0 0 128 128">
  <defs>
    <style>
      .cls-1 {
        fill: none;
        stroke: #e30613;
        stroke-miterlimit: 10;
        stroke-width: 8px;
      }

      .cls-2 {
        fill: #911323;
        stroke-width: 0px;
      }
    </style>
  </defs>
  <line class="cls-1" x1="13.82" y1="114.18" x2="114.18" y2="13.82"/>
  <g>
    <path class="cls-2" d="m54.78,51.98c-3.06-2.13-5.56-5.15-8.05-8.01-3.47-3.99-7.77-6.49-12.74-8-1.13-.34-1.67.18-1.48,1.37.07.44.19.87.3,1.3.75,3.02,1.51,6.04.98,9.21-.29,1.7-.46,3.43-.79,5.85-.27,1.01.4,2.45,1.4,3.71.89,1.11,1.99,2.05,3,3.06,3.31,3.32,6.74,6.54,9.89,10,.31.34.59.63.86.91l13.22-13.22c-1.86-2.33-4.01-4.39-6.59-6.17Z"/>
    <path class="cls-2" d="m66.83,112.73c.07,1.04.58,1.55,1.67,1.04,3.12-1.48,6.42-2.67,9.31-4.5,3.61-2.28,6.92-5.04,10.29-7.69,1.25-.99,1.48-2.28,1.03-3.96-1.11-4.09-1.98-8.25-2.85-12.4-.68-3.28-2.34-5.69-5.49-7.02-3.41-1.44-6.78-2.98-10.18-4.44-1.56-.67-1.95-.46-2.08,1.23-.58,7.39-1.12,14.77-1.75,23.19,0,2.99,0,6.99,0,10.99,0,1.19-.02,2.37.05,3.56Z"/>
    <path class="cls-2" d="m71.82,66.05c1.83,2.18,3.86,4.25,6.03,6.09,2.29,1.95,4.28,1.34,5.56-1.41.39-.85.71-1.74.97-2.64.64-2.25,1.84-4.13,3.54-5.73,1.23-1.15,2.48-2.28,3.62-3.51,2.82-3.05,3.47-8.56,1.52-12.2-.43-.8-.95-1.36-1.57-1.66l-20.27,20.27c.2.27.39.54.6.79Z"/>
    <path class="cls-2" d="m66.33,46.65c-1.72.85-1.79,1.6-.58,3.06.61.74,1.22,1.47,1.82,2.22l6.8-6.8c-2.75-.11-5.46.23-8.04,1.52Z"/>
    <path class="cls-2" d="m61.74,50.66c-.43-.32-1.09-.32-1.64-.46.26.46.41,1.05.8,1.37,1.29,1.08,2.46,2.26,3.53,3.52l1.11-1.11c-1.18-1.19-2.43-2.31-3.79-3.31Z"/>
    <path class="cls-2" d="m44.7,94.97c-.58,2.05-.39,3.87,1.06,5.37,2.6,2.7,5.2,5.42,8.04,7.85,2,1.72,4.35,3.07,6.66,4.39,1.44.82,1.81.5,1.88-1.12.24-5.78.46-11.56.68-17.34,0,0-.02,0-.03,0,.25-5.58.51-11.16.74-16.74.03-.63-.02-1.29-.17-1.9-.2-.83-.7-1.24-1.53-1.02l-16.13,16.13c-.39,1.46-.79,2.92-1.19,4.38Z"/>
    <path class="cls-2" d="m91.34,104.17c-.94.52-1.78,1.24-2.62,1.92-4.35,3.52-8.75,6.96-13.84,9.36-4.31,2.03-8.78,2.98-13.52,1.71-4.72-1.26-8.61-3.97-12.05-7.28-2.16-2.08-4.01-4.47-5.98-6.73-1.04-1.2-2.18-1.51-3.24-.81-2.66,1.75-3.03,6.31-.45,8.08,4.23,2.9,8.52,5.76,12.96,8.31,4.15,2.38,8.7,3.75,13.6,3.92,2.04-.32,4.12-.5,6.12-.99,7.8-1.93,14.46-6.25,21.19-10.4.51-.31.99-1.11,1-1.69.03-1.42-.08-2.87-.39-4.25-.32-1.4-1.47-1.85-2.77-1.14Z"/>
    <path class="cls-2" d="m32.6,31.3c2.35,1.44,4.63,3.06,7.17,4.14,4.36,1.85,8.33,4.03,11.27,7.64,1.22,1.49,2.96,2.08,4.96,1.98,4.09-.21,7.81-1.4,11.03-3.74.93-.68,1.75-1.66,2.23-2.66.8-1.67-.19-2.95-2.17-3.04-.91-.04-1.83.1-2.74.1-3.01-.02-6.07.25-9.02-.17-4.22-.61-8.3-1.89-12.67-1.93-3.48-.03-6.42-1.8-9.37-3.36-.45-.24-.96-.37-1.44-.55-.09.12-.18.25-.27.37.34.41.58.95,1.02,1.22Z"/>
    <path class="cls-2" d="m76.05,41.67c1.89-.38,3.48-1.41,4.35-3.07,1.3-2.47,2.55-5.02,3.39-7.67,1.26-3.98-.3-6-4.53-6.43-.39-.04-.79-.04-.97-.05-3.27-.02-3.78.43-4.17,3.45-.02.2-.07.39-.1.58-.52,3.26-1.05,6.53-1.54,9.8-.39,2.54,1.04,3.9,3.56,3.39Z"/>
    <path class="cls-2" d="m58.13,26.61c.08,3.43.91,4.26,4.34,4.32,2.27.04,4.54.14,6.8.08.45-.01,1.18-.61,1.27-1.04.26-1.3.26-2.64.36-3.97-.08,0-.15,0-.23,0,0-.99.11-1.99-.04-2.96-.11-.67-.42-1.49-.92-1.89-2.05-1.65-4.47-2.51-7.07-1.92-3.83.88-5.44,2.02-4.57,5.46.15.61.05,1.28.07,1.92Z"/>
    <path class="cls-2" d="m42.01,28.02c2.69.33,5.39.7,8.02,1.33,3.07.74,3.55.49,3.88-2.79-.41-1.14-.6-2.41-1.25-3.39-1.92-2.87-7.19-4.62-10.51-3.65-1.21.35-1.97,1.03-1.92,2.43.05,1.43.03,2.87-.01,4.3-.04,1.29.61,1.62,1.8,1.76Z"/>
    <path class="cls-2" d="m68.59,16.33c.63.24,1.69.61,1.62-.66-.19-3.55-1.1-6.87-4.02-9.22-2.17-1.75-4.75-1.4-6.06,1.06-.97,1.83-1.44,3.95-1.95,5.99-.3,1.19-.22,2.48-.33,3.94.66-.2,1-.25,1.28-.4,3.06-1.55,6.18-1.94,9.46-.7Z"/>
    <path class="cls-2" d="m74.37,19.33c.03,1.29.49,1.75,1.78,1.62,2.48-.26,4.92-.13,7.22,1.05,1.04.54,1.45-.04,1.41-1.05-.1-4.55-2.89-7.22-6.58-9.1-2.46-1.26-4.49.28-4.25,3.06.13,1.48.4,2.94.43,4.42Z"/>
    <path class="cls-2" d="m94.24,21.67c-.66-.94-1.56-1.81-2.53-2.42-1.7-1.06-3.13-.36-3.54,1.57-.17.77-.22,1.56-.28,2.02.1,1.46.2,2.59.25,3.73.08,1.92.18,2.07,2.04,1.99.27-.01.54-.02.8-.02l4.53-4.53c-.33-.81-.75-1.6-1.27-2.34Z"/>
    <path class="cls-2" d="m53.07,18.86c-.02-3.12-.5-5.93-2.82-8.06-1.12-1.03-2.52-1.3-3.87-.71-2.8,1.23-3.97,3.75-5.09,6.77,4.33-.61,8.2-.34,11.78,2Z"/>
  </g>
</svg>