<?xml version="1.0" encoding="UTF-8"?>
<svg xmlns="http://www.w3.org/2000/svg" xmlns:xlink="http://www.w3.org/1999/xlink" viewBox="0 0 128 128">
  <defs>
    <style>
      .cls-1 {
        stroke-width: 0px;
      }

      .cls-1, .cls-2 {
        fill: #008d36;
      }

      .cls-3 {
        isolation: isolate;
      }

      .cls-4 {
        clip-path: url(#clippath);
      }

      .cls-5 {
        mix-blend-mode: darken;
        opacity: .5;
      }
    </style>
    <clipPath id="clippath">
      <path class="cls-1" d="m97.86-99.97c4.19-.03,8.3.49,12.26,1.92,4.01,1.45,6.96,4.01,7.94,8.3,1.01,4.45-.43,8.18-3.99,10.96-1.35,1.06-2.99,1.83-4.61,2.44-3.03,1.14-4.42,2.93-4.41,6.18.01,6.74-4.45,12.49-10.63,13.24-6.24.75-11.5-1.3-15.05-6.66-1.51-2.27-2.64-4.81-3.81-7.29-1.77-3.74-3.59-7.46-6.7-10.29-1.46-1.33-3.11-2.45-4.76-3.54-1.21-.8-2.23-.44-2.94.85-1.65,3.04-2.43,6.32-2.68,9.74-.32,4.45.32,8.83,1.02,13.21.46,2.85.47,5.71-.4,8.5-1.5,4.81-5.79,7.25-11.01,6.24-4.52-.88-8.1-3.24-10.69-7.06-2.06-3.04-4.15-3.77-7.66-2.7-3.39,1.03-6.72.93-9.89-.74-3.77-2-5.1-5.74-3.53-9.72.95-2.41,2.59-4.3,4.52-5.96,3.81-3.28,8.28-5.44,12.89-7.3,5.67-2.3,11.53-3.97,17.5-5.28.45-.1.98.11,1.47.17-.21.48-.3,1.08-.64,1.43-4.36,4.47-7.66,9.59-9.54,15.56-.2.64-.22,1.44-.03,2.09.22.78.87.78,1.35.11.07-.09.12-.2.17-.3,3.06-7,7.89-12.75,12.83-18.44.55-.63,1.12-1.26,1.56-1.97.88-1.42.5-2.46-1.07-3.04-3.48-1.29-7.05-1.17-10.62-.6-6.45,1.01-12.47,3.46-18.63,5.48-3.47,1.14-7,2.12-10.56,2.95-1.32.31-2.82.15-4.19-.09-1.73-.3-2.75-1.53-3.17-3.24-1.72-7.06.66-12.82,7.1-16.33,3.45-1.88,4.63-4.73,4.83-8.33.08-1.48.06-2.99.39-4.43.78-3.5,3.28-5.35,6.61-6.04,5.02-1.04,9.98-.48,14.74,1.29,3.58,1.33,6.18,4,8.03,7.22,2.44,4.26,4.58,8.69,6.82,13.07.39.76.53,1.62-.2,2.33-.77.75-1.52.35-2.3-.04-3.18-1.57-6.27-3.36-9.58-4.58-2.9-1.07-6.04-1.51-9.09-2.18-.8-.18-1.57-.03-1.77.96-.19.98.44,1.33,1.24,1.6,7.46,2.47,14.82,5.21,21.81,8.84,1.15.6,2.17.49,3.09-.63,1.13-1.37,2.23-2.84,2.99-4.44,1.95-4.09,3.66-8.3,5.56-12.42.96-2.07,2.13-4.04,3.15-6.09.19-.38.1-.9.14-1.36-.45.02-.96-.11-1.33.08-2.61,1.33-4.55,3.41-5.82,5.97-1.28,2.58-2.2,5.34-3.28,8.02-.08.21-.08.48-.2.65-.23.3-.53.55-.8.82-.25-.3-.62-.55-.73-.89-.28-.83-.45-1.69-.66-2.54-1.17-4.78-2.53-9.52-2.38-14.51.14-4.42,1.1-8.61,3.26-12.5,2.43-4.37,7.24-6.44,11.74-5.04,2.44.76,4.17,2.31,5.14,4.69,1.05,2.58,2.58,3.36,5.25,2.62,3.17-.87,6.26-.71,9.31.5,4.86,1.93,7.3,6.92,5.94,12.18-.97,3.76-3.19,6.62-6.27,8.88-3.33,2.44-7.13,3.93-10.91,5.49-3.91,1.61-7.83,3.22-11.65,5.02-2.71,1.29-5.03,3.19-6.71,5.75-1.07,1.63-.36,3.21,1.56,3.68,5.26,1.29,10.52,2.52,15.74,3.94,3.45.94,6.83,2.16,10.24,3.25,1.25.4,2.08.09,2.35-.87.28-.99-.24-1.57-1.07-2.01-4.66-2.53-9.6-4.35-14.82-5.23-2.96-.5-5.99-.62-8.98-.98-.48-.06-.92-.44-1.38-.68.3-.44.51-1.04.93-1.29,5.78-3.44,11.93-6,18.53-7.32,3.65-.73,7.38-1.07,11.08-1.58.01.1.03.2.04.31Zm-20.48-19.58c.18,0,.35.01.53.02.34-.47.84-.91.96-1.43.15-.64-.25-1.2-1.01-1.21-.78-.02-1.25.51-1.2,1.21.03.49.46.94.72,1.41Zm28.41,89.04c-11.87-2.56-21.96-8.18-29.76-17.6-6.78-8.18-10.22-17.77-11.57-28.19-.21-1.59-.27-3.19-.5-4.78-.06-.4-.47-.76-.71-1.14-.24.35-.55.68-.69,1.07-.13.34-.12.76-.09,1.13.28,3.92.32,7.87.92,11.74,1.69,11.07,6.42,20.7,14.36,28.67,8.08,8.12,17.98,13,28.92,15.95,2.85.77,2.9.71,2.88-2.23-.02-3.36-.5-3.93-3.75-4.63Z"/>
    </clipPath>
  </defs>
  <g class="cls-3">
    <g id="Layer_1" data-name="Layer 1">
      <g>
        <path class="cls-2" d="m97.86-99.97c4.19-.03,8.3.49,12.26,1.92,4.01,1.45,6.96,4.01,7.94,8.3,1.01,4.45-.43,8.18-3.99,10.96-1.35,1.06-2.99,1.83-4.61,2.44-3.03,1.14-4.42,2.93-4.41,6.18.01,6.74-4.45,12.49-10.63,13.24-6.24.75-11.5-1.3-15.05-6.66-1.51-2.27-2.64-4.81-3.81-7.29-1.77-3.74-3.59-7.46-6.7-10.29-1.46-1.33-3.11-2.45-4.76-3.54-1.21-.8-2.23-.44-2.94.85-1.65,3.04-2.43,6.32-2.68,9.74-.32,4.45.32,8.83,1.02,13.21.46,2.85.47,5.71-.4,8.5-1.5,4.81-5.79,7.25-11.01,6.24-4.52-.88-8.1-3.24-10.69-7.06-2.06-3.04-4.15-3.77-7.66-2.7-3.39,1.03-6.72.93-9.89-.74-3.77-2-5.1-5.74-3.53-9.72.95-2.41,2.59-4.3,4.52-5.96,3.81-3.28,8.28-5.44,12.89-7.3,5.67-2.3,11.53-3.97,17.5-5.28.45-.1.98.11,1.47.17-.21.48-.3,1.08-.64,1.43-4.36,4.47-7.66,9.59-9.54,15.56-.2.64-.22,1.44-.03,2.09.22.78.87.78,1.35.11.07-.09.12-.2.17-.3,3.06-7,7.89-12.75,12.83-18.44.55-.63,1.12-1.26,1.56-1.97.88-1.42.5-2.46-1.07-3.04-3.48-1.29-7.05-1.17-10.62-.6-6.45,1.01-12.47,3.46-18.63,5.48-3.47,1.14-7,2.12-10.56,2.95-1.32.31-2.82.15-4.19-.09-1.73-.3-2.75-1.53-3.17-3.24-1.72-7.06.66-12.82,7.1-16.33,3.45-1.88,4.63-4.73,4.83-8.33.08-1.48.06-2.99.39-4.43.78-3.5,3.28-5.35,6.61-6.04,5.02-1.04,9.98-.48,14.74,1.29,3.58,1.33,6.18,4,8.03,7.22,2.44,4.26,4.58,8.69,6.82,13.07.39.76.53,1.62-.2,2.33-.77.75-1.52.35-2.3-.04-3.18-1.57-6.27-3.36-9.58-4.58-2.9-1.07-6.04-1.51-9.09-2.18-.8-.18-1.57-.03-1.77.96-.19.98.44,1.33,1.24,1.6,7.46,2.47,14.82,5.21,21.81,8.84,1.15.6,2.17.49,3.09-.63,1.13-1.37,2.23-2.84,2.99-4.44,1.95-4.09,3.66-8.3,5.56-12.42.96-2.07,2.13-4.04,3.15-6.09.19-.38.1-.9.14-1.36-.45.02-.96-.11-1.33.08-2.61,1.33-4.55,3.41-5.82,5.97-1.28,2.58-2.2,5.34-3.28,8.02-.08.21-.08.48-.2.65-.23.3-.53.55-.8.82-.25-.3-.62-.55-.73-.89-.28-.83-.45-1.69-.66-2.54-1.17-4.78-2.53-9.52-2.38-14.51.14-4.42,1.1-8.61,3.26-12.5,2.43-4.37,7.24-6.44,11.74-5.04,2.44.76,4.17,2.31,5.14,4.69,1.05,2.58,2.58,3.36,5.25,2.62,3.17-.87,6.26-.71,9.31.5,4.86,1.93,7.3,6.92,5.94,12.18-.97,3.76-3.19,6.62-6.27,8.88-3.33,2.44-7.13,3.93-10.91,5.49-3.91,1.61-7.83,3.22-11.65,5.02-2.71,1.29-5.03,3.19-6.71,5.75-1.07,1.63-.36,3.21,1.56,3.68,5.26,1.29,10.52,2.52,15.74,3.94,3.45.94,6.83,2.16,10.24,3.25,1.25.4,2.08.09,2.35-.87.28-.99-.24-1.57-1.07-2.01-4.66-2.53-9.6-4.35-14.82-5.23-2.96-.5-5.99-.62-8.98-.98-.48-.06-.92-.44-1.38-.68.3-.44.51-1.04.93-1.29,5.78-3.44,11.93-6,18.53-7.32,3.65-.73,7.38-1.07,11.08-1.58.01.1.03.2.04.31Zm-20.48-19.58c.18,0,.35.01.53.02.34-.47.84-.91.96-1.43.15-.64-.25-1.2-1.01-1.21-.78-.02-1.25.51-1.2,1.21.03.49.46.94.72,1.41Zm28.41,89.04c-11.87-2.56-21.96-8.18-29.76-17.6-6.78-8.18-10.22-17.77-11.57-28.19-.21-1.59-.27-3.19-.5-4.78-.06-.4-.47-.76-.71-1.14-.24.35-.55.68-.69,1.07-.13.34-.12.76-.09,1.13.28,3.92.32,7.87.92,11.74,1.69,11.07,6.42,20.7,14.36,28.67,8.08,8.12,17.98,13,28.92,15.95,2.85.77,2.9.71,2.88-2.23-.02-3.36-.5-3.93-3.75-4.63Z"/>
        <g class="cls-4">
          <image class="cls-5" width="1000" height="667" transform="translate(-.86 .65) rotate(-90) scale(.19)" xlink:href="E:\Il mio Drive\asset-files\textures\2d-metal\metal-1.jpg"/>
        </g>
      </g>
      <g>
        <path class="cls-1" d="m97.86,44.03c4.19-.03,8.3.49,12.26,1.92,4.01,1.45,6.96,4.01,7.94,8.3,1.01,4.45-.43,8.18-3.99,10.96-1.35,1.06-2.99,1.83-4.61,2.44-3.03,1.14-4.42,2.93-4.41,6.18.01,6.74-4.45,12.49-10.63,13.24-6.24.75-11.5-1.3-15.05-6.66-1.51-2.27-2.64-4.81-3.81-7.29-1.77-3.74-3.59-7.46-6.7-10.29-1.46-1.33-3.11-2.45-4.76-3.54-1.21-.8-2.23-.44-2.94.85-1.65,3.04-2.43,6.32-2.68,9.74-.32,4.45.32,8.83,1.02,13.21.46,2.85.47,5.71-.4,8.5-1.5,4.81-5.79,7.25-11.01,6.24-4.52-.88-8.1-3.24-10.69-7.06-2.06-3.04-4.15-3.77-7.66-2.7-3.39,1.03-6.72.93-9.89-.74-3.77-2-5.1-5.74-3.53-9.72.95-2.41,2.59-4.3,4.52-5.96,3.81-3.28,8.28-5.44,12.89-7.3,5.67-2.3,11.53-3.97,17.5-5.28.45-.1.98.11,1.47.17-.21.48-.3,1.08-.64,1.43-4.36,4.47-7.66,9.59-9.54,15.56-.2.64-.22,1.44-.03,2.09.22.78.87.78,1.35.11.07-.09.12-.2.17-.3,3.06-7,7.89-12.75,12.83-18.44.55-.63,1.12-1.26,1.56-1.97.88-1.42.5-2.46-1.07-3.04-3.48-1.29-7.05-1.17-10.62-.6-6.45,1.01-12.47,3.46-18.63,5.48-3.47,1.14-7,2.12-10.56,2.95-1.32.31-2.82.15-4.19-.09-1.73-.3-2.75-1.53-3.17-3.24-1.72-7.06.66-12.82,7.1-16.33,3.45-1.88,4.63-4.73,4.83-8.33.08-1.48.06-2.99.39-4.43.78-3.5,3.28-5.35,6.61-6.04,5.02-1.04,9.98-.48,14.74,1.29,3.58,1.33,6.18,4,8.03,7.22,2.44,4.26,4.58,8.69,6.82,13.07.39.76.53,1.62-.2,2.33-.77.75-1.52.35-2.3-.04-3.18-1.57-6.27-3.36-9.58-4.58-2.9-1.07-6.04-1.51-9.09-2.18-.8-.18-1.57-.03-1.77.96-.19.98.44,1.33,1.24,1.6,7.46,2.47,14.82,5.21,21.81,8.84,1.15.6,2.17.49,3.09-.63,1.13-1.37,2.23-2.84,2.99-4.44,1.95-4.09,3.66-8.3,5.56-12.42.96-2.07,2.13-4.04,3.15-6.09.19-.38.1-.9.14-1.36-.45.02-.96-.11-1.33.08-2.61,1.33-4.55,3.41-5.82,5.97-1.28,2.58-2.2,5.34-3.28,8.02-.08.21-.08.48-.2.65-.23.3-.53.55-.8.82-.25-.3-.62-.55-.73-.89-.28-.83-.45-1.69-.66-2.54-1.17-4.78-2.53-9.52-2.38-14.51.14-4.42,1.1-8.61,3.26-12.5,2.43-4.37,7.24-6.44,11.74-5.04,2.44.76,4.17,2.31,5.14,4.69,1.05,2.58,2.58,3.36,5.25,2.62,3.17-.87,6.26-.71,9.31.5,4.86,1.93,7.3,6.92,5.94,12.18-.97,3.76-3.19,6.62-6.27,8.88-3.33,2.44-7.13,3.93-10.91,5.49-3.91,1.61-7.83,3.22-11.65,5.02-2.71,1.29-5.03,3.19-6.71,5.75-1.07,1.63-.36,3.21,1.56,3.68,5.26,1.29,10.52,2.52,15.74,3.94,3.45.94,6.83,2.16,10.24,3.25,1.25.4,2.08.09,2.35-.87.28-.99-.24-1.57-1.07-2.01-4.66-2.53-9.6-4.35-14.82-5.23-2.96-.5-5.99-.62-8.98-.98-.48-.06-.92-.44-1.38-.68.3-.44.51-1.04.93-1.29,5.78-3.44,11.93-6,18.53-7.32,3.65-.73,7.38-1.07,11.08-1.58.01.1.03.2.04.31Zm-20.48-19.58c.18,0,.35.01.53.02.34-.47.84-.91.96-1.43.15-.64-.25-1.2-1.01-1.21-.78-.02-1.25.51-1.2,1.21.03.49.46.94.72,1.41Z"/>
        <path class="cls-1" d="m109.53,118.12c.01,2.94-.04,3-2.88,2.23-10.94-2.96-20.83-7.83-28.92-15.95-7.93-7.97-12.66-17.6-14.36-28.67-.59-3.87-.64-7.82-.92-11.74-.03-.38-.04-.79.09-1.13.14-.39.46-.71.69-1.07.25.38.65.73.71,1.14.22,1.59.29,3.19.5,4.78,1.36,10.42,4.79,20.01,11.57,28.19,7.81,9.41,17.89,15.04,29.76,17.6,3.25.7,3.73,1.27,3.75,4.63Z"/>
      </g>
    </g>
  </g>
</svg>