<?xml version="1.0" encoding="UTF-8"?>
<svg id="Layer_1" data-name="Layer 1" xmlns="http://www.w3.org/2000/svg" viewBox="0 0 128 128">
  <defs>
    <style>
      .cls-1 {
        fill: none;
        stroke: #e30613;
        stroke-miterlimit: 10;
        stroke-width: 8px;
      }

      .cls-2 {
        fill: #911323;
        stroke-width: 0px;
      }
    </style>
  </defs>
  <line class="cls-1" x1="13.82" y1="114.18" x2="114.18" y2="13.82"/>
  <g>
    <path class="cls-2" d="m46.65,106.1c1.39.56,2.82,1.02,4.23,1.55.73.27,1.4.32,1.75-.5.36-.83.08-1.47-.75-1.9-2.53-1.32-5.08-2.6-7.54-4.02-1.91-1.1-3.79-2.25-5.63-3.44l-2.86,2.86c3.42,2.08,7.01,3.92,10.81,5.46Z"/>
    <path class="cls-2" d="m61.51,108.15c-.85,0-1.49.63-1.45,1.43.04.84.88,1.51,1.87,1.49.93-.01,1.66-.65,1.62-1.43-.04-.79-1-1.49-2.04-1.5Z"/>
    <path class="cls-2" d="m53.95,63.35c-2.24-.29-4.46-.84-6.67-1.33-4-.89-8-1.24-11.99,0-.44.14-1.04.61-1.08.99-.05.45.29,1.12.68,1.4,1.91,1.37,3.83,2.73,5.85,3.92,2.24,1.32,4.52,2.51,6.85,3.59l8.5-8.5c-.69.03-1.4.02-2.13-.07Z"/>
    <path class="cls-2" d="m108.14,35.85c-.51.79-.29,1.54.47,2.12,2.2,1.67,6.45.16,7.11-2.54.38-1.53-.7-2.89-2.61-2.88-1.86.42-3.74,1.37-4.98,3.3Z"/>
    <path class="cls-2" d="m32.37,68.17c-5.09-3.43-9.68-7.4-13.03-12.61-.53-.82-1.24-2.01-1-2.74.4-1.2,1.92-1.15,3.04-1.08,2.88.17,5.78.32,8.62.8,4.59.77,9.14,1.8,13.71,2.71.31.06.65-.02.97-.03-.08-.35-.06-.8-.27-1.03-.56-.62-1.13-1.32-1.86-1.68-8.26-4.18-16.93-6.47-26.29-5.86-3.6.24-6.52,1.39-8.34,4.67-2.04,3.67-1.71,7.41-.28,11.14,1.94,5.06,4.6,9.73,7.82,14.08,3.94,5.32,8.47,9.96,13.43,14.09l15.63-15.63c-4.2-1.96-8.28-4.18-12.17-6.81Z"/>
    <path class="cls-2" d="m118.29,79.46c-2.51-2.63-5.62-4.27-9.06-5.33-.51-.16-1.04-.33-1.57-.38-.33-.03-.68.17-1.01.26.17.27.3.58.52.8.24.24.61.36.85.6,1.33,1.37,2.88,2.6,3.91,4.17,1.58,2.43.84,4.79-1.75,6.07-1.36.67-2.87,1.15-4.37,1.41-5.99,1.02-12,.63-17.99-.04-9.1-1.03-18-3.01-26.74-5.74-1.48-.46-2.94-.95-4.4-1.45l-17.96,17.96c1.84,1.19,3.72,2.34,5.63,3.44,2.47,1.42,5.02,2.7,7.54,4.02.83.44,1.11,1.07.75,1.9-.35.83-1.02.78-1.75.5-1.4-.53-2.84-.98-4.23-1.55-3.8-1.54-7.39-3.38-10.81-5.46l-6.54,6.54c4.19,3.64,9.05,6.63,14.62,8.91,8.36,3.42,17.28,4.39,27.35,4.67,1.97-.16,5.02-.29,8.04-.69,12.77-1.68,23.82-6.93,32.79-16.25,3.63-3.77,6.78-7.91,8.63-12.86,1.61-4.29.74-8.18-2.43-11.51Zm-56.36,31.62c-.99.01-1.83-.65-1.87-1.49-.04-.8.6-1.44,1.45-1.43,1.03.01,1.99.72,2.04,1.5.04.77-.68,1.41-1.62,1.43Z"/>
    <path class="cls-2" d="m84.55,30.97c-1.08-.64-2.17-.5-3.16.17-2.48,1.68-4.11,4-5.03,6.83-.09.29-.09.61-.1.91-.06,1.17.49,1.95,1.63,2.17.16.03.33.06.49.08l7.64-7.64c-.07-1.07-.5-1.95-1.47-2.53Z"/>
    <path class="cls-2" d="m68.87,79.18c8.29,2.03,16.68,3.41,25.23,3.68.62,0,1.25.09,1.85-.02,1.99-.37,4.05-.61,5.94-1.28,1.94-.69,2.47-2.33,1.7-4.25-.34-.84-.82-1.66-1.38-2.38-.88-1.12-1.4-2.36-1.17-3.74.42-2.53.92-5.06,1.51-7.56.81-3.4,1.93-6.74,1.75-10.3-.16-3.27-1.84-5.35-5.07-5.97-3.88-.75-7.72-.51-11.27,1.32-.12.06-.23.13-.35.19l-27.77,27.77c2.97.94,5.98,1.79,9.03,2.53Z"/>
    <path class="cls-2" d="m49.89,44.16c.7,4.55,1.07,9.16,1.54,13.75.11,1.06.61,1.66,1.6,1.8,1.25.18,2.52.31,3.78.32,1.18,0,1.46-.46,1.29-1.63-.21-1.45-.47-2.89-.56-4.34-.52-8.17-1-16.35-1.42-23.42,0-5.31.09-9.5-.03-13.69-.08-2.59-.68-5.12-2.18-7.32-1.08-1.59-2.54-2.63-4.56-2.36-2.2.29-3.77,1.6-4.25,3.71-.32,1.4-.14,2.96.09,4.41,1.54,9.59,3.23,19.17,4.71,28.77Z"/>
    <path class="cls-2" d="m16.98,85.1c-.29-.31-.55-.67-.89-.9-.25-.17-.71-.33-.91-.21-.28.16-.51.57-.56.91-.05.31.12.67.24.99,1.7,4.53,3.84,8.65,6.42,12.36l4.68-4.68c-3.14-2.61-6.13-5.44-8.98-8.46Z"/>
  </g>
</svg>