<?xml version="1.0" encoding="UTF-8"?>
<svg id="Layer_1" data-name="Layer 1" xmlns="http://www.w3.org/2000/svg" viewBox="0 0 128 128">
  <defs>
    <style>
      .cls-1 {
        fill: none;
        stroke: #e30613;
        stroke-miterlimit: 10;
        stroke-width: 8px;
      }

      .cls-2 {
        fill: #911323;
        stroke-width: 0px;
      }
    </style>
  </defs>
  <path class="cls-2" d="m93.23,15.48c-3.05-1.21-6.14-1.37-9.31-.5-2.67.74-4.2-.05-5.25-2.62-.97-2.38-2.7-3.93-5.14-4.69-4.51-1.4-9.32.67-11.74,5.04-2.16,3.89-3.12,8.08-3.26,12.5-.16,5,1.2,9.74,2.38,14.51.21.85.38,1.72.66,2.54.12.34.48.6.73.89.27-.27.57-.52.8-.82.13-.17.12-.44.2-.65,1.07-2.68,2-5.44,3.28-8.02,1.27-2.56,3.22-4.64,5.82-5.97.36-.18.88-.06,1.33-.08-.04.46.05.97-.14,1.36-1.02,2.05-2.19,4.02-3.15,6.09-1.9,4.12-3.61,8.32-5.56,12.42-.76,1.59-1.86,3.06-2.99,4.44-.92,1.11-1.93,1.22-3.09.63-6.99-3.63-14.35-6.37-21.81-8.84-.81-.27-1.44-.62-1.24-1.6.2-1,.97-1.14,1.77-.96,3.05.67,6.19,1.11,9.09,2.18,3.31,1.22,6.4,3.01,9.58,4.58.78.39,1.52.79,2.3.04.73-.71.59-1.57.2-2.33-2.23-4.38-4.37-8.81-6.82-13.07-1.85-3.22-4.46-5.9-8.03-7.22-4.77-1.77-9.73-2.33-14.74-1.29-3.33.69-5.83,2.54-6.61,6.04-.32,1.43-.3,2.95-.39,4.43-.2,3.6-1.39,6.45-4.83,8.33-6.45,3.51-8.82,9.27-7.1,16.33.41,1.71,1.43,2.94,3.17,3.24,1.37.23,2.86.4,4.19.09,3.56-.83,7.09-1.81,10.56-2.95,6.16-2.01,12.18-4.46,18.63-5.48,3.58-.56,7.15-.69,10.62.6,1.57.58,1.95,1.62,1.07,3.04-.44.71-1.01,1.34-1.56,1.97-3.59,4.14-7.12,8.32-9.96,12.98l16.9-16.9c-.76-.73-.88-1.82-.15-2.94,1.68-2.56,4-4.46,6.71-5.75,1.28-.61,2.57-1.18,3.87-1.75l24.52-24.52c-1-2.36-2.9-4.27-5.5-5.3Zm-14.36,7.56c-.13.52-.63.96-.96,1.43-.18,0-.35-.01-.53-.02-.25-.47-.68-.93-.72-1.41-.05-.7.42-1.23,1.2-1.21.76.02,1.16.57,1.01,1.21Z"/>
  <path class="cls-2" d="m92.47,60.79c.83.45,1.35,1.02,1.07,2.01-.28.96-1.11,1.27-2.35.87-3.41-1.09-6.79-2.31-10.24-3.25-1.28-.35-2.57-.69-3.86-1.02l-5.93,5.93c1.81,2.36,3.13,5.07,4.42,7.78,1.17,2.48,2.3,5.01,3.81,7.29,3.55,5.37,8.81,7.42,15.05,6.66,6.17-.74,10.64-6.5,10.63-13.24,0-3.24,1.39-5.04,4.41-6.18,1.62-.61,3.26-1.39,4.61-2.44,3.56-2.78,5-6.51,3.99-10.96-.98-4.29-3.93-6.86-7.94-8.3-3.96-1.43-8.07-1.95-12.26-1.92-.01-.1-.03-.2-.04-.31-1.93.27-3.87.49-5.81.74l-11.65,11.65c4.23.99,8.26,2.58,12.11,4.67Z"/>
  <line class="cls-1" x1="13.82" y1="114.18" x2="114.18" y2="13.82"/>
  <path class="cls-2" d="m48.1,97.83c5.22,1.02,9.51-1.43,11.01-6.24.87-2.79.86-5.65.4-8.5-.29-1.78-.56-3.57-.76-5.36l-17.27,17.27c1.92,1.39,4.12,2.34,6.62,2.83Z"/>
  <path class="cls-2" d="m42.52,76.21c1.88-5.98,5.17-11.1,9.54-15.56.34-.35.43-.94.64-1.43-.49-.06-1.01-.27-1.47-.17-5.97,1.32-11.83,2.99-17.5,5.28-4.61,1.87-9.07,4.02-12.89,7.3-1.93,1.66-3.57,3.55-4.52,5.96-1.57,3.98-.24,7.73,3.53,9.72,3.17,1.68,6.5,1.78,9.89.74.78-.24,1.48-.37,2.13-.42l10.5-10.5c.01-.32.06-.65.15-.94Z"/>
  <path class="cls-2" d="m63.38,75.73c1.69,11.07,6.42,20.7,14.36,28.67,8.08,8.12,17.98,13,28.92,15.95,2.85.77,2.9.71,2.88-2.23-.02-3.36-.5-3.93-3.75-4.63-11.87-2.56-21.96-8.18-29.76-17.6-5.96-7.19-9.34-15.47-10.99-24.45l-1.94,1.94c.08.78.16,1.56.28,2.34Z"/>
</svg>