<?xml version="1.0" encoding="UTF-8"?>
<svg id="Layer_1" data-name="Layer 1" xmlns="http://www.w3.org/2000/svg" viewBox="0 0 128 128">
  <defs>
    <style>
      .cls-1 {
        fill: #e94e1b;
        stroke-width: 0px;
      }
    </style>
  </defs>
  <path class="cls-1" d="m71.26,120.77c-10.06-.29-18.98-1.25-27.35-4.67-14.08-5.76-23.73-15.97-29.06-30.21-.12-.32-.3-.68-.24-.99.06-.34.28-.75.56-.91.2-.12.66.04.91.21.34.23.6.59.89.9,8.48,8.98,18.14,16.32,29.67,21,1.39.56,2.82,1.02,4.23,1.55.73.27,1.4.32,1.75-.5.36-.83.08-1.47-.75-1.9-2.53-1.32-5.08-2.6-7.54-4.02-11.16-6.43-21.13-14.27-28.86-24.7-3.22-4.35-5.89-9.02-7.82-14.08-1.43-3.73-1.76-7.47.28-11.14,1.82-3.27,4.74-4.43,8.34-4.67,9.36-.62,18.03,1.68,26.29,5.86.72.37,1.3,1.06,1.86,1.68.21.23.19.68.27,1.03-.32.01-.66.1-.97.03-4.57-.9-9.12-1.94-13.71-2.71-2.84-.48-5.74-.63-8.62-.8-1.12-.07-2.64-.12-3.04,1.08-.24.73.47,1.92,1,2.74,3.35,5.21,7.94,9.18,13.03,12.61,8.83,5.95,18.58,9.94,28.69,13.1,8.73,2.73,17.64,4.71,26.74,5.74,5.98.67,12,1.06,17.99.04,1.5-.25,3.01-.74,4.37-1.41,2.59-1.28,3.34-3.64,1.75-6.07-1.02-1.57-2.57-2.8-3.91-4.17-.24-.24-.6-.36-.85-.6-.22-.22-.35-.53-.52-.8.34-.1.69-.29,1.01-.26.53.05,1.05.22,1.57.38,3.44,1.06,6.56,2.7,9.06,5.33,3.17,3.32,4.05,7.21,2.43,11.51-1.86,4.95-5.01,9.09-8.63,12.86-8.97,9.32-20.01,14.57-32.79,16.25-3.01.4-6.06.53-8.04.69Zm-9.34-9.69c.93-.01,1.66-.65,1.62-1.43-.04-.79-1-1.49-2.04-1.5-.85,0-1.49.63-1.45,1.43.04.84.88,1.51,1.87,1.49Z"/>
  <path class="cls-1" d="m94.09,82.86c-8.55-.27-16.94-1.65-25.23-3.68-9.84-2.41-19.36-5.69-28.13-10.85-2.02-1.19-3.94-2.55-5.85-3.92-.39-.28-.73-.96-.68-1.4.04-.37.64-.85,1.08-.99,3.99-1.24,7.99-.89,11.99,0,2.21.49,4.43,1.04,6.67,1.33,3.89.5,7.16-.77,9.53-3.97,1.39-1.89,2.64-3.88,3.98-5.81,1.61-2.31,3.62-4.19,6.2-5.41,2.24-1.06,3.75-.28,4.21,2.16.06.34.11.68.15,1.03.26,2.01,1.66,2.53,3.37,1.39,2.14-1.43,4.28-2.89,6.57-4.06,3.55-1.83,7.39-2.07,11.27-1.32,3.23.62,4.9,2.7,5.07,5.97.18,3.57-.95,6.9-1.75,10.3-.59,2.5-1.09,5.02-1.51,7.56-.23,1.38.29,2.62,1.17,3.74.56.72,1.04,1.53,1.38,2.38.77,1.92.24,3.56-1.7,4.25-1.89.68-3.95.91-5.94,1.28-.6.11-1.23.02-1.85.02Z"/>
  <path class="cls-1" d="m56.11,30.64c.43,7.07.9,15.25,1.42,23.42.09,1.45.36,2.9.56,4.34.17,1.17-.11,1.63-1.29,1.63-1.26,0-2.53-.14-3.78-.32-.99-.14-1.49-.75-1.6-1.8-.47-4.59-.84-9.19-1.54-13.75-1.48-9.6-3.17-19.17-4.71-28.77-.23-1.45-.41-3.02-.09-4.41.48-2.1,2.05-3.42,4.25-3.71,2.02-.27,3.48.77,4.56,2.36,1.49,2.2,2.1,4.73,2.18,7.32.13,4.19.03,8.38.03,13.69Z"/>
  <path class="cls-1" d="m86.04,33.78c.01,3.02-2.98,6.81-5.88,7.35-.73.14-1.54.07-2.27-.08-1.13-.22-1.69-1-1.63-2.17.02-.31,0-.63.1-.91.92-2.83,2.55-5.15,5.03-6.83.99-.67,2.08-.81,3.16-.17,1.05.63,1.48,1.62,1.48,2.82Z"/>
  <path class="cls-1" d="m113.11,32.55c1.91-.01,2.99,1.35,2.61,2.88-.66,2.7-4.91,4.21-7.11,2.54-.76-.58-.98-1.33-.47-2.12,1.23-1.93,3.12-2.88,4.98-3.3Z"/>
</svg>