<?xml version="1.0" encoding="UTF-8"?>
<svg id="Layer_1" data-name="Layer 1" xmlns="http://www.w3.org/2000/svg" viewBox="0 0 250 250">
  <defs>
    <style>
      .cls-1 {
        fill: #a55249;
      }

      .cls-1, .cls-2 {
        stroke-width: 0px;
      }

      .cls-2 {
        fill: #8a3c30;
      }
    </style>
  </defs>
  <path class="cls-1" d="m191.53,50.11c-6.13,5.6-12.54,10.92-18.35,16.84-25.06,25.53-49.94,51.24-74.9,76.87-1.6,1.64-3.25,4.28-5.62,1.03-1.8-2.47-6.57-4.02-2.11-8.53,29.34-29.69,58.49-59.57,87.79-89.29,7.72-7.83,16.32-14.43,27.56-16.46,1.74-.31,3.51-.43,6.4-.77-.95,5.27-1.47,10.09-2.72,14.72-2.61,9.67-7.74,18-14.61,25.26-27.65,29.25-55.28,58.51-82.97,87.73-1.63,1.72-2.99,5.05-6.34,1.74-4.4-4.36-4.56-4.65-1-8.52,24.52-26.66,49.14-53.23,73.49-80.05,5.43-5.98,9.93-12.82,14.86-19.26-.5-.43-.99-.87-1.49-1.3Z"/>
  <path class="cls-1" d="m29.58,206.27c1.59-1.69,2.64-2.88,3.77-3.99,13.16-12.96,26.33-25.91,39.49-38.88,4.32-4.25,4.25-5.07.64-9.65-4.89-6.19-10.29-10.74-19-10.66-4.65.05-3.04-4.94-3.57-7.89-.5-2.82,1.67-3,3.68-3.21,7.63-.77,14.14,1.56,19.31,7.22,10.24,11.23,20.17,22.74,30.72,33.67,2.9,3,7.28,5.27,11.37,6.28,7.85,1.93,8.47,2.19,6.95,10.7-9.59,1.24-17.98-1.89-24.73-8.43-8.68-8.41-8.9-4.99-14.84.71-10.74,10.32-21.47,20.66-31.99,31.21-3.02,3.03-5.51,3.26-8.92.88-3.89-2.71-8.06-5.02-12.88-7.99Z"/>
  <path class="cls-2" d="m47.99,11.35h154.72c.17.53.35,1.06.52,1.59-30.32,12.85-60.63,25.71-90.95,38.56-.26-.43-.53-.86-.79-1.3,1.14-1.02,2.22-2.12,3.42-3.06,7.05-5.5,14.17-10.91,21.16-16.48,1.16-.92,1.79-2.49,2.67-3.76-1.38-.71-2.69-1.85-4.14-2.06-20.19-2.86-40.41-5.6-60.61-8.36-7.38-1.01-14.75-1.99-22.13-3.03-1.37-.19-2.72-.58-4.07-.87.06-.41.13-.82.19-1.24Z"/>
  <path class="cls-2" d="m196.05,147.2c13.12-30.13,26.24-60.25,39.35-90.38.49.13.98.27,1.47.4v154.88c-.32.08-.65.15-.97.23-.42-1.84-.99-3.66-1.25-5.53-3.7-26.84-7.31-53.69-11.11-80.51-.25-1.8-1.8-3.42-2.75-5.12-1.68.95-3.84,1.52-4.95,2.93-5.64,7.13-11.01,14.46-16.43,21.75-.61.81-.93,1.84-1.38,2.77l-1.98-1.42Z"/>
  <path class="cls-1" d="m21.92,210.12c1.62.84,2.72,1.27,3.68,1.93,5.04,3.45,10.03,6.98,15.07,10.42,2.98,2.03,3.56,4.23.82,6.91-2.56,2.5-5.06,5.06-7.63,7.55-2.53,2.45-4.95,2.27-7.29-.36-3.87-4.34-7.75-8.67-11.7-12.93-2.41-2.6-2.33-4.98.24-7.34,2.26-2.07,4.53-4.11,6.8-6.17Z"/>
  <path class="cls-2" d="m161.38,45.02c-8.06,10.14-57.31,41.24-64.75,40.42,21.57-14.84,42.42-28.79,64.75-40.42Z"/>
  <path class="cls-2" d="m183.19,222.04c9.95-25.79,19.89-51.57,30.2-78.3,1.21,8.7-23.59,74.5-30.2,78.3Z"/>
  <path class="cls-2" d="m200.55,92.54c9.69-20.86,22.47-39.88,35.27-59.97-.65,6.79-30.03,57.16-35.27,59.97Z"/>
  <path class="cls-2" d="m22.57,43.99c14.79-2.26,29.79-2.26,44.76-2.69-14.65,3.59-29.46,5.45-44.52,4.95l-.23-2.26Z"/>
</svg>