<?xml version="1.0" encoding="UTF-8"?>
<svg id="Layer_1" data-name="Layer 1" xmlns="http://www.w3.org/2000/svg" xmlns:xlink="http://www.w3.org/1999/xlink" viewBox="0 0 474.49 85.7">
  <defs>
    <style>
      .cls-1 {
        fill: url(#linear-gradient);
      }

      .cls-1, .cls-2, .cls-3, .cls-4, .cls-5, .cls-6, .cls-7 {
        stroke-width: 0px;
      }

      .cls-2 {
        fill: url(#linear-gradient-6);
      }

      .cls-3 {
        fill: url(#linear-gradient-5);
      }

      .cls-4 {
        fill: none;
      }

      .cls-5 {
        fill: url(#linear-gradient-2);
      }

      .cls-6 {
        fill: url(#linear-gradient-3);
      }

      .cls-7 {
        fill: url(#linear-gradient-4);
      }
    </style>
    <linearGradient id="linear-gradient" x1="0" y1="41.8" x2="474.49" y2="41.8" gradientUnits="userSpaceOnUse">
      <stop offset="0" stop-color="#a07c44"/>
      <stop offset="1" stop-color="#d4b55a"/>
    </linearGradient>
    <linearGradient id="linear-gradient-2" y1="44.2" x2="474.49" y2="44.2" xlink:href="#linear-gradient"/>
    <linearGradient id="linear-gradient-3" y1="44.2" x2="474.49" y2="44.2" xlink:href="#linear-gradient"/>
    <linearGradient id="linear-gradient-4" y1="44.8" y2="44.8" xlink:href="#linear-gradient"/>
    <linearGradient id="linear-gradient-5" y1="44.2" y2="44.2" xlink:href="#linear-gradient"/>
    <linearGradient id="linear-gradient-6" y1="43.2" x2="474.49" y2="43.2" xlink:href="#linear-gradient"/>
  </defs>
  <path class="cls-4" d="m437.34,22.15c-.43-.57-.65-1.25-.65-2.05.27-1.07.42-1.72.45-1.95.03-.23.05-.42.05-.55v-.6c0-.13-.18-.37-.55-.7-.37-.33-.58-.57-.65-.7-1.87-3.4-4.23-5.72-7.1-6.95-2.87-1.23-6.23-1.85-10.1-1.85-.13,0-.47.03-1,.1-.53.07-1.08.15-1.65.25-.57.1-1.1.2-1.6.3-.5.1-.78.18-.85.25-.13.13-.37.5-.7,1.1-.33.6-.53.97-.6,1.1v1.6c0,2.13-.2,4.18-.6,6.15-.4,1.97-.87,3.98-1.4,6.05l-.8,1.2,1.2,1.5c.07.13.13.52.2,1.15.07.63.13,1.12.2,1.45v.8c-.27,0-.4.23-.4.7,0,.07.05.25.15.55.1.3.18.48.25.55l-1.2,5.2c0,1.73.62,3.05,1.85,3.95,1.23.9,2.68,1.35,4.35,1.35h2.1c.13-.6.7-1.13,1.7-1.6,1-.47,2.13-.85,3.4-1.15,1.27-.3,2.5-.58,3.7-.85,1.2-.27,2.07-.5,2.6-.7.8-.33,1.58-.85,2.35-1.55.77-.7,1.45-1.42,2.05-2.15l1.9-3.6c.6-1,1.08-2.03,1.45-3.1.37-1.07.55-2.23.55-3.5,0-.6-.22-1.18-.65-1.75Z"/>
  <path class="cls-1" d="m49.55,54.1c-.17-.47-.35-.92-.55-1.35-.2-.43-.33-.78-.4-1.05,0-.07-.12-.27-.35-.6-.23-.33-.48-.68-.75-1.05-.27-.37-.55-.72-.85-1.05-.3-.33-.48-.53-.55-.6-.13-.13-.28-.37-.45-.7-.17-.33-.32-.63-.45-.9l-1-2.9-.4-.4c-.13-.13-.25-.22-.35-.25-.1-.03-.18-.08-.25-.15l-6.7-4.3c-.93-.4-1.75-.77-2.45-1.1-.7-.33-1.38-.67-2.05-1-.67-.33-1.35-.68-2.05-1.05-.7-.37-1.52-.85-2.45-1.45l-.6-.4c-1.73-.47-3.37-1.07-4.9-1.8-1.53-.73-2.88-1.65-4.05-2.75-1.17-1.1-2.1-2.4-2.8-3.9-.7-1.5-1.05-3.28-1.05-5.35,0-.8.03-1.45.1-1.95.07-.5.18-.95.35-1.35.17-.4.38-.85.65-1.35.27-.5.6-1.18,1-2.05.93-2.13,2.05-3.7,3.35-4.7s3.22-1.5,5.75-1.5c1.73,0,3.65.17,5.75.5,2.1.33,3.92,1,5.45,2,.6.4,1.37,1.25,2.3,2.55.93,1.3,1.87,2.62,2.8,3.95.93,1.33,1.77,2.53,2.5,3.6.73,1.07,1.27,1.6,1.6,1.6.27,0,.4-.03.4-.1.13,0,.28-.08.45-.25.17-.17.28-.35.35-.55.27-1.07.43-1.95.5-2.65.07-.7.1-1.58.1-2.65v-1.5l-.5-6.8,1.1-3.8c0-.6-.12-1.25-.35-1.95-.23-.7-.72-1.05-1.45-1.05-.8,0-1.52.22-2.15.65-.63.43-1.23.9-1.8,1.4-.57.5-1.15.97-1.75,1.4-.6.43-1.27.65-2,.65-1.07,0-2.02-.18-2.85-.55-.83-.37-1.75-.68-2.75-.95-1.47-.33-2.93-.6-4.4-.8-1.47-.2-3.03-.3-4.7-.3-1.13,0-2.12.32-2.95.95-.83.63-1.75,1.05-2.75,1.25-1,.2-2.03.32-3.1.35-1.07.03-2,.45-2.8,1.25-1.33,1.07-2.53,2.33-3.6,3.8-1.07,1.47-1.97,3.02-2.7,4.65-.73,1.63-1.3,3.33-1.7,5.1-.4,1.77-.6,3.45-.6,5.05,0,1.33.05,2.43.15,3.3.1.87.3,1.67.6,2.4.3.73.72,1.47,1.25,2.2.53.73,1.23,1.63,2.1,2.7.13.27.33.6.6,1,.27.4.43.77.5,1.1.4.67.65,1.3.75,1.9.1.6.52,1.2,1.25,1.8.47.4.88.7,1.25.9.37.2.75.38,1.15.55.4.17.82.33,1.25.5.43.17.92.45,1.45.85l3,3.1c.07,0,.25.04.55.1.3.07.62.13.95.2.33.07.63.13.9.2.27.07.47.1.6.1.67.33,1.17.72,1.5,1.15.33.43.77.85,1.3,1.25,1.13.33,2.22.52,3.25.55,1.03.03,2.08.35,3.15.95.13.13.4.27.8.4.4.13.63.2.7.2.8.33,1.37.6,1.7.8.33.2.6.42.8.65.2.23.38.52.55.85.17.33.48.83.95,1.5.4.47.83.87,1.3,1.2.47.33.87.73,1.2,1.2l.1.3c.33,1.13.55,1.97.65,2.5.1.53.15,1.23.15,2.1v.9c0,.13-.02.4-.05.8-.03.4-.07.8-.1,1.2-.03.4-.07.77-.1,1.1-.03.33-.05.53-.05.6l-2.2,4c-.6,1-1.17,1.92-1.7,2.75-.53.83-.87,1.25-1,1.25l-2.4.6c-.13,0-.4.08-.8.25-.4.17-.67.32-.8.45-.13.07-.33.2-.6.4-.27.2-.57.42-.9.65-.33.23-.65.45-.95.65-.3.2-.52.33-.65.4-.07.07-.4.1-1,.1h-1.1c-.53,0-1.53-.15-3-.45-1.47-.3-2.98-.68-4.55-1.15-1.57-.47-3-.98-4.3-1.55-1.3-.57-2.08-1.12-2.35-1.65-1.27-2.2-2.43-4.28-3.5-6.25-1.07-1.96-2.37-3.98-3.9-6.05-.4-.73-1-1.1-1.8-1.1-.4,0-.67.08-.8.25-.13.17-.27.42-.4.75l-1.1,11v1.5c0,2.33.52,4.02,1.55,5.05,1.03,1.03,2.33,1.77,3.9,2.2,1.57.43,3.23.73,5,.9,1.77.17,3.38.52,4.85,1.05l11.3.4c.13,0,.37.02.7.05.33.04,1.03.08,2.1.15h.7c1.47,0,2.68-.22,3.65-.65.97-.43,1.87-.95,2.7-1.55.83-.6,1.73-1.23,2.7-1.9.97-.67,2.22-1.27,3.75-1.8.47-.27.72-.67.75-1.2.03-.53.22-1.03.55-1.5.33-.2.92-.68,1.75-1.45.83-.77,1.35-1.52,1.55-2.25.07-.07.18-.3.35-.7.17-.4.32-.82.45-1.25.13-.43.27-.85.4-1.25.13-.4.23-.67.3-.8,0-.13.03-.23.1-.3l.1-.1c0-.07.07-.13.2-.2.2-.33.38-.71.55-1.15.17-.43.25-.68.25-.75v-8.5c0-.2-.07-.5-.2-.9-.13-.4-.28-.83-.45-1.3Z"/>
  <path class="cls-5" d="m132,63c-.47,0-.87.22-1.2.65-.33.43-.62.92-.85,1.45-.23.53-.45,1.05-.65,1.55s-.4.82-.6.95c-.33.6-.87,1.33-1.6,2.2-.73.87-1.53,1.75-2.4,2.65-.87.9-1.75,1.77-2.65,2.6-.9.83-1.65,1.45-2.25,1.85l-4.6,1.8c-2.07.2-3.78.32-5.15.35-1.37.03-2.98.05-4.85.05h-3.7l-1.1-.4-4.1-.3c-.8-.07-1.7-.33-2.7-.8-1-.47-1.95-1.07-2.85-1.8-.9-.73-1.67-1.53-2.3-2.4-.63-.87-.98-1.77-1.05-2.7v-5l-.8-8.9v-4.6c.07-.53.2-1.15.4-1.85.2-.7.48-1.38.85-2.05.37-.67.8-1.22,1.3-1.65.5-.43,1.12-.65,1.85-.65.53,0,1.38.07,2.55.2,1.17.13,2.48.3,3.95.5,1.47.2,2.97.47,4.5.8,1.53.33,2.93.68,4.2,1.05,1.27.37,2.32.78,3.15,1.25.83.47,1.28.97,1.35,1.5v1.8l1.6,2.8c.07.33.1.8.1,1.4,0,.67.1,1.3.3,1.9.2.6.8.9,1.8.9s1.68-.37,2.05-1.1c.37-.73.55-1.6.55-2.6,0-.4-.12-.83-.35-1.3-.23-.47-.35-1.03-.35-1.7l.3-2.1c0-.67-.03-1.5-.1-2.5-.07-1-.15-2-.25-3-.1-1-.18-1.88-.25-2.65-.07-.77-.1-1.22-.1-1.35l-.3-1.9.7-.9c.27-.73.45-1.28.55-1.65.1-.37.15-.82.15-1.35v-5.3c-.4-.73-.87-1.1-1.4-1.1-.6,0-1.12.4-1.55,1.2-.43.8-.83,1.73-1.2,2.8-.37,1.07-.68,2.12-.95,3.15-.27,1.03-.53,1.78-.8,2.25-.4.47-1.05,1.02-1.95,1.65-.9.63-1.65,1.02-2.25,1.15-.6.4-1.2.6-1.8.6l-2.3-.1c-.27,0-.53.03-.8.1-.27.07-.5.13-.7.2-.6.27-1.3.4-2.1.4l-9.3-.3c-1.53-1.46-2.48-3.05-2.85-4.75-.37-1.7-.55-3.48-.55-5.35v-2c0-.6.05-1.13.15-1.6.1-.47.32-.9.65-1.3v-6c0-1.73.03-3.42.1-5.05.07-1.63.27-3.12.6-4.45.13-.6.58-1.27,1.35-2,.77-.73,1.42-1.17,1.95-1.3,1.67-.2,3.33-.3,5-.3s3.37.1,5.1.3c.13.13.27.2.4.2.2,0,.33.03.4.1.07.07.23.1.5.1.47,0,1.02.03,1.65.1.63.07,1.28.1,1.95.1.53,0,1.07-.07,1.6-.2.07-.07.27-.1.6-.1.87,0,1.47.3,1.8.9.53.8,1.28,1.23,2.25,1.3.97.07,1.92.3,2.85.7.13.27.37.72.7,1.35.33.63.75,1.35,1.25,2.15s1.02,1.62,1.55,2.45c.53.83,1.07,1.62,1.6,2.35.13.2.27.38.4.55.13.17.37.48.7.95.6,1.33,1.3,2,2.1,2h.9c0-2.73-.2-5.4-.6-8,0-.27-.03-.8-.1-1.6-.07-.8-.15-1.63-.25-2.5-.1-.87-.22-1.7-.35-2.5-.13-.8-.23-1.37-.3-1.7,0-.6-.28-1-.85-1.2-.57-.2-1.05-.3-1.45-.3-.33-.07-.7-.13-1.1-.2-.4-.07-.8-.13-1.2-.2-.47-.07-.93-.13-1.4-.2l-10.4-.5c-.6-.47-1.05-.73-1.35-.8-.3-.07-.72-.1-1.25-.1-.93,0-1.83.15-2.7.45-.87.3-1.7.45-2.5.45h-2.3c-.13-.33-.32-.52-.55-.55-.23-.03-.55-.05-.95-.05s-.7.1-.9.3c-.2.2-.37.3-.5.3-.6,0-1.03-.1-1.3-.3-.27-.2-.6-.3-1-.3-1.07,0-2.15.28-3.25.85s-2.15.85-3.15.85l-3.3-.6c-1.67-.13-3.48-.35-5.45-.65-1.97-.3-3.88-.45-5.75-.45h-1.1c-.2,0-.57.07-1.1.2-.73-.53-1.57-.83-2.5-.9-.93-.07-1.93-.1-3-.1-1.33,0-2.37.12-3.1.35-.73.23-1.1,1.05-1.1,2.45,0,.8.2,1.43.6,1.9.4.47.88.82,1.45,1.05.57.23,1.18.4,1.85.5.67.1,1.27.22,1.8.35.07,0,.17.04.3.1.13.07.27.13.4.2l.4.2h4.2c.33.07.78.29,1.35.65.57.37,1.12.82,1.65,1.35.53.54,1,1.08,1.4,1.65.4.57.6,1.08.6,1.55l.4,6.2-.4,3.4c0,.4.02.73.05,1,.03.27.15.67.35,1.2.2,2.6.3,5.17.3,7.7s-.1,5.13-.3,7.6c.2,0,.45.12.75.35.3.23.45.52.45.85,0,.2-.13.57-.4,1.1-.13.27-.27.5-.4.7,0,.13-.07.33-.2.6l-.2.4c-.2.8-.42,1.87-.65,3.2-.23,1.33-.35,2.4-.35,3.2,0,1.93.1,3.88.3,5.85.2,1.97.57,3.92,1.1,5.85l-.8,1.3c.07.4.12.78.15,1.15.03.37.05.75.05,1.15,0,.47-.02.92-.05,1.35-.03.43-.08.85-.15,1.25-.07.53-.3,1.1-.7,1.7-.4.6-.87,1.15-1.4,1.65-.53.5-1.07.92-1.6,1.25-.53.33-.97.53-1.3.6h-4.7c-.53,0-1.22.05-2.05.15-.83.1-1.63.3-2.4.6-.77.3-1.43.68-2,1.15-.57.47-.85,1.07-.85,1.8,0,.8.23,1.48.7,2.05.47.57,1.03,1.03,1.7,1.4.67.37,1.4.65,2.2.85.8.2,1.5.3,2.1.3,1.13,0,2.3-.25,3.5-.75s2.5-.75,3.9-.75l5.2.3,7.4-.7c3,0,5.92.12,8.75.35,2.83.23,5.65.35,8.45.35l8.9-.7,1.9.4,3.7-.4c.6,0,1.05.12,1.35.35.3.23.82.35,1.55.35l1.2-.3c.33-.07.7-.1,1.1-.1h1.3c1.33,0,2.62-.12,3.85-.35,1.23-.23,2.25-.98,3.05-2.25.2-2.13.57-4.23,1.1-6.3.53-2.07,1.1-4.1,1.7-6.1l1-3.6c0-.33-.1-.68-.3-1.05-.2-.37-.5-.55-.9-.55Z"/>
  <path class="cls-6" d="m212.6,63c-.47,0-.87.22-1.2.65-.33.43-.62.92-.85,1.45-.23.53-.45,1.05-.65,1.55s-.4.82-.6.95c-.33.6-.87,1.33-1.6,2.2-.73.87-1.53,1.75-2.4,2.65-.87.9-1.75,1.77-2.65,2.6-.9.83-1.65,1.45-2.25,1.85l-4.6,1.8c-2.07.2-3.78.32-5.15.35-1.37.03-2.98.05-4.85.05h-3.7l-1.1-.4-4.1-.3c-.8-.07-1.7-.33-2.7-.8-1-.47-1.95-1.07-2.85-1.8-.9-.73-1.67-1.53-2.3-2.4-.63-.87-.98-1.77-1.05-2.7v-5l-.8-8.9v-4.6c.07-.53.2-1.15.4-1.85.2-.7.48-1.38.85-2.05.37-.67.8-1.22,1.3-1.65.5-.43,1.12-.65,1.85-.65.53,0,1.38.07,2.55.2,1.17.13,2.48.3,3.95.5,1.47.2,2.97.47,4.5.8,1.53.33,2.93.68,4.2,1.05,1.27.37,2.32.78,3.15,1.25.83.47,1.28.97,1.35,1.5v1.8l1.6,2.8c.07.33.1.8.1,1.4,0,.67.1,1.3.3,1.9.2.6.8.9,1.8.9s1.68-.37,2.05-1.1c.37-.73.55-1.6.55-2.6,0-.4-.12-.83-.35-1.3-.23-.47-.35-1.03-.35-1.7l.3-2.1c0-.67-.03-1.5-.1-2.5-.07-1-.15-2-.25-3-.1-1-.18-1.88-.25-2.65-.07-.77-.1-1.22-.1-1.35l-.3-1.9.7-.9c.27-.73.45-1.28.55-1.65.1-.37.15-.82.15-1.35v-5.3c-.4-.73-.87-1.1-1.4-1.1-.6,0-1.12.4-1.55,1.2-.43.8-.83,1.73-1.2,2.8-.37,1.07-.68,2.12-.95,3.15-.27,1.03-.53,1.78-.8,2.25-.4.47-1.05,1.02-1.95,1.65-.9.63-1.65,1.02-2.25,1.15-.6.4-1.2.6-1.8.6l-2.3-.1c-.27,0-.53.03-.8.1-.27.07-.5.13-.7.2-.6.27-1.3.4-2.1.4l-9.3-.3c-1.53-1.46-2.48-3.05-2.85-4.75-.37-1.7-.55-3.48-.55-5.35v-2c0-.6.05-1.13.15-1.6.1-.47.32-.9.65-1.3v-6c0-1.73.03-3.42.1-5.05.07-1.63.27-3.12.6-4.45.13-.6.58-1.27,1.35-2,.77-.73,1.42-1.17,1.95-1.3,1.67-.2,3.33-.3,5-.3s3.37.1,5.1.3c.13.13.27.2.4.2.2,0,.33.03.4.1.07.07.23.1.5.1.47,0,1.02.03,1.65.1.63.07,1.28.1,1.95.1.53,0,1.07-.07,1.6-.2.07-.07.27-.1.6-.1.87,0,1.47.3,1.8.9.53.8,1.28,1.23,2.25,1.3.97.07,1.92.3,2.85.7.13.27.37.72.7,1.35.33.63.75,1.35,1.25,2.15s1.02,1.62,1.55,2.45c.53.83,1.07,1.62,1.6,2.35.13.2.27.38.4.55.13.17.37.48.7.95.6,1.33,1.3,2,2.1,2h.9c0-2.73-.2-5.4-.6-8,0-.27-.03-.8-.1-1.6-.07-.8-.15-1.63-.25-2.5-.1-.87-.22-1.7-.35-2.5-.13-.8-.23-1.37-.3-1.7,0-.6-.28-1-.85-1.2-.57-.2-1.05-.3-1.45-.3-.33-.07-.7-.13-1.1-.2-.4-.07-.8-.13-1.2-.2-.47-.07-.93-.13-1.4-.2l-10.4-.5c-.6-.47-1.05-.73-1.35-.8-.3-.07-.72-.1-1.25-.1-.93,0-1.83.15-2.7.45-.87.3-1.7.45-2.5.45h-2.3c-.13-.33-.32-.52-.55-.55-.23-.03-.55-.05-.95-.05s-.7.1-.9.3c-.2.2-.37.3-.5.3-.6,0-1.03-.1-1.3-.3-.27-.2-.6-.3-1-.3-1.07,0-2.15.28-3.25.85s-2.15.85-3.15.85l-3.3-.6c-1.67-.13-3.48-.35-5.45-.65-1.97-.3-3.88-.45-5.75-.45h-1.1c-.2,0-.57.07-1.1.2-.73-.53-1.57-.83-2.5-.9-.93-.07-1.93-.1-3-.1-1.33,0-2.37.12-3.1.35-.73.23-1.1,1.05-1.1,2.45,0,.8.2,1.43.6,1.9.4.47.88.82,1.45,1.05.57.23,1.18.4,1.85.5.67.1,1.27.22,1.8.35.07,0,.17.04.3.1.13.07.27.13.4.2l.4.2h4.2c.33.07.78.29,1.35.65.57.37,1.12.82,1.65,1.35.53.54,1,1.08,1.4,1.65.4.57.6,1.08.6,1.55l.4,6.2-.4,3.4c0,.4.02.73.05,1,.03.27.15.67.35,1.2.2,2.6.3,5.17.3,7.7s-.1,5.13-.3,7.6c.2,0,.45.12.75.35.3.23.45.52.45.85,0,.2-.13.57-.4,1.1-.13.27-.27.5-.4.7,0,.13-.07.33-.2.6l-.2.4c-.2.8-.42,1.87-.65,3.2-.23,1.33-.35,2.4-.35,3.2,0,1.93.1,3.88.3,5.85.2,1.97.57,3.92,1.1,5.85l-.8,1.3c.07.4.12.78.15,1.15.03.37.05.75.05,1.15,0,.47-.02.92-.05,1.35-.03.43-.08.85-.15,1.25-.07.53-.3,1.1-.7,1.7-.4.6-.87,1.15-1.4,1.65-.53.5-1.07.92-1.6,1.25-.53.33-.97.53-1.3.6h-4.7c-.53,0-1.22.05-2.05.15-.83.1-1.63.3-2.4.6-.77.3-1.43.68-2,1.15-.57.47-.85,1.07-.85,1.8,0,.8.23,1.48.7,2.05.47.57,1.03,1.03,1.7,1.4.67.37,1.4.65,2.2.85.8.2,1.5.3,2.1.3,1.13,0,2.3-.25,3.5-.75s2.5-.75,3.9-.75l5.2.3,7.4-.7c3,0,5.92.12,8.75.35,2.83.23,5.65.35,8.45.35l8.9-.7,1.9.4,3.7-.4c.6,0,1.05.12,1.35.35.3.23.82.35,1.55.35l1.2-.3c.33-.07.7-.1,1.1-.1h1.3c1.33,0,2.62-.12,3.85-.35,1.23-.23,2.25-.98,3.05-2.25.2-2.13.57-4.23,1.1-6.3.53-2.07,1.1-4.1,1.7-6.1l1-3.6c0-.33-.1-.68-.3-1.05-.2-.37-.5-.55-.9-.55Z"/>
  <path class="cls-7" d="m298.8,78.95c-.6-.43-1.29-.73-2.05-.9-.77-.17-1.52-.32-2.25-.45-.73-.13-1.2-.43-1.4-.9-.4-.87-.93-1.6-1.6-2.2-.67-.6-1.38-1.17-2.15-1.7-.77-.53-1.52-1.08-2.25-1.65-.73-.57-1.37-1.25-1.9-2.05,0-.07-.1-.22-.3-.45-.2-.23-.33-.38-.4-.45-.87-1-1.95-2.03-3.25-3.1-1.3-1.07-2.35-2.07-3.15-3-1.07,0-1.85-.47-2.35-1.4-.5-.93-.92-1.8-1.25-2.6-.53-.93-1.13-1.48-1.8-1.65-.67-.17-1.17-.25-1.5-.25-.2,0-.33-.1-.4-.3-.4-.8-.88-1.45-1.45-1.95-.57-.5-1.12-.98-1.65-1.45-.53-.47-1.07-.92-1.6-1.35-.53-.43-.97-.98-1.3-1.65,0-.13-.13-.4-.4-.8-.27-.4-.43-.63-.5-.7-.33-.4-.98-1.12-1.95-2.15-.97-1.03-2.03-2.08-3.2-3.15-1.17-1.07-2.3-2-3.4-2.8-1.1-.8-1.88-1.2-2.35-1.2v-2.5c-.07-.07-.13-.25-.2-.55-.07-.3-.1-.52-.1-.65,0-.2.1-.3.3-.3.87-.67,1.57-1.45,2.1-2.35.53-.9,1.3-1.65,2.3-2.25l1.7-.3.8-.7c1.4-1.67,2.68-3.23,3.85-4.7,1.17-1.47,2.58-2.87,4.25-4.2l.9-.9c.27-.33.62-.83,1.05-1.5.43-.67.93-1.32,1.5-1.95.57-.63,1.13-1.18,1.7-1.65.57-.46,1.08-.7,1.55-.7l1.7-.8c.07,0,.18-.03.35-.1.17-.07.52-.27,1.05-.6.27,0,.68-.1,1.25-.3.57-.2,1.18-.45,1.85-.75.67-.3,1.35-.63,2.05-1,.7-.37,1.35-.71,1.95-1.05.6-.33,1.08-.57,1.45-.7.37-.13.58-.5.65-1.1,0-.53-.27-.97-.8-1.3-.53-.33-1.13-.6-1.8-.8-.67-.2-1.32-.33-1.95-.4-.63-.07-1.08-.1-1.35-.1-.53,0-1.5.02-2.9.05-1.4.03-2.85.1-4.35.2-1.5.1-2.88.22-4.15.35-1.27.13-2.07.3-2.4.5l-5.2-.4-1.2-.4c-.73,0-1.45.37-2.15,1.1-.7.73-1.05,1.47-1.05,2.2,0,1,.45,1.7,1.35,2.1.9.4,1.85.6,2.85.6l1-.1c.07.07.2.25.4.55.2.3.42.63.65,1,.23.37.55.88.95,1.55,0,.47-.28,1.17-.85,2.1-.57.93-1.22,1.9-1.95,2.9-.73,1-1.45,1.93-2.15,2.8-.7.87-1.18,1.43-1.45,1.7-.53.53-1.17.85-1.9.95-.73.1-1.27.42-1.6.95-.4.93-.78,1.92-1.15,2.95-.37,1.03-.95,1.95-1.75,2.75-1.13,1.13-2.45,2-3.95,2.6-1.5.6-2.88,1.33-4.15,2.2-.6.4-1,.9-1.2,1.5-.2.6-.67.9-1.4.9-.8,0-1.2-.2-1.2-.6,0-.13.07-.27.2-.4.13-.13.23-.23.3-.3v-4.5c0-.07-.08-.28-.25-.65-.17-.37-.25-.62-.25-.75,0-.53.13-1.1.4-1.7.27-.6.4-1.17.4-1.7v-1.4c-.2-.47-.45-.67-.75-.6-.3.07-.45-.2-.45-.8l1.2-2.6c0-.4-.05-.68-.15-.85-.1-.17-.15-.35-.15-.55,0-.4.07-.98.2-1.75.13-.77.3-1.58.5-2.45.2-.87.43-1.65.7-2.35.27-.7.5-1.22.7-1.55.27-.2.75-.43,1.45-.7.7-.27,1.38-.58,2.05-.95.67-.37,1.27-.75,1.8-1.15.53-.4.8-.87.8-1.4,0-.13-.03-.43-.1-.9-.07-.47-.17-.73-.3-.8l-2.3-.6c-.53-.2-1.03-.32-1.5-.35-.47-.03-.97-.05-1.5-.05h-1.4c-.53,0-.93.04-1.2.1l-2.7.9c-.8.2-1.63.3-2.5.3-.4,0-.83-.02-1.3-.05-.47-.03-.9-.12-1.3-.25-.33-.27-.72-.42-1.15-.45-.43-.03-.82-.05-1.15-.05l-4.9.2-5.3-.3h-1.3c-.47.13-.73.33-.8.6-.07.27-.1.63-.1,1.1,0,.67.2,1.2.6,1.6.4.4.87.73,1.4,1,.53.27,1.12.5,1.75.7.63.2,1.18.4,1.65.6.33.07.67.1,1,.1h1.3c.47,0,.95.27,1.45.8.5.53.95,1.17,1.35,1.9.4.73.72,1.47.95,2.2.23.73.35,1.3.35,1.7,0,1,.03,2.07.1,3.2.07,1.13.27,2.57.6,4.3l-.5,1.5c0,.47.08.93.25,1.4.17.47.25.97.25,1.5l-.5,4.2.1,2.3c.07.07.15.17.25.3.1.13.15.27.15.4l-.8,2.8c0,.33.02.72.05,1.15.03.43.15,1.48.35,3.15l-.3,1.2c-.07,0-.1.17-.1.5,0,.8.12,1.58.35,2.35.23.77.52,1.55.85,2.35v5.8l.2,1.3c-.07.13-.1.23-.1.3-.07.07-.1.13-.1.2v.1c-.07.07-.15.35-.25.85s-.15.92-.15,1.25v.1c0,.53.07,1.12.2,1.75.13.63.27,1.25.4,1.85l-.9,1.8-.3,3.8c.07.13.12.37.15.7.03.33.05.97.05,1.9,0,1.47-.45,2.62-1.35,3.45-.9.83-1.92,1.72-3.05,2.65-1,.07-1.88.3-2.65.7-.77.4-1.25,1.23-1.45,2.5,0,.2.3.4.9.6.6.2,1,.3,1.2.3l4.4-.3,3,.3c1.47,0,2.83-.15,4.1-.45,1.27-.3,2.57-.45,3.9-.45,1.87,0,3.7.37,5.5,1.1,1.8.73,3.57,1.1,5.3,1.1,2.4,0,3.6-1.17,3.6-3.5,0-.46-.18-.71-.55-.75-.37-.03-.85-.48-1.45-1.35,0-.07-.15-.22-.45-.45-.3-.23-.65-.45-1.05-.65-.4-.2-.8-.38-1.2-.55-.4-.17-.7-.25-.9-.25h-1.2c-.73-.07-1.42-.17-2.05-.3-.63-.13-1.2-.35-1.7-.65-.5-.3-.9-.75-1.2-1.35-.3-.6-.45-1.4-.45-2.4l.7-3.2-.7-1.9-.4-3.3-.3-1.7.7-2.2c0-1.33-.05-2.68-.15-4.05-.1-1.37-.18-2.68-.25-3.95-.07-.53-.22-1.12-.45-1.75-.23-.63-.35-1.25-.35-1.85s.25-1.27.75-2c.5-.73,1.12-1.1,1.85-1.1.27,0,.65.02,1.15.05.5.03,1,.1,1.5.2.5.1.95.22,1.35.35.4.13.67.3.8.5l5.4,5.2c.13.73.4,1.33.8,1.8.4.47.87.9,1.4,1.3.53.4,1.07.78,1.6,1.15.53.37.97.78,1.3,1.25.33.73.72,1.5,1.15,2.3.43.8,1.05,1.47,1.85,2,1,.8,2.18,1.63,3.55,2.5,1.37.87,2.25,1.87,2.65,3l1.3,2.2,3.4,3.4c.33.33.57.67.7,1,.13.33.27.65.4.95.13.3.3.62.5.95.2.33.5.7.9,1.1.13.27.47.6,1,1,.53.4,1,.83,1.4,1.3.4.2.63.4.7.6.07.2.13.37.2.5l2.1,2.4c.33.2.88.45,1.65.75.77.3,1.57.57,2.4.8.83.23,1.62.45,2.35.65.73.2,1.27.3,1.6.3.47,0,1.13-.05,2-.15.87-.1,1.37-.15,1.5-.15.67,0,1.2.15,1.6.45.4.3,1.03.45,1.9.45,1.27,0,2.38-.28,3.35-.85.97-.57,1.45-1.58,1.45-3.05,0-1.07-.3-1.82-.9-2.25Z"/>
  <path class="cls-3" d="m379.99,63c-.47,0-.87.22-1.2.65-.33.43-.62.92-.85,1.45-.23.53-.45,1.05-.65,1.55s-.4.82-.6.95c-.33.6-.87,1.33-1.6,2.2-.73.87-1.53,1.75-2.4,2.65-.87.9-1.75,1.77-2.65,2.6-.9.83-1.65,1.45-2.25,1.85l-4.6,1.8c-2.07.2-3.79.32-5.15.35-1.37.03-2.98.05-4.85.05h-3.7l-1.1-.4-4.1-.3c-.8-.07-1.7-.33-2.7-.8-1-.47-1.95-1.07-2.85-1.8-.9-.73-1.67-1.53-2.3-2.4-.63-.87-.98-1.77-1.05-2.7v-5l-.8-8.9v-4.6c.07-.53.2-1.15.4-1.85s.48-1.38.85-2.05c.37-.67.8-1.22,1.3-1.65.5-.43,1.12-.65,1.85-.65.53,0,1.38.07,2.55.2,1.17.13,2.48.3,3.95.5,1.47.2,2.97.47,4.5.8,1.53.33,2.93.68,4.2,1.05,1.27.37,2.32.78,3.15,1.25.83.47,1.28.97,1.35,1.5v1.8l1.6,2.8c.07.33.1.8.1,1.4,0,.67.1,1.3.3,1.9.2.6.8.9,1.8.9s1.68-.37,2.05-1.1c.37-.73.55-1.6.55-2.6,0-.4-.12-.83-.35-1.3-.23-.47-.35-1.03-.35-1.7l.3-2.1c0-.67-.04-1.5-.1-2.5-.07-1-.15-2-.25-3-.1-1-.18-1.88-.25-2.65-.07-.77-.1-1.22-.1-1.35l-.3-1.9.7-.9c.27-.73.45-1.28.55-1.65.1-.37.15-.82.15-1.35v-5.3c-.4-.73-.87-1.1-1.4-1.1-.6,0-1.12.4-1.55,1.2s-.83,1.73-1.2,2.8c-.37,1.07-.68,2.12-.95,3.15-.27,1.03-.53,1.78-.8,2.25-.4.47-1.05,1.02-1.95,1.65-.9.63-1.65,1.02-2.25,1.15-.6.4-1.2.6-1.8.6l-2.3-.1c-.27,0-.53.03-.8.1-.27.07-.5.13-.7.2-.6.27-1.3.4-2.1.4l-9.3-.3c-1.53-1.46-2.48-3.05-2.85-4.75-.37-1.7-.55-3.48-.55-5.35v-2c0-.6.05-1.13.15-1.6.1-.47.32-.9.65-1.3v-6c0-1.73.03-3.42.1-5.05.07-1.63.27-3.12.6-4.45.13-.6.58-1.27,1.35-2,.77-.73,1.42-1.17,1.95-1.3,1.67-.2,3.33-.3,5-.3s3.37.1,5.1.3c.13.13.27.2.4.2.2,0,.33.03.4.1.07.07.23.1.5.1.47,0,1.02.03,1.65.1.63.07,1.28.1,1.95.1.53,0,1.07-.07,1.6-.2.07-.07.27-.1.6-.1.87,0,1.47.3,1.8.9.53.8,1.28,1.23,2.25,1.3.97.07,1.92.3,2.85.7.13.27.37.72.7,1.35.33.63.75,1.35,1.25,2.15s1.02,1.62,1.55,2.45c.53.83,1.07,1.62,1.6,2.35.13.2.27.38.4.55.13.17.37.48.7.95.6,1.33,1.3,2,2.1,2h.9c0-2.73-.2-5.4-.6-8,0-.27-.03-.8-.1-1.6-.07-.8-.15-1.63-.25-2.5-.1-.87-.22-1.7-.35-2.5-.13-.8-.23-1.37-.3-1.7,0-.6-.28-1-.85-1.2-.57-.2-1.05-.3-1.45-.3-.33-.07-.7-.13-1.1-.2-.4-.07-.8-.13-1.2-.2-.47-.07-.93-.13-1.4-.2l-10.4-.5c-.6-.47-1.05-.73-1.35-.8-.3-.07-.72-.1-1.25-.1-.93,0-1.83.15-2.7.45-.87.3-1.7.45-2.5.45h-2.3c-.13-.33-.32-.52-.55-.55-.23-.03-.55-.05-.95-.05s-.7.1-.9.3-.37.3-.5.3c-.6,0-1.04-.1-1.3-.3-.27-.2-.6-.3-1-.3-1.07,0-2.15.28-3.25.85-1.1.57-2.15.85-3.15.85l-3.3-.6c-1.67-.13-3.48-.35-5.45-.65-1.97-.3-3.88-.45-5.75-.45h-1.1c-.2,0-.57.07-1.1.2-.73-.53-1.57-.83-2.5-.9-.93-.07-1.93-.1-3-.1-1.33,0-2.37.12-3.1.35-.73.23-1.1,1.05-1.1,2.45,0,.8.2,1.43.6,1.9.4.47.88.82,1.45,1.05.57.23,1.18.4,1.85.5.67.1,1.27.22,1.8.35.07,0,.17.04.3.1.13.07.27.13.4.2l.4.2h4.2c.33.07.78.29,1.35.65.57.37,1.12.82,1.65,1.35.53.54,1,1.08,1.4,1.65.4.57.6,1.08.6,1.55l.4,6.2-.4,3.4c0,.4.02.73.05,1,.03.27.15.67.35,1.2.2,2.6.3,5.17.3,7.7s-.1,5.13-.3,7.6c.2,0,.45.12.75.35.3.23.45.52.45.85,0,.2-.13.57-.4,1.1-.13.27-.27.5-.4.7,0,.13-.07.33-.2.6l-.2.4c-.2.8-.42,1.87-.65,3.2-.23,1.33-.35,2.4-.35,3.2,0,1.93.1,3.88.3,5.85.2,1.97.57,3.92,1.1,5.85l-.8,1.3c.07.4.12.78.15,1.15.03.37.05.75.05,1.15,0,.47-.02.92-.05,1.35-.03.43-.08.85-.15,1.25-.07.53-.3,1.1-.7,1.7-.4.6-.87,1.15-1.4,1.65-.53.5-1.07.92-1.6,1.25-.53.33-.97.53-1.3.6h-4.7c-.53,0-1.22.05-2.05.15-.83.1-1.63.3-2.4.6-.77.3-1.43.68-2,1.15-.57.47-.85,1.07-.85,1.8,0,.8.23,1.48.7,2.05.47.57,1.03,1.03,1.7,1.4.67.37,1.4.65,2.2.85.8.2,1.5.3,2.1.3,1.13,0,2.3-.25,3.5-.75s2.5-.75,3.9-.75l5.2.3,7.4-.7c3,0,5.92.12,8.75.35,2.83.23,5.65.35,8.45.35l8.9-.7,1.9.4,3.7-.4c.6,0,1.05.12,1.35.35.3.23.82.35,1.55.35l1.2-.3c.33-.07.7-.1,1.1-.1h1.3c1.33,0,2.62-.12,3.85-.35,1.23-.23,2.25-.98,3.05-2.25.2-2.13.57-4.23,1.1-6.3.53-2.07,1.1-4.1,1.7-6.1l1-3.6c0-.33-.1-.68-.3-1.05-.2-.37-.5-.55-.9-.55Z"/>
  <path class="cls-2" d="m473.69,81.65c-.54-.57-1.17-1.05-1.9-1.45-.73-.4-1.52-.75-2.35-1.05-.83-.3-1.55-.65-2.15-1.05-1.33-1-2.63-1.9-3.9-2.7-1.27-.8-2.63-1.73-4.1-2.8-.27-.27-.52-.67-.75-1.2-.23-.53-.45-1.05-.65-1.55-.2-.5-.42-.97-.65-1.4-.23-.43-.48-.71-.75-.85-1.13-.67-2.13-1.5-3-2.5-.87-1-1.73-2-2.6-3-1.53-1.73-2.85-3.55-3.95-5.45-1.1-1.9-2.38-3.78-3.85-5.65-.07-.07-.25-.32-.55-.75s-.63-.92-1-1.45c-.37-.53-.7-1.02-1-1.45-.3-.43-.48-.72-.55-.85-.33-.6-.75-.98-1.25-1.15-.5-.17-.75-.65-.75-1.45,0-.87.27-1.55.8-2.05.53-.5,1.17-.92,1.9-1.25.73-.33,1.46-.68,2.2-1.05.73-.37,1.3-.85,1.7-1.45.8-.8,1.65-1.48,2.55-2.05.9-.57,1.68-1.32,2.35-2.25.4-.6.65-1.48.75-2.65.1-1.17.32-2.15.65-2.95.33-.67.67-1.12,1-1.35.33-.23.5-.78.5-1.65,0-1-.1-1.92-.3-2.75-.2-.83-.33-1.75-.4-2.75-.13-2-.45-3.68-.95-5.05-.5-1.37-1.2-2.57-2.1-3.6-.9-1.03-1.97-1.97-3.2-2.8-1.23-.83-2.62-1.72-4.15-2.65l-1.3-.9c-.8-.53-1.73-.88-2.8-1.05-1.07-.17-2.04-.42-2.9-.75-1.87-.53-3.7-.98-5.5-1.35-1.8-.37-3.67-.55-5.6-.55l-4.9.5-4.8-.5c-1.2,0-2.3.13-3.3.4-1,.27-2.04.4-3.1.4l-5.1-1.1-3.6.3-3.4-.3c-.33,0-.95.05-1.85.15-.9.1-1.82.28-2.75.55-.93.27-1.75.58-2.45.95-.7.37-1.05.82-1.05,1.35,0,.6.27.93.8,1,1.4.33,2.63.68,3.7,1.05,1.07.37,2.05.83,2.95,1.4.9.57,1.75,1.22,2.55,1.95.8.73,1.63,1.6,2.5,2.6v1.2l1,8.8-.3,3.7v1.7l.3,1.5c0,.13-.05.4-.15.8-.1.4-.15.63-.15.7l-.7,3.1.7,3.6c0,.27-.03.47-.1.6-.07.13-.33.27-.8.4-.07.2-.13.72-.2,1.55-.07.83-.1,1.35-.1,1.55v.3l.3,1.3.9,5.6-1.2,10.4c0,.67.08,1.3.25,1.9.17.6.25,1.3.25,2.1v2.5c0,1.13-.05,2.27-.15,3.4-.1,1.13-.32,2.13-.65,3-.07,0-.22.12-.45.35s-.42.38-.55.45c-.13.54-.22,1.2-.25,2-.03.8-.25,1.5-.65,2.1-.4.33-1.15.6-2.25.8-1.1.2-2.23.48-3.4.85-1.17.37-2.2.82-3.1,1.35-.9.53-1.35,1.27-1.35,2.2,0,.4.2.8.6,1.2l9.4.3c.53,0,1.03-.2,1.5-.6.47-.4.93-.6,1.4-.6l4.1.4c.6,0,1.13-.07,1.6-.2.46-.13.93-.2,1.4-.2,1.73.53,3.28.9,4.65,1.1,1.37.2,2.75.43,4.15.7,1.27.2,2.38.52,3.35.95.97.43,2.05.65,3.25.65.47,0,1.03-.1,1.7-.3.67-.2,1.3-.47,1.9-.8.6-.33,1.12-.73,1.55-1.2.43-.47.65-1,.65-1.6,0-1.13-.5-1.88-1.5-2.25-1-.37-2.2-.62-3.6-.75-1.4-.13-2.82-.25-4.25-.35-1.43-.1-2.55-.45-3.35-1.05l-2.7-1.8c-.47-.2-.85-.53-1.15-1-.3-.47-.45-.87-.45-1.2.07-.6.1-1.17.1-1.7v-3.8c0-.6-.03-1.23-.1-1.9l-.1-1.2.5-9.2c-.13-.67-.23-1.18-.3-1.55-.07-.37-.1-.85-.1-1.45,0-.33.07-.62.2-.85.13-.23.2-.62.2-1.15l-.4-2.2c0-.53.2-.98.6-1.35.4-.37.88-.68,1.45-.95.57-.27,1.13-.45,1.7-.55.57-.1,1.05-.15,1.45-.15.93,0,2.12.25,3.55.75,1.43.5,2.82,1.17,4.15,2,1.33.83,2.48,1.78,3.45,2.85.97,1.07,1.48,2.17,1.55,3.3l4.3,4.7,1.3,2.1c.33.73.93,1.48,1.8,2.25.87.77,1.5,1.55,1.9,2.35l.8,2.1c1.27,2.73,2.78,5.3,4.55,7.7,1.77,2.4,3.82,4.57,6.15,6.5l.3.2c.73.54,1.68,1.12,2.85,1.75,1.17.63,2.05,1.02,2.65,1.15,1.53.13,2.87.22,4,.25,1.13.03,2.3.32,3.5.85h8.5c.8,0,1.53-.12,2.2-.35.67-.23,1-.75,1-1.55,0-.87-.27-1.58-.8-2.15Zm-36.25-54.25c-.37,1.07-.85,2.1-1.45,3.1l-1.9,3.6c-.6.73-1.28,1.45-2.05,2.15-.77.7-1.55,1.22-2.35,1.55-.54.2-1.4.43-2.6.7-1.2.27-2.43.55-3.7.85-1.27.3-2.4.68-3.4,1.15-1,.47-1.57,1-1.7,1.6h-2.1c-1.67,0-3.12-.45-4.35-1.35-1.23-.9-1.85-2.22-1.85-3.95l1.2-5.2c-.07-.07-.15-.25-.25-.55-.1-.3-.15-.48-.15-.55,0-.47.13-.7.4-.7v-.8c-.07-.33-.13-.82-.2-1.45-.07-.63-.13-1.02-.2-1.15l-1.2-1.5.8-1.2c.53-2.07,1-4.08,1.4-6.05.4-1.97.6-4.02.6-6.15v-1.6c.07-.13.27-.5.6-1.1.33-.6.57-.97.7-1.1.07-.07.35-.15.85-.25.5-.1,1.03-.2,1.6-.3.57-.1,1.12-.18,1.65-.25.53-.07.87-.1,1-.1,3.87,0,7.23.62,10.1,1.85,2.87,1.23,5.23,3.55,7.1,6.95.07.13.28.37.65.7.37.33.55.57.55.7v.6c0,.13-.02.32-.05.55-.03.23-.18.88-.45,1.95,0,.8.21,1.48.65,2.05.43.57.65,1.15.65,1.75,0,1.27-.18,2.43-.55,3.5Z"/>
</svg>