<?xml version="1.0" encoding="UTF-8"?>
<svg id="Layer_1" data-name="Layer 1" xmlns="http://www.w3.org/2000/svg" viewBox="0 0 128 128">
  <defs>
    <style>
      .cls-1 {
        fill: #fff;
      }

      .cls-1, .cls-2 {
        stroke-width: 0px;
      }

      .cls-2 {
        fill: #f6cb75;
      }
    </style>
  </defs>
  <path class="cls-2" d="m74.16,58.29c1.36,0,2.72-.02,4.08,0,8.43.17,16.71,1.29,24.69,4.15,4.66,1.67,9.05,3.86,12.93,6.97,3.41,2.73,5.91,6.08,6.84,10.46,1.05,4.94-.57,8.44-5.03,10.78-2.94,1.54-6.15,2.23-9.37,2.69-4.51.64-9.06,1.19-13.61,1.39-13.23.59-26.47.47-39.7-.1-7.83-.34-15.66-.73-23.48-1.27-7.54-.52-15.08-1.14-22.47-2.83-1.02-.23-2.04-.64-2.92-1.19-1.51-.95-1.48-2.31.13-3.07,3.12-1.48,6.25-3,9.51-4.13,9.8-3.41,19.99-4.56,30.31-4.81,2.83-.07,5.67-.04,8.51-.04.4,0,.8.07,1.2.11,0,.14,0,.27,0,.41-.78.06-1.56.11-2.34.18-4.97.49-9.96.85-14.91,1.51-3.87.52-7.64,1.57-10.98,3.74-.95.62-1.88,1.32-2.66,2.13-.88.91-.68,1.88.48,2.36,1.08.45,2.24.77,3.39.93,9.72,1.4,19.49,2.13,29.32,1.94.94-.02,1.88-.15,2.82-.21.77-.05,1.12-.49,1.16-1.22.02-.31.02-.63.01-.95-.07-13.04-.14-26.08-.22-39.12,0-1.26-.1-2.52-.14-3.78-.04-1.29.37-1.73,1.62-1.8,3.77-.23,4.01,0,3.97,3.77-.14,13.71-.28,27.42-.42,41.13-.02,2.08-.02,2.06,2.05,2.22,7.52.56,15.04.64,22.55-.06,4.51-.42,9.01-1.02,13.17-3,5.71-2.73,6.42-8.18,1.65-12.4-2.84-2.51-6.28-3.96-9.86-4.9-5.74-1.5-11.56-2.71-17.33-4.09-2.21-.53-4.4-1.19-6.58-1.84-.6-.18-1.17-.48-1.7-.81-.24-.15-.35-.53-.51-.8.27-.1.55-.3.82-.29,1.61.07,3.23.15,4.84.28,9.71.82,19.31,2.32,28.57,5.45,2.9.98,5.65,2.39,8.46,3.6.34.15.69.27,1.22.17-.29-.33-.57-.68-.88-.99-3.38-3.39-7.52-5.53-11.97-7.14-6.64-2.39-13.54-3.5-20.52-4.23-1.84-.19-3.69-.32-5.53-.5-.4-.04-.79-.19-1.18-.28.01-.18.02-.36.04-.54Z"/>
  <path class="cls-1" d="m47.38,103.01c-1.85.27-3.71.5-5.55.82-3.06.52-6.12,1.06-9.16,1.67-.87.18-1.73.55-2.52.98-.43.24-.68.79-1.01,1.2.38.3.72.76,1.15.87,2.62.68,5.25,1.41,7.91,1.88,6.94,1.22,13.94,2.09,21,2.29.2,0,.39.02.59.02,2.3.05,2.54-.25,2.41-2.57-.22-3.85-.39-7.71-.61-11.56-.05-.79.12-1.19,1.01-1.12,1.02.07,2.05.08,3.07.06,1.06-.02,1.4.36,1.33,1.48-.35,6.02-.61,12.04-.9,18.06-.02.42,0,.85,0,1.36.85.08,1.62.18,2.4.21,9.8.37,19.53-.2,29.05-2.75,2.3-.61,4.48-1.67,6.7-2.55.41-.16.75-.49,1.06-.98-5.6,1.36-11.23,2.53-16.96,2.72-5.78.19-11.56.04-17.34.04-.14-1.69.29-2.12,1.85-2.15,5.94-.1,11.9-.06,17.83-.4,5.89-.34,11.56-1.84,16.89-4.47,2.71-1.34,3.59-3.5,2.28-6.24-.68-1.42-1.74-2.66-2.67-4.03,2.26-.46,4.64-.92,7.01-1.42,4.27-.91,6.75.96,7.26,5.36.42,3.69-.86,6.7-3.36,9.32-3.12,3.27-7,5.31-11.15,6.9-6.48,2.48-13.25,3.69-20.1,4.49-9.69,1.13-19.41,1.28-29.14.95-14.16-.48-28.19-1.9-41.81-6.14-1.8-.56-3.61-1.12-5.34-1.86-1.17-.5-2.33-1.19-3.28-2.03-1.99-1.77-1.65-4.04.81-5.08,2.6-1.09,5.28-2.04,7.99-2.84,7.46-2.22,15.07-3.66,22.89-3.61,2.8.02,5.6.31,8.41.47,0,.22.02.44.03.67Zm-14.07,8.61c-.05.24-.09.48-.14.72,9.12,4.56,18.99,5.33,29.11,5.56-.06-.72-.1-1.22-.14-1.72-.11-1.46-.49-1.85-1.94-1.95-1.14-.08-2.28-.13-3.41-.24-6.34-.59-12.68-1.19-19.02-1.81-1.49-.15-2.98-.37-4.47-.56Z"/>
  <path class="cls-1" d="m79.74,47.31c.28-5.01-1.24-9.07-5.15-12-1.14-.86-2.53-1.41-3.85-1.99-.71-.32-1.05-.69-1.02-1.49.13-4.09.21-8.19.35-12.29.05-1.66.28-1.72,1.92-1.78,2.08-.08,4.15-.31,6.22-.53,1.21-.13,2.32.1,3.19.91,6.64,6.17,8.52,17.44,3.36,24.7-1.29,1.82-2.9,3.29-5.01,4.47Z"/>
  <path class="cls-1" d="m48.49,46.76c-3.72-2.48-5.91-5.72-6.66-9.79-1.39-7.58,1.02-13.96,6.61-19.15.59-.55,1.64-.93,2.45-.88,2.27.16,4.52.57,6.77.93.84.13.79.87.81,1.49.11,3.42.22,6.84.3,10.26.03,1.22.41,2.67-.13,3.58-.48.8-2,.96-3.04,1.45-4.35,2.02-6.71,5.42-7,10.22-.03.54-.06,1.08-.11,1.89Z"/>
  <path class="cls-2" d="m81.22,51.44c3.4-2.12,5.92-4.82,7.62-8.26,2.98-6.02,2.63-12.17.3-18.21-1.19-3.09-2.98-5.96-4.59-8.88-.52-.95-.8-1.79-.51-2.89.27-1.04.27-2.16.4-3.41.59.24,1.1.39,1.57.64,4.75,2.57,7.82,6.6,9.46,11.62,3.3,10.09,2.42,19.65-4.37,28.21-1.14,1.44-2.58,2.64-3.9,3.94-.53.52-1.1.71-1.79.21-1.34-.97-2.7-1.9-4.19-2.95Z"/>
  <path class="cls-2" d="m46.78,50.06c-1.49.88-2.87,1.64-4.19,2.5-.73.48-1.22.4-1.86-.17-3.46-3.07-5.79-6.86-7.09-11.24-2.63-8.84-2.02-17.36,3.05-25.28,2.11-3.29,5.03-5.71,8.62-7.3.25-.11.51-.2.77-.28.1-.03.23,0,.42,0,.11,1.56.29,3.11.27,4.66,0,.5-.49,1.04-.86,1.49-3.93,4.84-6.6,10.24-7.31,16.49-.86,7.53,1.5,13.8,7.51,18.57.18.14.36.3.65.55Z"/>
  <path class="cls-1" d="m66.62,28.95c0,3.66-.03,7.32.02,10.98.01,1.05-.39,1.4-1.38,1.37-3.68-.1-3.18.37-3.31-3.1-.23-6.1-.39-12.2-.58-18.3-.01-.43,0-.87,0-1.3-.07-3.17.83-3.63,4.33-3.09,1.12.17,1.6,1.08,1.56,2.57-.09,3.62-.23,7.24-.34,10.86-.1,0-.19,0-.29,0Z"/>
  <path class="cls-1" d="m48.08,66.8c-9.44.15-18.72,1.57-27.93,3.56-1.69.37-3.37.78-5.07,1.1-.38.07-.8-.12-1.21-.19.28-.33.51-.83.86-.95,3.87-1.3,7.71-2.75,11.66-3.76,8.53-2.19,17.29-2.9,26.04-3.62,1.96-.16,3.92-.35,5.89-.47.43-.03.88.17,1.31.26-.19.44-.28.96-.58,1.32-1.67,2.03-3.88,2.84-6.48,2.76-1.49-.05-2.99,0-4.49,0Z"/>
  <path class="cls-1" d="m72.07,81.27c4.3.27,8.4.52,12.5.78l.1-.32c-.46-.2-.9-.47-1.38-.58-3.22-.74-6.44-1.45-9.66-2.17-.55-.12-1.1-.28-1.59-.64,10.34-.53,20.1,1.79,29.57,5.77-1.54,1.06-3.27,1.33-5,1.49-2.77.25-5.48-.07-8.15-.89-4.98-1.54-10.1-2.39-15.28-2.81-.27-.02-.54-.06-.81-.11-.05,0-.07-.12-.3-.51Z"/>
  <path class="cls-1" d="m56.88,81.74c-9.25,1.36-18.18,2.67-27.38,4.02.61-.46,1.02-.84,1.5-1.13,2.61-1.58,5.52-2.25,8.48-2.71,5.15-.8,10.34-.91,15.53-.48.53.04,1.06.16,1.88.29Z"/>
  <path class="cls-1" d="m31.96,61.47c-1.8,1.36-24.21,7.01-26.27,6.52.64-.41,1.23-.98,1.92-1.19,4.39-1.32,8.77-2.74,13.23-3.78,3.35-.78,6.82-1.05,10.24-1.54.29-.04.58,0,.87,0Z"/>
  <path class="cls-2" d="m63.91,4.42c.71,1.89,1.63,3.74,2.03,5.69.21,1.01-.46,2.23-.88,3.29-.08.21-.87.25-1.3.16-.27-.06-.52-.46-.69-.77-.17-.3-.11-.79-.34-.98-1.18-.97-.73-2.06-.37-3.19.44-1.4.85-2.8,1.28-4.21.09,0,.18,0,.27,0Z"/>
  <path class="cls-1" d="m58.29,58.73c-4.68.47-9.32,1.54-14.06,1.15,4.59-1.61,9.31-1.62,14.06-1.15Z"/>
  <path class="cls-2" d="m37.08,60.28c.63-.14,1.26-.35,1.9-.39.27-.02.56.3.85.46-.22.28-.42.78-.67.81-.67.07-1.36-.06-2.04-.11l-.04-.77Z"/>
</svg>