<?xml version="1.0" encoding="UTF-8"?>
<svg id="Layer_1" data-name="Layer 1" xmlns="http://www.w3.org/2000/svg" viewBox="0 0 512 512">
  <defs>
    <style>
      .cls-1 {
        fill: #d4b55a;
        stroke-width: 0px;
      }
    </style>
  </defs>
  <path class="cls-1" d="m256,512c-27.82,0-53.16-6.72-76.02-20.16-22.87-13.44-41.02-31.58-54.45-54.45-13.44-22.86-20.15-48.2-20.15-76.02,0-23.57,4.95-45.61,14.85-66.12,9.9-20.51,23.8-37.94,41.72-52.33,17.91-14.38,38.65-23.92,62.23-28.64v-86.28h-75.67v-37.48h75.67V0h63.65v90.52h75.67v37.48h-75.67v86.28c23.09,4.72,43.6,14.03,61.52,27.93,17.91,13.91,31.94,31.12,42.08,51.62,10.13,20.51,15.2,43.03,15.2,67.54,0,27.82-6.72,53.16-20.16,76.02-13.44,22.87-31.47,41.02-54.1,54.45-22.63,13.44-48.09,20.16-76.37,20.16Zm0-50.92c18.85,0,35.71-4.48,50.56-13.44,14.85-8.95,26.75-20.97,35.72-36.06,8.95-15.08,13.44-31.82,13.44-50.21s-4.49-35.12-13.44-50.21c-8.96-15.08-20.86-27.1-35.72-36.06-14.85-8.95-31.71-13.44-50.56-13.44s-35.13,4.49-50.21,13.44c-15.09,8.96-27.12,20.86-36.07,35.71-8.96,14.85-13.44,31.71-13.44,50.56s4.47,35.13,13.44,50.21c8.95,15.09,20.98,27.12,36.07,36.06,15.08,8.96,31.82,13.44,50.21,13.44Zm0-63.65c-9.9,0-18.38-3.54-25.46-10.61-7.07-7.07-10.61-15.56-10.61-25.46s3.54-18.39,10.61-25.46c7.08-7.07,15.56-10.61,25.46-10.61s18.39,3.54,25.46,10.61c7.07,7.07,10.61,15.56,10.61,25.46s-3.54,18.39-10.61,25.46c-7.07,7.07-15.56,10.61-25.46,10.61Z"/>
</svg>