<?xml version="1.0" encoding="UTF-8"?>
<svg id="Layer_1" data-name="Layer 1" xmlns="http://www.w3.org/2000/svg" viewBox="0 0 383.08 359.28">
  <defs>
    <style>
      .cls-1 {
        fill: #d4b55a;
        stroke-width: 0px;
      }
    </style>
  </defs>
  <path class="cls-1" d="m383.08,336.09v.75h-124.07v-44.97h49.42c-13.75-25.51-27.19-50.46-40.86-75.82-25.44,47.88-50.6,95.23-76.11,143.23-25.54-48.06-50.68-95.38-76.11-143.23-13.74,25.51-27.18,50.45-40.94,76h49.38v44.62H.07c.74-1.49,1.3-2.71,1.93-3.89,28.63-53.92,57.25-107.85,85.96-161.72,1.33-2.5,1.28-4.32-.04-6.78C59.19,110.83,30.56,57.33,1.91,3.85,1.3,2.71.76,1.54,0,0h383.08v.75c-.62.9-1.32,1.76-1.84,2.71-28.84,53.81-57.66,107.63-86.56,161.4-1.18,2.19-.99,3.74.09,5.79,28.86,54.22,57.66,108.47,86.48,162.71.51.96,1.21,1.82,1.83,2.73ZM191.52,74.99c-.73,1.16-1.09,1.66-1.38,2.2-16.25,30.14-32.47,60.29-48.78,90.39-1.14,2.1-.72,3.63.27,5.51,16.05,30.38,32.06,60.78,48.08,91.18.48.91,1.09,1.76,1.81,2.91.58-.95.93-1.46,1.21-2,16.25-30.84,32.46-61.7,48.79-92.49,1.21-2.28.62-3.87-.44-5.83-15.09-27.93-30.13-55.89-45.19-83.84-1.34-2.49-2.71-4.98-4.37-8.02Zm-117.3-29.99c13.44,25.51,26.56,50.42,40.03,76,13.52-25.68,26.68-50.67,40.01-76h-80.04Zm194.44,76c13.56-25.76,26.68-50.7,39.93-75.87h-79.9c13.34,25.32,26.48,50.27,39.97,75.87Z"/>
</svg>