<?xml version="1.0" encoding="UTF-8"?>
<svg id="Layer_1" data-name="Layer 1" xmlns="http://www.w3.org/2000/svg" viewBox="0 0 756.9 854.63">
  <defs>
    <style>
      .cls-1 {
        fill: #d4b55a;
        stroke: #d4b55a;
        stroke-miterlimit: 10;
        stroke-width: 15.52px;
      }
    </style>
  </defs>
  <path class="cls-1" d="m8.81,634.12c2.09-10.29,3.42-20.82,6.41-30.84,16.4-55.07,54.15-86.54,110.04-95.79,56.09-9.28,108.28,5.08,157.37,31.26,22.76,12.14,43.95,27.24,65.63,40.86v-163.09h-8c-55.96,0-111.92,0-167.88,0-19.17,0-28.47,7.72-30.48,26.77-.69,6.5-3.12,8.17-8.97,7.71-4.77-.38-9.6-.2-14.4-.05-4.21.13-6.03-1.46-6.01-5.89.11-38.19.1-76.37,0-114.56-.01-4.34,1.56-6.26,5.88-5.95,1.43.1,2.88-.02,4.32.02,5.51.14,12.21-1.54,16.14,1.02,3.19,2.09,2.98,9.29,4.41,14.19,3.64,12.48,12.42,19.09,25.42,19.09,57.64.02,115.28,0,172.92,0,2.13,0,4.25,0,6.83,0v-92.23h-20.88c-24.98,0-49.98.67-74.93-.21-20.92-.74-28.82,12.48-29.99,26.71-.57,6.99-3.46,8.07-9.47,8.01-19.91-.21-19.91-.03-19.91-20.12,0-32.9.14-65.81-.12-98.71-.05-6.08,1.94-8.17,7.85-7.73,5.26.39,10.62-.36,15.81.32,1.97.26,4.47,2.81,5.22,4.86,1.8,4.9,2.07,10.38,4.1,15.15,3.54,8.33,10.22,13.82,19.39,13.91,34.09.33,68.18.13,103.38.13,0-2.77,0-5.29,0-7.81,0-27.38,0-54.76,0-82.14,0-19.23-7.65-28.47-26.71-30.54-6.44-.7-7.83-3.03-7.78-8.93.18-20.42-.01-20.42,20.31-20.42,32.66,0,65.33.14,97.99-.13,6.2-.05,9.14,1.61,8.2,8.06-.1.71,0,1.44-.02,2.16-.15,5.5,1.53,12.2-1.04,16.14-2.08,3.2-9.27,3.02-14.16,4.44-12.53,3.64-19.14,12.37-19.15,25.37-.02,30.95,0,61.9,0,93.82h8.03c29.3,0,58.6,0,87.9,0,18.76,0,27.9-7.06,30.04-25.5.93-7.98,4.12-9.55,10.89-8.88,3.81.37,7.7.34,11.52,0,5.75-.51,7.39,1.88,7.35,7.48-.21,34.58-.11,69.17-.11,103.75q0,15.12-15.4,15.12c-1.92,0-3.86-.17-5.76.03-5.26.56-7.1-1.28-8.27-6.91-1.5-7.23-4.46-14.77-8.88-20.58-2.86-3.76-9.45-6.48-14.41-6.56-33.61-.53-67.24-.23-100.86-.18-.43,0-.85.31-1.66.62v91.48h8.18c55.96,0,111.92,0,167.88,0,19.24,0,28.37-7.56,30.51-26.73.72-6.48,3.14-7.76,8.98-7.71,20.39.18,20.4,0,20.4,20.32,0,32.66-.15,65.33.13,97.99.05,6.31-1.79,9.03-8.14,8.11-.71-.1-1.44,0-2.16-.02-5.51-.15-12.21,1.53-16.14-1.03-3.2-2.09-2.99-9.3-4.42-14.2-3.67-12.58-12.3-19.07-25.41-19.08-57.64-.02-115.28,0-172.92,0-2.12,0-4.24,0-6.82,0v165.74c2.78-2.14,5.11-3.92,7.43-5.71,44.51-34.45,93.32-59.63,149.49-68.46,30.22-4.75,60.46-4.5,89.73,5.43,54.77,18.58,83.94,58.17,91.49,114.56,3.79,28.29,1.48,56.24-9.04,82.89-19.23,48.68-56.52,74.7-107.19,83.07-7.78,1.29-15.67,1.96-23.5,2.91h-12.97c-12.56-1.69-25.24-2.74-37.65-5.17-52.89-10.34-99.2-34.7-141.17-67.79-12.35-9.74-23.98-20.41-35.85-30.57-10.79,9.39-21.16,19-32.14,27.87-42.35,34.2-89.18,59.54-142.94,70.69-9.79,2.03-19.73,3.33-29.6,4.97h-34.59c-2.29-.49-4.55-1.2-6.87-1.44-56.95-5.92-101.13-42.41-116.43-96.72-2.9-10.29-4.3-21.01-6.4-31.53,0-11.05,0-22.1,0-33.14Zm329.14,16.76c-21.36-24-62.27-52.95-97.26-68.56-32.22-14.37-65.61-22.69-101.34-18.88-35.53,3.79-60.57,23.91-69.16,56.77-5.32,20.35-5.29,40.92-.13,61.29,6.72,26.52,23.14,44.66,49.51,52.18,11.84,3.38,24.49,5.2,36.8,5.36,30.77.4,59.64-8.36,87.32-21.27,35.4-16.5,66.32-39.28,94.25-66.89Zm79.39-.4c31.46,30.74,65.7,55.33,105.54,71.67,29.23,11.99,59.36,18.52,91.2,15.79,36.78-3.15,62.72-23.44,71.3-56.83,5.16-20.1,5.09-40.41-.08-60.52-6.66-25.91-22.79-43.17-48.2-51.82-18.84-6.42-38.24-7.19-57.6-4.59-64.39,8.63-115.64,42.2-162.16,86.3Z"/>
</svg>